# Blender v2.93.1 OBJ File: ''
# www.blender.org
mtllib bf_rail_piston_corner_2.mtl
o Cube.005_Cube.000
v -1.162549 0.444888 -0.320000
v -1.125466 0.319443 0.320000
v -1.125466 0.319443 -0.320000
v -0.554756 -0.163480 -0.320000
v -0.689325 -0.122081 -0.320000
v -0.689325 -0.122081 0.320000
v -1.162549 0.444888 0.320000
v -0.554756 -0.163480 0.320000
v 0.070283 0.150461 -0.085000
v -0.089509 0.442598 -0.060000
v 0.070283 0.150461 -0.060000
v 0.124902 -0.501575 0.500000
v 0.124902 -0.501575 0.400000
v 0.114630 -0.342531 0.400000
v -0.867977 -0.276537 0.384776
v -1.132021 -0.200000 0.400000
v -0.867977 -0.200000 0.400000
v 0.499902 1.500000 0.500000
v 0.499902 1.500000 0.400000
v 0.499902 -0.501936 0.400000
v -1.499995 0.800000 -0.250000
v -0.580850 0.419147 -0.250000
v -0.298007 0.701990 -0.250000
v 0.200000 -0.500000 -0.085000
v 0.163891 -0.169248 -0.060000
v 0.200000 -0.500000 -0.060000
v -0.391641 -0.040919 0.150000
v -0.326625 -0.266176 -0.125000
v -0.326625 -0.266176 0.150000
v -1.384776 -0.132022 -0.276536
v -1.327279 -0.152022 -0.327279
v -1.341421 -0.132022 -0.341421
v -0.651561 0.348437 -0.400000
v 0.300000 -0.500000 -0.400000
v -0.300000 -0.500000 -0.400000
v 0.504389 -0.343766 -0.400000
v 0.390888 -0.351519 -0.500000
v 0.400000 -0.499999 -0.400000
v -0.003230 0.300214 0.200000
v 0.107237 0.165772 0.180000
v 0.162668 0.188738 0.150000
v -0.506403 -0.421291 -0.400000
v -0.400000 -0.500000 -0.400000
v -0.406704 -0.413539 -0.500000
v -1.149372 1.264445 -0.125000
v -1.499993 1.302500 -0.125000
v -1.499993 1.300000 0.150000
v -0.299255 -0.002643 -0.060000
v -0.228521 -0.246790 -0.060000
v -0.393950 -0.041876 -0.010000
v -0.400000 -0.500000 -0.300000
v -0.506403 -0.421291 -0.200000
v -0.500000 -0.500000 -0.200000
v -1.152023 -0.152022 0.380000
v -1.152021 -0.200000 0.380000
v -1.152021 -0.200000 0.320000
v -1.310865 -0.152022 0.245922
v -1.320000 0.152022 0.200000
v -1.320000 -0.152022 0.200000
v 0.400000 -0.499999 -0.300000
v 0.504389 -0.343766 -0.200000
v -0.580850 0.419147 -0.060000
v -0.779839 0.578043 -0.060000
v -0.779839 0.578042 -0.085000
v -0.802083 0.544798 0.400000
v -0.802083 0.544798 0.180000
v -0.677097 0.502938 0.200000
v -1.400000 -0.132023 -0.200000
v -1.366298 -0.152022 -0.268883
v -0.004320 0.499599 -0.010000
v 0.164978 0.189695 -0.010000
v -1.499995 0.700000 -0.400000
v -0.227296 0.772700 -0.400000
v -1.327278 0.152022 0.327280
v -1.384775 0.132022 0.276537
v -1.366298 0.152022 0.268883
v -1.499993 1.302500 -0.085000
v -1.499993 1.302500 -0.010000
v -1.499994 1.200000 -0.060000
v 0.400000 -0.500000 0.300000
v 0.504389 -0.343766 0.400000
v 0.504389 -0.343766 0.200000
v -0.847977 -0.245922 0.310866
v -1.152022 -0.284853 0.284853
v -0.847977 -0.284853 0.284853
v -0.867978 -0.384776 -0.276536
v -1.132022 -0.400000 -0.200000
v -0.867978 -0.400000 -0.200000
v -1.499994 1.200000 -0.250000
v -1.499993 1.300000 -0.400000
v 0.090313 -0.183787 -0.125000
v 0.125000 -0.500000 0.125000
v 0.090374 -0.183775 0.125000
v -0.852769 0.710045 0.500000
v -0.973637 0.769883 0.500000
v -0.852769 0.710045 0.400000
v -0.245340 0.528520 0.400000
v -0.350518 0.648367 0.500000
v -0.245340 0.528520 0.500000
v -0.847978 -0.284853 -0.284853
v -0.847978 -0.245922 -0.310865
v -0.847978 -0.268883 -0.366298
v -1.320000 0.152022 -0.200000
v -1.310865 -0.152022 -0.245922
v -1.320000 -0.152022 -0.200000
v -1.499995 0.874750 0.125000
v -1.232247 0.845055 -0.125000
v -1.499995 0.875000 -0.125000
v -1.152022 -0.268883 0.366299
v -1.152022 -0.327279 0.327279
v -1.101356 0.813066 0.400001
v -0.973637 0.769883 0.400000
v -1.101356 0.813066 0.500001
v -0.470288 0.753622 0.400000
v -0.598615 0.847827 0.400000
v -0.470288 0.753622 0.500000
v 0.163891 -0.169248 -0.085000
v 0.390888 0.783733 -0.500000
v -1.380000 -0.152022 -0.200000
v 0.001110 0.121802 0.125000
v -0.151843 0.400891 -0.125000
v 0.000995 0.121754 -0.125000
v 0.500000 -0.499999 0.200000
v 0.264446 -0.149378 -0.125000
v 0.261993 -0.149863 0.150000
v -0.506403 -0.421291 0.200000
v -0.400000 -0.500000 0.300000
v -0.500000 -0.500000 0.200000
v 0.500000 -0.499999 -0.200000
v -0.507144 0.163157 -0.010000
v -0.653328 0.346669 -0.010000
v -0.421955 0.220158 -0.060000
v -0.300000 -0.500000 -0.125000
v -0.300000 -0.500000 0.150000
v -0.576410 -0.117472 0.400000
v -0.530108 -0.266501 -0.400000
v -0.576410 -0.117472 -0.400000
v -1.132023 -0.132022 0.400000
v -1.200000 0.132021 0.400000
v -1.132022 0.132022 0.400000
v -1.266498 0.469892 -0.400000
v -1.117468 0.423589 0.400000
v -1.117468 0.423589 -0.400000
v -0.734733 0.930426 0.500000
v -0.734733 0.930426 0.400000
v -0.877890 1.000822 0.500001
v -0.203146 1.504388 -0.400000
v -0.216263 1.390885 -0.500000
v 0.348513 1.390884 -0.500000
v -0.225528 0.774468 -0.125000
v -0.351040 0.648957 -0.125000
v -0.599105 0.848154 -0.125000
v -0.056265 0.464842 0.400000
v -0.187968 0.576794 0.200000
v -0.187968 0.576794 0.400000
v 0.302500 -0.500000 -0.085000
v 0.302500 -0.500000 -0.010000
v -1.132022 -0.341421 0.341422
v -0.867978 -0.384776 0.276537
v -1.132022 -0.384776 0.276537
v -1.132022 -0.400000 0.200000
v -1.132022 -0.400000 0.132023
v -1.152022 -0.380000 0.200000
v -0.867977 -0.132021 -0.500000
v -0.867978 0.132023 -0.400000
v -0.867977 0.132023 -0.499999
v -1.341421 -0.132022 0.341422
v -1.276536 0.132022 0.384776
v -1.276536 -0.132023 0.384776
v -0.351040 0.648957 0.125000
v -0.599070 0.848206 0.125000
v -1.266657 0.670923 -0.010000
v -1.499995 0.697500 -0.010000
v -1.246786 0.771478 -0.060000
v -1.327279 0.152022 -0.327279
v -1.384775 0.132022 -0.276536
v -1.341421 0.132022 -0.341421
v -0.847978 -0.366298 -0.268883
v 0.302500 -0.500000 -0.125000
v -1.149857 1.261993 0.150000
v -0.609134 0.390863 0.400000
v -0.497060 0.322900 0.200000
v -0.497060 0.322900 0.400000
v 0.164978 0.189695 -0.125000
v -0.006398 0.498208 0.150000
v -0.228522 -0.246791 -0.125000
v -0.299256 -0.002643 -0.085000
v -0.299256 -0.002643 -0.125000
v 0.070283 0.150461 -0.125000
v -0.089509 0.442598 -0.085000
v -1.351512 1.390889 -0.499999
v -1.413535 0.593296 -0.500000
v -1.499995 0.800000 -0.060000
v -1.500000 -0.132022 -0.132023
v -1.400000 -0.132022 0.132023
v -1.400000 -0.132022 -0.132023
v -1.499995 0.760000 0.180000
v -1.499995 0.700000 0.400000
v -1.499995 0.700000 0.150000
v -1.499993 1.240000 0.180000
v -1.333785 1.189175 0.200000
v -0.738270 0.640168 0.125000
v -0.527817 0.472180 -0.125000
v -0.738131 0.640376 -0.125000
v -1.343760 1.504388 -0.400000
v -1.343760 1.504388 -0.200000
v -1.499993 1.400000 -0.300000
v -0.665967 0.212105 -0.500000
v 0.504163 1.404122 0.400000
v 0.393873 1.504163 -0.400000
v 0.504163 1.404122 -0.400000
v -0.230198 0.025968 0.125000
v -0.154944 -0.232251 -0.125000
v -0.229967 0.026064 -0.125000
v 0.052842 -0.030405 0.500000
v 0.052842 -0.030405 0.400000
v 0.001381 0.120635 0.500000
v -1.183594 1.090275 0.400001
v -1.500000 1.500000 0.400001
v -1.500000 1.125000 0.400001
v 0.125000 -0.500000 -0.125000
v -1.152022 -0.152021 -0.320000
v -1.200000 -0.152022 -0.320000
v -1.199999 0.152023 -0.320000
v -0.298007 0.701990 -0.060000
v -0.298007 0.701990 -0.085000
v -1.266498 0.469892 0.400000
v -0.484025 -0.079196 -0.500000
v -0.057826 0.731878 -0.500000
v -1.268883 -0.152023 0.366299
v -1.200000 -0.152022 0.380000
v -1.200000 -0.152022 0.320000
v -0.677458 0.074425 -0.320000
v -0.815802 0.079869 -0.320000
v -0.767937 0.016982 -0.320000
v -0.867978 -0.132022 -0.400000
v -1.500000 0.875000 0.500001
v -1.500001 0.875000 0.400001
v -1.365185 0.865698 0.400001
v -1.079192 0.515974 -0.500000
v -0.355896 0.111465 0.200000
v -0.455200 0.197913 0.400000
v -0.455200 0.197913 0.180000
v -0.162972 0.837024 -0.500000
v -0.268118 0.942171 -0.500000
v -1.200000 -0.152022 -0.380000
v -1.268883 -0.152022 -0.366298
v -1.017950 0.663789 0.400000
v -1.123310 0.741360 0.200000
v -1.017950 0.663789 0.180000
v -0.692748 0.086176 -0.400000
v -0.792982 0.207015 0.400000
v -0.692748 0.086176 0.400000
v -1.254540 0.732237 0.400000
v -1.123310 0.741360 0.400000
v -0.527993 0.472004 0.125000
v -0.359621 0.261865 -0.125000
v -1.149372 1.264445 -0.010000
v -0.878240 1.000993 -0.125000
v -0.649191 0.020906 -0.400000
v -1.499993 1.240000 0.400000
v -0.391641 -0.040919 -0.125000
v -1.183594 1.090275 0.500001
v -1.028907 1.052338 0.500001
v -1.499993 1.400000 -0.400000
v -0.926783 0.436035 -0.500000
v -0.979090 0.350807 -0.400000
v -1.421288 0.493597 -0.400000
v -1.499995 0.600000 -0.400000
v -1.246786 0.771478 -0.085000
v -1.002639 0.700743 -0.125000
v -1.002639 0.700743 -0.085000
v -0.535153 0.943732 0.400000
v -0.423202 0.812029 0.200000
v -0.535153 0.943732 0.180000
v -0.089509 0.442598 -0.125000
v -0.298007 0.701990 -0.125000
v 0.499902 -0.501936 0.500000
v 0.090583 -0.185144 0.500000
v -0.847978 -0.152022 -0.320000
v -1.152022 0.152024 -0.320000
v -0.699781 0.996768 0.200000
v -0.699781 0.996768 0.400000
v -0.125000 -0.500000 -0.125000
v -1.372527 0.791056 0.200000
v -1.254540 0.732237 0.180000
v -1.499995 0.760000 0.400000
v -1.372527 0.791056 0.400000
v -1.499994 1.200000 -0.085000
v -1.284853 -0.152022 -0.284852
v -1.028907 1.052338 0.400001
v -0.267763 -0.254545 0.400000
v -0.208944 -0.372531 0.200000
v -0.208944 -0.372531 0.400000
v -1.161488 1.203131 0.400000
v -1.007462 1.124217 0.200000
v -1.161488 1.203131 0.180000
v -1.002639 0.700743 -0.060000
v -1.169243 1.163890 -0.060000
v -1.499995 0.600000 0.300000
v -1.421288 0.493597 0.200000
v -1.499996 0.500000 0.200000
v -1.343760 1.504388 0.200000
v -1.499993 1.400000 0.300000
v -1.499993 1.500000 0.200000
v -1.499993 1.500000 -0.200000
v -1.421288 0.493597 -0.200000
v -1.499995 0.600000 -0.300000
v -1.499996 0.500000 -0.200000
v -0.004320 0.499599 -0.125000
v -0.580850 0.419147 -0.085000
v -0.421955 0.220157 -0.085000
v 0.264446 -0.149378 -0.010000
v -1.040915 0.608358 -0.125000
v -0.835449 0.494931 -0.125000
v -0.792982 0.207016 -0.400000
v -0.501787 0.993599 0.150000
v -0.227296 0.772700 0.150000
v -0.506403 -0.421291 0.400000
v -0.400000 -0.500000 0.400000
v -1.200000 -0.132022 0.400000
v -0.973932 0.770031 -0.125000
v -1.232295 0.844810 0.125000
v -0.974027 0.769800 0.125000
v -0.500396 0.995677 -0.125000
v -0.810300 1.164975 -0.125000
v -0.811257 1.162666 0.150000
v -1.152022 0.152022 0.320000
v -1.152022 -0.152022 0.320000
v -0.847978 -0.152022 0.320000
v -0.350518 0.648367 0.400000
v -1.243258 0.567154 -0.500000
v -0.888531 0.644102 0.200000
v -1.245922 -0.152022 -0.310865
v -1.310865 0.152022 -0.245922
v -0.151295 0.400071 0.500000
v -0.151295 0.400071 0.400000
v -1.132022 -0.276537 0.384776
v -1.232088 0.845023 0.400001
v -0.269723 0.730274 0.180000
v -1.499994 1.200000 -0.125000
v -1.400000 0.132022 0.200000
v -1.384776 -0.132023 0.276537
v -0.151687 0.400995 0.125000
v -0.350863 0.649134 0.125000
v -1.232088 0.845023 0.500001
v -1.499995 0.700000 -0.125000
v -0.359829 0.261726 0.125000
v -0.737717 0.640100 0.400000
v -1.366298 -0.152022 0.268883
v -1.284852 -0.152023 0.284853
v -1.169243 1.163890 -0.085000
v -0.849533 1.070281 -0.060000
v -0.849533 1.070281 -0.085000
v -0.867978 -0.132022 0.400000
v -0.557397 0.910488 -0.085000
v -0.557397 0.910488 -0.060000
v -1.152023 -0.152021 -0.380000
v -1.183746 1.090496 0.125000
v -1.499994 1.125000 -0.125000
v -1.183782 1.090312 -0.125000
v -1.169243 1.163890 -0.125000
v -1.132022 0.500000 0.400000
v -1.152022 0.152022 0.380000
v -1.499995 0.800000 -0.085000
v -1.246786 0.771478 -0.125000
v -0.867977 -0.400000 0.200000
v -0.867977 -0.400000 0.132023
v 0.504389 0.796850 -0.400000
v -1.152022 -0.199999 -0.380000
v -1.152022 -0.199999 -0.320000
v -1.152022 -0.245922 -0.310865
v 0.400000 -0.500000 0.400000
v -1.499995 0.600000 0.400000
v -0.336210 -0.017954 0.400000
v -0.336210 -0.017954 0.180000
v -0.988065 0.239764 -0.320000
v -0.056265 0.464842 0.180000
v -1.499995 0.697500 -0.085000
v -0.854940 0.268164 0.320000
v -0.925896 0.191348 0.320000
v -0.988065 0.239763 0.320000
v -0.421955 0.220157 -0.125000
v -0.563962 0.073213 -0.500000
v -1.266172 0.673375 -0.125000
v -0.598615 0.847827 0.500000
v -1.132022 -0.341421 -0.341421
v -1.132022 -0.384776 -0.276536
v -1.327279 -0.152022 0.327280
v -1.245921 -0.152022 0.310866
v -1.380000 0.152022 0.200000
v -0.877890 1.000822 0.400000
v -1.132023 -0.132021 -0.499999
v -0.867977 -0.341422 0.341421
v -1.266172 0.673375 0.150000
v -0.557397 0.910488 -0.125000
v -0.258639 -0.123314 0.400000
v -0.258639 -0.123314 0.200000
v -1.500000 1.500000 0.500001
v -1.340957 1.114521 0.500001
v -1.500000 1.125000 0.500001
v 0.107237 0.165772 0.400000
v -0.003230 0.300214 0.400000
v 0.300000 -0.500000 0.150000
v -1.365184 0.865698 0.500001
v -0.300000 -0.500000 0.400000
v -0.849533 1.070281 -0.125000
v -1.499995 -0.501334 0.500001
v -0.580850 0.419147 -0.125000
v -0.225528 0.774468 -0.010000
v -1.268882 0.152022 0.366299
v -1.245921 0.152022 0.310866
v -0.867978 -0.341421 -0.341421
v -0.847978 -0.327279 -0.327279
v -0.500000 -0.132023 -0.400000
v -0.835449 0.494931 0.150000
v -0.651561 0.348437 0.150000
v -0.200000 -0.500000 -0.085000
v -0.200000 -0.500000 -0.125000
v -0.834222 1.107235 0.400000
v -1.007462 1.124217 0.400000
v -0.267763 -0.254545 0.180000
v -0.847978 -0.380000 -0.200000
v 0.124218 -0.007467 0.400000
v 0.124218 -0.007467 0.200000
v -1.152022 -0.310865 0.245922
v -0.847977 -0.310866 0.245922
v -0.913821 0.307251 -0.400000
v -0.979090 0.350807 0.400000
v -0.913821 0.307251 0.400000
v -1.380000 -0.152022 0.200000
v 0.203132 -0.161494 0.400000
v 0.203132 -0.161494 0.180000
v -0.355896 0.111465 0.400000
v -1.499993 1.300000 0.400000
v -1.152022 -0.245922 0.310866
v -0.500396 0.995677 -0.010000
v -1.400000 0.132022 -0.200000
v -0.200000 -0.500000 -0.060000
v -0.228522 -0.246791 -0.085000
v -1.200000 -0.132022 -0.400000
v -1.199999 0.132023 -0.400000
v -1.276536 0.132022 -0.384775
v -0.302500 -0.500000 -0.085000
v -1.132023 -0.199999 -0.400000
v -1.132023 -0.132021 -0.400000
v -0.530108 -0.266501 0.400000
v -1.152022 -0.284852 -0.284853
v -1.152022 -0.380000 -0.200000
v -1.152022 -0.320000 -0.200000
v 0.163891 -0.169248 -0.125000
v -1.343760 1.504388 0.400000
v -1.152022 -0.366298 0.268883
v -1.400000 0.132022 0.132023
v -1.500000 -0.132022 0.132023
v -0.500000 -0.152023 -0.380000
v -0.847978 -0.152022 -0.380000
v -0.289369 0.146032 0.400000
v -0.229651 0.025115 0.400000
v -0.229651 0.025115 0.500000
v -0.359158 0.261172 0.500000
v -0.359158 0.261172 0.400000
v -0.867978 -0.499999 0.132023
v -1.079176 0.410492 -0.320000
v -1.041872 0.606049 -0.010000
v -0.810300 1.164975 -0.010000
v -1.200000 0.152021 0.380000
v -0.737717 0.640100 0.500000
v -0.289369 0.146032 0.500000
v 0.390888 1.348509 -0.500000
v 0.390889 1.390884 -0.500000
v -0.847978 -0.200000 -0.320000
v -0.878193 1.001108 0.125000
v 0.200000 -0.500000 -0.250000
v -0.200000 -0.500000 -0.250000
v -1.132023 0.132024 -0.499999
v -0.867978 -0.276537 -0.384776
v -0.787893 0.334030 -0.500000
v -1.200000 0.152021 0.320000
v -1.152022 0.500001 -0.380000
v -1.152022 0.152024 -0.380000
v -1.152022 0.500000 0.380000
v -0.134216 -0.366520 0.400000
v -0.125098 -0.501334 0.400000
v -0.125098 -0.501334 0.500000
v -1.310865 0.152022 0.245922
v -1.380000 0.152022 -0.200000
v -0.847977 -0.327280 0.327279
v -0.847977 -0.366298 0.268883
v -0.329077 -0.266661 -0.010000
v -0.651561 0.348437 -0.125000
v -0.847978 -0.200000 0.320000
v -1.132023 0.132024 -0.400000
v -1.132023 0.500002 -0.400000
v -1.268883 0.152022 -0.366298
v -1.200000 0.152023 -0.380000
v -1.040915 0.608358 0.150000
v -1.400000 -0.132022 0.200000
v -0.847977 -0.268883 0.366298
v -1.341421 0.132022 0.341422
v 0.393873 1.504163 0.400000
v 0.001381 0.120635 0.400000
v -1.152022 -0.320000 0.200000
v -1.284852 0.152022 0.284853
v -0.731238 0.144299 0.320000
v -0.815802 0.079869 0.320000
v -0.500000 -0.152023 0.320000
v -0.673989 0.326011 0.320000
v -1.343239 0.485209 -0.400000
v -1.132022 -0.276536 -0.384776
v -1.132022 -0.400000 -0.132023
v -0.423202 0.812029 0.400000
v -0.847978 -0.310865 -0.245922
v -1.152022 -0.310865 -0.245922
v -0.677097 0.502938 0.400000
v -0.847978 -0.199999 -0.380000
v -1.500000 0.132022 0.132023
v -0.500000 -0.152023 -0.320000
v -1.132022 -0.499999 0.132023
v -0.154716 -0.233398 0.400000
v -0.154716 -0.233398 0.500000
v -0.186501 -0.102619 0.500000
v -0.847978 -0.200000 0.380000
v -0.505066 0.164547 -0.125000
v -1.276536 -0.132022 -0.384775
v -0.155189 -0.232300 0.125000
v -0.847977 -0.320000 0.200000
v 0.240000 -0.500000 0.180000
v 0.300000 -0.500000 0.400000
v 0.090583 -0.185144 0.400000
v -0.867978 -0.400000 -0.132023
v -0.186501 -0.102619 0.400000
v -0.867978 -0.199999 -0.400000
v 0.189175 -0.333791 0.200000
v -0.134216 -0.366520 0.500000
v -1.333785 1.189175 0.400000
v -1.132022 -0.499999 -0.132023
v -0.867978 -0.500000 -0.132023
v -0.438609 0.369942 0.500000
v -0.505066 0.164547 0.150000
v -1.499994 1.125250 0.125000
v -0.302500 -0.500000 -0.010000
v -0.438609 0.369942 0.400000
v -0.731238 0.144299 -0.320000
v -0.854940 0.268164 -0.320000
v -0.925896 0.191348 -0.320000
v -0.125250 -0.500000 0.125000
v -0.767937 0.016982 0.320000
v -0.677458 0.074425 0.320000
v -0.500000 -0.132023 0.400000
v -0.500000 -0.152023 0.380000
v -0.847978 -0.152022 0.380000
v -1.499995 0.800000 -0.125000
v -0.527381 0.471676 0.500000
v -0.527381 0.471676 0.400000
v -1.245921 0.152022 -0.310865
v -1.152022 -0.366298 -0.268883
v -1.152022 -0.268883 -0.366298
v -1.152022 -0.327279 -0.327279
v -0.629054 0.560507 0.500000
v -0.847977 -0.380000 0.200000
v -0.629054 0.560507 0.400000
v -1.284852 0.152022 -0.284852
v -0.847978 -0.320000 -0.200000
v -1.343239 0.485209 0.400000
v 0.200000 -0.500000 -0.125000
v -0.240000 -0.500000 0.180000
v -0.240000 -0.500000 0.400000
v -0.589130 -0.080090 -0.320000
v -0.924792 0.321960 -0.320000
v -1.499993 1.400000 0.400000
v -0.269722 0.730274 0.400000
v -1.499995 -0.501334 0.400000
v -0.589129 -0.080090 0.320000
v -1.421288 0.493597 0.400000
v -0.609134 0.390863 0.180000
v -0.834222 1.107235 0.180000
v -1.366298 0.152022 -0.268883
v -0.683989 0.316011 -0.400000
v -0.836839 0.492854 -0.010000
v -0.924792 0.321959 0.320000
v -0.779839 0.578042 -0.125000
v -1.079176 0.410492 0.320000
v -0.673989 0.326011 -0.320000
v -1.152022 0.500001 -0.320000
v -0.068872 0.263852 0.400000
v -0.888531 0.644102 0.400000
v -1.152022 0.500000 0.320000
v -0.068872 0.263852 0.500000
v -1.400000 0.132023 -0.132023
v -1.500000 0.132023 -0.132023
v 0.240000 -0.500000 0.400000
v 0.189175 -0.333791 0.400000
v -1.132021 1.499999 0.132023
v -1.132021 1.499999 -0.132022
v -0.999999 1.599999 0.000000
v -0.867977 1.499999 0.132023
v -0.867977 1.499999 -0.132023
v -1.000000 -0.599999 -0.000000
v -1.000000 0.000001 -0.599999
v -1.600000 0.000000 0.000000
v -1.499999 0.867978 0.132023
v -1.499999 0.867978 -0.132023
v -1.599999 1.000000 0.000000
v -1.499999 1.132023 0.132023
v -1.499999 1.132023 -0.132023
v 0.132022 -0.500001 0.132022
v 0.132022 -0.500001 -0.132023
v 0.000000 -0.600001 -0.000000
v -0.132023 -0.500001 0.132023
v -0.132023 -0.500001 -0.132023
v -0.132022 1.499998 0.132023
v -0.132022 1.499998 -0.132023
v 0.000000 1.599998 0.000000
v 0.132023 1.499998 0.132023
v 0.132023 1.499998 -0.132023
v 0.500000 1.132021 0.132022
v 0.500000 1.132021 -0.132023
v 0.600000 0.999998 0.000000
v 0.500000 0.867976 0.132023
v 0.500000 0.867976 -0.132023
v 0.499999 0.132021 0.132022
v 0.500000 0.132021 -0.132023
v 0.599999 -0.000002 -0.000000
v 0.500000 -0.132024 0.132022
v 0.500000 -0.132024 -0.132023
v 0.000000 0.000001 -0.599999
v 0.132023 0.132023 -0.499999
v -0.132023 0.132023 -0.500000
v 0.132023 -0.132022 -0.500000
v -0.132023 -0.132021 -0.500000
v 0.000000 1.000001 -0.599999
v 0.132023 1.132023 -0.499999
v -0.132022 1.132023 -0.500000
v 0.132023 0.867978 -0.500000
v -0.132023 0.867979 -0.500000
v -1.000000 1.000001 -0.599999
v -0.867977 1.132023 -0.499999
v -1.132022 1.132024 -0.499999
v -0.867977 0.867979 -0.500000
v -1.132023 0.867979 -0.499999
v -0.847978 0.152023 -0.320000
vt 0.955974 0.984721
vt 0.955974 0.984721
vt 0.955974 0.984721
vt 0.955974 0.984721
vt 0.955974 0.984721
vt 0.955974 0.984721
vt 0.955974 0.984721
vt 0.955974 0.984721
vt 0.812500 0.062500
vt 0.812500 0.062500
vt 0.812500 0.062500
vt 0.062500 0.687500
vt 0.312500 0.703125
vt 0.312500 0.687500
vt 0.551889 0.912101
vt 0.551889 0.914514
vt 0.543566 0.914514
vt 0.062500 0.921875
vt 0.312500 0.937500
vt 0.312500 0.921875
vt 0.858745 0.875000
vt 0.845246 0.909207
vt 0.857366 0.913453
vt 0.812500 0.062500
vt 0.812500 0.062500
vt 0.812500 0.062500
vt 0.900553 0.896294
vt 0.900553 0.906941
vt 0.900553 0.906941
vt 0.535598 0.916656
vt 0.536965 0.916656
vt 0.537411 0.916026
vt 0.846280 0.875000
vt 0.845799 0.916144
vt 0.829645 0.915868
vt 0.853706 0.794083
vt 0.853706 0.789824
vt 0.853706 0.794083
vt 0.542588 0.953471
vt 0.917588 0.896294
vt 0.542588 0.958794
vt 0.853706 0.913329
vt 0.849447 0.913329
vt 0.853876 0.916282
vt 0.917588 0.885647
vt 0.917588 0.875000
vt 0.917588 0.875000
vt 0.812500 0.062500
vt 0.812500 0.062500
vt 0.812500 0.062500
vt 0.863427 0.915576
vt 0.853706 0.913329
vt 0.853706 0.913329
vt 0.542935 0.916026
vt 0.542935 0.914514
vt 0.542935 0.914514
vt 0.537928 0.916026
vt 0.537640 0.916026
vt 0.537640 0.925610
vt 0.811118 0.917588
vt 0.811118 0.917588
vt 0.839185 0.907084
vt 0.812500 0.062500
vt 0.812500 0.062500
vt 0.812500 0.062500
vt 0.525553 0.969441
vt 0.525553 0.974765
vt 0.525553 0.969441
vt 0.535118 0.916656
vt 0.536181 0.916026
vt 0.812500 0.062500
vt 0.812500 0.062500
vt 0.846280 0.875000
vt 0.845799 0.916144
vt 0.829645 0.915868
vt 0.537411 0.925610
vt 0.536181 0.925610
vt 0.535598 0.924980
vt 0.812500 0.062500
vt 0.812500 0.062500
vt 0.812500 0.062500
vt 0.896198 0.849179
vt 0.896294 0.794083
vt 0.896294 0.794083
vt 0.552520 0.913066
vt 0.552520 0.911839
vt 0.542935 0.911839
vt 0.551889 0.908689
vt 0.551889 0.908209
vt 0.543566 0.908209
vt 0.848040 0.875000
vt 0.830219 0.875000
vt 0.917588 0.906941
vt 0.917588 0.906941
vt 0.917588 0.917588
vt 0.062500 0.765625
vt 0.312500 0.765625
vt 0.062500 0.750000
vt 0.312500 0.796875
vt 0.062500 0.796875
vt 0.062500 0.812500
vt 0.552520 0.911839
vt 0.552520 0.912342
vt 0.552520 0.913066
vt 0.537640 0.925610
vt 0.537640 0.916026
vt 0.537928 0.916026
vt 0.900553 0.875000
vt 0.900553 0.875000
vt 0.900553 0.885647
vt 0.542935 0.912342
vt 0.542935 0.910501
vt 0.312500 0.734375
vt 0.062500 0.734375
vt 0.312500 0.750000
vt 0.312500 0.828125
vt 0.062500 0.828125
vt 0.312500 0.843750
vt 0.812500 0.062500
vt 0.811118 0.913329
vt 0.815377 0.913329
vt 0.811978 0.879259
vt 0.535749 0.916026
vt 0.917588 0.896294
vt 0.917588 0.896294
vt 0.917588 0.885647
vt 0.896294 0.794083
vt 0.917588 0.906941
vt 0.917588 0.906941
vt 0.896294 0.913329
vt 0.896294 0.913329
vt 0.892001 0.915763
vt 0.811118 0.917588
vt 0.812500 0.062500
vt 0.812500 0.062500
vt 0.812500 0.062500
vt 0.900553 0.917588
vt 0.900553 0.917588
vt 0.896294 0.896294
vt 0.853706 0.896294
vt 0.853706 0.904812
vt 0.543566 0.916656
vt 0.543566 0.924980
vt 0.541423 0.924980
vt 0.853706 0.887776
vt 0.853706 0.896294
vt 0.896294 0.896294
vt 0.062500 0.859375
vt 0.062500 0.875000
vt 0.312500 0.859375
vt 0.853706 0.794083
vt 0.853706 0.790682
vt 0.853706 0.794083
vt 0.917588 0.917588
vt 0.917588 0.906941
vt 0.917588 0.917588
vt 0.542588 0.948147
vt 0.542588 0.942824
vt 0.542588 0.942824
vt 0.812500 0.062500
vt 0.812500 0.062500
vt 0.543566 0.910055
vt 0.543566 0.908689
vt 0.551889 0.908689
vt 0.543566 0.908209
vt 0.542935 0.908839
vt 0.543566 0.908209
vt 0.802414 0.916656
vt 0.802414 0.924980
vt 0.802414 0.924980
vt 0.536965 0.916656
vt 0.539010 0.916656
vt 0.539010 0.924980
vt 0.917588 0.906941
vt 0.917588 0.917588
vt 0.812500 0.062500
vt 0.812500 0.062500
vt 0.812500 0.062500
vt 0.537411 0.925610
vt 0.536965 0.924980
vt 0.535598 0.924980
vt 0.552520 0.909271
vt 0.896294 0.789824
vt 0.917588 0.917588
vt 0.917588 0.885647
vt 0.525553 0.937500
vt 0.525553 0.942824
vt 0.525553 0.942824
vt 0.917588 0.896294
vt 0.917588 0.885647
vt 0.875000 0.937500
vt 0.875000 0.937500
vt 0.875000 0.937500
vt 0.875000 0.937500
vt 0.875000 0.937500
vt 0.875000 0.937500
vt 0.815377 0.879259
vt 0.849447 0.879259
vt 0.812500 0.062500
vt 0.782491 0.916656
vt 0.785643 0.916656
vt 0.785643 0.916656
vt 0.525553 0.937500
vt 0.525553 0.937500
vt 0.524488 0.937500
vt 0.542588 0.937500
vt 0.542588 0.942824
vt 0.542588 0.937500
vt 0.900553 0.906941
vt 0.900553 0.906941
vt 0.900553 0.917588
vt 0.853706 0.828153
vt 0.853706 0.832412
vt 0.853706 0.828153
vt 0.830219 0.875000
vt 0.849447 0.879259
vt 0.903392 0.832412
vt 0.853706 0.794083
vt 0.853706 0.794083
vt 0.900553 0.896294
vt 0.900553 0.896294
vt 0.900553 0.906941
vt 0.062500 0.734375
vt 0.062500 0.750000
vt 0.312500 0.734375
vt 0.312500 0.906250
vt 0.312500 0.937500
vt 0.062500 0.937500
vt 0.917588 0.917588
vt 0.542935 0.916026
vt 0.541423 0.925610
vt 0.541423 0.916026
vt 0.812500 0.062500
vt 0.812500 0.062500
vt 0.812500 0.062500
vt 0.896294 0.887776
vt 0.849447 0.896294
vt 0.815377 0.879259
vt 0.539252 0.916026
vt 0.541423 0.916026
vt 0.541423 0.916026
vt 0.815377 0.892035
vt 0.815377 0.892035
vt 0.815377 0.894165
vt 0.802414 0.916656
vt 0.062500 0.687500
vt 0.312500 0.703125
vt 0.312500 0.687500
vt 0.849447 0.896294
vt 0.525553 0.953471
vt 0.525553 0.948147
vt 0.525553 0.948147
vt 0.828854 0.915855
vt 0.815377 0.913329
vt 0.820321 0.915246
vt 0.541423 0.916026
vt 0.539252 0.916026
vt 0.812500 0.062500
vt 0.525553 0.958794
vt 0.525553 0.958794
vt 0.525553 0.953471
vt 0.853706 0.883518
vt 0.896294 0.883518
vt 0.897714 0.875000
vt 0.525553 0.948147
vt 0.525553 0.953471
vt 0.900553 0.875000
vt 0.900553 0.875000
vt 0.900553 0.885647
vt 0.812500 0.062500
vt 0.917588 0.896294
vt 0.853706 0.887776
vt 0.542588 0.937500
vt 0.900553 0.896294
vt 0.062500 0.890625
vt 0.062500 0.906250
vt 0.853706 0.828153
vt 0.853706 0.832412
vt 0.849447 0.904812
vt 0.853706 0.904812
vt 0.853706 0.879259
vt 0.854311 0.875000
vt 0.875000 0.937500
vt 0.875000 0.937500
vt 0.875000 0.937500
vt 0.542588 0.969441
vt 0.542588 0.969441
vt 0.542588 0.974765
vt 0.875000 0.937500
vt 0.875000 0.937500
vt 0.875000 0.937500
vt 0.312500 0.687500
vt 0.312500 0.703125
vt 0.062500 0.718750
vt 0.552520 0.916026
vt 0.542935 0.925610
vt 0.875000 0.937500
vt 0.542588 0.964118
vt 0.542588 0.964118
vt 0.900553 0.917588
vt 0.525553 0.948147
vt 0.525553 0.942824
vt 0.525553 0.937500
vt 0.525553 0.942824
vt 0.812500 0.062500
vt 0.538748 0.916026
vt 0.312500 0.890625
vt 0.525553 0.969441
vt 0.525553 0.974765
vt 0.525553 0.974765
vt 0.542588 0.948147
vt 0.542588 0.948147
vt 0.542588 0.953471
vt 0.812500 0.062500
vt 0.812500 0.062500
vt 0.812500 0.062500
vt 0.812500 0.062500
vt 0.892609 0.875000
vt 0.896294 0.879259
vt 0.896294 0.879259
vt 0.896294 0.828153
vt 0.896294 0.828153
vt 0.896294 0.832412
vt 0.853706 0.828153
vt 0.853706 0.879259
vt 0.853706 0.879259
vt 0.864098 0.875000
vt 0.917588 0.885647
vt 0.812500 0.062500
vt 0.812500 0.062500
vt 0.812500 0.062500
vt 0.900553 0.896294
vt 0.900553 0.906941
vt 0.854311 0.875000
vt 0.917588 0.917588
vt 0.917588 0.906941
vt 0.897714 0.917588
vt 0.896294 0.913329
vt 0.541423 0.916656
vt 0.900553 0.896294
vt 0.900553 0.896294
vt 0.900553 0.885647
vt 0.917588 0.906941
vt 0.917588 0.896294
vt 0.917588 0.896294
vt 0.542935 0.925610
vt 0.552520 0.916026
vt 0.542935 0.916026
vt 0.312500 0.812500
vt 0.849447 0.887776
vt 0.525553 0.964118
vt 0.539975 0.916026
vt 0.537928 0.925610
vt 0.062500 0.781250
vt 0.312500 0.781250
vt 0.543566 0.912101
vt 0.312500 0.718750
vt 0.821569 0.915730
vt 0.542588 0.937500
vt 0.542588 0.937500
vt 0.875000 0.937500
vt 0.875000 0.937500
vt 0.875000 0.937500
vt 0.535118 0.924980
vt 0.535598 0.916656
vt 0.917588 0.885647
vt 0.917588 0.875000
vt 0.917588 0.875000
vt 0.062500 0.718750
vt 0.900553 0.875000
vt 0.900553 0.885647
vt 0.312500 0.781250
vt 0.536181 0.916026
vt 0.538748 0.916026
vt 0.812500 0.062500
vt 0.812500 0.062500
vt 0.812500 0.062500
vt 0.829512 0.875000
vt 0.829432 0.875000
vt 0.551889 0.916656
vt 0.812500 0.062500
vt 0.812500 0.062500
vt 0.542935 0.916026
vt 0.917588 0.885647
vt 0.917588 0.885647
vt 0.917588 0.875000
vt 0.875000 0.937500
vt 0.875000 0.937500
vt 0.543566 0.936580
vt 0.542935 0.925610
vt 0.875000 0.937500
vt 0.875000 0.937500
vt 0.551889 0.908209
vt 0.551889 0.908209
vt 0.811118 0.879259
vt 0.542935 0.914514
vt 0.542935 0.913066
vt 0.542935 0.914514
vt 0.903392 0.832412
vt 0.899488 0.875000
vt 0.897714 0.875000
vt 0.525553 0.958794
vt 0.525553 0.958794
vt 0.955974 0.984721
vt 0.542588 0.948147
vt 0.812500 0.062500
vt 0.849447 0.898423
vt 0.849447 0.900553
vt 0.849447 0.898423
vt 0.875000 0.937500
vt 0.875000 0.937500
vt 0.849447 0.887776
vt 0.900553 0.885647
vt 0.062500 0.843750
vt 0.543566 0.910055
vt 0.543566 0.908689
vt 0.828935 0.915856
vt 0.537411 0.916026
vt 0.539975 0.916026
vt 0.535749 0.925610
vt 0.312500 0.875000
vt 0.794091 0.916656
vt 0.551889 0.910055
vt 0.900553 0.885647
vt 0.875000 0.937500
vt 0.525553 0.964118
vt 0.525553 0.964118
vt 0.312500 0.937500
vt 0.062500 0.937500
vt 0.062500 0.921875
vt 0.542588 0.958794
vt 0.542588 0.953471
vt 0.917588 0.917588
vt 0.062500 0.703125
vt 0.899488 0.917588
vt 0.811118 0.879259
vt 0.811978 0.913329
vt 0.875000 0.937500
vt 0.062500 0.937500
vt 0.875000 0.937500
vt 0.875000 0.937500
vt 0.812500 0.062500
vt 0.539252 0.925610
vt 0.539975 0.925610
vt 0.551889 0.910055
vt 0.552520 0.910501
vt 0.551889 0.924980
vt 0.563490 0.916656
vt 0.551889 0.916656
vt 0.811118 0.913329
vt 0.853706 0.790488
vt 0.900553 0.906941
vt 0.900553 0.917588
vt 0.875000 0.937500
vt 0.875000 0.937500
vt 0.875000 0.937500
vt 0.542588 0.958794
vt 0.542588 0.953471
vt 0.525553 0.969441
vt 0.552520 0.908839
vt 0.542588 0.964118
vt 0.542588 0.964118
vt 0.552520 0.911019
vt 0.542935 0.911019
vt 0.853706 0.909070
vt 0.896294 0.909070
vt 0.896294 0.904812
vt 0.535749 0.916026
vt 0.542588 0.969441
vt 0.542588 0.969441
vt 0.842687 0.875000
vt 0.525553 0.953471
vt 0.547912 0.937500
vt 0.542935 0.913066
vt 0.812500 0.062500
vt 0.535118 0.916656
vt 0.535118 0.924980
vt 0.812500 0.062500
vt 0.812500 0.062500
vt 0.541423 0.916656
vt 0.539010 0.924980
vt 0.541423 0.924980
vt 0.875000 0.937500
vt 0.543566 0.916656
vt 0.543566 0.914514
vt 0.896294 0.904812
vt 0.542935 0.911839
vt 0.542935 0.910731
vt 0.542935 0.908839
vt 0.875000 0.937500
vt 0.896294 0.828153
vt 0.542935 0.909271
vt 0.875000 0.937500
vt 0.785643 0.924980
vt 0.782491 0.916656
vt 0.563489 0.916026
vt 0.552520 0.916026
vt 0.312500 0.859375
vt 0.062500 0.875000
vt 0.312500 0.875000
vt 0.062500 0.843750
vt 0.312500 0.843750
vt 0.794091 0.908209
vt 0.802414 0.905056
vt 0.802414 0.908209
vt 0.815377 0.904812
vt 0.815377 0.904812
vt 0.815377 0.906941
vt 0.812500 0.062500
vt 0.812500 0.062500
vt 0.541423 0.925610
vt 0.062500 0.781250
vt 0.062500 0.859375
vt 0.820815 0.875858
vt 0.853706 0.790295
vt 0.552520 0.914514
vt 0.917588 0.896294
vt 0.857366 0.913453
vt 0.845246 0.909207
vt 0.794091 0.924980
vt 0.551889 0.912101
vt 0.849447 0.913329
vt 0.853876 0.916282
vt 0.541423 0.925610
vt 0.542935 0.936580
vt 0.542935 0.925610
vt 0.822805 0.915751
vt 0.542935 0.936580
vt 0.312500 0.921875
vt 0.062500 0.937500
vt 0.312500 0.937500
vt 0.537928 0.925610
vt 0.535749 0.925610
vt 0.552520 0.909271
vt 0.552520 0.910501
vt 0.812500 0.062500
vt 0.900553 0.917588
vt 0.552520 0.914514
vt 0.543566 0.936580
vt 0.543566 0.924980
vt 0.539252 0.925610
vt 0.541423 0.925610
vt 0.900553 0.896294
vt 0.535118 0.916656
vt 0.900553 0.875000
vt 0.552520 0.912342
vt 0.536965 0.924980
vt 0.902286 0.826437
vt 0.822188 0.875000
vt 0.917588 0.875000
vt 0.917588 0.875000
vt 0.535118 0.916656
vt 0.312500 0.750000
vt 0.812500 0.062500
vt 0.542935 0.910731
vt 0.538748 0.925610
vt 0.955974 0.984721
vt 0.955974 0.984721
vt 0.955974 0.984721
vt 0.552520 0.936580
vt 0.563522 0.916026
vt 0.062500 0.921875
vt 0.812500 0.062500
vt 0.853706 0.883518
vt 0.543566 0.912101
vt 0.543566 0.908209
vt 0.542588 0.974765
vt 0.552520 0.911019
vt 0.542935 0.911019
vt 0.875000 0.937500
vt 0.525553 0.974765
vt 0.552520 0.914514
vt 0.782491 0.924980
vt 0.563489 0.916026
vt 0.794091 0.905056
vt 0.312500 0.906250
vt 0.062500 0.890625
vt 0.062500 0.906250
vt 0.552520 0.914514
vt 0.900553 0.885647
vt 0.539010 0.916656
vt 0.900553 0.906941
vt 0.897714 0.917588
vt 0.552520 0.910731
vt 0.542588 0.980088
vt 0.542588 0.980088
vt 0.537264 0.948147
vt 0.848040 0.875000
vt 0.312500 0.718750
vt 0.551889 0.908209
vt 0.312500 0.890625
vt 0.551889 0.914514
vt 0.853706 0.828153
vt 0.853706 0.794083
vt 0.542588 0.974765
vt 0.062500 0.921875
vt 0.853706 0.831554
vt 0.853706 0.828153
vt 0.542588 0.942824
vt 0.802414 0.908209
vt 0.802414 0.905056
vt 0.794091 0.905056
vt 0.062500 0.828125
vt 0.900553 0.885647
vt 0.525553 0.937500
vt 0.917588 0.875000
vt 0.812500 0.062500
vt 0.812500 0.062500
vt 0.312500 0.828125
vt 0.858745 0.875000
vt 0.875000 0.937500
vt 0.875000 0.937500
vt 0.875000 0.937500
vt 0.955974 0.984721
vt 0.955974 0.984721
vt 0.955974 0.984721
vt 0.900553 0.917588
vt 0.849447 0.892035
vt 0.849447 0.892035
vt 0.849447 0.894165
vt 0.919001 0.875000
vt 0.563489 0.916656
vt 0.552520 0.916026
vt 0.563489 0.916026
vt 0.062500 0.703125
vt 0.312500 0.687500
vt 0.062500 0.687500
vt 0.875000 0.937500
vt 0.875000 0.937500
vt 0.312500 0.812500
vt 0.062500 0.812500
vt 0.525553 0.980088
vt 0.539975 0.925610
vt 0.535118 0.924980
vt 0.542935 0.909271
vt 0.955974 0.984721
vt 0.955974 0.984721
vt 0.955974 0.984721
vt 0.542935 0.912342
vt 0.542935 0.910501
vt 0.062500 0.796875
vt 0.552520 0.908839
vt 0.794091 0.916656
vt 0.794091 0.924980
vt 0.312500 0.796875
vt 0.538748 0.925610
vt 0.552520 0.910731
vt 0.912264 0.885647
vt 0.896294 0.883518
vt 0.922912 0.875000
vt 0.875000 0.937500
vt 0.815377 0.900553
vt 0.815377 0.898423
vt 0.815377 0.898423
vt 0.875000 0.937500
vt 0.525553 0.980088
vt 0.525553 0.980088
vt 0.524488 0.980088
vt 0.815377 0.887776
vt 0.815377 0.900553
vt 0.931784 0.875000
vt 0.542588 0.980088
vt 0.542588 0.980088
vt 0.815377 0.885647
vt 0.815377 0.885647
vt 0.955974 0.984721
vt 0.312500 0.937500
vt 0.815377 0.894165
vt 0.849447 0.887776
vt 0.849447 0.887776
vt 0.849447 0.885647
vt 0.896294 0.879259
vt 0.875000 0.937500
vt 0.525553 0.980088
vt 0.542588 0.958794
vt 0.536181 0.925610
vt 0.563489 0.924980
vt 0.542588 0.937500
vt 0.812500 0.062500
vt 0.849447 0.900553
vt 0.875000 0.937500
vt 0.062500 0.687500
vt 0.900553 0.917588
vt 0.875000 0.937500
vt 0.849447 0.904812
vt 0.849447 0.906941
vt 0.062500 0.937500
vt 0.794091 0.908209
vt 0.312500 0.921875
vt 0.563522 0.925611
vt 0.900553 0.875000
vt 0.900553 0.875000
vt 0.542935 0.936580
vt 0.525553 0.937500
vt 0.853706 0.831810
vt 0.853706 0.831960
vt 0.853706 0.832162
vt 0.853706 0.828153
vt 0.853706 0.794083
vt 0.312500 0.687500
vt 0.312500 0.765625
vt 0.525553 0.964118
vt 0.312500 0.921875
vt 0.062500 0.937500
vt 0.062500 0.921875
vt 0.312500 0.921875
vt 0.312500 0.937500
vt 0.312500 0.796875
vt 0.312500 0.812500
vt 0.062500 0.812500
vt 0.312500 0.796875
vt 0.062500 0.812500
vt 0.062500 0.796875
vt 0.312500 0.734375
vt 0.062500 0.750000
vt 0.062500 0.734375
vt 0.312500 0.734375
vt 0.312500 0.750000
vt 0.062500 0.750000
vt 0.542935 0.936580
vt 0.312500 0.765625
vt 0.062500 0.781250
vt 0.062500 0.765625
vt 0.312500 0.765625
vt 0.312500 0.781250
vt 0.062500 0.781250
vt 0.312500 0.859375
vt 0.312500 0.875000
vt 0.062500 0.875000
vt 0.312500 0.859375
vt 0.062500 0.875000
vt 0.062500 0.859375
vt 0.312500 0.828125
vt 0.062500 0.843750
vt 0.062500 0.828125
vt 0.312500 0.828125
vt 0.312500 0.843750
vt 0.062500 0.843750
vt 0.312500 0.890625
vt 0.312500 0.906250
vt 0.062500 0.906250
vt 0.312500 0.890625
vt 0.062500 0.906250
vt 0.062500 0.890625
vt 0.312500 0.703125
vt 0.312500 0.718750
vt 0.062500 0.718750
vt 0.312500 0.703125
vt 0.062500 0.718750
vt 0.062500 0.703125
vt 0.312500 0.796875
vt 0.062500 0.812500
vt 0.312500 0.859375
vt 0.062500 0.875000
vt 0.062500 0.843750
vt 0.312500 0.828125
vt 0.062500 0.750000
vt 0.312500 0.734375
vt 0.062500 0.781250
vt 0.312500 0.765625
vt 0.062500 0.765625
vt 0.062500 0.718750
vt 0.312500 0.890625
vt 0.062500 0.906250
vt 0.062500 0.890625
vt 0.312500 0.875000
vt 0.312500 0.906250
vt 0.062500 0.859375
vt 0.312500 0.843750
vt 0.312500 0.812500
vt 0.062500 0.828125
vt 0.062500 0.796875
vt 0.312500 0.781250
vt 0.312500 0.750000
vt 0.062500 0.765625
vt 0.312500 0.718750
vt 0.062500 0.734375
vt 0.062500 0.687500
vt 0.312500 0.687500
vt 0.062500 0.703125
vt 0.785643 0.924980
vt 0.062500 0.734375
vt 0.312500 0.718750
vt 0.062500 0.765625
vt 0.312500 0.750000
vt 0.312500 0.781250
vt 0.062500 0.796875
vt 0.062500 0.828125
vt 0.312500 0.812500
vt 0.312500 0.843750
vt 0.062500 0.859375
vt 0.312500 0.875000
vt 0.062500 0.890625
vt 0.062500 0.921875
vt 0.312500 0.906250
vt 0.782491 0.924980
vt 0.542588 0.980088
vt 0.542588 0.974765
vt 0.060715 0.002028
vt 0.031246 0.031498
vt 0.060715 0.060967
vt 0.001776 0.002028
vt 0.001776 0.060967
vt 0.551889 0.916026
vt 0.060715 0.002028
vt 0.031246 0.031498
vt 0.060715 0.060967
vt 0.001776 0.002028
vt 0.001776 0.060967
vt 0.535118 0.924980
vt 0.031246 0.031498
vt 0.060715 0.060967
vt 0.060715 0.002028
vt 0.001776 0.002028
vt 0.001776 0.060967
vt 0.060715 0.002028
vt 0.031246 0.031498
vt 0.060715 0.060967
vt 0.001776 0.002028
vt 0.001776 0.060967
vt 0.849447 0.906941
vt 0.060715 0.002028
vt 0.031246 0.031498
vt 0.060715 0.060967
vt 0.001776 0.002028
vt 0.001776 0.060967
vt 0.062500 0.703125
vt 0.896294 0.832412
vt 0.823417 0.875000
vt 0.875000 0.937500
vt 0.060715 0.002028
vt 0.031246 0.031498
vt 0.060715 0.060967
vt 0.001776 0.002028
vt 0.001776 0.060967
vt 0.060715 0.002028
vt 0.031246 0.031498
vt 0.060715 0.060967
vt 0.001776 0.002028
vt 0.001776 0.060967
vt 0.060715 0.002028
vt 0.031246 0.031498
vt 0.060715 0.060967
vt 0.001776 0.002028
vt 0.001776 0.060967
vt 0.060715 0.002028
vt 0.031246 0.031498
vt 0.060715 0.060967
vt 0.001776 0.002028
vt 0.001776 0.060967
vt 0.031246 0.031498
vt 0.060715 0.060967
vt 0.060715 0.002028
vt 0.001776 0.002028
vt 0.001776 0.060967
vt 0.031246 0.031498
vt 0.060715 0.060967
vt 0.060715 0.002028
vt 0.001776 0.002028
vt 0.001776 0.060967
vt 0.031246 0.031498
vt 0.060715 0.060967
vt 0.060715 0.002028
vt 0.001776 0.002028
vt 0.001776 0.060967
vt 0.955974 0.984721
vt 0.312500 0.703125
vt 0.062500 0.687500
vt 0.551889 0.936580
vt 0.849447 0.894165
vt 0.525553 0.980088
vt 0.853706 0.794083
vt 0.896294 0.831810
vn -0.9590 -0.2835 -0.0000
vn -0.2940 -0.9558 -0.0000
vn -0.9239 -0.3827 0.0000
vn -0.8316 -0.5554 0.0000
vn -0.9965 -0.0799 -0.0247
vn -0.9932 -0.1077 -0.0445
vn -0.9979 -0.0645 0.0000
vn 0.0000 -0.3827 0.9239
vn 0.0000 -0.0980 0.9952
vn -0.0689 -0.1853 0.9803
vn 1.0000 0.0000 0.0000
vn 0.0000 0.0000 -1.0000
vn -0.9941 -0.1085 0.0000
vn -0.9807 -0.1955 0.0000
vn 0.9239 0.3827 0.0000
vn 0.9806 0.1959 0.0000
vn -0.6533 -0.7071 -0.2706
vn -0.5000 -0.7071 -0.5000
vn 0.0000 -0.0000 1.0000
vn 0.6178 -0.4128 -0.6692
vn -0.4125 -0.2254 -0.8826
vn -0.4225 -0.1750 -0.8893
vn -0.4132 -0.1711 -0.8944
vn -0.4974 -0.6725 -0.5481
vn -0.1955 -0.9807 -0.0091
vn -0.1079 -0.9941 -0.0090
vn 0.4049 0.1679 0.8988
vn 0.4301 0.0857 0.8987
vn -0.7059 -0.0574 -0.7059
vn -1.0000 -0.0000 -0.0000
vn 0.9239 0.0000 -0.3827
vn 0.9952 0.0000 -0.0980
vn 0.8315 -0.5556 0.0000
vn 0.7071 0.7071 -0.0000
vn 0.5552 0.8317 -0.0000
vn 0.3176 0.9482 0.0000
vn -0.7055 -0.7056 -0.0666
vn -0.3647 -0.2435 0.8987
vn -0.3647 -0.2434 0.8987
vn -0.4050 -0.1678 0.8988
vn -0.5000 0.7071 0.5000
vn -0.6533 0.7071 0.2706
vn 0.0000 0.3827 -0.9239
vn 0.0000 0.7071 -0.7071
vn 0.0000 -0.9239 -0.3827
vn 0.0000 -0.9952 -0.0980
vn -0.3259 -0.7866 -0.5244
vn 0.9807 0.1955 -0.0002
vn 0.9807 0.1954 -0.0003
vn 0.9940 0.1090 -0.0001
vn 0.4820 0.8762 0.0000
vn 0.3828 0.9238 0.0000
vn -0.7800 -0.6258 -0.0000
vn -0.7073 -0.7069 0.0000
vn 0.9952 0.0000 0.0980
vn 0.9239 -0.0000 0.3827
vn -0.1111 -0.9938 -0.0010
vn -0.1957 -0.9807 -0.0010
vn 0.2791 0.9603 0.0000
vn -0.6265 -0.7794 0.0000
vn -0.5558 -0.8313 0.0000
vn 0.6611 0.0000 -0.7503
vn 0.0000 -1.0000 0.0000
vn 0.9239 0.3825 -0.0006
vn 0.9239 0.3826 -0.0004
vn 0.8317 0.5553 -0.0007
vn 0.7070 -0.0199 0.7070
vn -0.9807 -0.1954 -0.0091
vn -0.9807 -0.1955 -0.0091
vn -0.9239 -0.3826 -0.0091
vn -0.7059 -0.0574 0.7059
vn 0.7070 -0.0199 -0.7070
vn 0.3649 0.2433 0.8987
vn 0.3648 0.2434 0.8987
vn 0.3098 0.3101 0.8988
vn 0.9936 0.1131 0.0000
vn -0.9179 -0.3968 -0.0030
vn -0.9744 -0.2247 -0.0000
vn -0.0980 -0.0000 0.9952
vn -0.2466 -0.9691 -0.0000
vn -0.3827 -0.9239 -0.0000
vn -0.4805 -0.8770 0.0000
vn -0.3829 -0.9238 0.0000
vn 0.0000 0.6611 -0.7503
vn 0.0001 0.6617 -0.7498
vn -0.6477 -0.7619 0.0000
vn -0.7789 -0.6271 0.0000
vn -0.8464 -0.5286 -0.0646
vn 0.0000 -0.7071 0.7071
vn 0.0000 -0.9239 0.3827
vn -0.7055 -0.7055 0.0666
vn -0.7052 -0.7052 0.0728
vn -0.7071 -0.7071 -0.0000
vn -0.7071 0.0000 0.7071
vn -0.3827 -0.0000 0.9239
vn 0.5197 0.8542 -0.0149
vn 0.5554 0.8316 -0.0003
vn 0.6263 0.7796 -0.0002
vn 0.0861 0.4300 0.8987
vn 0.0984 0.4300 0.8974
vn 0.0496 0.4359 0.8986
vn -0.5000 0.7071 -0.5000
vn -0.6533 0.7071 -0.2706
vn 0.7055 -0.7055 -0.0666
vn 0.7071 -0.6533 -0.2706
vn 0.3098 0.3100 0.8988
vn 0.5185 0.8551 0.0000
vn -0.8316 -0.5554 -0.0091
vn 0.9806 0.1958 0.0000
vn -0.5709 0.0299 -0.8205
vn -0.7317 0.0069 -0.6816
vn -0.5822 0.0266 -0.8126
vn 0.0488 0.4379 0.8977
vn 0.0832 0.4510 0.8886
vn 0.0493 0.4379 0.8977
vn -0.0372 -0.4568 -0.8888
vn -0.0508 -0.4670 -0.8828
vn -0.0291 -0.4470 -0.8940
vn -0.5552 -0.8317 -0.0010
vn -0.7071 -0.7071 -0.0010
vn -0.5556 0.8315 0.0000
vn -0.5355 0.5355 -0.6530
vn -0.3910 0.4493 -0.8033
vn -0.5198 0.5267 -0.6726
vn 0.6719 0.7407 0.0000
vn -0.9239 -0.3827 -0.0010
vn -0.9807 -0.1957 -0.0010
vn -0.9600 -0.2800 -0.0000
vn -0.9241 -0.3822 -0.0000
vn 0.0980 -0.0000 0.9952
vn 0.5699 0.8199 -0.0540
vn 0.6261 0.7797 0.0000
vn 0.0688 0.9976 -0.0000
vn 0.1113 0.9938 -0.0000
vn -0.2704 -0.6532 -0.7073
vn -0.2703 -0.6532 -0.7073
vn -0.1749 -0.6853 -0.7069
vn 0.6566 0.7542 0.0000
vn -0.7052 -0.7052 -0.0728
vn 0.8317 0.5552 -0.0000
vn -0.6667 -0.2628 -0.6975
vn -0.7153 -0.1651 -0.6791
vn -0.6533 -0.2706 -0.7071
vn 0.5929 0.8053 0.0000
vn -0.8018 -0.5976 -0.0000
vn -0.8208 -0.5711 -0.0032
vn -0.0694 0.9976 0.0000
vn -0.8317 -0.5552 -0.0010
vn -0.3756 0.4395 -0.8160
vn -0.0476 -0.4378 0.8978
vn -0.0858 -0.4300 0.8987
vn -0.0475 -0.4379 0.8978
vn 0.3827 0.9239 -0.0004
vn -0.8596 -0.5110 -0.0006
vn -0.2924 -0.9563 0.0000
vn -0.2253 -0.9721 -0.0647
vn -0.1878 -0.9821 0.0124
vn -0.2808 -0.9598 0.0000
vn -0.1954 -0.9807 0.0000
vn -0.4128 0.6178 -0.6692
vn -0.3727 -0.6061 -0.7027
vn -0.3611 -0.6080 -0.7071
vn -0.6725 -0.4974 -0.5481
vn 0.1958 0.9806 0.0000
vn 0.3827 0.9239 0.0000
vn -0.7619 -0.6477 0.0000
vn -0.7138 -0.6974 -0.0641
vn -0.3066 -0.9518 0.0000
vn -0.4792 -0.8777 0.0000
vn -0.5790 -0.8128 -0.0643
vn 0.4462 0.8950 0.0000
vn -0.2367 0.9716 0.0000
vn -0.9941 -0.1079 -0.0090
vn 0.8950 0.4462 0.0000
vn -0.4560 -0.8900 -0.0000
vn -0.3926 -0.9175 -0.0638
vn -0.1955 -0.9807 0.0000
vn -0.1085 -0.9941 0.0000
vn -0.0574 -0.7059 0.7059
vn -0.0199 0.7070 0.7070
vn -0.0199 0.7070 -0.7070
vn -0.0574 -0.7059 -0.7059
vn -0.4301 -0.0856 0.8987
vn -0.5615 -0.4380 -0.7020
vn -0.5707 -0.4233 -0.7037
vn -0.5415 -0.4492 -0.7106
vn -0.7071 -0.7071 -0.0091
vn -0.5554 -0.8316 -0.0091
vn -0.5947 -0.8039 0.0000
vn -0.3827 -0.9239 -0.0010
vn -0.3826 -0.9239 -0.0091
vn 0.9940 0.1090 0.0000
vn -0.1652 -0.6918 -0.7029
vn 0.7542 0.6566 0.0000
vn -0.8320 -0.5548 -0.0000
vn 0.1957 0.9807 -0.0000
vn -0.3233 -0.3233 -0.8894
vn -0.3662 -0.2945 -0.8827
vn -0.3162 -0.3162 -0.8944
vn -0.0983 -0.9952 -0.0000
vn -0.0811 -0.9967 -0.0000
vn -0.9952 0.0000 0.0980
vn -0.9239 0.0000 0.3827
vn 0.8201 0.5698 0.0530
vn 0.7798 0.6260 -0.0010
vn 0.0000 -0.5586 -0.8294
vn 0.0070 -0.5809 -0.8140
vn 0.5557 0.8314 0.0000
vn -0.5231 -0.5231 -0.6729
vn -0.5554 -0.8316 0.0000
vn -0.3804 -0.2541 -0.8892
vn 0.1957 0.9807 -0.0008
vn 0.1956 0.9807 -0.0007
vn 0.1092 0.9940 -0.0009
vn 0.1119 0.9937 0.0000
vn 0.0000 -0.9952 0.0980
vn 0.9482 0.3176 0.0000
vn 0.9886 0.1504 0.0000
vn -0.5147 -0.8548 0.0660
vn -0.5017 -0.8651 -0.0000
vn -0.7413 -0.6591 -0.1267
vn -0.0000 -0.7071 -0.7071
vn -0.7055 0.7055 0.0666
vn -0.7052 0.7052 0.0728
vn 0.1211 0.4188 -0.9000
vn 0.0859 0.4302 -0.8987
vn 0.0875 0.4386 -0.8944
vn 0.9976 -0.0694 -0.0000
vn -0.7726 -0.6349 0.0000
vn -0.8777 -0.4792 0.0000
vn -0.9265 -0.3709 -0.0640
vn 0.5368 -0.4855 -0.6900
vn 0.4258 -0.4108 -0.8062
vn 0.3946 -0.3946 -0.8298
vn -0.3099 -0.3100 0.8988
vn -0.2436 -0.3646 0.8987
vn 0.0000 1.0000 0.0000
vn 0.7071 -0.5000 -0.5000
vn 0.0338 -0.7379 -0.6741
vn 0.0360 -0.7222 -0.6907
vn 0.0002 0.6618 -0.7497
vn 0.2435 0.3648 -0.8987
vn 0.2718 0.3409 -0.9000
vn 0.3098 0.3098 -0.8989
vn -0.0976 -0.9952 -0.0000
vn -0.2817 -0.9595 -0.0000
vn 0.8543 0.5195 0.0139
vn 0.1676 0.4050 0.8988
vn 0.7052 -0.7052 -0.0728
vn -0.9952 -0.0976 -0.0000
vn -0.9841 -0.1653 -0.0643
vn -0.9595 -0.2817 -0.0000
vn 0.0000 0.9239 -0.3827
vn -0.7055 -0.0666 0.7055
vn -0.5976 -0.8018 -0.0000
vn -0.5110 -0.8596 -0.0000
vn -0.7052 -0.0728 0.7052
vn -0.8900 -0.4560 -0.0000
vn -0.9371 -0.3255 -0.1262
vn 0.1131 0.9936 0.0000
vn 0.1959 0.9806 0.0000
vn -0.9239 0.0000 -0.3827
vn -0.7071 0.0000 -0.7071
vn 0.2483 0.3719 -0.8944
vn 0.2105 0.3818 -0.9000
vn -0.9952 0.0000 -0.0980
vn 0.9937 0.1119 -0.0000
vn -0.0980 0.0000 -0.9952
vn -0.3827 0.0000 -0.9239
vn 0.8053 0.5929 0.0000
vn -0.7056 -0.0666 -0.7055
vn -0.9918 -0.1280 -0.0000
vn 0.0000 0.3827 0.9239
vn 0.0000 0.7071 0.7071
vn -0.9967 -0.0811 -0.0000
vn -0.7071 -0.5000 0.5000
vn -0.7071 -0.6533 0.2706
vn 0.8767 0.4810 0.0000
vn 0.9240 0.3823 0.0000
vn 0.8321 0.5546 0.0000
vn -0.0859 -0.4300 0.8987
vn -0.1677 -0.4050 0.8988
vn -0.0728 0.7052 0.7052
vn -0.0666 0.7055 0.7055
vn 0.0000 0.6618 -0.7497
vn 0.0000 0.0980 0.9952
vn -0.3719 -0.2484 -0.8944
vn 0.3828 0.9238 -0.0006
vn 0.7071 -0.2706 -0.6533
vn 0.5433 -0.5094 -0.6673
vn 0.5356 -0.5356 -0.6530
vn 0.3827 0.0000 -0.9239
vn 0.0980 0.0000 -0.9952
vn 0.9939 0.1099 0.0000
vn 0.9977 0.0675 0.0000
vn 0.7071 -0.5000 0.5000
vn 0.7071 -0.6533 0.2706
vn 0.4301 0.0858 0.8987
vn 0.0000 0.0980 -0.9952
vn -0.6533 -0.7071 0.2706
vn -0.0094 1.0000 0.0000
vn -0.0281 0.9996 0.0000
vn 0.0002 1.0000 0.0001
vn 0.0004 1.0000 0.0000
vn -0.4274 -0.0934 0.8992
vn -0.4366 -0.0473 0.8984
vn -0.1514 -0.9885 -0.0000
vn -0.7052 -0.0728 -0.7052
vn -0.7071 -0.2706 -0.6533
vn -0.1676 -0.4050 0.8988
vn -0.6271 -0.7789 0.0000
vn 0.4302 0.0859 -0.8987
vn 0.4048 0.1677 -0.8989
vn 0.4188 0.1211 -0.9000
vn 0.0000 0.9239 0.3827
vn -0.1069 -0.9943 0.0000
vn 0.9809 0.1944 0.0000
vn 0.9605 0.2784 0.0000
vn 0.0000 0.9952 -0.0980
vn 0.0000 0.9952 0.0980
vn -0.7866 -0.3259 -0.5244
vn -0.9824 -0.1865 -0.0124
vn -0.9810 -0.1942 0.0000
vn 0.7052 -0.0728 -0.7052
vn 0.7055 -0.0666 -0.7055
vn 0.7071 -0.2706 0.6533
vn 1.0000 0.0001 0.0001
vn 1.0000 -0.0094 -0.0000
vn -0.4670 -0.0508 -0.8828
vn -0.4568 -0.0372 -0.8888
vn -0.4470 -0.0291 -0.8940
vn 0.7071 0.0000 -0.7071
vn -0.0000 -0.3827 -0.9239
vn -0.0666 -0.7055 0.7055
vn -0.0728 -0.7052 0.7052
vn 0.6617 0.0001 -0.7498
vn 0.0807 -0.9967 0.0000
vn -0.1078 -0.9942 0.0000
vn 0.7812 0.6242 0.0000
vn 0.3648 0.2435 -0.8987
vn 0.3409 0.2718 -0.9000
vn -0.0728 0.7052 -0.7052
vn -0.2706 0.7071 -0.6533
vn -0.0000 -0.0980 -0.9952
vn -0.8040 -0.5947 0.0000
vn 0.4333 0.0491 -0.8999
vn 0.4379 0.0395 -0.8982
vn -0.9938 -0.1111 -0.0010
vn -0.6999 -0.1072 -0.7061
vn -0.7162 -0.1355 -0.6846
vn 0.7073 0.7069 0.0000
vn 0.8551 0.5185 0.0000
vn -0.0666 0.7055 -0.7055
vn 0.3827 -0.0000 0.9239
vn 0.1677 0.4048 -0.8989
vn -0.2706 -0.7071 -0.6533
vn -0.0666 -0.7055 -0.7055
vn -0.0728 -0.7052 -0.7052
vn 0.0491 0.4333 -0.8999
vn 0.0395 0.4379 -0.8982
vn 0.0314 0.4470 -0.8940
vn -0.4380 -0.0481 0.8977
vn -0.4259 -0.0844 0.9008
vn -0.4379 -0.0478 0.8977
vn -0.7071 -0.6533 -0.2706
vn -0.7071 -0.5000 -0.5000
vn -0.7986 -0.5999 -0.0482
vn -0.7552 -0.6555 -0.0000
vn -0.8351 -0.5502 -0.0000
vn 0.6250 0.7806 0.0000
vn 0.7052 -0.7052 0.0728
vn -0.2706 -0.7071 0.6533
vn -0.2706 0.7071 0.6533
vn 0.7071 -0.0000 0.7071
vn 0.7056 -0.0666 0.7055
vn 0.7052 -0.0728 0.7052
vn -0.6060 -0.3725 -0.7028
vn -0.6082 -0.3610 -0.7069
vn -0.1090 -0.9930 0.0445
vn -0.0812 -0.9964 0.0247
vn -0.4701 -0.8826 0.0000
vn -0.5839 -0.8019 -0.1264
vn -0.6644 -0.7474 -0.0000
vn -0.5593 -0.8289 -0.0000
vn -0.6088 -0.7919 0.0484
vn 0.7071 -0.7071 -0.0000
vn 0.7055 -0.7055 0.0666
vn 0.0000 -0.7565 -0.6540
vn -0.9967 0.0807 0.0000
vn -0.9979 0.0115 -0.0643
vn -0.6349 -0.7726 -0.0000
vn 0.3259 0.7866 -0.5244
vn -0.8826 -0.4701 0.0000
vn -0.4233 -0.5707 -0.7037
vn 0.2436 0.3647 0.8987
vn -0.2541 -0.3804 -0.8892
vn -0.2945 -0.3662 -0.8827
vn -0.7055 0.7055 -0.0666
vn -0.7052 0.7052 -0.0728
vn -0.2331 -0.9642 -0.1260
vn -0.9518 -0.3066 0.0000
vn -0.0010 -1.0000 0.0000
vn 0.4376 0.0497 0.8978
vn -0.5000 -0.7071 0.5000
vn 0.5096 0.5618 -0.6516
vn -0.8705 -0.4921 -0.0000
vn -0.0982 -0.7095 -0.6978
vn -0.1078 -0.7036 -0.7024
vn -0.0756 -0.7032 -0.7070
vn -0.5586 -0.0000 -0.8294
vn -0.4486 -0.0893 -0.8892
vn -0.8775 -0.4795 -0.0000
vn 0.3818 0.2105 -0.9000
vn -0.4323 -0.8928 -0.1265
vn 0.4379 0.0499 0.8977
vn -0.8466 -0.5170 -0.1261
vn -0.7071 -0.2706 0.6533
vn -0.0893 -0.4486 -0.8892
vn -0.0873 -0.4386 -0.8944
vn 0.9716 -0.2367 -0.0000
vn -0.9563 -0.2924 -0.0000
vn -0.9942 -0.1078 -0.0000
vn -0.7565 0.0000 -0.6540
vn 0.7866 0.3259 -0.5244
vn -0.7055 -0.7055 -0.0666
vn -0.6038 0.7971 0.0000
vn 0.0000 0.7971 0.6038
vn 0.6038 0.7971 0.0000
vn -0.0000 0.7971 -0.6038
vn 0.6038 -0.7971 0.0000
vn 0.0000 -0.7971 0.6038
vn -0.6038 -0.7971 0.0000
vn -0.0000 -0.7971 -0.6038
vn -0.7071 0.7071 -0.0000
vn 0.2436 0.3646 0.8987
vn -0.2254 -0.4125 -0.8826
vn -0.2484 -0.3719 -0.8944
vn 0.1711 0.4132 -0.8944
vn 0.0000 0.6038 -0.7971
vn 0.6038 0.0000 -0.7971
vn -0.0000 -0.6038 -0.7971
vn -0.6038 0.0000 -0.7971
vn -0.7971 -0.6038 -0.0000
vn -0.7971 0.0000 0.6038
vn -0.7971 0.6038 0.0000
vn -0.7971 0.0000 -0.6038
vn 0.1092 0.9940 -0.0010
vn -0.1322 -0.4511 -0.8826
vn -0.0949 -0.0245 0.9952
vn 0.7797 0.6261 -0.0007
vn 0.7971 0.6038 0.0000
vn 0.7971 0.0000 0.6038
vn 0.7971 -0.6038 0.0000
vn 0.7971 0.0000 -0.6038
vn -0.8604 -0.5053 -0.0660
vn 0.3162 0.3162 -0.8944
vn -0.1750 -0.4225 -0.8893
vn 0.1504 0.9886 0.0000
vn 0.3719 0.2483 -0.8944
vn -0.1712 -0.4132 -0.8944
vn -0.9798 -0.1548 -0.1267
vn 0.4132 0.1711 -0.8944
vn -0.4386 -0.0873 -0.8944
vn -0.9885 -0.1514 -0.0000
vn -0.4511 -0.1322 -0.8826
vn -0.4380 -0.5615 -0.7020
vn -0.4492 -0.5415 -0.7106
vn -0.0657 -0.9978 0.0000
vn 0.0001 1.0000 0.0002
vn 0.4386 0.0875 -0.8944
vn -0.0584 -0.9902 -0.1269
vn 0.6618 0.0002 -0.7497
vn 0.6618 -0.0000 -0.7497
vn 0.9996 -0.0281 -0.0000
vn 1.0000 0.0001 0.0002
vn 0.4470 0.0314 -0.8940
vn 1.0000 0.0004 0.0000
usemtl Material.006
s off
f 1/1/1 3/2/1 2/3/1
f 4/4/2 6/5/2 5/6/2
f 1/1/1 2/3/1 7/7/1
f 4/4/2 8/8/2 6/5/2
s 1
f 9/9/3 11/10/3 10/11/4
f 12/12/5 14/13/6 13/14/7
f 15/15/8 17/16/9 16/17/10
f 18/18/11 20/19/11 19/20/11
f 21/21/12 23/22/12 22/23/12
f 24/24/13 26/25/13 25/26/14
f 27/27/15 29/28/16 28/29/16
f 30/30/17 32/31/18 31/32/18
f 33/33/19 35/34/19 34/35/19
f 36/36/20 38/37/20 37/38/20
f 39/39/21 41/40/22 40/41/23
f 42/42/24 44/43/24 43/44/24
f 45/45/25 47/46/26 46/47/26
f 48/48/27 50/49/27 49/50/28
f 51/51/29 53/52/29 52/53/29
f 54/54/30 56/55/30 55/56/30
f 57/57/31 59/58/32 58/59/32
f 36/60/33 61/61/33 60/62/33
f 62/63/34 64/64/35 63/65/35
f 65/66/36 67/67/36 66/68/36
f 68/69/37 30/30/17 69/70/17
f 70/71/38 10/11/39 71/72/40
f 72/73/19 33/74/19 73/75/19
f 74/76/41 76/77/42 75/78/42
f 77/79/30 79/80/30 78/81/30
f 80/82/33 82/83/33 81/84/33
f 83/85/43 85/86/44 84/87/44
f 86/88/45 88/89/46 87/90/46
f 89/91/47 90/92/47 73/75/47
f 91/93/48 93/94/49 92/95/50
f 94/96/51 96/97/51 95/98/52
f 9/9/3 25/26/14 11/10/3
f 97/99/53 99/100/53 98/101/54
f 100/102/11 102/103/11 101/104/11
f 103/105/55 105/106/55 104/107/56
f 106/108/57 108/109/57 107/110/58
f 109/111/30 84/87/30 110/112/30
f 111/113/59 113/114/59 112/115/52
f 114/116/60 116/117/60 115/118/61
f 9/9/3 117/119/14 25/26/14
f 36/120/62 37/121/62 118/122/62
f 59/58/63 119/123/63 105/106/63
f 120/124/64 122/125/65 121/126/66
f 80/82/67 123/127/67 82/83/67
f 124/128/68 125/129/69 41/40/70
f 126/130/71 128/131/71 127/132/71
f 61/61/72 129/133/72 60/62/72
f 89/91/47 73/75/47 23/22/47
f 130/134/73 132/135/74 131/136/75
f 69/70/63 104/107/63 119/123/63
f 29/28/16 134/137/76 133/138/76
f 135/139/77 137/140/3 136/141/78
f 138/142/19 140/143/19 139/144/79
f 141/145/80 143/146/81 142/147/81
f 144/148/82 146/149/83 145/150/82
f 147/151/84 149/152/85 148/153/84
f 150/154/19 152/155/19 151/156/19
f 153/157/86 155/158/87 154/159/88
f 156/160/63 157/161/63 26/25/63
f 158/162/89 160/163/90 159/164/90
f 161/165/91 163/166/92 162/167/93
f 164/168/11 166/169/11 165/170/11
f 167/171/94 169/172/95 168/173/95
f 152/155/96 171/174/97 170/175/98
f 172/176/99 174/177/100 173/178/101
f 175/179/102 177/180/102 176/181/103
f 88/89/104 86/88/105 178/182/105
f 123/183/63 179/184/63 129/133/63
f 131/136/75 132/135/74 62/63/106
f 45/45/25 180/185/25 47/46/26
f 181/186/107 183/187/107 182/188/107
f 184/189/70 41/40/70 185/190/108
f 186/191/109 188/192/15 187/193/15
f 189/194/3 9/195/3 190/196/4
f 191/197/110 192/198/111 90/92/112
f 173/178/113 174/177/114 193/199/115
f 194/200/63 196/201/63 195/202/63
f 197/203/30 199/204/30 198/205/30
f 47/206/116 201/207/117 200/208/118
f 202/209/119 204/210/119 203/211/120
f 205/212/121 207/213/121 206/214/121
f 33/33/122 73/215/123 208/216/124
f 209/217/125 211/218/125 210/219/125
f 212/220/126 214/221/126 213/222/127
f 215/223/128 217/224/129 216/225/128
f 218/226/12 220/227/12 219/228/12
f 179/184/19 91/93/19 221/229/19
f 222/230/19 224/231/130 223/232/130
f 225/233/93 226/234/93 190/235/4
f 141/145/80 142/147/81 227/236/80
f 152/155/131 170/175/132 151/156/132
f 228/237/12 229/238/12 37/121/12
f 230/239/63 232/240/63 231/241/63
f 233/242/12 235/243/12 234/244/12
f 37/121/12 229/238/12 118/122/12
f 164/168/11 165/170/11 236/245/11
f 237/246/133 239/247/134 238/248/133
f 240/249/135 143/146/136 141/145/137
f 241/250/138 243/251/138 242/252/138
f 244/253/12 245/254/12 149/255/12
f 246/256/63 223/232/63 247/257/63
f 68/69/37 69/70/17 119/123/139
f 132/135/140 48/48/15 187/258/15
f 228/237/141 136/141/142 137/140/143
f 248/259/144 250/260/144 249/261/144
f 251/262/145 253/263/146 252/264/93
f 254/265/147 255/266/147 249/261/147
f 256/267/120 203/268/120 257/269/148
f 229/238/149 208/216/124 73/215/123
f 79/80/150 258/270/151 78/81/152
f 171/174/97 152/155/96 259/271/153
f 135/139/77 253/263/146 260/272/154
f 261/273/155 200/208/155 201/207/156
f 27/27/15 28/29/16 262/274/15
f 218/226/157 264/275/158 263/276/159
f 205/212/160 191/277/160 265/278/160
f 266/279/161 267/280/162 143/146/136
f 268/281/163 269/282/163 192/198/163
f 270/283/164 272/284/165 271/285/165
f 273/286/166 275/287/166 274/288/167
f 226/289/93 277/290/93 276/291/4
f 278/292/19 18/293/19 279/294/19
f 280/295/19 281/296/19 222/230/19
f 271/285/165 272/284/165 64/297/35
f 273/286/168 283/298/169 282/299/170
f 284/300/19 28/29/19 133/138/19
f 254/265/171 286/301/171 285/302/171
f 287/303/172 288/304/172 285/302/172
f 77/79/30 289/305/30 79/80/30
f 179/184/173 125/129/69 124/128/68
f 31/32/63 290/306/63 69/70/63
f 205/212/121 265/278/121 207/213/121
f 291/307/158 264/275/158 218/226/157
f 292/308/174 294/309/174 293/310/174
f 295/311/175 297/312/175 296/313/176
f 298/314/165 272/315/165 270/316/164
f 299/317/177 79/80/178 289/305/178
f 300/318/179 302/319/179 301/320/179
f 303/321/180 305/322/180 304/323/180
f 207/213/181 306/324/181 206/214/181
f 307/325/182 309/326/182 308/327/182
f 184/189/70 185/190/108 310/328/108
f 132/135/140 312/329/140 311/330/34
f 11/10/40 313/331/183 71/72/40
f 314/332/19 315/333/19 204/210/19
f 208/216/184 251/262/185 316/334/186
f 150/154/187 318/335/187 317/336/188
f 127/132/189 320/337/189 319/338/189
f 169/172/95 321/339/79 139/144/79
f 322/340/190 324/341/190 323/342/58
f 124/128/19 122/125/19 91/93/19
f 72/73/19 73/75/19 90/92/19
f 325/343/188 327/344/191 326/345/191
f 30/30/17 31/32/18 69/70/17
f 328/346/12 330/347/12 329/348/12
f 91/93/48 92/95/50 221/229/192
f 97/99/53 98/101/54 331/349/54
f 240/249/135 141/145/137 332/350/193
f 65/66/194 66/68/194 333/351/194
f 306/324/30 207/213/30 304/323/30
f 116/117/60 114/116/60 331/349/54
f 247/257/63 334/352/63 31/32/63
f 180/185/25 45/45/25 326/345/191
f 103/105/55 104/107/56 335/353/56
f 336/354/195 97/99/53 337/355/195
f 15/15/8 16/17/10 338/356/8
f 339/357/196 113/114/59 111/113/59
f 106/108/57 107/110/58 323/342/58
f 36/60/33 60/62/33 38/358/33
f 318/359/197 154/159/198 340/360/199
f 341/361/30 289/362/30 77/363/30
f 307/325/200 301/320/200 302/319/201
f 342/364/202 343/365/203 75/78/203
f 344/366/204 151/367/205 345/368/205
f 113/114/59 339/357/196 346/369/196
f 347/370/30 21/21/30 308/327/30
f 34/35/206 37/121/207 38/358/206
f 266/279/161 143/146/136 240/249/135
f 348/371/148 257/269/148 214/221/126
f 96/97/51 94/96/51 349/372/208
f 108/109/30 21/21/30 347/370/30
f 350/373/63 57/57/63 351/374/63
f 352/375/177 354/376/81 353/377/81
f 73/378/209 244/379/209 229/238/209
f 355/380/19 16/17/10 17/16/9
f 356/381/210 357/382/210 353/377/81
f 358/383/63 223/232/63 246/256/63
f 41/40/22 39/39/21 185/190/211
f 359/384/212 361/385/213 360/386/214
f 341/361/178 362/387/177 352/388/177
f 363/389/94 364/390/94 140/143/94
f 365/391/215 270/283/164 366/392/164
f 162/167/63 368/393/63 367/394/216
f 33/33/19 34/35/19 73/215/19
f 36/120/62 118/122/62 369/395/62
f 309/326/30 347/370/30 308/327/30
f 370/396/30 372/397/30 371/398/30
f 80/82/33 81/84/33 373/399/33
f 242/252/217 243/251/217 182/188/217
f 198/400/30 300/318/30 374/401/30
f 375/402/218 376/403/218 241/250/218
f 377/404/219 2/3/220 3/2/220
f 153/157/86 154/159/221 378/405/86
f 193/199/30 379/406/30 173/178/30
f 380/407/19 382/408/19 381/409/19
f 383/410/140 312/411/140 187/193/15
f 384/412/12 229/238/12 228/237/12
f 31/32/63 334/352/63 290/306/63
f 51/51/189 52/53/189 42/42/189
f 107/110/19 385/413/19 322/340/19
f 144/148/82 115/118/61 386/414/61
f 387/415/222 86/88/45 388/416/45
f 244/253/209 73/417/209 245/254/209
f 223/232/63 358/383/63 222/230/63
f 389/418/63 390/419/63 230/239/63
f 342/364/223 76/77/42 391/420/224
f 361/385/19 45/45/19 360/386/19
f 264/275/158 392/421/83 146/149/83
f 298/314/165 63/65/35 64/64/35
f 393/422/63 164/168/63 236/245/63
f 394/423/89 15/15/8 338/356/8
f 249/261/225 395/424/226 286/301/227
f 396/425/210 277/290/93 226/289/93
f 292/308/228 398/426/228 397/427/228
f 399/428/19 401/429/19 400/430/19
f 402/431/229 403/432/230 39/39/231
f 179/184/173 404/433/173 125/129/69
f 405/434/134 239/247/134 237/246/133
f 33/74/232 245/254/233 73/417/234
f 127/132/63 134/137/63 406/435/63
f 205/436/84 148/437/84 191/197/84
f 407/438/81 352/388/177 362/387/177
f 408/439/30 237/246/30 238/248/30
f 99/100/53 97/99/53 336/354/195
f 409/440/34 311/441/34 312/411/140
f 410/442/235 357/382/236 225/233/235
f 411/443/237 412/444/237 74/76/237
f 145/150/82 146/149/83 392/421/83
f 413/445/238 414/446/238 178/182/105
f 165/447/12 415/448/12 236/449/12
f 205/436/84 147/450/84 148/437/84
f 44/43/239 37/121/207 35/34/240
f 322/340/190 323/342/58 107/110/58
f 210/451/241 149/152/85 147/151/84
f 197/203/30 198/205/30 287/303/30
f 416/452/242 67/67/243 417/453/244
f 262/274/19 28/29/19 213/222/19
f 418/454/63 133/455/63 419/456/63
f 361/385/19 259/271/19 326/345/19
f 420/457/245 421/458/246 296/313/176
f 124/128/19 91/93/19 179/184/19
f 232/240/63 230/239/63 390/419/63
f 120/124/64 121/126/66 344/366/247
f 174/177/100 172/176/99 298/314/248
f 292/308/228 422/459/228 398/426/228
f 132/135/140 311/330/34 62/63/34
f 88/89/104 178/182/105 423/460/249
f 402/431/250 425/461/251 424/462/252
f 84/87/44 427/463/253 426/464/253
f 54/54/94 16/17/254 138/142/94
f 387/415/222 413/445/222 86/88/45
f 428/465/255 430/466/255 429/467/256
f 431/468/63 57/57/63 350/373/63
f 54/54/94 55/56/257 16/17/254
f 432/469/258 425/461/259 433/470/258
f 344/366/19 348/371/19 120/124/19
f 385/413/19 107/110/19 347/370/19
f 229/238/12 384/412/12 208/216/12
f 347/370/260 395/424/261 385/413/261
f 413/445/238 178/182/105 86/88/105
f 176/181/262 177/180/263 32/31/263
f 347/370/19 107/110/19 108/109/19
f 185/190/211 154/159/198 318/359/197
f 370/396/30 371/398/30 222/230/30
f 228/237/12 37/121/12 44/43/12
f 389/418/63 351/374/63 390/419/63
f 46/47/30 207/471/30 89/91/30
f 66/68/264 416/452/242 333/351/265
f 348/371/148 214/221/126 212/220/126
f 241/250/138 242/252/138 434/472/138
f 435/473/30 200/208/30 261/273/30
f 55/56/30 56/55/30 436/474/30
f 299/317/177 289/305/178 352/375/177
f 306/324/30 304/323/30 305/322/30
f 180/185/25 326/345/191 327/344/191
f 437/475/236 357/382/236 410/442/235
f 196/476/30 438/477/266 68/69/266
f 116/117/60 331/349/54 98/101/54
f 439/478/267 440/479/109 49/50/109
f 441/480/268 443/481/269 442/482/268
f 418/454/63 444/483/63 133/455/63
f 375/402/270 397/427/270 398/426/270
f 240/249/12 191/197/12 245/254/12
f 358/383/263 446/484/263 445/485/271
f 52/53/272 126/130/272 447/486/78
f 101/104/273 372/397/273 448/487/274
f 132/135/74 130/134/73 48/48/27
f 163/166/30 450/488/30 449/489/30
f 67/67/243 416/452/242 66/68/264
f 451/490/14 9/195/3 189/194/3
f 53/52/63 133/138/63 128/131/63
f 239/247/134 405/434/134 339/357/196
f 176/181/262 32/31/263 30/30/262
f 240/249/12 245/254/12 266/279/12
f 112/115/52 113/114/59 95/98/52
f 385/413/19 314/332/19 322/340/19
f 126/130/272 53/52/275 128/131/275
f 225/233/93 190/235/4 10/11/4
f 304/323/121 452/491/121 303/321/121
f 142/147/81 267/280/256 429/467/256
f 115/118/61 116/117/60 386/414/61
f 158/162/276 453/492/277 160/163/277
f 341/361/30 77/363/30 46/493/30
f 454/494/19 455/495/19 195/202/19
f 119/123/63 59/58/63 431/468/63
f 225/233/235 70/71/38 410/442/235
f 456/496/63 280/295/63 457/497/63
f 458/498/278 460/499/279 459/500/279
f 461/501/280 458/498/278 462/502/280
f 162/503/19 463/504/19 368/505/19
f 21/21/12 89/91/12 23/22/12
f 464/506/12 3/507/12 1/508/12
f 62/63/34 311/330/34 64/64/35
f 298/314/248 172/176/99 465/509/248
f 248/259/144 249/261/144 255/266/144
f 258/270/151 299/317/281 466/510/282
f 392/421/83 264/275/158 291/307/158
f 189/194/3 190/196/4 276/291/4
f 364/390/274 467/511/283 139/144/284
f 349/372/208 94/96/51 468/512/208
f 469/513/278 458/498/278 461/501/280
f 244/379/12 470/514/12 229/238/12
f 471/515/285 149/152/85 210/451/241
f 428/465/255 429/467/256 267/280/256
f 472/516/286 372/397/273 101/104/273
f 245/254/12 191/197/12 148/437/12
f 378/405/287 185/190/211 39/39/21
f 361/385/213 359/384/212 473/517/288
f 221/229/63 475/518/63 474/519/63
f 476/520/237 165/170/237 166/169/237
f 442/482/268 446/484/12 441/480/268
f 102/103/289 413/445/238 477/521/289
f 478/522/290 33/74/232 316/523/291
f 35/34/63 51/51/63 43/44/63
f 390/419/292 412/444/292 479/524/293
f 310/328/19 121/126/19 184/189/19
f 432/469/258 424/462/252 425/461/251
f 480/525/30 481/526/30 281/296/30
f 348/371/19 212/220/19 120/124/19
f 364/390/237 479/524/237 467/511/237
f 244/253/12 149/255/12 471/527/12
f 482/528/30 328/346/30 364/390/30
f 299/317/281 258/270/151 79/80/150
f 483/529/294 485/530/295 484/531/295
f 76/77/237 486/532/237 391/420/237
f 487/533/237 103/105/237 335/353/237
f 394/423/296 489/534/297 488/535/296
f 490/536/298 49/50/28 50/49/27
f 491/537/34 315/333/35 416/452/35
f 56/55/299 492/538/299 83/85/43
f 133/138/63 475/518/63 284/300/63
f 481/526/263 494/539/263 493/540/263
f 260/272/154 253/263/146 251/262/145
f 124/128/68 41/40/70 184/189/70
f 495/541/237 224/231/237 496/542/237
f 385/413/261 395/424/261 497/543/165
f 498/544/91 431/468/92 350/373/300
f 199/545/30 300/318/30 198/400/30
f 488/535/11 85/86/11 499/546/11
f 303/321/301 206/214/301 306/324/302
f 59/58/32 103/105/55 58/59/32
f 74/76/41 75/78/42 500/547/41
f 147/151/303 501/548/303 210/219/304
f 90/92/30 207/471/30 265/549/30
f 364/390/274 139/144/284 140/143/274
f 9/9/3 10/11/4 190/235/4
f 151/367/19 310/328/19 150/550/19
f 310/328/108 185/190/108 318/551/187
f 196/476/93 119/123/139 195/552/93
f 216/225/128 217/224/129 502/553/129
f 137/140/3 135/139/77 260/272/154
f 365/554/215 193/199/215 174/177/164
f 58/59/237 391/420/237 486/532/237
f 328/346/12 329/348/12 479/524/293
f 169/172/95 139/144/79 168/173/95
f 450/488/30 163/166/30 503/555/30
f 313/331/183 25/26/305 157/161/306
f 74/76/237 412/444/237 504/556/237
f 266/279/12 245/254/12 478/522/12
f 300/318/30 199/545/30 302/319/30
f 472/516/286 222/230/19 371/398/286
f 505/557/19 381/558/19 506/559/19
f 473/517/19 324/341/19 171/174/19
f 330/347/12 508/560/12 507/561/12
f 218/226/12 219/228/12 19/562/12
f 439/478/267 418/563/267 440/479/109
f 227/236/80 509/564/307 141/145/80
f 435/473/30 47/206/30 200/208/30
f 142/147/81 143/146/81 267/280/256
f 370/396/308 445/485/271 510/565/309
f 160/163/277 163/166/92 161/165/91
f 466/510/282 299/317/281 353/377/310
f 162/167/93 163/166/92 511/566/93
f 273/286/166 274/288/167 512/567/311
f 29/28/312 27/27/313 398/426/314
f 513/568/315 448/487/274 514/569/315
f 451/490/14 117/570/14 9/195/3
f 71/72/40 10/11/39 11/10/40
f 65/66/36 515/571/36 67/67/36
f 516/572/11 472/516/11 101/104/11
f 509/564/307 307/325/200 268/281/316
f 454/494/19 517/573/19 455/495/19
f 46/47/30 89/91/30 360/386/30
f 456/496/63 518/574/63 280/295/63
f 162/503/19 519/575/19 463/504/19
f 520/576/317 522/577/318 521/578/317
f 158/162/276 110/112/276 453/492/277
f 206/214/301 147/151/237 205/212/237
f 56/55/299 83/85/43 436/474/43
f 156/160/63 26/25/63 24/24/63
f 523/579/11 83/85/11 492/538/11
f 48/48/27 130/134/73 50/49/27
f 257/269/19 524/580/19 214/221/19
f 441/480/268 525/581/269 443/481/269
f 212/220/126 213/222/127 526/582/127
f 361/385/213 473/517/288 259/271/153
f 428/465/255 316/523/93 252/583/93
f 75/78/203 167/171/94 500/547/94
f 527/584/319 450/488/320 503/555/319
f 195/552/93 431/468/92 498/544/91
f 308/327/30 72/73/30 269/282/30
f 101/104/273 448/487/274 100/102/274
f 528/585/63 404/586/63 529/587/63
f 23/588/321 73/215/321 34/35/321
f 308/327/30 21/21/30 72/73/30
f 279/294/322 216/225/128 530/589/323
f 204/210/119 324/341/190 322/340/190
f 531/590/63 87/90/46 88/89/46
f 394/423/89 338/356/8 158/162/89
f 532/591/318 522/577/318 520/576/317
f 516/572/324 477/521/289 533/592/325
f 499/546/326 394/423/296 488/535/296
f 369/593/327 82/83/328 61/594/328
f 307/325/200 302/319/201 309/326/201
f 534/595/329 404/433/330 528/585/331
f 504/556/332 390/419/292 351/374/332
f 415/448/222 457/497/222 236/449/222
f 535/596/294 483/529/294 521/578/317
f 60/62/63 474/519/63 34/35/63
f 326/345/19 259/271/19 325/343/19
f 442/482/268 493/540/12 446/484/12
f 387/415/222 477/521/333 413/445/222
f 158/162/89 159/164/90 394/423/89
f 321/339/334 231/241/335 54/54/89
f 438/477/266 176/181/262 30/30/262
f 470/597/336 369/593/62 118/598/62
f 295/311/337 536/599/338 201/207/156
f 280/295/19 222/230/19 472/516/286
f 531/600/12 538/601/12 537/602/12
f 462/502/280 539/603/339 461/501/280
f 540/604/340 417/605/244 182/188/341
f 541/606/30 108/109/30 106/108/30
f 478/522/290 245/254/233 33/74/232
f 496/542/342 443/481/343 495/541/343
f 481/526/237 224/231/237 281/296/237
f 444/607/63 439/478/63 542/608/63
f 533/592/344 477/521/333 510/565/333
f 543/609/339 539/603/339 462/502/280
f 226/234/93 225/233/93 357/382/210
f 474/519/12 22/610/12 23/588/12
f 24/611/63 179/612/63 156/613/63
f 268/281/345 307/325/345 308/327/345
f 256/267/19 344/366/19 345/368/19
f 251/262/145 252/264/93 316/334/93
f 29/28/312 293/310/346 134/137/347
f 544/614/12 546/615/12 545/616/12
f 526/582/127 284/300/348 547/617/348
f 179/184/63 60/62/63 129/133/63
f 298/314/165 64/64/35 272/315/165
f 497/543/165 416/452/35 315/333/35
f 161/165/216 159/164/90 160/163/90
f 548/618/19 549/619/19 506/620/19
f 479/524/237 412/444/237 411/443/237
f 191/197/12 240/249/12 332/350/12
f 47/46/30 304/621/30 46/47/30
f 42/42/349 136/141/142 44/43/350
f 360/386/30 21/21/30 108/109/30
f 550/622/89 552/623/89 551/624/89
f 18/625/237 219/626/237 399/627/237
f 365/391/30 553/628/30 347/629/30
f 221/229/63 474/519/63 179/184/63
f 138/142/19 139/144/79 321/339/79
f 539/603/339 555/630/351 554/631/351
f 181/632/352 67/67/352 515/571/352
f 481/526/44 442/482/353 496/542/342
f 556/633/354 223/232/130 224/231/130
f 333/351/265 416/452/242 497/543/355
f 60/62/63 34/35/63 38/358/63
f 195/552/30 342/364/202 454/634/30
f 525/581/356 441/480/357 246/256/358
f 445/485/344 236/449/12 533/592/344
f 285/302/359 199/204/360 197/203/361
f 157/161/362 25/26/363 26/25/364
f 179/184/63 474/519/63 60/62/63
f 49/50/109 187/258/15 48/48/15
f 557/635/365 387/415/366 388/416/365
f 548/636/367 234/637/368 235/638/369
f 558/639/309 387/415/366 559/640/366
f 560/641/370 349/372/208 468/512/208
f 57/57/31 486/532/31 504/556/332
f 204/210/19 315/333/19 203/211/19
f 159/164/297 561/642/371 489/534/297
f 231/241/335 321/339/334 169/172/372
f 388/416/365 449/489/139 557/635/365
f 475/518/63 51/51/63 35/34/63
f 476/520/30 446/643/30 493/644/30
f 500/547/41 411/443/373 74/76/41
f 51/51/63 133/138/63 53/52/63
f 93/94/49 122/125/65 120/124/64
f 323/342/19 324/341/19 473/517/19
f 349/372/208 560/641/370 562/645/370
f 104/107/56 563/646/374 335/353/56
f 555/630/351 560/641/370 554/631/351
f 89/91/30 207/471/30 90/92/30
f 475/518/63 133/138/63 51/51/63
f 527/584/11 423/460/11 564/647/11
f 513/568/11 178/182/11 100/102/11
f 529/648/63 80/82/63 373/399/63
f 25/26/305 313/331/183 11/10/40
f 552/623/374 17/16/375 523/579/376
f 352/375/177 353/377/81 299/317/177
f 307/325/200 565/649/307 301/320/200
f 435/650/30 304/621/30 47/46/30
f 527/584/319 426/464/253 427/463/253
f 360/386/30 108/109/30 541/606/30
f 251/262/185 384/412/377 260/272/378
f 419/456/267 440/651/109 418/454/267
f 106/108/19 359/384/19 541/606/19
f 127/132/63 406/435/63 320/337/63
f 195/552/30 498/544/202 342/364/202
f 377/652/12 545/653/12 546/654/12
f 32/31/263 443/481/269 525/581/269
f 566/655/13 24/611/13 117/570/14
f 384/412/377 251/262/185 208/216/184
f 567/656/63 568/657/63 406/658/63
f 569/659/12 235/243/12 233/242/12
f 400/430/379 220/227/380 218/226/157
f 570/660/12 3/507/12 464/506/12
f 571/661/30 304/621/30 435/650/30
f 572/662/381 274/288/382 340/663/381
f 360/386/19 45/45/19 46/47/19
f 95/98/52 96/97/51 112/115/52
f 323/342/19 359/384/19 106/108/19
f 93/94/19 526/582/19 92/95/19
f 570/660/12 377/652/12 3/507/12
f 128/131/63 134/137/63 127/132/63
f 287/303/172 285/302/172 197/203/172
f 556/633/354 334/352/354 223/232/130
f 235/243/12 569/659/12 5/664/12
f 68/69/37 119/123/139 196/476/93
f 144/148/82 145/150/82 115/118/61
f 4/665/12 5/664/12 569/659/12
f 546/615/383 382/666/384 377/404/385
f 423/460/249 531/590/386 88/89/104
f 408/439/30 238/248/30 573/667/30
f 522/577/318 459/500/279 460/499/279
f 298/314/165 270/316/164 174/177/164
f 357/382/236 437/475/236 353/377/310
f 339/357/196 405/434/134 346/369/196
f 233/242/12 234/244/12 544/668/12
f 171/174/97 259/271/153 473/517/288
f 359/384/19 323/342/19 473/517/19
f 574/669/19 6/670/19 8/671/19
f 300/318/345 575/672/345 374/401/345
f 86/88/45 87/90/46 388/416/45
f 27/27/15 524/580/140 540/604/140
f 367/394/387 368/393/386 561/642/371
f 44/43/239 35/34/240 43/44/388
f 561/642/371 368/393/386 423/460/249
f 407/438/81 354/673/81 352/388/177
f 432/469/389 433/470/389 534/595/390
f 181/632/352 576/674/352 67/67/352
f 420/457/391 577/675/391 282/299/170
f 212/220/19 526/582/19 93/94/19
f 175/179/102 176/181/103 578/676/103
f 393/422/63 236/245/63 446/643/63
f 72/73/392 22/23/392 33/74/392
f 259/271/19 152/155/19 325/343/19
f 165/447/12 579/677/12 415/448/12
f 572/678/393 340/360/393 154/159/88
f 322/340/19 314/332/19 204/210/19
f 260/272/378 384/412/377 228/237/141
f 266/279/161 428/465/394 267/280/162
f 33/33/122 208/216/124 316/334/122
f 256/267/120 257/269/148 348/371/148
f 214/221/19 262/274/19 213/222/19
f 231/241/63 232/240/63 54/54/63
f 32/31/18 525/581/356 247/257/356
f 521/578/317 483/529/294 520/576/317
f 194/200/63 195/202/63 455/495/63
f 62/63/106 580/679/395 131/136/75
f 317/336/396 318/335/197 274/288/397
f 581/680/19 382/408/19 380/407/19
f 578/676/103 438/477/398 487/533/399
f 271/285/165 64/297/35 582/681/35
f 14/13/12 20/682/12 13/14/12
f 120/124/19 212/220/19 93/94/19
f 479/524/237 364/390/237 328/346/237
f 168/173/373 467/511/283 411/443/373
f 202/209/119 203/211/120 256/683/120
f 409/440/34 312/411/140 383/410/140
f 209/217/125 210/219/125 501/548/125
f 254/265/171 285/302/171 288/304/171
f 420/457/245 296/313/400 577/675/245
f 497/543/355 395/424/226 249/261/225
f 186/191/109 187/193/15 440/651/109
f 222/230/19 281/296/19 224/231/130
f 407/438/81 396/425/210 356/684/210
f 530/589/323 14/13/6 279/294/322
f 583/685/19 2/686/19 581/680/19
f 153/157/401 378/405/401 39/39/231
f 513/568/315 450/488/320 564/647/320
f 563/646/374 334/352/354 556/633/354
f 171/174/19 202/209/19 170/175/19
f 278/687/402 12/12/402 13/14/402
f 162/503/30 511/688/30 537/602/30
f 49/50/28 490/536/298 439/478/403
f 399/428/19 400/430/19 18/689/19
f 513/568/315 100/102/274 448/487/274
f 219/626/30 220/227/30 401/429/30
f 29/28/16 133/138/76 28/29/16
f 360/386/30 89/91/30 21/21/30
f 584/690/19 281/296/19 280/295/19
f 540/604/140 491/691/34 417/692/34
f 370/396/308 510/565/309 558/639/309
f 10/11/39 70/71/38 225/233/235
f 278/292/19 279/294/19 12/12/19
f 254/265/147 249/261/147 286/301/147
f 533/592/325 457/497/332 516/572/324
f 230/239/372 167/171/404 389/418/404
f 557/635/30 514/569/30 448/487/30
f 347/370/30 302/319/30 199/545/30
f 281/296/19 584/690/19 585/693/19
f 181/186/107 182/188/107 576/694/107
f 211/695/405 471/696/405 210/697/405
f 5/6/406 548/636/367 235/638/369
f 105/106/63 119/123/63 104/107/63
f 358/383/222 441/480/357 446/484/222
f 84/87/30 109/111/30 436/474/30
f 213/222/19 28/29/19 284/300/19
f 506/559/368 546/615/383 234/637/368
f 192/198/407 509/564/408 268/281/409
f 118/598/12 229/698/12 470/597/12
f 149/152/12 245/699/12 148/153/12
f 207/471/30 46/47/30 304/621/30
f 578/676/237 563/646/237 175/179/237
f 44/43/350 136/141/142 228/237/141
f 191/197/110 90/92/112 265/549/410
f 325/343/19 152/155/19 150/154/19
f 125/129/411 404/433/330 534/595/329
f 132/135/140 187/258/15 312/329/140
f 573/700/63 484/531/63 485/530/63
f 324/341/19 202/209/19 171/174/19
f 18/18/11 278/687/11 20/19/11
f 127/132/189 319/338/189 126/130/189
f 226/289/93 276/291/4 190/196/4
f 426/464/30 453/492/30 84/87/30
f 524/580/19 257/269/19 491/691/19
f 415/448/222 456/496/222 457/497/222
f 217/224/129 586/701/412 502/553/129
f 167/171/94 168/173/95 500/547/94
f 558/639/30 372/397/30 370/396/30
f 270/283/164 271/285/165 366/392/164
f 559/640/30 448/487/30 558/639/30
f 448/487/30 372/397/30 558/639/30
f 540/604/340 241/250/413 27/27/313
f 65/66/194 333/351/194 587/702/194
f 45/45/19 361/385/19 326/345/19
f 370/396/30 222/230/30 358/383/30
f 503/555/30 453/492/30 426/464/30
f 449/489/30 514/569/30 557/635/30
f 508/560/12 330/347/12 328/346/12
f 573/703/12 238/704/12 239/705/12
f 405/706/19 237/707/19 408/439/19
f 110/112/30 84/87/30 453/492/30
f 539/708/19 554/709/19 408/710/19
f 573/711/12 555/712/12 543/713/12
f 453/492/30 503/555/30 163/166/30
f 573/714/12 459/715/12 532/716/12
f 522/717/19 460/718/19 408/719/19
f 557/635/30 448/487/30 559/640/30
f 508/560/12 328/346/12 588/720/12
f 573/721/12 462/722/12 458/723/12
f 469/724/19 461/725/19 408/726/19
f 524/580/19 262/274/19 214/221/19
f 94/727/19 95/728/19 408/729/19
f 573/730/12 112/731/12 96/732/12
f 573/733/12 349/734/12 562/735/12
f 560/736/19 468/737/19 408/738/19
f 449/489/30 450/488/30 514/569/30
f 428/465/255 252/583/93 430/466/255
f 113/739/19 346/740/19 408/741/19
f 573/742/12 339/743/12 111/744/12
f 535/745/19 521/746/19 408/747/19
f 573/748/12 520/749/12 483/750/12
f 273/286/168 282/299/414 275/287/168
f 18/751/19 98/101/19 99/100/19
f 491/691/19 257/269/19 203/268/19
f 97/99/12 331/349/12 19/752/12
f 18/753/19 146/149/19 144/148/19
f 145/150/12 392/421/12 19/754/12
f 114/116/12 115/118/12 19/755/12
f 56/55/30 54/54/30 329/348/30
f 18/756/19 386/414/19 116/117/19
f 216/225/12 502/553/12 19/757/12
f 18/758/19 217/224/19 215/223/19
f 586/701/12 337/355/12 19/759/12
f 215/223/128 216/225/128 279/294/322
f 18/760/19 336/354/19 589/761/19
f 584/690/19 280/295/19 518/574/19
f 14/13/12 530/589/12 19/762/12
f 18/763/19 263/276/19 264/275/19
f 291/307/12 218/226/12 19/764/12
f 392/421/12 291/307/12 19/765/12
f 18/766/19 264/275/19 146/149/19
f 439/478/403 490/536/298 542/608/415
f 18/767/19 400/430/19 263/276/19
f 115/118/12 145/150/12 19/768/12
f 18/769/19 144/148/19 386/414/19
f 18/770/19 116/117/19 98/101/19
f 331/349/12 114/116/12 19/771/12
f 337/355/12 97/99/12 19/772/12
f 18/773/19 99/100/19 336/354/19
f 18/774/19 589/761/19 217/224/19
f 502/553/12 586/701/12 19/775/12
f 18/776/19 215/223/19 279/294/19
f 261/273/155 201/207/156 536/599/338
f 530/589/12 216/225/12 19/777/12
f 573/700/12 483/750/12 484/778/12
f 485/779/19 535/745/19 408/780/19
f 590/781/237 517/573/237 454/494/237
f 284/300/63 92/95/63 547/617/63
f 521/746/19 522/717/19 408/782/19
f 573/783/12 532/716/12 520/749/12
f 460/718/19 469/724/19 408/784/19
f 573/785/12 458/723/12 459/715/12
f 573/786/12 543/713/12 462/722/12
f 461/725/19 539/708/19 408/787/19
f 554/709/19 560/736/19 408/788/19
f 573/789/12 562/735/12 555/712/12
f 573/790/12 96/732/12 349/734/12
f 468/737/19 94/727/19 408/791/19
f 573/792/12 111/744/12 112/731/12
f 95/728/19 113/739/19 408/793/19
f 346/740/19 405/706/19 408/794/19
f 573/795/12 239/705/12 339/743/12
f 303/321/301 306/324/302 305/322/302
f 452/491/237 147/151/237 303/321/301
f 402/431/229 39/39/416 40/41/229
f 56/55/299 330/347/12 492/538/299
f 196/201/12 194/200/12 591/796/12
f 527/584/319 564/647/320 450/488/320
f 110/112/276 158/162/276 338/356/417
f 219/626/30 401/429/30 399/627/30
f 201/207/117 180/185/418 297/312/419
f 526/582/127 213/222/127 284/300/348
f 568/657/420 567/656/420 293/310/420
f 592/797/421 593/798/422 534/595/390
f 54/54/63 232/240/63 329/348/63
f 474/519/12 475/518/12 22/610/12
f 161/165/216 367/394/216 159/164/90
f 459/500/279 522/577/318 532/591/318
f 496/542/237 224/231/237 481/526/237
f 72/73/423 90/92/112 192/198/111
f 92/95/19 526/582/19 547/617/19
f 343/365/300 350/373/300 389/418/404
f 382/408/19 581/680/19 2/686/19
f 24/611/63 566/655/63 179/612/63
f 475/518/424 35/34/424 33/33/424
f 104/107/56 290/306/374 563/646/374
f 388/416/365 87/90/425 449/489/139
f 594/799/426 596/800/426 595/801/426
f 596/800/427 594/799/427 597/802/427
f 558/639/309 510/565/309 387/415/366
f 598/803/428 596/800/428 597/802/428
f 596/800/429 598/803/429 595/801/429
f 49/50/109 440/479/109 187/258/15
f 562/645/370 560/641/370 555/630/351
f 552/623/374 355/804/374 17/16/375
f 135/139/77 136/141/78 447/486/78
f 375/402/270 398/426/270 376/403/270
f 325/343/188 317/336/188 327/344/191
f 93/94/49 91/93/48 122/125/65
f 102/103/289 414/446/238 413/445/238
f 458/498/278 469/513/278 460/499/279
f 286/301/227 395/424/226 285/302/359
f 83/85/43 84/87/44 436/474/43
f 419/456/267 186/191/109 440/651/109
f 463/805/430 599/806/430 538/807/430
f 599/806/431 463/805/431 519/808/431
f 537/809/432 599/806/432 519/808/432
f 599/806/433 537/809/433 538/807/433
f 396/425/210 226/289/93 356/684/210
f 545/653/12 377/652/12 570/660/12
f 431/468/63 59/58/63 57/57/63
f 445/485/344 446/484/12 236/449/12
f 32/31/263 177/180/263 443/481/269
f 487/533/399 590/810/434 391/420/224
f 55/56/257 109/111/417 338/356/417
f 193/199/30 365/554/30 379/406/30
f 63/65/435 580/679/395 62/63/106
f 282/299/436 317/336/396 275/287/437
f 27/27/15 262/274/15 524/580/140
f 497/543/355 249/261/225 250/260/438
f 600/811/439 476/812/439 166/813/439
f 166/813/440 164/814/440 600/811/440
f 600/811/441 164/814/441 393/815/441
f 393/815/442 476/812/442 600/811/442
f 455/816/443 601/817/443 194/818/443
f 601/817/444 455/816/444 517/819/444
f 347/370/260 199/545/260 395/424/261
f 423/460/249 368/393/386 531/590/386
f 563/646/374 290/306/374 334/352/354
f 591/820/445 601/817/445 517/819/445
f 601/817/446 591/820/446 194/818/446
f 2/686/19 583/685/19 7/821/19
f 602/822/443 604/823/443 603/824/443
f 604/823/444 602/822/444 605/825/444
f 549/619/19 548/618/19 574/669/19
f 606/826/445 604/823/445 605/825/445
f 604/823/446 606/826/446 603/824/446
f 516/572/11 101/104/11 102/103/11
f 14/13/12 19/827/12 20/682/12
f 513/568/315 514/569/315 450/488/320
f 578/676/103 176/181/103 438/477/398
f 57/57/31 58/59/32 486/532/31
f 540/604/140 524/580/140 491/691/34
f 168/173/373 139/144/284 467/511/283
f 495/541/343 443/481/343 177/180/102
f 160/163/277 453/492/277 163/166/92
f 472/516/286 371/398/286 372/397/273
f 304/323/121 571/828/121 452/491/121
f 244/379/12 471/829/12 470/514/12
f 196/476/30 590/810/30 438/477/266
f 531/600/11 368/505/11 463/504/11
f 525/581/356 246/256/358 247/257/356
f 523/579/11 492/538/11 330/347/11
f 377/404/385 382/666/384 2/3/220
f 342/364/223 75/78/42 76/77/42
f 476/520/237 493/644/237 165/170/237
f 496/542/342 442/482/353 443/481/343
f 449/489/139 511/566/93 163/166/92
f 204/210/119 202/209/119 324/341/190
f 365/391/30 347/629/30 379/830/30
f 531/590/63 511/566/63 87/90/46
f 607/831/430 609/832/430 608/833/430
f 609/832/431 607/831/431 610/834/431
f 611/835/432 609/832/432 610/834/432
f 609/832/433 611/835/433 608/833/433
f 359/384/212 360/386/214 541/606/447
f 297/312/419 180/185/418 296/313/448
f 375/402/218 241/250/218 434/472/218
f 363/389/94 482/528/94 364/390/94
f 612/836/426 614/837/426 613/838/426
f 614/837/427 612/836/427 615/839/427
f 616/840/428 614/837/428 615/839/428
f 614/837/429 616/840/429 613/838/429
f 499/546/326 15/15/326 394/423/296
f 516/572/324 102/103/289 477/521/289
f 355/380/19 138/142/19 16/17/449
f 543/609/339 555/630/351 539/603/339
f 533/592/344 510/565/333 445/485/344
f 387/415/222 510/565/333 477/521/333
f 344/366/247 121/126/66 151/367/450
f 342/364/202 498/544/202 343/365/203
f 476/520/30 393/422/30 446/643/30
f 527/584/319 503/555/319 426/464/253
f 268/281/345 308/327/345 269/282/345
f 617/841/451 619/842/451 618/843/451
f 619/842/452 617/841/452 620/844/452
f 497/543/165 315/333/35 314/332/165
f 482/528/30 588/720/30 328/346/30
f 621/845/453 619/842/453 620/844/453
f 619/842/454 621/845/454 618/843/454
f 622/846/451 624/847/451 623/848/451
f 624/847/452 622/846/452 625/849/452
f 626/850/453 624/847/453 625/849/453
f 624/847/454 626/850/454 623/848/454
f 321/339/334 54/54/89 138/142/89
f 34/35/206 35/34/240 37/121/207
f 23/588/321 34/35/321 474/519/321
f 627/851/439 629/852/439 628/853/439
f 628/853/440 630/854/440 627/851/440
f 627/851/441 630/854/441 631/855/441
f 631/855/442 629/852/442 627/851/442
f 632/856/439 634/857/439 633/858/439
f 633/858/440 635/859/440 632/856/440
f 632/856/441 635/859/441 636/860/441
f 636/860/442 634/857/442 632/856/442
f 637/861/439 639/862/439 638/863/439
f 638/863/440 640/864/440 637/861/440
f 637/861/441 640/864/441 641/865/441
f 641/865/442 639/862/442 637/861/442
f 548/636/367 506/559/368 234/637/368
f 409/440/34 582/681/35 64/297/35
f 546/615/383 381/558/383 382/666/384
f 170/175/19 202/209/19 256/683/19
f 72/73/392 21/21/392 22/23/392
f 356/381/210 353/377/81 354/376/81
f 5/6/406 6/5/406 548/636/455
f 300/318/345 301/320/345 575/672/345
f 506/559/368 381/558/383 546/615/383
f 531/600/12 537/602/12 511/688/12
f 162/503/30 537/602/30 519/575/30
f 528/585/63 529/587/63 592/797/63
f 358/383/222 246/256/358 441/480/357
f 203/211/19 315/333/19 491/537/19
f 159/164/297 367/394/387 561/642/371
f 544/614/12 234/637/12 546/615/12
f 505/557/19 380/866/19 381/558/19
f 341/361/178 352/388/177 289/362/178
f 531/600/11 463/504/11 538/601/11
f 486/532/237 76/77/237 504/556/237
f 491/537/34 416/452/35 417/453/34
f 385/413/261 497/543/165 314/332/165
f 18/625/237 19/867/237 219/626/237
f 110/112/276 338/356/417 109/111/417
f 227/236/80 565/649/307 509/564/307
f 485/530/295 483/529/294 535/596/294
f 390/419/292 479/524/293 232/240/293
f 402/431/250 40/41/250 425/461/251
f 480/525/30 281/296/30 585/693/30
f 507/561/63 552/623/63 330/347/63
f 175/179/237 556/633/237 495/541/237
f 175/179/237 563/646/237 556/633/237
f 74/76/237 504/556/237 76/77/237
f 391/420/237 103/105/237 487/533/237
f 487/533/237 335/353/237 578/676/237
f 511/566/93 449/489/139 87/90/425
f 578/676/237 335/353/237 563/646/237
f 284/300/63 221/229/63 92/95/63
f 467/511/237 479/524/237 411/443/237
f 55/56/257 338/356/417 16/17/254
f 495/541/343 177/180/102 175/179/102
f 353/377/310 437/475/236 466/510/282
f 342/364/223 391/420/224 454/634/434
f 454/634/434 391/420/224 590/810/434
f 295/311/175 296/313/176 421/458/246
f 590/810/434 487/533/399 438/477/398
f 557/635/365 559/640/366 387/415/366
f 133/138/63 134/137/63 128/131/63
f 191/197/12 332/350/12 192/198/12
f 59/58/32 105/106/55 103/105/55
f 417/453/244 67/67/243 576/674/456
f 180/185/418 327/344/457 296/313/448
f 494/539/12 165/447/12 493/540/12
f 568/657/420 293/310/420 294/309/420
f 348/371/19 344/366/19 256/267/19
f 196/201/12 591/796/12 590/781/12
f 104/107/63 69/70/63 290/306/63
f 333/351/458 248/259/458 587/702/458
f 182/188/341 417/605/244 576/694/456
f 241/250/413 540/604/340 243/251/459
f 343/365/300 389/418/404 167/171/404
f 72/73/423 192/198/111 269/282/423
f 333/351/265 497/543/355 250/260/438
f 296/313/448 327/344/457 577/675/460
f 592/797/421 534/595/461 528/585/421
f 404/433/63 123/183/63 80/82/63
f 180/185/418 201/207/117 47/206/116
f 376/403/462 27/27/313 241/250/413
f 358/383/263 445/485/271 370/396/308
f 243/251/459 540/604/340 182/188/341
f 589/761/412 586/701/412 217/224/129
f 329/348/12 330/347/12 56/55/299
f 284/300/63 475/518/63 221/229/63
f 404/433/63 80/82/63 529/648/63
f 121/126/19 310/328/19 151/367/19
f 292/308/174 293/310/174 422/459/174
f 433/470/463 125/129/411 534/595/329
f 573/700/63 485/530/63 408/868/63
f 179/184/63 123/183/63 404/433/63
f 586/701/412 336/354/195 337/355/195
f 500/547/41 168/173/373 411/443/373
f 126/130/272 52/53/272 53/52/275
f 447/486/78 126/130/272 319/338/464
f 224/231/237 495/541/237 556/633/237
f 41/40/22 425/461/465 40/41/23
f 425/461/465 125/129/411 433/470/463
f 52/53/272 447/486/78 136/141/78
f 350/373/63 351/374/63 389/418/63
f 481/526/44 493/540/44 442/482/353
f 550/622/89 355/380/89 552/623/89
f 494/539/12 579/869/12 165/447/12
f 420/457/391 282/299/170 283/298/169
f 336/354/195 586/701/412 589/761/412
f 125/129/411 425/461/465 41/40/22
f 52/53/272 136/141/78 42/42/464
f 523/579/376 15/15/326 499/546/326
f 278/687/402 13/14/402 20/19/402
f 407/438/81 356/684/210 354/673/81
f 153/157/401 39/39/231 403/432/230
f 24/24/13 25/26/14 117/119/14
f 509/564/408 332/350/193 141/145/137
f 317/336/396 282/299/436 327/344/457
f 184/189/19 121/126/19 122/125/19
f 395/424/226 199/204/360 285/302/359
f 478/522/466 428/465/394 266/279/161
f 327/344/457 282/299/436 577/675/460
f 431/468/92 195/552/93 119/123/139
f 274/288/397 318/335/197 340/663/199
f 32/31/18 247/257/356 31/32/18
f 479/524/293 329/348/12 232/240/293
f 75/78/203 343/365/203 167/171/94
f 580/679/395 63/65/435 465/509/248
f 223/232/63 334/352/63 247/257/63
f 316/523/467 428/465/394 478/522/466
f 260/272/378 228/237/141 137/140/143
f 533/592/325 236/449/332 457/497/332
f 55/56/30 436/474/30 109/111/30
f 465/509/248 63/65/435 298/314/248
f 275/287/437 317/336/396 274/288/397
f 332/350/193 509/564/408 192/198/407
f 84/87/44 85/86/44 427/463/253
f 548/618/19 6/670/19 574/669/19
f 230/239/372 169/172/372 167/171/404
f 333/351/458 250/260/458 248/259/458
f 279/294/322 14/13/6 12/12/5
f 103/105/237 391/420/237 58/59/237
f 383/410/140 187/193/15 188/192/15
f 242/252/217 182/188/217 183/187/217
f 504/556/332 412/444/292 390/419/292
f 400/430/379 218/226/157 263/276/159
f 506/620/19 549/619/19 505/870/19
f 444/607/63 418/563/63 439/478/63
f 572/678/393 154/159/88 155/158/87
f 432/469/389 534/595/390 593/798/422
f 567/656/63 406/658/63 134/871/63
f 184/189/19 122/125/19 124/128/19
f 220/227/380 400/430/379 401/429/468
f 162/167/63 367/394/216 161/165/216
f 566/655/13 117/570/14 451/490/14
f 310/328/108 318/551/187 150/550/187
f 565/649/307 307/325/200 509/564/307
f 365/554/215 174/177/164 270/316/164
f 501/548/303 147/151/303 452/491/469
f 301/320/200 565/649/307 575/672/316
f 523/579/376 17/16/375 15/15/326
f 293/310/346 29/28/312 422/459/470
f 523/579/11 330/347/11 552/623/11
f 489/534/11 427/463/11 85/86/11
f 564/647/11 178/182/11 513/568/11
f 499/546/11 83/85/11 523/579/11
f 561/642/11 427/463/11 489/534/11
f 365/391/215 366/392/164 553/628/215
f 475/518/424 33/33/424 22/610/424
f 51/51/189 42/42/189 43/44/189
f 423/460/11 527/584/11 561/642/11
f 489/534/11 85/86/11 488/535/11
f 85/86/11 83/85/11 499/546/11
f 561/642/11 527/584/11 427/463/11
f 302/319/30 347/370/30 309/326/30
f 102/103/11 100/102/11 414/446/11
f 472/516/11 457/497/11 280/295/11
f 409/440/34 64/297/35 311/441/34
f 231/241/335 169/172/372 230/239/372
f 457/497/11 472/516/11 516/572/11
f 414/446/11 100/102/11 178/182/11
f 398/426/314 27/27/313 376/403/462
f 572/662/381 512/567/311 274/288/167
f 498/544/91 350/373/300 343/365/300
f 150/154/187 317/336/188 325/343/188
f 590/781/237 591/796/237 517/573/237
f 422/459/470 29/28/312 398/426/314
f 57/57/31 504/556/332 351/374/332
f 178/182/11 564/647/11 423/460/11
f 226/234/93 357/382/210 356/381/210
f 295/311/337 201/207/471 297/312/337
f 211/695/472 470/597/336 471/696/473
f 481/526/263 480/525/263 494/539/263
f 507/561/63 551/624/63 552/623/63
f 378/405/287 154/159/198 185/190/211
f 438/477/266 30/30/262 68/69/266
f 82/83/328 369/593/327 81/84/327
f 129/872/474 82/83/328 123/127/474
f 81/84/327 369/593/327 209/873/475
f 369/593/62 470/597/336 211/695/472
f 567/656/476 134/137/347 293/310/346
f 209/873/477 369/593/477 211/695/477
f 206/214/301 303/321/301 147/151/237
f 369/593/327 61/594/328 36/36/11
f 61/594/328 82/83/328 129/872/474
f 394/423/296 159/164/297 489/534/297
l 642 584
