# Blender v2.93.1 OBJ File: ''
# www.blender.org
mtllib bf_rail_piston_corner.mtl
o Cube.008_Cube.012
v 0.125000 -0.500000 0.125000
v 0.125000 -0.500000 -0.125000
v 0.000000 -0.600000 -0.000000
v -0.125000 -0.500000 -0.125000
v -0.125250 -0.500000 0.125000
v 0.500000 0.125000 0.125000
v 0.500000 0.125000 -0.125000
v 0.600000 0.000000 0.000000
v 0.500000 -0.125000 -0.125000
v 0.500000 -0.125000 0.125000
v -0.500000 0.125000 0.125000
v -0.600000 0.000000 0.000000
v -0.500000 0.125000 -0.125000
v -0.500000 -0.125000 -0.125000
v -0.500000 -0.125250 0.125000
v 0.125000 0.500000 0.125000
v 0.000000 0.600000 0.000000
v 0.125000 0.500000 -0.125000
v -0.125000 0.500000 -0.125000
v -0.125000 0.500000 0.125000
v 0.125000 -0.125000 -0.500000
v 0.000000 0.000000 -0.600000
v -0.125000 -0.125000 -0.500000
v -0.125000 0.125000 -0.500000
v 0.125000 0.125000 -0.500000
v -0.500000 0.500000 -0.200000
v -0.500000 0.500000 0.200000
v -0.500000 0.302500 -0.125000
v -0.400000 0.500000 -0.400000
v -0.400000 0.500000 -0.200000
v -0.500000 0.400000 -0.300000
v 0.500000 -0.400000 -0.400000
v 0.400000 -0.400000 -0.500000
v 0.400000 -0.500000 -0.400000
v -0.500000 -0.500000 0.200000
v -0.500000 -0.500000 -0.200000
v -0.500000 -0.300000 -0.125000
v 0.400000 0.500000 0.400000
v -0.400000 0.500000 0.400000
v -0.400000 0.500000 0.200000
v -0.500000 -0.300000 -0.400000
v -0.500000 -0.400000 -0.400000
v -0.400000 -0.400000 -0.500000
v 0.400000 -0.500000 -0.300000
v 0.500000 -0.400000 -0.200000
v -0.400000 0.400000 -0.500000
v -0.500000 0.400000 -0.400000
v -0.500000 0.300000 -0.400000
v 0.400000 -0.500000 0.300000
v 0.500000 -0.400000 0.400000
v 0.500000 -0.400000 0.200000
v -0.500000 0.200000 -0.250000
v 0.400000 0.500000 -0.400000
v -0.500000 -0.200000 -0.250000
v 0.300000 -0.499999 -0.400000
v 0.500000 -0.500000 0.200000
v 0.500000 -0.500000 -0.200000
v -0.400000 -0.500000 0.400000
v -0.400000 -0.500000 0.300000
v -0.500000 -0.400000 0.300000
v 0.240000 -0.500000 0.180000
v 0.300000 -0.500000 0.400000
v 0.300000 -0.500000 0.150000
v -0.500000 0.240000 0.180000
v -0.500000 0.300000 0.150000
v -0.500000 0.300000 0.400000
v -0.240000 -0.500000 0.180000
v -0.299999 -0.500000 0.400000
v -0.240000 -0.500000 0.400000
v -0.400000 -0.500000 -0.400000
v -0.500000 0.400000 0.300000
v 0.400000 0.400000 -0.500000
v -0.500000 -0.300000 0.400000
v -0.500000 -0.400000 0.400000
v -0.300000 -0.500000 0.150000
v -0.500000 -0.300000 0.150000
v 0.500000 0.400000 -0.400000
v -0.400000 -0.500000 -0.300000
v -0.500000 -0.400000 -0.300000
v -0.500000 0.400000 0.400000
v -0.300000 -0.500000 -0.400000
v 0.500000 0.400000 0.400000
v -0.500000 -0.240000 0.180000
v -0.500000 -0.240000 0.400000
v -0.500000 0.240000 0.400000
v 0.400000 -0.500000 0.400000
v 0.240000 -0.500000 0.400000
v -0.200000 -0.500000 -0.250000
v -0.300000 -0.500000 -0.125000
v -0.500000 -0.500000 0.500000
v -0.125000 -0.500000 0.400000
v -0.500000 -0.500000 0.400000
v -0.500965 0.499967 0.500000
v -0.500605 0.124968 0.400000
v -0.500965 0.499967 0.400000
v 0.125000 -0.500000 0.500000
v 0.500000 -0.500000 0.400000
v 0.125000 -0.500000 0.400000
v -0.500364 -0.125032 0.500000
v -0.500364 -0.125032 0.400000
v 0.111842 -0.378367 0.400000
v 0.111842 -0.378367 0.500000
v -0.153685 -0.356461 0.400000
v -0.125000 -0.500000 0.500000
v -0.153685 -0.356461 0.500000
v -0.378963 0.111961 0.500000
v 0.500000 0.499967 0.500000
v -0.235005 -0.234748 0.400000
v -0.356802 -0.153561 0.400000
v -0.378963 0.111961 0.400000
v 0.500000 0.499967 0.400000
v -0.500083 -0.500109 0.500000
v -0.235005 -0.234748 0.500000
v -0.356802 -0.153561 0.500000
v 0.018519 -0.153172 0.400000
v -0.058313 -0.057886 0.400000
v 0.018519 -0.153172 0.500000
v -0.058313 -0.057886 0.500000
v -0.153676 0.018856 0.400000
v -0.153676 0.018856 0.500000
v 0.077254 -0.260714 0.400000
v 0.077254 -0.260715 0.500000
v 0.500000 -0.500000 0.500000
v -0.261281 0.077471 0.500000
v -0.261281 0.077471 0.400000
v -0.500604 0.124968 0.500000
v -0.222966 -0.385185 0.200000
v -0.217341 0.183746 0.400000
v -0.364486 0.185550 0.200000
v -0.364486 0.185550 0.400000
v 0.022965 0.023471 0.400000
v 0.080837 -0.111442 0.200000
v 0.022965 0.023471 0.180000
v -0.427217 -0.133338 -0.125000
v -0.356897 -0.153792 0.125000
v -0.356802 -0.153561 -0.125000
v -0.334619 -0.389644 -0.125000
v -0.189209 -0.292273 -0.125000
v -0.315342 -0.423484 -0.125000
v -0.378920 0.112176 0.125000
v -0.500605 0.124968 -0.125000
v -0.378963 0.111961 -0.125000
v 0.185417 -0.363819 -0.085000
v 0.200000 -0.500000 -0.060000
v 0.200000 -0.500000 -0.085000
v 0.018597 -0.153120 0.125000
v -0.058313 -0.057886 -0.125000
v 0.018519 -0.153172 -0.125000
v -0.200000 -0.500000 -0.085000
v -0.200000 -0.500000 -0.125000
v -0.344702 0.286123 -0.125000
v -0.500773 0.299968 0.150000
v -0.345184 0.283670 0.150000
v -0.500773 0.299968 -0.400000
v -0.305086 -0.460806 0.150000
v -0.500254 -0.240032 0.400000
v -0.385458 -0.222870 0.200000
v -0.385458 -0.222870 0.400000
v -0.112006 0.081214 0.200000
v -0.217341 0.183746 0.180000
v -0.364486 0.185550 -0.060000
v -0.344702 0.286123 -0.010000
v -0.232625 0.146781 -0.060000
v -0.133410 -0.426860 -0.125000
v -0.112006 0.081214 0.400000
v -0.316283 -0.316104 0.400000
v -0.222966 -0.385185 0.400000
v -0.500715 0.239968 0.400000
v -0.500715 0.239968 0.180000
v 0.200000 -0.500000 -0.125000
v 0.185417 -0.363819 -0.125000
v 0.302500 -0.500000 -0.125000
v -0.316283 -0.316104 0.180000
v 0.183485 -0.216671 0.400000
v 0.080837 -0.111442 0.400000
v 0.166005 -0.054410 -0.125000
v 0.065371 0.065918 0.150000
v 0.163928 -0.055801 0.150000
v 0.185417 -0.363819 0.200000
v 0.183485 -0.216671 0.180000
v -0.441693 -0.206927 -0.060000
v -0.424622 -0.317593 -0.010000
v -0.461478 -0.307500 -0.010000
v -0.389805 -0.334511 0.150000
v -0.358689 -0.358551 -0.125000
v -0.358689 -0.358551 0.150000
v -0.189417 -0.292412 0.125000
v -0.153916 -0.356557 0.125000
v -0.292576 -0.189007 -0.125000
v -0.235181 -0.234924 0.125000
v -0.235005 -0.234748 -0.125000
v -0.500292 -0.200033 -0.085000
v -0.441693 -0.206928 -0.085000
v -0.500194 -0.302532 -0.085000
v -0.500292 -0.200032 -0.060000
v -0.500194 -0.302532 -0.010000
v -0.302500 -0.500000 -0.085000
v -0.200000 -0.500000 -0.060000
v 0.302500 -0.500000 -0.085000
v 0.302500 -0.500000 -0.010000
v -0.500292 -0.200032 -0.250000
v -0.500196 -0.300032 -0.400000
v -0.500775 0.302467 -0.085000
v -0.500677 0.199967 -0.060000
v -0.500677 0.199967 -0.085000
v -0.500292 -0.200033 -0.125000
v -0.441693 -0.206928 -0.125000
v -0.500196 -0.300032 -0.125000
v -0.500677 0.199967 -0.250000
v 0.185417 -0.363819 0.400000
v 0.200000 -0.500000 -0.250000
v -0.500677 0.199967 -0.125000
v -0.500775 0.302467 -0.125000
v -0.460995 -0.305047 -0.125000
v -0.423667 -0.315283 0.150000
v -0.460995 -0.305047 0.150000
v -0.206985 -0.441408 -0.060000
v -0.302500 -0.500000 -0.010000
v -0.307538 -0.461291 -0.010000
v -0.055057 0.166438 -0.125000
v -0.194416 0.239194 0.150000
v -0.056446 0.164360 0.150000
v -0.153589 0.018986 0.125000
v -0.261281 0.077471 -0.125000
v -0.153676 0.018856 -0.125000
v -0.500196 -0.300032 0.150000
v -0.261209 0.077644 0.125000
v -0.500364 -0.125282 0.125000
v -0.500364 -0.125032 -0.125000
v 0.285970 -0.343936 -0.125000
v 0.238911 -0.193692 0.150000
v 0.283518 -0.344421 0.150000
v -0.153685 -0.356461 -0.125000
v -0.315342 -0.423484 0.150000
v -0.334619 -0.389644 0.150000
v 0.111873 -0.378361 0.125000
v 0.077254 -0.260714 -0.125000
v 0.111842 -0.378367 -0.125000
v 0.077311 -0.260691 0.125000
v -0.058225 -0.057797 0.125000
v -0.389805 -0.334511 -0.125000
v -0.305086 -0.460806 -0.125000
v -0.112006 0.081215 -0.085000
v -0.005306 -0.004827 -0.125000
v -0.112006 0.081215 -0.125000
v -0.112006 0.081215 -0.060000
v -0.005306 -0.004827 -0.085000
v -0.232625 0.146781 -0.085000
v -0.364486 0.185550 -0.085000
v 0.080837 -0.111442 -0.060000
v 0.166005 -0.054410 -0.010000
v 0.146535 -0.231991 -0.060000
v -0.364486 0.185550 -0.125000
v -0.232625 0.146781 -0.125000
v 0.080837 -0.111442 -0.085000
v 0.146535 -0.231990 -0.125000
v 0.080837 -0.111442 -0.125000
v -0.055057 0.166438 -0.010000
v -0.005306 -0.004827 -0.060000
v 0.146535 -0.231991 -0.085000
v 0.185417 -0.363818 -0.060000
v -0.251528 -0.334003 -0.085000
v -0.288012 -0.287806 -0.125000
v -0.251528 -0.334003 -0.125000
v -0.251528 -0.334003 -0.060000
v -0.288012 -0.287806 -0.085000
v 0.285971 -0.343936 -0.010000
v -0.317651 -0.424441 -0.010000
v -0.336696 -0.391034 -0.010000
v -0.334246 -0.251366 -0.085000
v -0.385458 -0.222871 -0.125000
v -0.334246 -0.251366 -0.125000
v -0.385458 -0.222870 -0.060000
v -0.385458 -0.222871 -0.085000
v -0.334245 -0.251366 -0.060000
v -0.222967 -0.385185 -0.085000
v -0.206985 -0.441408 -0.085000
v -0.206985 -0.441408 -0.125000
v -0.222967 -0.385185 -0.125000
v -0.360455 -0.360319 -0.010000
v -0.391194 -0.336589 -0.010000
v -0.222966 -0.385185 -0.060000
v -0.500254 -0.240032 0.180000
v -0.427265 -0.133583 0.125000
v -0.423667 -0.315283 -0.125000
v -0.500605 0.125217 0.125000
v -0.500775 0.302467 -0.010000
v -0.193461 0.241504 -0.010000
v -0.133655 -0.426909 0.125000
v 0.067137 0.067686 -0.125000
v -0.292714 -0.189215 0.125000
v -0.193461 0.241504 -0.125000
v 0.241220 -0.192734 -0.125000
v 0.067137 0.067686 -0.010000
v 0.241220 -0.192734 -0.010000
v -0.288012 -0.287806 -0.060000
vt 0.001250 0.001250
vt 0.031250 0.031250
vt 0.061250 0.001250
vt 0.061250 0.061250
vt 0.001250 0.061250
vt 0.001250 0.001250
vt 0.031250 0.031250
vt 0.061250 0.001250
vt 0.061250 0.061250
vt 0.001250 0.061250
vt 0.001250 0.001250
vt 0.061250 0.001250
vt 0.031250 0.031250
vt 0.061250 0.061250
vt 0.001250 0.061250
vt 0.001250 0.001250
vt 0.061250 0.001250
vt 0.031250 0.031250
vt 0.061250 0.061250
vt 0.001250 0.061250
vt 0.001250 0.001250
vt 0.061250 0.001250
vt 0.031250 0.031250
vt 0.061250 0.061250
vt 0.001250 0.061250
vt 0.811118 0.917588
vt 0.917588 0.917588
vt 0.896294 0.789824
vt 0.811118 0.917588
vt 0.839185 0.907084
vt 0.811118 0.917588
vt 0.853706 0.794083
vt 0.853706 0.789824
vt 0.853706 0.794083
vt 0.896294 0.913329
vt 0.900553 0.917588
vt 0.853706 0.913329
vt 0.896294 0.828153
vt 0.896294 0.794083
vt 0.896294 0.794083
vt 0.845799 0.916144
vt 0.849447 0.913329
vt 0.853876 0.916282
vt 0.811118 0.917588
vt 0.811118 0.917588
vt 0.839185 0.907084
vt 0.900553 0.917588
vt 0.917588 0.917588
vt 0.917588 0.917588
vt 0.815377 0.913329
vt 0.829645 0.915868
vt 0.821569 0.915730
vt 0.896198 0.849179
vt 0.896294 0.794083
vt 0.896294 0.794083
vt 0.845246 0.909207
vt 0.811118 0.879259
vt 0.811118 0.913329
vt 0.857366 0.913453
vt 0.917588 0.917588
vt 0.829645 0.915868
vt 0.815377 0.913329
vt 0.821569 0.915730
vt 0.896294 0.794083
vt 0.811118 0.917588
vt 0.897714 0.917588
vt 0.892001 0.915763
vt 0.892001 0.915763
vt 0.542588 0.980088
vt 0.542588 0.980088
vt 0.537264 0.948147
vt 0.900553 0.917588
vt 0.542588 0.980088
vt 0.537264 0.948147
vt 0.542588 0.980088
vt 0.525553 0.980088
vt 0.525553 0.980088
vt 0.524488 0.980088
vt 0.853706 0.794083
vt 0.896294 0.794083
vt 0.853876 0.916282
vt 0.853706 0.794083
vt 0.853706 0.828153
vt 0.853706 0.794083
vt 0.912264 0.885647
vt 0.896198 0.849179
vt 0.917588 0.917588
vt 0.815377 0.879259
vt 0.899488 0.917588
vt 0.897714 0.917588
vt 0.525553 0.980088
vt 0.900553 0.917588
vt 0.811118 0.879259
vt 0.849447 0.879259
vt 0.853706 0.828153
vt 0.853706 0.794083
vt 0.863427 0.915576
vt 0.863427 0.915576
vt 0.853706 0.794083
vt 0.853706 0.789824
vt 0.811118 0.913329
vt 0.900553 0.917588
vt 0.900553 0.917588
vt 0.917588 0.917588
vt 0.903392 0.832412
vt 0.845799 0.916144
vt 0.896294 0.828153
vt 0.525553 0.980088
vt 0.524488 0.980088
vt 0.525553 0.980088
vt 0.542588 0.980088
vt 0.853706 0.794083
vt 0.903392 0.832412
vt 0.525553 0.980088
vt 0.542588 0.980088
vt 0.857366 0.913453
vt 0.900553 0.917588
vt 0.312500 0.937500
vt 0.062500 0.937500
vt 0.062500 0.687500
vt 0.312500 0.937500
vt 0.062500 0.937500
vt 0.062500 0.687500
vt 0.312500 0.937500
vt 0.062500 0.937500
vt 0.062500 0.687500
vt 0.312500 0.937500
vt 0.062500 0.937500
vt 0.062500 0.687500
vt 0.312500 0.906250
vt 0.062500 0.906250
vt 0.062500 0.750000
vt 0.312500 0.750000
vt 0.312500 0.687500
vt 0.312500 0.718750
vt 0.062500 0.718750
vt 0.062500 0.687500
vt 0.312500 0.812500
vt 0.312500 0.750000
vt 0.312500 0.687500
vt 0.062500 0.718750
vt 0.312500 0.906250
vt 0.062500 0.906250
vt 0.312500 0.750000
vt 0.312500 0.687500
vt 0.062500 0.875000
vt 0.312500 0.875000
vt 0.312500 0.812500
vt 0.062500 0.750000
vt 0.062500 0.687500
vt 0.062500 0.843750
vt 0.062500 0.812500
vt 0.312500 0.812500
vt 0.062500 0.843750
vt 0.312500 0.812500
vt 0.312500 0.843750
vt 0.312500 0.781250
vt 0.062500 0.781250
vt 0.062500 0.875000
vt 0.312500 0.875000
vt 0.312500 0.875000
vt 0.062500 0.875000
vt 0.312500 0.843750
vt 0.312500 0.718750
vt 0.312500 0.687500
vt 0.312500 0.937500
vt 0.312500 0.750000
vt 0.062500 0.750000
vt 0.312500 0.750000
vt 0.062500 0.781250
vt 0.062500 0.812500
vt 0.312500 0.781250
vt 0.312500 0.687500
vt 0.062500 0.750000
vt 0.062500 0.937500
vt 0.525553 0.974765
vt 0.542588 0.948147
vt 0.542588 0.942824
vt 0.542588 0.942824
vt 0.542588 0.958794
vt 0.542588 0.958794
vt 0.542588 0.964118
vt 0.900553 0.880324
vt 0.900553 0.885647
vt 0.900553 0.885647
vt 0.900553 0.901618
vt 0.900553 0.906941
vt 0.900553 0.901618
vt 0.917588 0.880324
vt 0.917588 0.880324
vt 0.917588 0.875000
vt 0.812500 0.062500
vt 0.812500 0.062500
vt 0.812500 0.062500
vt 0.917588 0.901618
vt 0.917588 0.901618
vt 0.917588 0.896294
vt 0.875000 0.937500
vt 0.875000 0.937500
vt 0.875000 0.937500
vt 0.917588 0.880324
vt 0.917588 0.880323
vt 0.917588 0.875000
vt 0.830219 0.875000
vt 0.900553 0.912264
vt 0.900553 0.917588
vt 0.525553 0.937500
vt 0.525553 0.942824
vt 0.525553 0.942824
vt 0.542588 0.948147
vt 0.542588 0.953471
vt 0.812500 0.062500
vt 0.812500 0.062500
vt 0.812500 0.062500
vt 0.900553 0.912264
vt 0.542588 0.953471
vt 0.525553 0.969441
vt 0.525553 0.974765
vt 0.542588 0.937500
vt 0.542588 0.937500
vt 0.875000 0.937500
vt 0.875000 0.937500
vt 0.875000 0.937500
vt 0.875000 0.937500
vt 0.875000 0.937500
vt 0.525553 0.948147
vt 0.525553 0.948147
vt 0.542588 0.969441
vt 0.542588 0.964118
vt 0.917588 0.901618
vt 0.917588 0.901618
vt 0.917588 0.896294
vt 0.542588 0.969441
vt 0.542588 0.974765
vt 0.812500 0.062500
vt 0.812500 0.062500
vt 0.812500 0.062500
vt 0.900553 0.890970
vt 0.900553 0.896294
vt 0.900553 0.896294
vt 0.900553 0.901618
vt 0.900553 0.906941
vt 0.900553 0.890970
vt 0.900553 0.896294
vt 0.900553 0.896294
vt 0.812500 0.062500
vt 0.812500 0.062500
vt 0.812500 0.062500
vt 0.812500 0.062500
vt 0.812500 0.062500
vt 0.812500 0.062500
vt 0.812500 0.062500
vt 0.812500 0.062500
vt 0.812500 0.062500
vt 0.812500 0.062500
vt 0.846280 0.875000
vt 0.858745 0.875000
vt 0.812500 0.062500
vt 0.812500 0.062500
vt 0.812500 0.062500
vt 0.875000 0.937500
vt 0.875000 0.937500
vt 0.875000 0.937500
vt 0.875000 0.937500
vt 0.875000 0.937500
vt 0.875000 0.937500
vt 0.848040 0.875000
vt 0.542588 0.974765
vt 0.845246 0.909207
vt 0.875000 0.937500
vt 0.875000 0.937500
vt 0.875000 0.937500
vt 0.900553 0.880324
vt 0.900553 0.880324
vt 0.900553 0.885647
vt 0.812500 0.062500
vt 0.812500 0.062500
vt 0.812500 0.062500
vt 0.917588 0.890970
vt 0.917588 0.890971
vt 0.917588 0.885647
vt 0.917588 0.890970
vt 0.917588 0.890971
vt 0.917588 0.885647
vt 0.900553 0.875000
vt 0.917588 0.885647
vt 0.900553 0.875000
vt 0.900553 0.875000
vt 0.917588 0.912264
vt 0.917588 0.912265
vt 0.917588 0.906941
vt 0.900553 0.906941
vt 0.900553 0.901617
vt 0.900553 0.906941
vt 0.917588 0.912265
vt 0.917588 0.912265
vt 0.917588 0.906941
vt 0.917588 0.906941
vt 0.917588 0.896294
vt 0.900553 0.890970
vt 0.542588 0.937500
vt 0.917588 0.917588
vt 0.900553 0.912264
vt 0.875000 0.937500
vt 0.875000 0.937500
vt 0.875000 0.937500
vt 0.812500 0.062500
vt 0.812500 0.062500
vt 0.812500 0.062500
vt 0.812500 0.062500
vt 0.812500 0.062500
vt 0.812500 0.062500
vt 0.812500 0.062500
vt 0.812500 0.062500
vt 0.875000 0.937500
vt 0.875000 0.937500
vt 0.875000 0.937500
vt 0.875000 0.937500
vt 0.875000 0.937500
vt 0.875000 0.937500
vt 0.875000 0.937500
vt 0.812500 0.062500
vt 0.812500 0.062500
vt 0.812500 0.062500
vt 0.812500 0.062500
vt 0.875000 0.937500
vt 0.875000 0.937500
vt 0.812500 0.062500
vt 0.875000 0.937500
vt 0.875000 0.937500
vt 0.875000 0.937500
vt 0.812500 0.062500
vt 0.812500 0.062500
vt 0.812500 0.062500
vt 0.812500 0.062500
vt 0.812500 0.062500
vt 0.812500 0.062500
vt 0.875000 0.937500
vt 0.875000 0.937500
vt 0.875000 0.937500
vt 0.812500 0.062500
vt 0.812500 0.062500
vt 0.812500 0.062500
vt 0.875000 0.937500
vt 0.812500 0.062500
vt 0.875000 0.937500
vt 0.812500 0.062500
vt 0.812500 0.062500
vt 0.875000 0.937500
vt 0.875000 0.937500
vt 0.875000 0.937500
vt 0.812500 0.062500
vt 0.812500 0.062500
vt 0.812500 0.062500
vt 0.525553 0.937500
vt 0.525553 0.937500
vt 0.525553 0.969441
vt 0.917588 0.917588
vt 0.896294 0.789824
vt 0.912264 0.885647
vt 0.899488 0.917588
vt 0.312500 0.687500
vt 0.312500 0.875000
vt 0.312500 0.937500
vt 0.312500 0.718750
vt 0.062500 0.812500
vt 0.062500 0.812500
vt 0.062500 0.875000
vt 0.062500 0.937500
vt 0.062500 0.718750
vt 0.312500 0.906250
vt 0.062500 0.906250
vt 0.900553 0.880324
vt 0.900553 0.875000
vt 0.900553 0.885647
vt 0.917588 0.875000
vt 0.875000 0.937500
vt 0.917588 0.875000
vt 0.812500 0.062500
vt 0.812500 0.062500
vt 0.900553 0.912264
vt 0.875000 0.937500
vt 0.917588 0.896294
vt 0.900553 0.890970
vt 0.917588 0.885647
vt 0.917588 0.906941
vt 0.812500 0.062500
vt 0.812500 0.062500
vt 0.875000 0.937500
vt 0.812500 0.062500
vt 0.875000 0.937500
vn 0.6247 -0.7809 0.0000
vn 0.0000 -0.7809 -0.6247
vn -0.6243 -0.7812 -0.0006
vn 0.0000 -0.7809 0.6247
vn 0.7809 0.6247 0.0000
vn 0.7809 0.0000 -0.6247
vn 0.7809 -0.6247 -0.0000
vn 0.7809 0.0000 0.6247
vn -0.7809 0.6247 0.0000
vn -0.7809 0.0000 -0.6247
vn -0.7812 -0.6243 -0.0006
vn -0.7809 0.0000 0.6247
vn 0.6247 0.7809 0.0000
vn 0.0000 0.7809 -0.6247
vn -0.6247 0.7809 0.0000
vn 0.0000 0.7809 0.6247
vn 0.0000 -0.6247 -0.7809
vn -0.6247 0.0000 -0.7809
vn 0.0000 0.6247 -0.7809
vn 0.6247 0.0000 -0.7809
vn -1.0000 0.0000 0.0000
vn -0.7071 0.7071 0.0000
vn 0.5774 -0.5773 -0.5774
vn -0.0000 1.0000 0.0000
vn -0.7071 0.0000 -0.7071
vn 0.7071 -0.7071 -0.0000
vn 0.0000 -1.0000 -0.0000
vn 0.0000 0.7071 -0.7071
vn -0.0000 -0.7071 -0.7071
vn 0.7071 -0.0000 0.7071
vn 0.7071 0.0000 -0.7071
vn -0.7071 -0.7071 0.0000
vn -0.5666 -0.6573 0.4969
vn -0.6861 -0.6861 0.2418
vn -0.6861 -0.6861 -0.2418
vn -0.5774 -0.5773 -0.5774
vn 0.0000 0.0000 -1.0000
vn 1.0000 -0.0000 0.0000
vn -0.5774 -0.5774 -0.5774
vn -0.5465 -0.8257 0.1396
vn -0.5774 -0.5774 0.5774
vn -0.5774 0.5774 -0.5773
vn 0.0000 0.7071 0.7071
vn 0.6750 0.6843 -0.2757
vn 0.5774 0.5774 -0.5773
vn 0.6861 0.6861 -0.2418
vn 0.7071 0.7071 0.0000
vn 0.7159 0.6563 -0.2381
vn -1.0000 -0.0010 0.0000
vn -0.9942 -0.1076 -0.0000
vn -0.9807 -0.1956 -0.0000
vn 0.9237 0.3831 0.0000
vn 0.9806 0.1960 0.0000
vn 0.0000 -0.0000 1.0000
vn -0.7956 0.6058 -0.0015
vn -0.7956 0.6058 0.0015
vn -0.7965 0.6046 -0.0000
vn 0.3821 0.9241 0.0000
vn 0.7067 0.7075 0.0000
vn 0.1949 0.9808 0.0000
vn -0.7068 -0.7074 -0.0000
vn -0.5549 -0.8319 -0.0000
vn -0.9238 -0.3829 -0.0000
vn -0.8314 -0.5557 -0.0000
vn -0.3820 -0.9242 -0.0000
vn -0.1946 -0.9809 -0.0000
vn -0.1063 -0.9943 0.0000
vn 0.9892 -0.1468 -0.0000
vn -0.0123 -0.9999 0.0000
vn -0.1949 -0.9808 -0.0000
vn -0.3141 -0.9464 -0.0752
vn -0.9190 -0.3942 -0.0000
vn -0.8914 -0.4469 -0.0753
vn -0.2666 -0.9623 0.0544
vn -0.3820 -0.9242 -0.0010
vn 0.2634 0.9637 0.0434
vn 0.1946 0.9809 -0.0008
vn 0.1063 0.9943 -0.0009
vn -0.9807 -0.1955 0.0000
vn -0.9943 -0.1065 0.0000
vn 0.8315 0.5555 -0.0004
vn 0.8314 0.5557 -0.0003
vn 0.7068 0.7074 -0.0005
vn -0.2612 -0.9648 0.0311
vn -0.1944 -0.9809 -0.0091
vn -0.1042 -0.9945 -0.0091
vn 0.9803 0.1973 0.0000
vn 0.9917 0.1287 0.0000
vn -0.1479 0.9890 0.0000
vn -0.6975 -0.7166 -0.0000
vn -0.6519 -0.7546 -0.0753
vn -0.0853 -0.4300 0.8988
vn -0.1674 -0.4050 0.8989
vn -0.0852 -0.4303 0.8987
vn -0.9806 -0.1962 -0.0010
vn -0.9935 -0.1142 -0.0010
vn -0.3933 -0.9194 -0.0000
vn -0.5548 -0.8320 -0.0000
vn 0.5950 0.8037 0.0000
vn -0.3710 -0.9286 -0.0000
vn 0.8031 0.5959 0.0000
vn -0.7158 -0.6983 -0.0000
vn -0.8314 -0.5556 -0.0000
vn -0.8313 -0.5558 -0.0091
vn -0.7067 -0.7074 -0.0091
vn -0.9999 -0.0131 -0.0000
vn -0.9945 -0.0723 -0.0755
vn 0.1201 0.4430 0.8885
vn 0.0861 0.4299 0.8988
vn 0.1670 0.4040 0.8994
vn 0.5540 0.8325 0.0000
vn 0.7068 0.7074 0.0000
vn -0.5546 -0.8321 -0.0010
vn -0.7068 -0.7075 -0.0010
vn -0.7068 -0.7074 -0.0010
vn 0.1954 0.9807 -0.0000
vn 0.1169 0.9931 -0.0000
vn 0.6393 0.6400 -0.4262
vn 0.6393 0.6400 -0.4263
vn -0.9282 -0.3720 0.0000
vn -0.9806 -0.1959 0.0000
vn -0.6393 -0.6400 -0.4262
vn 0.1962 0.9806 0.0000
vn 0.4309 0.0864 0.8983
vn 0.4298 0.0866 0.8988
vn 0.4362 0.0554 0.8981
vn -0.5549 -0.8318 -0.0091
vn -0.3820 -0.9241 -0.0091
vn 0.5550 0.8318 -0.0007
vn 0.5549 0.8319 -0.0006
vn 0.3820 0.9242 -0.0007
vn 0.1269 0.9919 0.0000
vn 0.3822 0.9241 -0.0008
vn -0.1128 -0.9936 -0.0010
vn -0.1358 -0.9876 0.0788
vn -0.9807 -0.1954 -0.0091
vn -0.9238 -0.3828 -0.0091
vn -0.8315 -0.5555 -0.0010
vn -0.9238 -0.3829 -0.0010
vn 0.8319 0.5549 0.0000
vn 0.9238 0.3830 0.0000
vn 0.9807 0.1954 -0.0002
vn 0.9635 0.2640 -0.0443
vn 0.9238 0.3828 -0.0002
vn 0.9239 0.3827 -0.0003
vn 0.7069 0.7073 -0.0005
vn -0.0841 -0.4604 -0.8837
vn -0.0468 -0.4468 -0.8934
vn 0.9942 0.1076 0.0000
vn 0.9861 0.1460 -0.0798
vn -0.9944 -0.1053 -0.0090
vn -0.2483 -0.3721 -0.8944
vn -0.1708 -0.4131 -0.8945
vn -0.1708 -0.4133 -0.8944
vn -0.3719 -0.2486 -0.8944
vn -0.3159 -0.3162 -0.8945
vn -0.3161 -0.3164 -0.8944
vn -0.4465 -0.0474 -0.8935
vn -0.4387 -0.0874 -0.8944
vn -0.4467 -0.0473 -0.8934
vn -0.1945 -0.9809 0.0000
vn -0.3645 -0.2436 0.8988
vn -0.4048 -0.1678 0.8989
vn -0.3646 -0.2438 0.8987
vn -0.1053 -0.9944 0.0000
vn -0.8313 -0.5558 -0.0000
vn -0.2433 -0.3647 0.8988
vn -0.3097 -0.3100 0.8989
vn -0.2434 -0.3649 0.8987
vn 0.8316 0.5553 -0.0000
vn 0.8317 0.5553 0.0000
vn 0.7068 0.7075 0.0000
vn -0.4300 -0.0857 0.8988
vn -0.4377 -0.0466 0.8979
vn -0.4302 -0.0857 0.8987
vn 0.3655 0.2440 0.8983
vn 0.3647 0.2433 0.8988
vn 0.4038 0.1674 0.8994
vn 0.5544 0.8323 -0.0000
vn 0.3820 0.9241 0.0000
vn 0.9805 0.1965 -0.0000
vn 0.9238 0.3829 -0.0000
vn 0.2436 0.3657 0.8983
vn 0.2428 0.3650 0.8988
vn 0.3088 0.3091 0.8995
vn 0.9930 0.1184 0.0000
vn 0.1741 0.4210 -0.8902
vn 0.2529 0.3791 -0.8901
vn 0.1709 0.4133 -0.8944
vn 0.0774 0.4559 -0.8867
vn 0.0889 0.4470 -0.8901
vn 0.0571 0.4465 -0.8929
vn 0.3232 0.3235 -0.8893
vn 0.3788 0.2533 -0.8901
vn 0.3161 0.3164 -0.8944
vn 0.4468 0.0894 -0.8901
vn 0.4557 0.0780 -0.8867
vn 0.4465 0.0579 -0.8929
vn -0.1393 -0.9815 -0.1314
vn -0.1951 -0.9808 -0.0010
vn 0.1452 0.9862 0.0791
vn 0.1066 0.9943 -0.0010
vn -0.1487 -0.9864 0.0702
vn -0.1041 -0.9945 -0.0090
vn -0.0460 -0.4378 0.8979
vn -0.0459 -0.4380 0.8978
vn -0.1675 -0.4052 0.8988
vn -0.5035 -0.8539 -0.1314
vn -0.7926 -0.5955 -0.1314
vn 0.0480 0.4380 0.8977
vn 0.0657 0.4661 0.8823
vn 0.0515 0.4379 0.8976
vn 0.1675 0.4052 0.8988
vn 0.0557 0.4343 0.8991
vn -0.9599 -0.2477 -0.1316
vn 0.4050 0.1679 0.8988
vn 0.4378 0.0522 0.8975
vn -0.0470 -0.4462 -0.8937
vn -0.1000 -0.4387 -0.8931
vn -0.0870 -0.4387 -0.8944
vn 0.9942 0.1073 -0.0001
vn -0.2481 -0.3720 -0.8944
vn -0.3718 -0.2485 -0.8944
vn -0.4130 -0.1712 -0.8945
vn -0.4131 -0.1712 -0.8944
vn -0.4386 -0.0875 -0.8944
vn -0.3099 -0.3102 0.8988
vn -0.4050 -0.1679 0.8988
vn -0.4380 -0.0464 0.8978
vn 0.3099 0.3102 0.8988
vn 0.4208 0.1745 -0.8902
vn 0.4131 0.1713 -0.8944
usemtl Material.005
s off
f 1/1/1 3/2/1 2/3/1
f 3/2/2 4/4/2 2/3/2
f 4/4/3 3/2/3 5/5/3
f 5/5/4 3/2/4 1/1/4
f 6/6/5 8/7/5 7/8/5
f 8/7/6 9/9/6 7/8/6
f 9/9/7 8/7/7 10/10/7
f 10/10/8 8/7/8 6/6/8
f 11/11/9 13/12/9 12/13/9
f 12/13/10 13/12/10 14/14/10
f 14/14/11 15/15/11 12/13/11
f 15/15/12 11/11/12 12/13/12
f 16/16/13 18/17/13 17/18/13
f 17/18/14 18/17/14 19/19/14
f 19/19/15 20/20/15 17/18/15
f 20/20/16 16/16/16 17/18/16
f 21/21/17 23/22/17 22/23/17
f 22/23/18 23/22/18 24/24/18
f 24/24/19 25/25/19 22/23/19
f 25/25/20 21/21/20 22/23/20
s 1
f 26/26/21 28/27/21 27/28/21
f 29/29/22 31/30/22 30/31/22
f 32/32/23 34/33/23 33/34/23
f 35/35/21 37/36/21 36/37/21
f 38/38/24 40/39/24 39/40/24
f 41/41/25 43/42/25 42/43/25
f 32/44/26 45/45/26 44/46/26
f 4/47/27 2/48/27 1/49/27
f 46/50/25 48/51/25 47/52/25
f 49/53/26 51/54/26 50/55/26
f 52/56/21 31/30/21 48/51/21
f 48/51/25 43/42/25 41/41/25
f 53/57/28 46/50/28 29/58/28
f 52/56/21 54/59/21 13/60/21
f 55/61/29 33/62/29 34/63/29
f 49/53/30 56/64/30 51/54/30
f 45/45/31 57/65/31 44/46/31
f 58/66/32 60/67/33 59/68/34
f 61/69/27 63/70/27 62/71/27
f 4/47/27 1/49/27 5/72/27
f 64/73/21 66/74/21 65/75/21
f 67/76/27 69/77/27 68/78/27
f 40/39/24 26/79/24 27/80/24
f 42/43/35 43/42/36 70/81/35
f 30/82/24 53/83/24 29/84/24
f 66/85/21 71/86/21 65/87/21
f 43/42/37 72/88/37 33/62/37
f 73/89/21 60/67/21 74/90/21
f 67/76/27 68/78/27 75/91/27
f 60/67/21 76/92/21 35/35/21
f 48/51/21 31/30/21 47/52/21
f 33/62/31 72/88/31 77/93/31
f 31/30/21 52/56/21 28/27/21
f 43/42/37 46/94/37 72/88/37
f 77/95/38 45/96/38 32/32/38
f 78/97/35 36/37/39 79/98/35
f 43/42/25 48/51/25 46/50/25
f 58/66/32 74/90/32 60/67/40
f 77/95/38 51/54/38 45/96/38
f 60/67/33 35/35/41 59/68/34
f 78/97/35 79/98/35 42/43/35
f 28/27/21 52/56/21 13/60/21
f 32/44/26 44/46/26 34/63/26
f 78/97/35 42/43/35 70/81/35
f 29/84/42 46/99/42 47/100/42
f 53/83/24 40/39/24 38/38/24
f 33/62/31 77/93/31 32/101/31
f 30/82/24 40/39/24 53/83/24
f 29/29/22 47/52/22 31/30/22
f 14/102/21 15/103/21 11/104/21
f 76/92/21 60/67/21 73/89/21
f 71/86/22 80/105/22 39/40/22
f 81/106/29 33/62/29 55/61/29
f 50/55/38 51/54/38 82/107/38
f 37/36/21 35/35/21 76/92/21
f 83/108/21 73/109/21 84/110/21
f 54/59/21 79/98/21 37/36/21
f 71/86/43 40/39/43 27/80/43
f 30/31/28 31/30/28 26/26/28
f 14/102/21 11/104/21 13/60/21
f 64/73/21 85/111/21 66/74/21
f 45/96/38 56/64/38 57/112/38
f 49/53/26 50/55/26 86/113/26
f 83/108/21 76/114/21 73/109/21
f 71/86/21 66/85/21 80/105/21
f 36/37/21 37/36/21 79/98/21
f 71/86/21 27/28/21 65/87/21
f 43/42/29 81/106/29 70/81/29
f 82/107/38 51/54/38 77/95/38
f 71/86/22 39/40/22 40/39/22
f 40/39/24 30/82/24 26/79/24
f 33/62/29 81/106/29 43/42/29
f 65/87/21 27/28/21 28/27/21
f 53/57/28 72/88/28 46/50/28
f 77/93/44 72/88/45 53/57/46
f 42/43/21 79/98/21 41/41/21
f 14/102/21 54/59/21 37/36/21
f 13/60/21 54/59/21 14/102/21
f 31/30/21 28/27/21 26/26/21
f 61/69/27 62/71/27 87/115/27
f 41/41/21 79/98/21 54/59/21
f 38/38/47 82/107/47 77/95/48
f 88/116/27 89/117/27 78/97/27
f 90/118/27 92/119/27 91/120/27
f 93/121/49 95/122/49 94/123/49
f 96/124/27 98/125/27 97/126/27
f 99/127/49 100/128/49 92/129/49
f 96/124/50 102/130/51 101/131/51
f 103/132/52 105/133/52 104/134/53
f 106/135/54 107/136/54 93/137/54
f 108/138/37 92/119/37 109/139/37
f 95/140/37 110/141/37 94/123/37
f 93/121/24 107/142/24 111/143/24
f 112/144/55 90/145/56 92/129/57
f 109/146/58 114/147/58 113/148/59
f 99/127/60 114/147/58 109/146/58
f 90/145/54 114/149/54 99/150/54
f 113/148/59 105/133/52 103/132/52
f 115/151/37 116/152/37 111/153/37
f 107/154/54 118/155/54 117/156/54
f 118/155/61 120/157/62 119/158/62
f 101/131/37 121/159/37 111/160/37
f 122/161/63 117/156/64 115/151/64
f 118/155/61 116/152/61 115/151/64
f 107/162/54 117/156/54 122/161/54
f 121/159/37 115/151/37 111/163/37
f 107/164/38 123/165/38 97/126/38
f 97/166/37 98/125/37 101/131/37
f 102/130/51 122/161/63 121/159/63
f 124/167/65 106/135/66 110/141/66
f 119/158/37 125/168/37 111/169/37
f 107/170/54 124/167/54 120/157/54
f 107/171/54 120/157/54 118/155/54
f 116/152/37 119/158/37 111/172/37
f 124/167/65 125/168/65 119/158/62
f 126/173/67 94/123/67 110/141/66
f 107/174/54 106/135/54 124/167/54
f 102/130/54 123/175/54 122/161/54
f 69/77/68 67/76/68 127/176/68
f 128/177/69 130/178/70 129/179/71
f 131/180/72 133/181/72 132/182/73
f 134/183/74 136/184/75 135/185/75
f 137/186/54 139/187/54 138/188/54
f 140/189/76 142/190/77 141/191/78
f 143/192/79 145/193/80 144/194/80
f 146/195/81 148/196/82 147/197/83
f 89/198/27 150/199/27 149/200/27
f 151/201/84 153/202/85 152/203/86
f 81/106/54 55/61/54 154/204/54
f 155/205/87 75/206/88 89/117/88
f 156/207/89 158/208/89 157/209/89
f 128/177/90 160/210/90 159/211/91
f 161/212/92 163/213/93 162/214/94
f 164/215/95 4/47/96 5/72/96
f 131/180/97 165/216/98 159/211/91
f 166/217/99 167/218/99 127/176/99
f 168/219/100 169/220/100 129/179/71
f 143/221/79 171/222/79 170/223/80
f 145/224/27 170/223/27 172/225/27
f 166/226/101 173/227/101 157/209/101
f 174/228/102 175/229/103 132/182/73
f 176/230/104 178/231/104 177/232/105
f 174/228/106 180/233/106 179/234/107
f 181/235/108 183/236/109 182/237/110
f 184/238/111 186/239/112 185/240/112
f 187/241/54 188/242/54 146/195/54
f 189/243/113 191/244/114 190/245/115
f 181/235/116 193/246/116 192/247/117
f 194/248/49 196/249/49 195/250/49
f 197/251/27 149/252/27 198/253/27
f 199/254/27 200/255/27 144/194/27
f 81/106/118 202/256/119 201/257/118
f 203/258/49 205/259/49 204/260/49
f 193/261/116 207/262/116 206/263/117
f 208/264/49 194/265/49 192/266/49
f 88/116/37 201/257/37 209/267/37
f 87/115/120 210/268/121 179/234/107
f 154/204/122 55/61/122 211/269/122
f 203/270/49 213/271/49 212/272/49
f 214/273/123 216/274/123 215/275/58
f 217/276/124 219/277/125 218/278/126
f 220/279/127 222/280/127 221/281/128
f 223/282/129 225/283/130 224/284/131
f 226/285/132 216/274/123 214/273/123
f 221/281/128 153/202/85 151/201/84
f 227/286/133 224/284/131 142/190/77
f 228/287/134 229/288/134 134/183/135
f 230/289/136 232/290/136 231/291/137
f 138/188/138 233/292/139 188/242/139
f 137/186/140 235/293/140 234/294/141
f 236/295/142 238/296/143 237/297/144
f 185/240/112 186/239/112 235/293/140
f 190/245/115 191/244/114 138/188/138
f 231/291/137 178/231/104 176/230/104
f 239/298/145 237/297/144 148/196/82
f 240/299/146 147/197/83 225/283/130
f 177/232/105 222/280/127 220/279/127
f 135/185/75 136/184/75 189/243/113
f 215/275/58 184/238/111 241/300/111
f 147/197/54 220/279/54 225/283/54
f 153/202/147 169/220/148 152/301/148
f 1/49/149 2/48/149 238/296/150
f 63/302/151 232/290/136 230/289/136
f 222/280/152 160/210/153 221/281/154
f 178/231/155 133/181/156 177/232/157
f 188/242/139 233/292/139 164/215/95
f 234/294/141 155/205/87 242/303/87
f 243/304/62 245/305/62 244/306/61
f 61/69/158 232/290/159 63/302/160
f 246/307/62 243/308/62 247/309/61
f 161/212/161 249/310/161 248/311/65
f 250/312/162 252/313/163 251/314/164
f 253/315/161 254/316/65 248/317/65
f 205/318/165 212/272/165 253/315/161
f 204/260/165 205/259/165 249/310/161
f 163/213/65 248/311/65 243/308/62
f 254/316/65 245/305/62 243/304/62
f 255/319/166 257/320/166 256/321/63
f 246/307/167 259/322/168 258/323/169
f 250/312/166 255/324/166 260/325/63
f 259/322/61 247/309/61 255/324/166
f 247/326/61 244/306/61 257/320/166
f 260/327/63 256/321/63 171/222/79
f 260/325/63 143/192/79 261/328/79
f 262/329/170 264/330/171 263/331/172
f 265/332/170 262/333/170 266/334/172
f 261/328/173 144/194/174 267/335/175
f 265/332/176 269/336/177 268/337/178
f 270/338/179 272/339/179 271/340/180
f 270/341/179 274/342/180 273/343/180
f 274/344/180 271/340/180 207/262/116
f 274/342/180 193/246/116 181/235/116
f 266/334/172 270/341/179 275/345/179
f 266/346/172 263/331/172 272/339/179
f 217/276/181 277/347/181 276/348/182
f 278/349/181 279/350/182 276/351/182
f 275/345/183 281/352/184 280/353/185
f 282/354/182 276/348/182 262/333/170
f 276/351/182 279/350/182 264/330/171
f 149/200/186 150/199/186 278/349/181
f 149/252/186 277/347/181 217/276/181
f 157/209/187 184/238/188 215/275/189
f 283/355/190 216/274/191 226/356/192
f 173/357/193 235/293/194 186/239/195
f 155/205/196 67/76/197 75/206/198
f 45/96/38 51/54/38 56/64/38
f 38/38/47 77/95/44 53/83/46
f 172/358/27 56/359/27 63/302/27
f 63/302/27 49/53/27 62/360/27
f 62/360/27 49/53/27 86/113/27
f 49/53/27 63/302/27 56/359/27
f 56/359/27 172/358/27 57/65/27
f 44/46/27 55/61/27 34/63/27
f 57/65/27 172/358/27 44/46/27
f 89/117/27 88/116/27 4/47/27
f 4/47/27 88/116/27 2/48/27
f 2/48/27 211/269/27 172/358/27
f 58/66/27 59/68/27 68/361/27
f 68/361/27 59/68/27 75/206/27
f 75/206/27 35/35/27 89/117/27
f 59/68/27 35/35/27 75/206/27
f 36/37/27 89/117/27 35/35/27
f 172/358/27 211/269/27 44/46/27
f 44/46/27 211/269/27 55/61/27
f 2/48/27 88/116/27 211/269/27
f 88/116/27 78/97/27 81/106/27
f 81/106/27 78/97/27 70/81/27
f 78/97/27 89/117/27 36/37/27
f 90/118/27 91/120/27 104/134/27
f 93/121/49 94/123/49 126/173/49
f 96/124/27 97/126/27 123/165/27
f 99/127/49 92/129/49 90/145/49
f 96/124/50 101/131/51 98/125/50
f 103/132/52 104/134/53 91/120/53
f 106/135/54 93/137/54 126/173/54
f 109/139/37 92/119/37 100/362/37
f 92/119/37 103/363/37 91/364/37
f 103/363/37 92/119/37 108/138/37
f 110/141/37 95/140/37 125/168/37
f 125/168/37 95/140/37 111/365/37
f 93/121/24 111/143/24 95/122/24
f 109/146/58 113/148/59 108/366/59
f 99/127/60 109/146/58 100/128/60
f 114/149/54 90/145/54 113/367/54
f 113/367/54 90/145/54 105/368/54
f 105/368/54 90/145/54 104/369/54
f 113/148/59 103/132/52 108/366/59
f 118/155/61 119/158/62 116/152/61
f 122/161/63 115/151/64 121/159/63
f 118/155/61 115/151/64 117/156/64
f 107/164/38 97/126/38 111/370/38
f 97/166/37 101/131/37 111/371/37
f 102/130/51 121/159/63 101/131/51
f 124/167/65 110/141/66 125/168/65
f 124/167/65 119/158/62 120/157/62
f 126/173/67 110/141/66 106/135/66
f 107/372/54 122/161/54 123/175/54
f 123/175/54 102/130/54 96/124/54
f 69/77/68 127/176/68 167/218/68
f 128/177/69 129/179/199 160/210/69
f 131/180/72 132/182/73 175/229/103
f 134/183/74 135/185/75 284/373/200
f 214/273/54 134/183/54 208/374/54
f 208/374/54 134/183/54 229/288/54
f 134/183/54 285/375/54 136/184/54
f 136/184/54 285/375/54 189/243/54
f 189/243/54 185/240/54 191/244/54
f 191/244/54 185/240/54 138/188/54
f 138/188/54 139/187/54 233/292/54
f 185/240/54 137/186/54 138/188/54
f 233/292/54 139/187/54 164/215/54
f 164/215/54 89/117/54 4/47/54
f 139/187/54 242/303/54 164/215/54
f 89/117/54 164/215/54 242/303/54
f 134/183/54 214/273/54 285/375/54
f 189/243/54 241/300/54 185/240/54
f 241/300/54 189/243/54 285/375/54
f 140/189/201 141/191/202 286/376/202
f 143/192/79 144/194/80 261/328/79
f 146/195/81 147/197/83 240/299/146
f 89/198/27 149/200/27 197/377/27
f 151/201/203 152/203/204 213/378/204
f 81/106/54 154/204/54 202/256/54
f 155/205/87 89/117/88 242/303/87
f 156/207/89 157/209/89 283/355/89
f 128/177/90 159/211/91 165/216/98
f 161/212/92 162/214/94 204/260/205
f 204/260/205 162/214/94 287/379/206
f 162/214/94 163/213/93 288/380/207
f 164/215/95 5/72/96 289/381/95
f 131/180/97 159/211/208 133/181/97
f 166/217/99 127/176/99 173/357/99
f 168/219/100 129/179/71 130/178/70
f 143/221/79 170/223/80 145/224/80
f 145/224/27 172/225/27 199/382/27
f 166/226/101 157/209/101 158/208/101
f 174/228/102 132/182/209 180/233/102
f 176/230/104 177/232/105 290/383/105
f 174/228/106 179/234/107 210/268/121
f 196/249/210 181/235/211 195/250/212
f 181/235/108 182/237/110 273/343/213
f 183/236/109 181/235/108 196/249/214
f 184/238/111 185/240/112 241/300/111
f 284/373/54 140/189/54 228/287/54
f 228/287/54 140/189/54 286/376/54
f 140/189/54 135/185/54 227/286/54
f 227/286/54 135/185/54 223/282/54
f 223/282/54 190/245/54 240/299/54
f 240/299/54 190/245/54 146/195/54
f 146/195/54 188/242/54 239/298/54
f 190/245/54 187/241/54 146/195/54
f 239/298/54 188/242/54 236/295/54
f 236/295/54 5/72/54 1/49/54
f 188/242/54 289/381/54 236/295/54
f 5/72/54 236/295/54 289/381/54
f 140/189/54 284/373/54 135/185/54
f 223/282/54 291/384/54 190/245/54
f 291/384/54 223/282/54 135/185/54
f 189/243/113 190/245/115 291/384/113
f 181/235/116 192/247/117 195/250/117
f 194/248/49 195/250/49 192/247/49
f 197/251/27 198/253/27 218/278/27
f 199/254/27 144/194/27 145/193/27
f 81/106/118 201/257/118 88/116/118
f 203/258/49 204/260/49 287/379/49
f 193/261/116 206/263/117 192/266/117
f 208/264/49 192/266/49 206/263/49
f 88/116/37 209/267/37 211/269/37
f 87/115/120 179/234/215 61/69/120
f 154/204/122 211/269/122 209/267/122
f 203/270/49 212/272/49 205/318/49
f 214/273/123 215/275/58 285/375/58
f 268/337/178 217/276/124 282/354/216
f 217/276/124 218/278/126 198/253/217
f 219/277/125 217/276/124 268/337/178
f 220/279/127 221/281/128 292/385/128
f 223/282/129 224/284/131 227/286/133
f 226/285/132 214/273/123 208/374/132
f 221/281/128 151/201/84 292/385/128
f 227/286/133 142/190/77 140/189/76
f 228/287/134 134/183/74 284/373/200
f 230/289/136 231/291/137 293/386/137
f 138/188/138 188/242/139 187/241/138
f 137/186/140 234/294/141 139/187/141
f 236/295/142 237/297/144 239/298/145
f 185/240/112 235/293/140 137/186/140
f 190/245/115 138/188/138 187/241/138
f 231/291/137 176/230/104 293/386/137
f 239/298/145 148/196/82 146/195/81
f 240/299/146 225/283/130 223/282/129
f 177/232/105 220/279/127 290/383/105
f 135/185/75 189/243/113 291/384/113
f 215/275/58 241/300/111 285/375/58
f 151/201/54 224/284/54 292/385/54
f 292/385/54 224/284/54 220/279/54
f 220/279/54 147/197/54 290/383/54
f 290/383/54 147/197/54 176/230/54
f 147/197/54 148/196/54 176/230/54
f 176/230/54 237/297/54 293/386/54
f 293/386/54 237/297/54 230/289/54
f 176/230/54 148/196/54 237/297/54
f 230/289/54 2/48/54 172/358/54
f 230/289/54 238/296/54 2/48/54
f 213/378/54 141/191/54 151/201/54
f 142/190/54 151/201/54 141/191/54
f 224/284/54 151/201/54 142/190/54
f 230/289/54 237/297/54 238/296/54
f 225/283/54 220/279/54 224/284/54
f 169/220/218 153/202/219 129/179/220
f 129/179/220 153/202/219 160/210/153
f 160/210/153 153/202/219 221/281/154
f 1/49/221 238/296/143 236/295/142
f 63/302/151 230/289/136 172/358/151
f 160/210/153 222/280/152 159/211/222
f 159/211/222 222/280/152 133/181/156
f 133/181/156 222/280/152 177/232/157
f 133/181/156 178/231/155 132/182/223
f 132/182/223 178/231/155 180/233/224
f 180/233/224 178/231/155 231/291/225
f 188/242/139 164/215/95 289/381/95
f 234/294/141 242/303/87 139/187/141
f 243/304/62 244/306/61 247/326/61
f 231/291/225 232/290/159 180/233/224
f 180/233/224 232/290/159 179/234/226
f 179/234/226 232/290/159 61/69/158
f 246/307/62 247/309/61 259/322/61
f 161/212/161 248/311/65 163/213/65
f 250/312/162 251/314/164 259/322/168
f 259/322/168 251/314/164 294/387/227
f 251/314/164 252/313/163 295/388/228
f 253/315/161 248/317/65 249/389/161
f 205/318/165 253/315/161 249/389/161
f 204/260/165 249/310/161 161/212/161
f 163/213/65 243/308/62 246/307/62
f 254/316/65 243/304/62 248/317/65
f 255/319/166 256/321/63 260/327/63
f 246/307/167 258/323/169 163/213/93
f 163/213/93 258/323/169 288/380/207
f 258/323/169 259/322/168 294/387/227
f 250/312/166 260/325/63 252/313/63
f 259/322/61 255/324/166 250/312/166
f 247/326/61 257/320/166 255/319/166
f 260/327/63 171/222/79 143/221/79
f 260/325/63 261/328/79 252/313/63
f 262/329/170 263/331/172 266/346/172
f 265/332/170 266/334/172 296/390/112
f 261/328/173 267/335/175 252/313/163
f 252/313/163 267/335/175 295/388/228
f 267/335/175 144/194/174 200/255/229
f 280/353/185 265/332/176 296/390/230
f 265/332/176 268/337/178 282/354/216
f 269/336/177 265/332/176 280/353/185
f 270/338/179 271/340/180 274/344/180
f 270/341/179 273/343/180 275/345/179
f 274/344/180 207/262/116 193/261/116
f 274/342/180 181/235/116 273/343/180
f 266/334/172 275/345/179 296/390/112
f 266/346/172 272/339/179 270/338/179
f 217/276/181 276/348/182 282/354/182
f 278/349/181 276/351/182 277/391/181
f 182/237/110 275/345/183 273/343/213
f 275/345/183 280/353/185 296/390/230
f 281/352/184 275/345/183 182/237/110
f 282/354/182 262/333/170 265/332/170
f 276/351/182 264/330/171 262/329/170
f 149/200/186 278/349/181 277/391/181
f 149/252/186 217/276/181 198/253/186
f 184/238/188 173/227/193 186/239/195
f 173/227/193 184/238/188 157/209/187
f 216/274/191 157/209/187 215/275/189
f 157/209/187 216/274/191 283/355/190
f 235/293/194 127/176/231 234/294/232
f 127/176/231 235/293/194 173/357/193
f 67/76/197 155/205/196 127/176/231
f 127/176/231 155/205/196 234/294/232
