# Blender v2.93.1 OBJ File: ''
# www.blender.org
mtllib mtmag swivel large.mtl
o Plane.001
v -0.146447 -0.500000 1.500000
v -0.323223 -0.500000 1.500000
v -0.423223 -0.300003 1.500000
v -0.146447 -0.050003 1.499317
v -0.500000 -0.064148 1.400322
v -0.500000 0.399989 1.390877
v -0.853553 0.399989 1.340877
v -0.853553 -0.064148 1.400322
v -0.500000 -0.050003 1.499317
v -0.853553 -0.050003 1.499317
v -0.853553 0.399993 1.418785
v -0.853553 -0.500000 1.500000
v -0.853553 -0.500000 1.401005
v -0.146447 -0.500000 1.401005
v -0.323223 -0.500000 1.401005
v -0.500000 0.399993 1.474317
v -0.146447 0.399989 1.340877
v -0.146447 0.399993 1.418785
v -0.146447 -0.064148 1.400322
v -0.500000 -0.300003 1.500000
v -0.500000 -0.300003 1.401005
v -0.576777 -0.300003 1.401005
v -0.576777 -0.300003 1.500000
v -0.676777 -0.500000 1.500000
v -0.676777 -0.500000 1.401005
v -0.423223 -0.300003 1.401005
v -0.323223 -0.500000 0.770302
v -0.423223 -0.300003 0.770302
v -0.146447 -0.500000 0.770302
v -0.146447 -0.064148 0.769618
v -0.146447 -0.064148 0.499317
v -0.853553 -0.500000 0.770302
v -0.676777 -0.500000 0.770302
v -0.500000 -0.500000 0.500000
v -0.676777 -0.500000 0.500000
v -0.853553 -0.064148 0.769618
v -0.853553 -0.064148 0.499317
v -0.323223 -0.500000 0.500000
v -0.576777 -0.300003 0.770302
v -1.500000 -0.500000 0.146447
v -1.499317 -0.050003 0.146447
v -1.500000 -0.300003 0.423223
v -1.500000 -0.500000 0.323223
v -1.400322 -0.064148 0.500000
v -1.400322 -0.064148 0.853553
v -1.340877 0.399989 0.853553
v -1.390877 0.399989 0.500000
v -1.499317 -0.050003 0.500000
v -1.418785 0.399993 0.853553
v -1.499317 -0.050003 0.853553
v -1.500000 -0.500000 0.853553
v -1.401005 -0.500000 0.853553
v -1.401005 -0.500000 0.323223
v -1.401005 -0.500000 0.146447
v -1.474317 0.399993 0.500000
v -1.418785 0.399993 0.146447
v -1.340877 0.399989 0.146447
v -1.400322 -0.064148 0.146447
v -1.500000 -0.300003 0.500000
v -1.500000 -0.300003 0.576777
v -1.401005 -0.300003 0.576777
v -1.401005 -0.300003 0.500000
v -1.500000 -0.500000 0.676777
v -1.401005 -0.500000 0.676777
v -1.401005 -0.300003 0.423223
v -0.770302 -0.300003 0.423223
v -0.770302 -0.500000 0.323223
v -0.770302 -0.500000 0.146447
v -0.499317 -0.064148 0.146447
v -0.769618 -0.064148 0.146447
v -0.770302 -0.500000 0.853553
v -0.500000 -0.500000 0.676777
v -0.770302 -0.500000 0.676777
v -0.769618 -0.064148 0.853553
v -0.499317 -0.064148 0.853553
v -0.500000 -0.500000 0.323223
v -0.770302 -0.300003 0.576777
v 0.500000 -0.500000 0.853553
v 0.499317 -0.050003 0.853553
v 0.500000 -0.300003 0.576777
v 0.500000 -0.500000 0.676777
v 0.400322 -0.064148 0.500000
v 0.400322 -0.064148 0.146447
v 0.340877 0.399989 0.146447
v 0.390877 0.399989 0.500000
v 0.499317 -0.050003 0.500000
v 0.418785 0.399993 0.146447
v 0.499317 -0.050003 0.146447
v 0.500000 -0.500000 0.146447
v 0.401005 -0.500000 0.146447
v 0.401005 -0.500000 0.676777
v 0.401005 -0.500000 0.853553
v 0.474317 0.399993 0.500000
v 0.418785 0.399993 0.853553
v 0.340877 0.399989 0.853553
v 0.400322 -0.064148 0.853553
v 0.500000 -0.300003 0.500000
v 0.500000 -0.300003 0.423223
v 0.401005 -0.300003 0.423223
v 0.401005 -0.300003 0.500000
v 0.500000 -0.500000 0.323223
v 0.401005 -0.500000 0.323223
v 0.401005 -0.300003 0.576777
v -0.229698 -0.300003 0.576777
v -0.229698 -0.500000 0.676777
v -0.229698 -0.500000 0.853553
v -0.500683 -0.064148 0.853553
v -0.230382 -0.064148 0.853553
v -0.229698 -0.500000 0.146447
v -0.500000 -0.500000 0.323223
v -0.229698 -0.500000 0.323223
v -0.230382 -0.064148 0.146447
v -0.500683 -0.064148 0.146447
v -0.500000 -0.500000 0.676777
v -0.229698 -0.300003 0.423223
v -0.853553 -0.500000 -0.500000
v -0.676777 -0.500000 -0.500000
v -0.576777 -0.300003 -0.500000
v -0.853553 -0.050003 -0.499317
v -0.500000 -0.064148 -0.400322
v -0.500000 0.399989 -0.390877
v -0.146447 0.399989 -0.340877
v -0.146447 -0.064148 -0.400322
v -0.500000 -0.050003 -0.499317
v -0.146447 -0.050003 -0.499317
v -0.146447 0.399993 -0.418785
v -0.146447 -0.500000 -0.500000
v -0.146447 -0.500000 -0.401005
v -0.853553 -0.500000 -0.401005
v -0.676777 -0.500000 -0.401005
v -0.500000 0.399993 -0.474317
v -0.853553 0.399989 -0.340877
v -0.853553 0.399993 -0.418785
v -0.853553 -0.064148 -0.400322
v -0.500000 -0.300003 -0.500000
v -0.500000 -0.300003 -0.401005
v -0.423223 -0.300003 -0.401005
v -0.423223 -0.300003 -0.500000
v -0.323223 -0.500000 -0.500000
v -0.323223 -0.500000 -0.401005
v -0.576777 -0.300003 -0.401005
v -0.676777 -0.500000 0.229698
v -0.576777 -0.300003 0.229698
v -0.853553 -0.500000 0.229698
v -0.853553 -0.064148 0.230382
v -0.853553 -0.064148 0.500683
v -0.146447 -0.500000 0.229698
v -0.323223 -0.500000 0.229698
v -0.323223 -0.500000 0.500000
v -0.146447 -0.064148 0.230382
v -0.146447 -0.064148 0.500683
v -0.676777 -0.500000 0.500000
v -0.423223 -0.300003 0.229698
vt 0.075000 0.825000
vt 0.075000 0.925000
vt 0.175000 0.925000
vt 0.175000 0.825000
vt 0.075000 0.825000
vt 0.075000 0.925000
vt 0.175000 0.925000
vt 0.175000 0.825000
vt 0.075000 0.825000
vt 0.175000 0.925000
vt 0.175000 0.825000
vt 0.075000 0.825000
vt 0.075000 0.925000
vt 0.175000 0.925000
vt 0.175000 0.825000
vt 0.075000 0.925000
vt 0.175000 0.925000
vt 0.175000 0.825000
vt 0.075000 0.825000
vt 0.075000 0.925000
vt 0.175000 0.825000
vt 0.075000 0.825000
vt 0.075000 0.925000
vt 0.175000 0.925000
vt 0.075000 0.825000
vt 0.075000 0.925000
vt 0.175000 0.925000
vt 0.175000 0.825000
vt 0.075000 0.825000
vt 0.175000 0.925000
vt 0.175000 0.825000
vt 0.075000 0.825000
vt 0.075000 0.925000
vt 0.175000 0.925000
vt 0.175000 0.825000
vt 0.075000 0.825000
vt 0.075000 0.925000
vt 0.175000 0.925000
vt 0.175000 0.825000
vt 0.075000 0.825000
vt 0.075000 0.925000
vt 0.175000 0.925000
vt 0.175000 0.825000
vt 0.075000 0.825000
vt 0.075000 0.925000
vt 0.175000 0.925000
vt 0.175000 0.825000
vt 0.175000 0.925000
vt 0.175000 0.825000
vt 0.175000 0.925000
vt 0.175000 0.825000
vt 0.075000 0.925000
vt 0.175000 0.925000
vt 0.175000 0.825000
vt 0.075000 0.825000
vt 0.075000 0.925000
vt 0.175000 0.925000
vt 0.175000 0.825000
vt 0.075000 0.825000
vt 0.075000 0.925000
vt 0.175000 0.925000
vt 0.175000 0.825000
vt 0.175000 0.925000
vt 0.175000 0.825000
vt 0.075000 0.825000
vt 0.075000 0.925000
vt 0.175000 0.925000
vt 0.175000 0.925000
vt 0.175000 0.825000
vt 0.175000 0.925000
vt 0.175000 0.825000
vt 0.175000 0.925000
vt 0.175000 0.825000
vt 0.175000 0.925000
vt 0.175000 0.825000
vt 0.175000 0.825000
vt 0.175000 0.925000
vt 0.175000 0.925000
vt 0.175000 0.825000
vt 0.175000 0.825000
vt 0.175000 0.925000
vt 0.175000 0.925000
vt 0.175000 0.825000
vt 0.175000 0.925000
vt 0.175000 0.825000
vt 0.175000 0.925000
vt 0.175000 0.825000
vt 0.175000 0.825000
vt 0.175000 0.925000
vt 0.075000 0.825000
vt 0.175000 0.825000
vt 0.175000 0.925000
vt 0.075000 0.925000
vt 0.075000 0.825000
vt 0.175000 0.825000
vt 0.175000 0.925000
vt 0.075000 0.925000
vt 0.075000 0.825000
vt 0.175000 0.825000
vt 0.175000 0.925000
vt 0.075000 0.825000
vt 0.175000 0.825000
vt 0.175000 0.925000
vt 0.075000 0.925000
vt 0.175000 0.825000
vt 0.175000 0.925000
vt 0.075000 0.925000
vt 0.075000 0.825000
vt 0.175000 0.825000
vt 0.075000 0.925000
vt 0.075000 0.825000
vt 0.175000 0.925000
vt 0.075000 0.925000
vt 0.075000 0.825000
vt 0.175000 0.825000
vt 0.175000 0.925000
vt 0.075000 0.925000
vt 0.075000 0.825000
vt 0.175000 0.825000
vt 0.175000 0.925000
vt 0.075000 0.825000
vt 0.175000 0.825000
vt 0.175000 0.925000
vt 0.075000 0.925000
vt 0.075000 0.825000
vt 0.175000 0.825000
vt 0.175000 0.925000
vt 0.075000 0.925000
vt 0.075000 0.825000
vt 0.175000 0.825000
vt 0.175000 0.925000
vt 0.075000 0.925000
vt 0.075000 0.825000
vt 0.175000 0.825000
vt 0.175000 0.925000
vt 0.075000 0.925000
vt 0.175000 0.825000
vt 0.175000 0.925000
vt 0.175000 0.825000
vt 0.175000 0.925000
vt 0.175000 0.825000
vt 0.175000 0.925000
vt 0.075000 0.925000
vt 0.075000 0.825000
vt 0.175000 0.825000
vt 0.175000 0.925000
vt 0.075000 0.925000
vt 0.075000 0.825000
vt 0.175000 0.825000
vt 0.175000 0.925000
vt 0.075000 0.925000
vt 0.175000 0.825000
vt 0.175000 0.925000
vt 0.075000 0.825000
vt 0.075000 0.925000
vt 0.175000 0.925000
vt 0.175000 0.825000
vt 0.175000 0.925000
vt 0.175000 0.825000
vt 0.175000 0.925000
vt 0.175000 0.825000
vt 0.175000 0.925000
vt 0.175000 0.925000
vt 0.175000 0.825000
vt 0.175000 0.825000
vt 0.175000 0.925000
vt 0.175000 0.825000
vt 0.175000 0.925000
vt 0.175000 0.925000
vt 0.175000 0.825000
vt 0.175000 0.925000
vt 0.175000 0.825000
vt 0.175000 0.825000
vt 0.175000 0.925000
vt 0.175000 0.825000
vt 0.175000 0.925000
vt 0.075000 0.825000
vt 0.175000 0.825000
vt 0.175000 0.925000
vt 0.075000 0.925000
vt 0.075000 0.825000
vt 0.175000 0.825000
vt 0.175000 0.925000
vt 0.075000 0.925000
vt 0.075000 0.825000
vt 0.175000 0.825000
vt 0.175000 0.925000
vt 0.075000 0.825000
vt 0.175000 0.825000
vt 0.175000 0.925000
vt 0.075000 0.925000
vt 0.175000 0.825000
vt 0.175000 0.925000
vt 0.075000 0.925000
vt 0.075000 0.825000
vt 0.175000 0.825000
vt 0.075000 0.925000
vt 0.075000 0.825000
vt 0.175000 0.925000
vt 0.075000 0.925000
vt 0.075000 0.825000
vt 0.175000 0.825000
vt 0.175000 0.925000
vt 0.075000 0.925000
vt 0.075000 0.825000
vt 0.175000 0.825000
vt 0.175000 0.925000
vt 0.075000 0.825000
vt 0.175000 0.825000
vt 0.175000 0.925000
vt 0.075000 0.925000
vt 0.075000 0.825000
vt 0.175000 0.825000
vt 0.175000 0.925000
vt 0.075000 0.925000
vt 0.075000 0.825000
vt 0.175000 0.825000
vt 0.175000 0.925000
vt 0.075000 0.925000
vt 0.075000 0.825000
vt 0.175000 0.825000
vt 0.175000 0.925000
vt 0.075000 0.925000
vt 0.175000 0.825000
vt 0.175000 0.925000
vt 0.175000 0.825000
vt 0.175000 0.925000
vt 0.175000 0.825000
vt 0.175000 0.925000
vt 0.075000 0.925000
vt 0.075000 0.825000
vt 0.175000 0.825000
vt 0.175000 0.925000
vt 0.075000 0.925000
vt 0.075000 0.825000
vt 0.175000 0.825000
vt 0.175000 0.925000
vt 0.075000 0.925000
vt 0.175000 0.825000
vt 0.175000 0.925000
vt 0.075000 0.825000
vt 0.075000 0.925000
vt 0.175000 0.925000
vt 0.175000 0.825000
vt 0.175000 0.925000
vt 0.175000 0.825000
vt 0.175000 0.925000
vt 0.175000 0.825000
vt 0.175000 0.925000
vt 0.175000 0.925000
vt 0.175000 0.825000
vt 0.175000 0.825000
vt 0.175000 0.925000
vt 0.175000 0.825000
vt 0.175000 0.925000
vt 0.175000 0.925000
vt 0.175000 0.825000
vt 0.175000 0.925000
vt 0.175000 0.825000
vt 0.175000 0.825000
vt 0.175000 0.925000
vt 0.175000 0.825000
vt 0.175000 0.925000
vt 0.075000 0.825000
vt 0.075000 0.925000
vt 0.175000 0.925000
vt 0.175000 0.825000
vt 0.075000 0.825000
vt 0.075000 0.925000
vt 0.175000 0.925000
vt 0.175000 0.825000
vt 0.075000 0.825000
vt 0.175000 0.925000
vt 0.175000 0.825000
vt 0.075000 0.825000
vt 0.075000 0.925000
vt 0.175000 0.925000
vt 0.175000 0.825000
vt 0.075000 0.925000
vt 0.175000 0.925000
vt 0.175000 0.825000
vt 0.075000 0.825000
vt 0.075000 0.925000
vt 0.175000 0.825000
vt 0.075000 0.825000
vt 0.075000 0.925000
vt 0.175000 0.925000
vt 0.075000 0.825000
vt 0.075000 0.925000
vt 0.175000 0.925000
vt 0.175000 0.825000
vt 0.075000 0.825000
vt 0.175000 0.925000
vt 0.175000 0.825000
vt 0.075000 0.825000
vt 0.075000 0.925000
vt 0.175000 0.925000
vt 0.175000 0.825000
vt 0.075000 0.825000
vt 0.075000 0.925000
vt 0.175000 0.925000
vt 0.175000 0.825000
vt 0.075000 0.825000
vt 0.075000 0.925000
vt 0.175000 0.925000
vt 0.175000 0.825000
vt 0.075000 0.825000
vt 0.075000 0.925000
vt 0.175000 0.925000
vt 0.175000 0.825000
vt 0.175000 0.925000
vt 0.175000 0.825000
vt 0.175000 0.925000
vt 0.175000 0.825000
vt 0.075000 0.925000
vt 0.175000 0.925000
vt 0.175000 0.825000
vt 0.075000 0.825000
vt 0.075000 0.925000
vt 0.175000 0.925000
vt 0.175000 0.825000
vt 0.075000 0.825000
vt 0.075000 0.925000
vt 0.175000 0.925000
vt 0.175000 0.825000
vt 0.175000 0.925000
vt 0.175000 0.825000
vt 0.075000 0.825000
vt 0.075000 0.925000
vt 0.175000 0.925000
vt 0.175000 0.925000
vt 0.175000 0.825000
vt 0.175000 0.925000
vt 0.175000 0.825000
vt 0.175000 0.925000
vt 0.175000 0.825000
vt 0.175000 0.925000
vt 0.175000 0.825000
vt 0.175000 0.825000
vt 0.175000 0.925000
vt 0.175000 0.925000
vt 0.175000 0.825000
vt 0.175000 0.925000
vt 0.175000 0.925000
vt 0.175000 0.825000
vt 0.175000 0.825000
vt 0.175000 0.925000
vt 0.175000 0.825000
vt 0.175000 0.825000
vt 0.175000 0.925000
vn 0.0009 0.0012 1.0000
vn 0.0002 0.0894 0.9960
vn 0.0004 0.0021 1.0000
vn 0.0000 -0.0740 -0.9973
vn 0.0703 -0.0738 -0.9948
vn 0.0000 0.0667 0.9978
vn 0.0000 0.1762 0.9844
vn -0.0002 0.0894 0.9960
vn -1.0000 0.0000 0.0000
vn 0.0000 -1.0000 0.0000
vn 0.0000 1.0000 -0.0000
vn 1.0000 0.0000 0.0000
vn -0.8944 -0.4472 0.0000
vn 0.8944 -0.4472 0.0000
vn -0.0004 0.0021 1.0000
vn 0.0000 0.0027 1.0000
vn -0.0009 0.0012 1.0000
vn -0.0703 -0.0738 -0.9948
vn 0.1549 0.0548 0.9864
vn 0.0000 0.0555 0.9985
vn -0.1549 0.0548 0.9864
vn -0.7923 -0.3222 -0.5182
vn 0.7923 -0.3222 -0.5182
vn -1.0000 0.0012 -0.0009
vn -1.0000 0.0021 -0.0004
vn -0.9960 0.0894 -0.0002
vn 0.9973 -0.0740 -0.0000
vn 0.9948 -0.0738 -0.0703
vn -0.9978 0.0667 0.0000
vn -0.9960 0.0894 0.0002
vn -0.9844 0.1762 0.0000
vn -0.0000 -0.0000 1.0000
vn -0.0000 0.0000 -1.0000
vn 0.0000 -0.4472 0.8944
vn 0.0000 -0.4472 -0.8944
vn -1.0000 0.0027 0.0000
vn -1.0000 0.0021 0.0004
vn -1.0000 0.0012 0.0009
vn 0.9948 -0.0738 0.0703
vn -0.9864 0.0548 -0.1549
vn -0.9985 0.0555 -0.0000
vn -0.9864 0.0548 0.1549
vn 0.5182 -0.3222 0.7923
vn 0.5182 -0.3222 -0.7923
vn 1.0000 0.0012 0.0009
vn 1.0000 0.0021 0.0004
vn 0.9960 0.0894 0.0002
vn -0.9973 -0.0740 -0.0000
vn -0.9948 -0.0738 0.0703
vn 0.9978 0.0667 0.0000
vn 0.9960 0.0894 -0.0002
vn 0.9844 0.1762 0.0000
vn 1.0000 0.0027 0.0000
vn 1.0000 0.0021 -0.0004
vn 1.0000 0.0012 -0.0009
vn -0.9948 -0.0738 -0.0703
vn 0.9864 0.0548 0.1549
vn 0.9985 0.0555 -0.0000
vn 0.9864 0.0548 -0.1549
vn -0.5182 -0.3222 -0.7923
vn -0.5182 -0.3222 0.7923
vn -0.0009 0.0012 -1.0000
vn -0.0002 0.0894 -0.9960
vn -0.0004 0.0021 -1.0000
vn 0.0000 -0.0740 0.9973
vn -0.0703 -0.0738 0.9948
vn 0.0000 0.0667 -0.9978
vn 0.0000 0.1762 -0.9844
vn 0.0002 0.0894 -0.9960
vn 0.0004 0.0021 -1.0000
vn 0.0000 0.0027 -1.0000
vn 0.0009 0.0012 -1.0000
vn 0.0703 -0.0738 0.9948
vn -0.1549 0.0548 -0.9864
vn 0.0000 0.0555 -0.9985
vn 0.1549 0.0548 -0.9864
vn 0.7923 -0.3222 0.5182
vn -0.7923 -0.3222 0.5182
usemtl Material.003
s 1
f 1/1/1 4/2/2 3/3/3 2/4/1
f 5/5/4 8/6/5 7/7/5 6/8/4
f 9/9/6 11/10/7 10/11/8
f 12/12/9 10/13/9 8/14/9 13/15/9
f 1/1/10 2/16/10 15/17/10 14/18/10
f 10/19/9 11/20/9 7/7/9 8/21/9
f 16/22/11 18/23/11 17/24/11 6/8/11
f 4/25/12 1/26/12 14/27/12 19/28/12
f 18/29/12 4/2/12 19/30/12 17/31/12
f 20/32/10 23/33/10 22/34/10 21/35/10
f 24/36/10 12/37/10 13/38/10 25/39/10
f 2/40/13 3/41/13 26/42/13 15/43/13
f 23/44/14 24/45/14 25/46/14 22/47/14
f 9/9/6 10/13/8 23/48/15 20/49/16
f 10/19/8 12/37/17 24/50/17 23/51/15
f 4/25/2 9/52/6 20/53/16 3/54/3
f 3/55/10 20/56/10 21/57/10 26/58/10
f 11/59/11 16/60/11 6/61/11 7/62/11
f 4/25/2 18/63/7 9/64/6
f 19/65/18 5/66/4 6/61/4 17/31/18
f 18/29/19 16/67/20 9/64/20
f 11/59/21 9/68/20 16/69/20
f 26/42/13 28/70/13 27/71/13 15/43/13
f 15/17/10 27/72/10 29/73/10 14/18/10
f 29/74/12 31/75/12 30/76/12
f 32/77/10 35/78/10 34/79/10 33/80/10
f 36/81/9 37/82/9 32/83/9
f 27/72/10 34/84/10 38/85/10 29/73/10
f 14/27/12 29/74/12 30/76/12 19/28/12
f 8/14/9 36/81/9 32/83/9 13/15/9
f 13/38/10 32/77/10 33/80/10 25/39/10
f 25/46/14 33/86/14 39/87/14 22/47/14
f 37/82/22 35/88/22 32/83/22
f 31/75/23 29/74/23 38/89/23
f 40/90/24 43/91/24 42/92/25 41/93/26
f 44/94/27 47/95/27 46/96/28 45/97/28
f 48/98/29 50/99/30 49/100/31
f 51/101/32 52/102/32 45/103/32 50/104/32
f 40/90/10 54/105/10 53/106/10 43/107/10
f 50/108/32 45/109/32 46/96/32 49/110/32
f 55/111/11 47/95/11 57/112/11 56/113/11
f 41/114/33 58/115/33 54/116/33 40/117/33
f 56/118/33 57/119/33 58/120/33 41/93/33
f 59/121/10 62/122/10 61/123/10 60/124/10
f 63/125/10 64/126/10 52/127/10 51/128/10
f 43/129/34 53/130/34 65/131/34 42/132/34
f 60/133/35 61/134/35 64/135/35 63/136/35
f 48/98/29 59/137/36 60/138/37 50/104/30
f 50/108/30 60/139/37 63/140/38 51/128/38
f 41/114/26 42/141/25 59/142/36 48/143/29
f 42/144/10 65/145/10 62/146/10 59/147/10
f 49/148/11 46/149/11 47/150/11 55/151/11
f 41/114/26 48/152/29 56/153/31
f 58/154/39 57/119/39 47/150/27 44/155/27
f 56/118/40 48/152/41 55/156/41
f 49/148/42 55/157/41 48/158/41
f 65/131/34 53/130/34 67/159/34 66/160/34
f 53/106/10 54/105/10 68/161/10 67/162/10
f 68/163/33 70/164/33 69/165/33
f 71/166/10 73/167/10 34/79/10 72/168/10
f 74/169/32 71/170/32 75/171/32
f 67/162/10 68/161/10 76/172/10 34/84/10
f 54/116/33 58/115/33 70/164/33 68/163/33
f 45/103/32 52/102/32 71/170/32 74/169/32
f 52/127/10 64/126/10 73/167/10 71/166/10
f 64/135/35 61/134/35 77/173/35 73/174/35
f 75/171/43 71/170/43 72/175/43
f 69/165/44 76/176/44 68/163/44
f 78/177/45 81/178/45 80/179/46 79/180/47
f 82/181/48 85/182/48 84/183/49 83/184/49
f 86/185/50 88/186/51 87/187/52
f 89/188/33 90/189/33 83/190/33 88/191/33
f 78/177/10 92/192/10 91/193/10 81/194/10
f 88/195/33 83/196/33 84/183/33 87/197/33
f 93/198/11 85/182/11 95/199/11 94/200/11
f 79/201/32 96/202/32 92/203/32 78/204/32
f 94/205/32 95/206/32 96/207/32 79/180/32
f 97/208/10 100/209/10 99/210/10 98/211/10
f 101/212/10 102/213/10 90/214/10 89/215/10
f 81/216/35 91/217/35 103/218/35 80/219/35
f 98/220/34 99/221/34 102/222/34 101/223/34
f 86/185/50 97/224/53 98/225/54 88/191/51
f 88/195/51 98/226/54 101/227/55 89/215/55
f 79/201/47 80/228/46 97/229/53 86/230/50
f 80/231/10 103/232/10 100/233/10 97/234/10
f 87/235/11 84/236/11 85/237/11 93/238/11
f 79/201/47 86/239/50 94/240/52
f 96/241/56 95/206/56 85/237/48 82/242/48
f 94/205/57 86/239/58 93/243/58
f 87/235/59 93/244/58 86/245/58
f 103/218/35 91/217/35 105/246/35 104/247/35
f 91/193/10 92/192/10 106/248/10 105/249/10
f 106/250/32 108/251/32 107/252/32
f 109/253/10 111/254/10 34/79/10 110/255/10
f 112/256/33 109/257/33 113/258/33
f 105/249/10 106/248/10 114/259/10 34/84/10
f 92/203/32 96/202/32 108/251/32 106/250/32
f 83/190/33 90/189/33 109/257/33 112/256/33
f 90/214/10 102/213/10 111/254/10 109/253/10
f 102/222/34 99/221/34 115/260/34 111/261/34
f 113/258/60 109/257/60 110/262/60
f 107/252/61 114/263/61 106/250/61
f 116/264/62 119/265/63 118/266/64 117/267/62
f 120/268/65 123/269/66 122/270/66 121/271/65
f 124/272/67 126/273/68 125/274/69
f 127/275/12 125/276/12 123/277/12 128/278/12
f 116/264/10 117/279/10 130/280/10 129/281/10
f 125/282/12 126/283/12 122/270/12 123/284/12
f 131/285/11 133/286/11 132/287/11 121/271/11
f 119/288/9 116/289/9 129/290/9 134/291/9
f 133/292/9 119/265/9 134/293/9 132/294/9
f 135/295/10 138/296/10 137/297/10 136/298/10
f 139/299/10 127/300/10 128/301/10 140/302/10
f 117/303/14 118/304/14 141/305/14 130/306/14
f 138/307/13 139/308/13 140/309/13 137/310/13
f 124/272/67 125/276/69 138/311/70 135/312/71
f 125/282/69 127/300/72 139/313/72 138/314/70
f 119/288/63 124/315/67 135/316/71 118/317/64
f 118/318/10 135/319/10 136/320/10 141/321/10
f 126/322/11 131/323/11 121/324/11 122/325/11
f 119/288/63 133/326/68 124/327/67
f 134/328/73 120/329/65 121/324/65 132/294/73
f 133/292/74 131/330/75 124/327/75
f 126/322/76 124/331/75 131/332/75
f 141/305/14 143/333/14 142/334/14 130/306/14
f 130/280/10 142/335/10 144/336/10 129/281/10
f 144/337/9 146/338/9 145/339/9
f 147/340/10 149/341/10 34/79/10 148/342/10
f 150/343/12 151/344/12 147/345/12
f 142/335/10 34/84/10 152/346/10 144/336/10
f 129/290/9 144/337/9 145/339/9 134/291/9
f 123/277/12 150/343/12 147/345/12 128/278/12
f 128/301/10 147/340/10 148/342/10 140/302/10
f 140/309/13 148/347/13 153/348/13 137/310/13
f 151/344/77 149/349/77 147/345/77
f 146/338/78 144/337/78 152/350/78
o Cylinder.003
v -0.500000 0.300026 -0.375000
v -0.500000 0.500026 -0.375000
v -0.670704 0.500026 -0.358187
v -0.670704 0.300026 -0.358187
v -0.834848 0.500026 -0.308395
v -0.834848 0.300026 -0.308395
v -0.986124 0.500026 -0.227536
v -0.986124 0.300026 -0.227536
v -1.118718 0.500026 -0.118718
v -1.118718 0.300026 -0.118718
v -1.227536 0.500026 0.013876
v -1.227536 0.300026 0.013876
v -1.308395 0.500026 0.165152
v -1.308395 0.300026 0.165152
v -1.358187 0.500026 0.329296
v -1.358187 0.300026 0.329296
v -1.375000 0.500026 0.500000
v -1.375000 0.300026 0.500000
v -1.358187 0.500026 0.670704
v -1.358187 0.300026 0.670704
v -1.308395 0.500026 0.834848
v -1.308395 0.300026 0.834848
v -1.227536 0.500026 0.986124
v -1.227536 0.300026 0.986124
v -1.118718 0.500026 1.118718
v -1.118718 0.300026 1.118718
v -0.986124 0.500026 1.227536
v -0.986124 0.300026 1.227536
v -0.834848 0.500026 1.308395
v -0.834848 0.300026 1.308395
v -0.670704 0.500026 1.358187
v -0.670704 0.300026 1.358187
v -0.500000 0.500026 1.375000
v -0.500000 0.300026 1.375000
v -0.329296 0.500026 1.358187
v -0.329296 0.300026 1.358187
v -0.165152 0.500026 1.308394
v -0.165152 0.300026 1.308394
v -0.013876 0.500026 1.227536
v -0.013876 0.300026 1.227536
v 0.118719 0.500026 1.118718
v 0.118719 0.300026 1.118718
v 0.227536 0.500026 0.986123
v 0.227536 0.300026 0.986123
v 0.308395 0.500026 0.834847
v 0.308395 0.300026 0.834847
v 0.358187 0.500026 0.670703
v 0.358187 0.300026 0.670703
v 0.375000 0.500026 0.499999
v 0.375000 0.300026 0.499999
v 0.358187 0.500026 0.329295
v 0.358187 0.300026 0.329295
v 0.308394 0.500026 0.165151
v 0.308394 0.300026 0.165151
v 0.227535 0.500026 0.013875
v 0.227535 0.300026 0.013875
v 0.118718 0.500026 -0.118719
v 0.118718 0.300026 -0.118719
v -0.013877 0.500026 -0.227537
v -0.013877 0.300026 -0.227537
v -0.165153 0.500026 -0.308395
v -0.165153 0.300026 -0.308395
v -0.500000 0.500026 0.500000
v -0.329297 0.500026 -0.358187
v -0.329297 0.300026 -0.358187
vt 0.662897 0.904433
vt 0.662897 0.957181
vt 0.715645 0.957181
vt 0.715645 0.904433
vt 0.662897 0.904433
vt 0.662897 0.957181
vt 0.715645 0.957181
vt 0.715645 0.904433
vt 0.662897 0.904433
vt 0.662897 0.957181
vt 0.715645 0.957181
vt 0.715645 0.904433
vt 0.662897 0.904433
vt 0.662897 0.957181
vt 0.715645 0.957181
vt 0.715645 0.904433
vt 0.662897 0.904433
vt 0.662897 0.957181
vt 0.715645 0.957181
vt 0.715645 0.904433
vt 0.662897 0.904433
vt 0.662897 0.957181
vt 0.715645 0.957181
vt 0.715645 0.904433
vt 0.662897 0.904433
vt 0.662897 0.957181
vt 0.715645 0.957181
vt 0.715645 0.904433
vt 0.662897 0.904433
vt 0.662897 0.957181
vt 0.715645 0.957181
vt 0.715645 0.904433
vt 0.662897 0.904433
vt 0.662897 0.957181
vt 0.715645 0.957181
vt 0.715645 0.904433
vt 0.662897 0.904433
vt 0.662897 0.957181
vt 0.715645 0.957181
vt 0.715645 0.904433
vt 0.662897 0.904433
vt 0.662897 0.957181
vt 0.715645 0.957181
vt 0.715645 0.904433
vt 0.662897 0.904433
vt 0.662897 0.957181
vt 0.715645 0.957181
vt 0.715645 0.904433
vt 0.662897 0.904433
vt 0.662897 0.957181
vt 0.715645 0.957181
vt 0.715645 0.904433
vt 0.662897 0.904433
vt 0.662897 0.957181
vt 0.715645 0.957181
vt 0.715645 0.904433
vt 0.662897 0.904433
vt 0.662897 0.957181
vt 0.715645 0.957181
vt 0.715645 0.904433
vt 0.662897 0.904433
vt 0.662897 0.957181
vt 0.715645 0.957181
vt 0.715645 0.904433
vt 0.662897 0.904433
vt 0.662897 0.957181
vt 0.715645 0.957181
vt 0.715645 0.904433
vt 0.662897 0.904433
vt 0.662897 0.957181
vt 0.715645 0.957181
vt 0.715645 0.904433
vt 0.662897 0.904433
vt 0.662897 0.957181
vt 0.715645 0.957181
vt 0.715645 0.904433
vt 0.662897 0.904433
vt 0.662897 0.957181
vt 0.715645 0.957181
vt 0.715645 0.904433
vt 0.662897 0.904433
vt 0.662897 0.957181
vt 0.715645 0.957181
vt 0.715645 0.904433
vt 0.662897 0.904433
vt 0.662897 0.957181
vt 0.715645 0.957181
vt 0.715645 0.904433
vt 0.662897 0.904433
vt 0.662897 0.957181
vt 0.715645 0.957181
vt 0.715645 0.904433
vt 0.662897 0.904433
vt 0.662897 0.957181
vt 0.715645 0.957181
vt 0.715645 0.904433
vt 0.662897 0.904433
vt 0.662897 0.957181
vt 0.715645 0.957181
vt 0.715645 0.904433
vt 0.662897 0.904433
vt 0.662897 0.957181
vt 0.715645 0.957181
vt 0.715645 0.904433
vt 0.662897 0.904433
vt 0.662897 0.957181
vt 0.715645 0.957181
vt 0.715645 0.904433
vt 0.662897 0.904433
vt 0.662897 0.957181
vt 0.715645 0.957181
vt 0.715645 0.904433
vt 0.662897 0.904433
vt 0.662897 0.957181
vt 0.715645 0.957181
vt 0.715645 0.904433
vt 0.662897 0.904433
vt 0.662897 0.957181
vt 0.715645 0.957181
vt 0.715645 0.904433
vt 0.674619 0.952736
vt 0.689271 0.930807
vt 0.679179 0.955173
vt 0.662897 0.904433
vt 0.662897 0.957181
vt 0.715645 0.957181
vt 0.715645 0.904433
vt 0.662897 0.904433
vt 0.662897 0.957181
vt 0.715645 0.957181
vt 0.715645 0.904433
vt 0.689271 0.957181
vt 0.694417 0.956674
vt 0.699364 0.955173
vt 0.703924 0.952736
vt 0.707920 0.949456
vt 0.711200 0.945460
vt 0.713638 0.940900
vt 0.715138 0.935953
vt 0.715645 0.930807
vt 0.715138 0.925662
vt 0.713638 0.920714
vt 0.711200 0.916154
vt 0.707920 0.912158
vt 0.703924 0.908878
vt 0.699364 0.906441
vt 0.694416 0.904940
vt 0.689271 0.904433
vt 0.684126 0.904940
vt 0.679179 0.906441
vt 0.674619 0.908878
vt 0.670622 0.912158
vt 0.667343 0.916154
vt 0.664905 0.920714
vt 0.663404 0.925662
vt 0.662897 0.930807
vt 0.663404 0.935953
vt 0.664905 0.940900
vt 0.667343 0.945460
vt 0.670622 0.949456
vt 0.674619 0.952736
vt 0.679179 0.955173
vt 0.684126 0.956674
vt 0.663404 0.925662
vt 0.662897 0.930807
vt 0.694416 0.904940
vt 0.689271 0.904433
vt 0.715138 0.935953
vt 0.715645 0.930807
vt 0.684126 0.956674
vt 0.689271 0.957181
vt 0.694417 0.956674
vt 0.664905 0.940900
vt 0.663404 0.935953
vt 0.667343 0.945460
vt 0.670622 0.949456
vt 0.679179 0.906441
vt 0.684126 0.904940
vt 0.674619 0.908878
vt 0.670622 0.912158
vt 0.667343 0.916154
vt 0.664905 0.920714
vt 0.713638 0.920714
vt 0.715138 0.925662
vt 0.711200 0.916154
vt 0.707920 0.912158
vt 0.703924 0.908878
vt 0.699364 0.906441
vt 0.699364 0.955173
vt 0.703924 0.952736
vt 0.707920 0.949456
vt 0.711200 0.945460
vt 0.713638 0.940900
vn -0.0000 0.9895 -0.1446
vn -0.0279 0.9895 -0.1419
vn -0.0274 0.9902 -0.1373
vn 0.0005 0.9901 -0.1400
vn -0.0550 0.9895 -0.1337
vn -0.0532 0.9901 -0.1296
vn -0.0802 0.9895 -0.1203
vn -0.0777 0.9901 -0.1165
vn -0.1018 0.9895 -0.1028
vn -0.0987 0.9901 -0.0993
vn -0.1202 0.9895 -0.0806
vn -0.1165 0.9901 -0.0778
vn -0.1333 0.9895 -0.0560
vn -0.1293 0.9901 -0.0538
vn -0.1419 0.9895 -0.0283
vn -0.1372 0.9901 -0.0282
vn -0.1446 0.9895 -0.0005
vn -0.1400 0.9901 0.0000
vn -0.1421 0.9895 0.0274
vn -0.1375 0.9901 0.0270
vn -0.1338 0.9895 0.0549
vn -0.1295 0.9901 0.0534
vn -0.1202 0.9895 0.0804
vn -0.1164 0.9901 0.0779
vn -0.1024 0.9895 0.1022
vn -0.0991 0.9901 0.0989
vn -0.0802 0.9895 0.1203
vn -0.0776 0.9901 0.1165
vn -0.0559 0.9895 0.1334
vn -0.0542 0.9901 0.1292
vn -0.0287 0.9895 0.1418
vn -0.0274 0.9902 0.1373
vn 0.0000 0.9895 0.1446
vn 0.0000 0.9901 0.1400
vn 0.0281 0.9895 0.1419
vn 0.0274 0.9902 0.1373
vn 0.0548 0.9895 0.1338
vn 0.0536 0.9901 0.1294
vn 0.0801 0.9895 0.1203
vn 0.0777 0.9901 0.1165
vn 0.1020 0.9895 0.1025
vn 0.0987 0.9901 0.0993
vn 0.1200 0.9895 0.0807
vn 0.1162 0.9901 0.0782
vn 0.1333 0.9895 0.0559
vn 0.1291 0.9901 0.0543
vn 0.1418 0.9895 0.0282
vn 0.1373 0.9901 0.0274
vn 0.1446 0.9895 0.0003
vn 0.1400 0.9901 0.0006
vn 0.1418 0.9895 -0.0284
vn 0.1373 0.9902 -0.0272
vn 0.1335 0.9895 -0.0554
vn 0.1293 0.9901 -0.0536
vn 0.1203 0.9895 -0.0803
vn 0.1165 0.9901 -0.0777
vn 0.1022 0.9895 -0.1023
vn 0.0989 0.9901 -0.0992
vn 0.0807 0.9895 -0.1200
vn 0.0778 0.9901 -0.1165
vn 0.0557 0.9895 -0.1335
vn 0.0537 0.9902 -0.1293
vn -0.5813 0.5693 -0.5814
vn -0.7915 0.5750 -0.2071
vn -0.4568 0.5693 -0.6836
vn 0.0286 0.9895 -0.1418
vn 0.0279 0.9902 -0.1372
vn 0.0000 0.3278 -0.9447
vn -0.1843 0.3278 -0.9266
vn -0.3615 0.3278 -0.8728
vn -0.5250 0.3278 -0.7854
vn -0.6680 0.3278 -0.6681
vn -0.7854 0.3278 -0.5250
vn -0.8728 0.3278 -0.3615
vn -0.9266 0.3278 -0.1843
vn -0.9447 0.3278 0.0000
vn -0.9266 0.3278 0.1843
vn -0.8728 0.3278 0.3615
vn -0.7854 0.3278 0.5250
vn -0.6681 0.3278 0.6680
vn -0.5250 0.3278 0.7854
vn -0.3615 0.3278 0.8728
vn -0.1843 0.3278 0.9266
vn 0.0000 0.3278 0.9447
vn 0.1844 0.3278 0.9266
vn 0.3615 0.3278 0.8728
vn 0.5248 0.3278 0.7856
vn 0.6681 0.3278 0.6680
vn 0.7856 0.3278 0.5248
vn 0.8728 0.3278 0.3616
vn 0.9266 0.3278 0.1843
vn 0.9447 0.3278 0.0000
vn 0.9266 0.3278 -0.1844
vn 0.8728 0.3278 -0.3616
vn 0.7856 0.3278 -0.5248
vn 0.6681 0.3278 -0.6680
vn 0.5250 0.3278 -0.7854
vn 0.3615 0.3278 -0.8728
vn 0.1844 0.3278 -0.9266
vn -0.7596 0.5693 0.3145
vn -0.8063 0.5693 0.1603
vn 0.3145 0.5693 0.7596
vn 0.1604 0.5693 0.8063
vn 0.7595 0.5693 -0.3147
vn 0.8063 0.5693 -0.1604
vn -0.3145 0.5693 -0.7596
vn -0.1603 0.5693 -0.8063
vn 0.0000 0.5693 -0.8221
vn -0.8063 0.5693 -0.1603
vn -0.8221 0.5693 0.0000
vn -0.7596 0.5693 -0.3145
vn -0.6836 0.5693 -0.4568
vn -0.1603 0.5693 0.8063
vn 0.0000 0.5693 0.8221
vn -0.3145 0.5693 0.7596
vn -0.4568 0.5693 0.6836
vn -0.5814 0.5693 0.5813
vn -0.6836 0.5693 0.4568
vn 0.8063 0.5693 0.1603
vn 0.8221 0.5693 0.0000
vn 0.7595 0.5693 0.3147
vn 0.6836 0.5693 0.4567
vn 0.5814 0.5693 0.5813
vn 0.4567 0.5693 0.6836
vn 0.1604 0.5693 -0.8063
vn 0.3145 0.5693 -0.7596
vn 0.4568 0.5693 -0.6836
vn 0.5814 0.5693 -0.5813
vn 0.6836 0.5693 -0.4567
usemtl Material.003
s 1
f 154/351/79 157/352/80 156/353/81 155/354/82
f 157/355/80 159/356/83 158/357/84 156/358/81
f 159/359/83 161/360/85 160/361/86 158/362/84
f 161/363/85 163/364/87 162/365/88 160/366/86
f 163/367/87 165/368/89 164/369/90 162/370/88
f 165/371/89 167/372/91 166/373/92 164/374/90
f 167/375/91 169/376/93 168/377/94 166/378/92
f 169/379/93 171/380/95 170/381/96 168/382/94
f 171/383/95 173/384/97 172/385/98 170/386/96
f 173/387/97 175/388/99 174/389/100 172/390/98
f 175/391/99 177/392/101 176/393/102 174/394/100
f 177/395/101 179/396/103 178/397/104 176/398/102
f 179/399/103 181/400/105 180/401/106 178/402/104
f 181/403/105 183/404/107 182/405/108 180/406/106
f 183/407/107 185/408/109 184/409/110 182/410/108
f 185/411/109 187/412/111 186/413/112 184/414/110
f 187/415/111 189/416/113 188/417/114 186/418/112
f 189/419/113 191/420/115 190/421/116 188/422/114
f 191/423/115 193/424/117 192/425/118 190/426/116
f 193/427/117 195/428/119 194/429/120 192/430/118
f 195/431/119 197/432/121 196/433/122 194/434/120
f 197/435/121 199/436/123 198/437/124 196/438/122
f 199/439/123 201/440/125 200/441/126 198/442/124
f 201/443/125 203/444/127 202/445/128 200/446/126
f 203/447/127 205/448/129 204/449/130 202/450/128
f 205/451/129 207/452/131 206/453/132 204/454/130
f 207/455/131 209/456/133 208/457/134 206/458/132
f 209/459/133 211/460/135 210/461/136 208/462/134
f 211/463/135 213/464/137 212/465/138 210/466/136
f 213/467/137 215/468/139 214/469/140 212/470/138
f 162/471/141 216/472/142 160/473/143
f 215/474/139 218/475/144 217/476/145 214/477/140
f 218/478/144 154/479/79 155/480/82 217/481/145
f 154/482/146 157/483/147 159/484/148 161/485/149 163/486/150 165/487/151 167/488/152 169/489/153 171/490/154 173/491/155 175/492/156 177/493/157 179/494/158 181/495/159 183/496/160 185/497/161 187/498/162 189/499/163 191/500/164 193/501/165 195/502/166 197/503/167 199/504/168 201/505/169 203/506/170 205/507/171 207/508/172 209/509/173 211/510/174 213/511/175 215/512/176 218/513/177
f 174/514/178 216/472/142 172/515/179
f 190/516/180 216/472/142 188/517/181
f 206/518/182 216/472/142 204/519/183
f 158/520/184 216/472/142 156/521/185
f 156/521/185 216/472/142 155/522/186
f 216/472/142 168/523/187 170/524/188
f 158/520/184 160/473/143 216/472/142
f 168/523/187 216/472/142 166/525/189
f 166/525/189 216/472/142 164/526/190
f 164/526/190 216/472/142 162/471/141
f 172/515/179 216/472/142 170/524/188
f 216/472/142 184/527/191 186/528/192
f 184/527/191 216/472/142 182/529/193
f 182/529/193 216/472/142 180/530/194
f 180/530/194 216/472/142 178/531/195
f 178/531/195 216/472/142 176/532/196
f 176/532/196 216/472/142 174/514/178
f 188/517/181 216/472/142 186/528/192
f 216/472/142 200/533/197 202/534/198
f 200/533/197 216/472/142 198/535/199
f 198/535/199 216/472/142 196/536/200
f 196/536/200 216/472/142 194/537/201
f 194/537/201 216/472/142 192/538/202
f 192/538/202 216/472/142 190/516/180
f 204/519/183 216/472/142 202/534/198
f 216/472/142 217/539/203 155/522/186
f 217/539/203 216/472/142 214/540/204
f 214/540/204 216/472/142 212/541/205
f 212/541/205 216/472/142 210/542/206
f 210/542/206 216/472/142 208/543/207
f 208/543/207 216/472/142 206/518/182
o m_BF_Block_Faired_111_Instance
v -1.210000 -0.500000 -0.000000
v -1.500000 -0.500000 -0.000000
v -1.200000 -0.450000 -0.000000
v -1.000000 -0.450000 -0.199999
v -1.154142 -0.500000 -0.209999
v -1.150000 -0.450000 -0.200000
v -1.000000 -0.500000 -0.209999
v -1.210000 -0.500000 -0.154142
v -1.200000 -0.450000 -0.150000
v -1.132023 -0.499999 -0.132022
v -1.132023 -0.450000 0.132023
v -1.132023 -0.499999 0.132023
v -1.132023 -0.450000 -0.132023
v -0.867978 -0.500000 -0.132022
v -0.867978 -0.450000 -0.132022
v -1.000001 -0.599999 0.000001
v -0.867978 -0.499999 0.132023
v -1.461940 -0.500000 -0.191342
v -1.000000 -0.500000 -0.500000
v -1.191342 -0.500000 -0.461940
v -1.353553 -0.500000 -0.353553
v 0.000001 -0.499999 -0.210000
v 0.000000 -0.500000 -0.500000
v 0.000001 -0.449999 -0.200000
v 0.200000 -0.449998 -0.000000
v 0.210000 -0.499999 -0.154142
v 0.200001 -0.449999 -0.150000
v 0.210000 -0.499999 -0.000000
v 0.154143 -0.499999 -0.210000
v 0.150001 -0.449999 -0.200000
v 0.132023 -0.499998 -0.132023
v -0.132022 -0.449999 -0.132023
v -0.132022 -0.499998 -0.132023
v 0.132024 -0.449999 -0.132023
v 0.132023 -0.499999 0.132022
v 0.132023 -0.449999 0.132022
v 0.000000 -0.599998 -0.000001
v -0.132022 -0.499998 0.132022
v 0.191342 -0.500000 -0.461940
v 0.500000 -0.500000 -0.000000
v 0.461940 -0.500000 -0.191342
v 0.353553 -0.500000 -0.353553
v 0.210001 -0.499997 1.000001
v 0.500000 -0.500000 1.000000
v 0.200001 -0.449997 1.000001
v 0.000001 -0.449997 1.200000
v 0.154143 -0.499997 1.210001
v 0.150001 -0.449997 1.200001
v 0.000001 -0.499997 1.210001
v 0.210001 -0.499997 1.154144
v 0.200001 -0.449997 1.150001
v 0.132024 -0.499996 1.132024
v 0.132024 -0.449998 0.867978
v 0.132024 -0.499997 0.867978
v 0.132024 -0.449997 1.132024
v -0.132021 -0.499997 1.132024
v -0.132021 -0.449997 1.132023
v 0.000002 -0.599997 1.000001
v -0.132021 -0.499997 0.867978
v 0.461940 -0.500000 1.191342
v 0.000000 -0.500000 1.500000
v 0.191342 -0.500000 1.461940
v 0.353553 -0.500000 1.353553
v -1.000000 -0.499998 1.210001
v -1.000000 -0.500000 1.500000
v -1.000000 -0.449998 1.200001
v -1.199999 -0.449998 1.000001
v -1.209999 -0.499998 1.154143
v -1.200000 -0.449998 1.150001
v -1.209999 -0.499998 1.000001
v -1.154143 -0.499998 1.210001
v -1.150000 -0.449998 1.200001
v -1.132022 -0.499997 1.132024
v -0.867977 -0.449998 1.132024
v -0.867977 -0.499997 1.132024
v -1.132023 -0.449998 1.132024
v -1.132022 -0.499999 0.867979
v -1.132022 -0.449999 0.867979
v -0.999999 -0.599997 1.000002
v -0.867977 -0.499998 0.867979
v -1.191342 -0.500000 1.461940
v -1.500000 -0.500000 1.000000
v -1.461940 -0.500000 1.191342
v -1.353553 -0.500000 1.353553
v -1.000000 -0.050000 -0.000000
v -1.499317 -0.050000 0.000683
v -0.999317 -0.050000 -0.499317
v 0.000000 -0.050000 -0.000000
v -0.000683 -0.050000 -0.499317
v -1.499317 -0.050000 0.999317
v -1.375204 0.399993 0.993785
v -1.346659 0.399993 1.137292
v -1.461256 -0.050000 1.190658
v -1.352870 -0.050000 1.352870
v -1.143710 0.399993 1.340240
v -1.190658 -0.050000 1.461256
v -1.000204 0.399993 1.368786
v -0.999317 -0.050000 1.499317
v -1.000000 -0.050000 1.000000
v -1.001147 0.299989 1.290877
v -1.301147 0.299989 0.990877
v -1.301147 0.399989 0.990877
v -1.001147 0.399989 1.290877
v -1.347280 0.254994 1.158850
v -1.352870 -0.150000 1.352870
v -1.278311 0.399989 1.105682
v -1.115952 0.399989 1.268041
v -1.278311 0.299989 1.105682
v -1.001967 0.299989 0.991697
v -1.115952 0.299989 1.268041
v -1.213279 0.299989 1.203009
v -1.274119 0.254994 1.268342
v -1.164626 0.254994 1.341503
v 0.499317 -0.050000 0.999317
v 0.461256 -0.050000 1.190658
v 0.346659 0.399993 1.137292
v 0.375204 0.399993 0.993785
v 0.352870 -0.050000 1.352870
v 0.190658 -0.050000 1.461256
v 0.143710 0.399993 1.340240
v -0.000683 -0.050000 1.499317
v 0.000204 0.399993 1.368786
v 0.000000 -0.050000 1.000000
v 0.001147 0.299989 1.290877
v 0.301147 0.399989 0.990877
v 0.301147 0.299989 0.990877
v 0.001147 0.399989 1.290877
v 0.352870 -0.150000 1.352870
v 0.347280 0.254994 1.158850
v 0.278311 0.399989 1.105682
v 0.115952 0.399989 1.268041
v 0.278311 0.299989 1.105682
v 0.213279 0.299989 1.203009
v 0.115952 0.299989 1.268041
v 0.001967 0.299989 0.991697
v 0.274119 0.254994 1.268342
v 0.164626 0.254994 1.341503
v -1.461256 -0.050000 -0.190658
v -1.346659 0.399993 -0.137292
v -1.375204 0.399993 0.006215
v -1.352870 -0.050000 -0.352870
v -1.190658 -0.050000 -0.461256
v -1.143710 0.399993 -0.340240
v -1.000204 0.399993 -0.368786
v -1.001147 0.299989 -0.290877
v -1.301147 0.399989 0.009123
v -1.301147 0.299989 0.009123
v -1.001147 0.399989 -0.290877
v -1.352870 -0.150000 -0.352870
v -1.347280 0.254994 -0.158850
v -1.278311 0.399989 -0.105682
v -1.115952 0.399989 -0.268041
v -1.278311 0.299989 -0.105682
v -1.213279 0.299989 -0.203009
v -1.115952 0.299989 -0.268041
v -1.001967 0.299989 0.008303
v -1.274119 0.254994 -0.268342
v -1.164626 0.254994 -0.341503
v 0.499317 -0.050000 0.000683
v 0.375204 0.399993 0.006215
v 0.346659 0.399993 -0.137292
v 0.461256 -0.050000 -0.190658
v 0.352870 -0.050000 -0.352870
v 0.143710 0.399993 -0.340240
v 0.190658 -0.050000 -0.461256
v 0.000204 0.399993 -0.368786
v 0.001147 0.299989 -0.290877
v 0.301147 0.299989 0.009123
v 0.301147 0.399989 0.009123
v 0.001147 0.399989 -0.290877
v 0.347280 0.254994 -0.158850
v 0.352870 -0.150000 -0.352870
v 0.278311 0.399989 -0.105682
v 0.115952 0.399989 -0.268041
v 0.278311 0.299989 -0.105682
v 0.001967 0.299989 0.008303
v 0.115952 0.299989 -0.268041
v 0.213279 0.299989 -0.203009
v 0.274119 0.254994 -0.268342
v 0.164626 0.254994 -0.341503
vt 0.154883 0.867162
vt 0.149678 0.867585
vt 0.075000 0.825000
vt 0.118136 0.899127
vt 0.148758 0.899127
vt 0.149181 0.904332
vt 0.133447 0.904332
vt 0.145800 0.900352
vt 0.150903 0.895249
vt 0.154883 0.898630
vt 0.149678 0.898207
vt 0.895443 0.902287
vt 0.867022 0.902287
vt 0.867022 0.896905
vt 0.895443 0.896905
vt 0.895443 0.902287
vt 0.867022 0.902287
vt 0.867022 0.896905
vt 0.895443 0.896905
vt 0.031246 0.031498
vt 0.060715 0.002028
vt 0.060715 0.060967
vt 0.001776 0.060967
vt 0.001776 0.002028
vt 0.175000 0.825000
vt 0.175000 0.825000
vt 0.175000 0.825000
vt 0.175000 0.825000
vt 0.075000 0.925000
vt 0.075000 0.925000
vt 0.175000 0.825000
vt 0.175000 0.825000
vt 0.175000 0.825000
vt 0.154883 0.867162
vt 0.149678 0.867585
vt 0.075000 0.825000
vt 0.118136 0.899127
vt 0.148758 0.899127
vt 0.149181 0.904332
vt 0.133447 0.904332
vt 0.145800 0.900352
vt 0.150903 0.895249
vt 0.154883 0.898630
vt 0.149678 0.898207
vt 0.895443 0.902287
vt 0.867022 0.902287
vt 0.867022 0.896905
vt 0.895443 0.896905
vt 0.895443 0.902287
vt 0.867022 0.902287
vt 0.867022 0.896905
vt 0.895443 0.896905
vt 0.031246 0.031498
vt 0.060715 0.002028
vt 0.060715 0.060967
vt 0.001776 0.060967
vt 0.001776 0.002028
vt 0.175000 0.825000
vt 0.175000 0.825000
vt 0.175000 0.825000
vt 0.175000 0.825000
vt 0.075000 0.925000
vt 0.075000 0.925000
vt 0.175000 0.825000
vt 0.175000 0.825000
vt 0.175000 0.825000
vt 0.154883 0.867162
vt 0.149678 0.867585
vt 0.075000 0.825000
vt 0.118136 0.899127
vt 0.148758 0.899127
vt 0.149181 0.904332
vt 0.133447 0.904332
vt 0.145800 0.900352
vt 0.150903 0.895249
vt 0.154883 0.898630
vt 0.149678 0.898207
vt 0.895443 0.902287
vt 0.867022 0.902287
vt 0.867022 0.896905
vt 0.895443 0.896905
vt 0.895443 0.902287
vt 0.867022 0.902287
vt 0.867022 0.896905
vt 0.895443 0.896905
vt 0.031246 0.031498
vt 0.060715 0.002028
vt 0.060715 0.060967
vt 0.001776 0.060967
vt 0.001776 0.002028
vt 0.175000 0.825000
vt 0.175000 0.825000
vt 0.175000 0.825000
vt 0.175000 0.825000
vt 0.075000 0.925000
vt 0.075000 0.925000
vt 0.175000 0.825000
vt 0.175000 0.825000
vt 0.175000 0.825000
vt 0.154883 0.867162
vt 0.149678 0.867585
vt 0.075000 0.825000
vt 0.118136 0.899127
vt 0.148758 0.899127
vt 0.149181 0.904332
vt 0.133447 0.904332
vt 0.145800 0.900352
vt 0.150903 0.895249
vt 0.154883 0.898630
vt 0.149678 0.898207
vt 0.895443 0.902287
vt 0.867022 0.902287
vt 0.867022 0.896905
vt 0.895443 0.896905
vt 0.895443 0.902287
vt 0.867022 0.902287
vt 0.867022 0.896905
vt 0.895443 0.896905
vt 0.031246 0.031498
vt 0.060715 0.002028
vt 0.060715 0.060967
vt 0.001776 0.060967
vt 0.001776 0.002028
vt 0.175000 0.825000
vt 0.175000 0.825000
vt 0.175000 0.825000
vt 0.175000 0.825000
vt 0.075000 0.925000
vt 0.075000 0.925000
vt 0.175000 0.825000
vt 0.175000 0.825000
vt 0.175000 0.825000
vt 0.895443 0.896905
vt 0.895443 0.896905
vt 0.895443 0.896905
vt 0.895443 0.896905
vt 0.895443 0.896905
vt 0.895443 0.896905
vt 0.895443 0.896905
vt 0.895443 0.896905
vt 0.895443 0.896905
vt 0.895443 0.896905
vt 0.895443 0.896905
vt 0.895443 0.896905
vt 0.895443 0.896905
vt 0.895443 0.896905
vt 0.895443 0.896905
vt 0.895443 0.896905
vt 0.175000 0.825000
vt 0.175000 0.825000
vt 0.175000 0.825000
vt 0.075000 0.825000
vt 0.175000 0.825000
vt 0.175000 0.825000
vt 0.075000 0.825000
vt 0.075000 0.925000
vt 0.175000 0.925000
vt 0.175000 0.825000
vt 0.075000 0.825000
vt 0.075000 0.925000
vt 0.175000 0.825000
vt 0.075000 0.825000
vt 0.075000 0.925000
vt 0.175000 0.925000
vt 0.075000 0.825000
vt 0.075000 0.925000
vt 0.175000 0.925000
vt 0.175000 0.825000
vt 0.075000 0.825000
vt 0.175000 0.925000
vt 0.175000 0.825000
vt 0.075000 0.825000
vt 0.075000 0.925000
vt 0.175000 0.925000
vt 0.175000 0.825000
vt 0.075000 0.825000
vt 0.075000 0.925000
vt 0.175000 0.925000
vt 0.175000 0.825000
vt 0.075000 0.825000
vt 0.075000 0.925000
vt 0.175000 0.925000
vt 0.175000 0.825000
vt 0.075000 0.825000
vt 0.175000 0.925000
vt 0.175000 0.825000
vt 0.075000 0.825000
vt 0.075000 0.925000
vt 0.175000 0.925000
vt 0.075000 0.825000
vt 0.075000 0.925000
vt 0.175000 0.925000
vt 0.175000 0.825000
vt 0.075000 0.925000
vt 0.175000 0.825000
vt 0.075000 0.825000
vt 0.075000 0.925000
vt 0.175000 0.925000
vt 0.075000 0.825000
vt 0.075000 0.925000
vt 0.175000 0.925000
vt 0.835938 0.039258
vt 0.835938 0.039258
vt 0.835938 0.039258
vt 0.835938 0.039258
vt 0.835938 0.039258
vt 0.835938 0.039258
vt 0.075000 0.825000
vt 0.075000 0.925000
vt 0.075000 0.825000
vt 0.175000 0.825000
vt 0.075000 0.925000
vt 0.175000 0.825000
vt 0.075000 0.825000
vt 0.175000 0.925000
vt 0.175000 0.825000
vt 0.812500 0.062500
vt 0.812500 0.062500
vt 0.812500 0.062500
vt 0.812500 0.062500
vt 0.175000 0.925000
vt 0.075000 0.825000
vt 0.812500 0.062500
vt 0.812500 0.062500
vt 0.812500 0.062500
vt 0.175000 0.825000
vt 0.812500 0.062500
vt 0.812500 0.062500
vt 0.812500 0.062500
vt 0.812500 0.062500
vt 0.075000 0.825000
vt 0.175000 0.825000
vt 0.175000 0.925000
vt 0.075000 0.925000
vt 0.075000 0.825000
vt 0.175000 0.825000
vt 0.075000 0.925000
vt 0.075000 0.825000
vt 0.175000 0.925000
vt 0.075000 0.925000
vt 0.075000 0.825000
vt 0.175000 0.825000
vt 0.175000 0.925000
vt 0.075000 0.925000
vt 0.075000 0.825000
vt 0.175000 0.825000
vt 0.175000 0.925000
vt 0.075000 0.825000
vt 0.175000 0.825000
vt 0.175000 0.925000
vt 0.075000 0.825000
vt 0.175000 0.825000
vt 0.175000 0.925000
vt 0.075000 0.825000
vt 0.175000 0.825000
vt 0.175000 0.925000
vt 0.075000 0.925000
vt 0.175000 0.825000
vt 0.175000 0.925000
vt 0.075000 0.925000
vt 0.075000 0.825000
vt 0.175000 0.925000
vt 0.075000 0.925000
vt 0.075000 0.825000
vt 0.175000 0.825000
vt 0.175000 0.925000
vt 0.075000 0.925000
vt 0.175000 0.825000
vt 0.075000 0.925000
vt 0.075000 0.825000
vt 0.175000 0.925000
vt 0.075000 0.925000
vt 0.075000 0.825000
vt 0.175000 0.925000
vt 0.075000 0.925000
vt 0.835938 0.039258
vt 0.835938 0.039258
vt 0.835938 0.039258
vt 0.835938 0.039258
vt 0.835938 0.039258
vt 0.835938 0.039258
vt 0.075000 0.925000
vt 0.075000 0.825000
vt 0.075000 0.825000
vt 0.175000 0.825000
vt 0.175000 0.825000
vt 0.075000 0.925000
vt 0.075000 0.825000
vt 0.175000 0.825000
vt 0.175000 0.925000
vt 0.812500 0.062500
vt 0.812500 0.062500
vt 0.812500 0.062500
vt 0.812500 0.062500
vt 0.075000 0.825000
vt 0.175000 0.925000
vt 0.812500 0.062500
vt 0.812500 0.062500
vt 0.812500 0.062500
vt 0.175000 0.825000
vt 0.812500 0.062500
vt 0.812500 0.062500
vt 0.812500 0.062500
vt 0.812500 0.062500
vt 0.075000 0.825000
vt 0.175000 0.825000
vt 0.175000 0.925000
vt 0.075000 0.925000
vt 0.075000 0.825000
vt 0.175000 0.825000
vt 0.075000 0.925000
vt 0.075000 0.825000
vt 0.175000 0.925000
vt 0.075000 0.925000
vt 0.075000 0.825000
vt 0.175000 0.825000
vt 0.175000 0.925000
vt 0.075000 0.925000
vt 0.175000 0.925000
vt 0.075000 0.825000
vt 0.175000 0.825000
vt 0.175000 0.925000
vt 0.075000 0.825000
vt 0.175000 0.825000
vt 0.175000 0.925000
vt 0.075000 0.825000
vt 0.175000 0.825000
vt 0.175000 0.925000
vt 0.075000 0.925000
vt 0.175000 0.925000
vt 0.075000 0.925000
vt 0.075000 0.825000
vt 0.175000 0.925000
vt 0.075000 0.925000
vt 0.075000 0.825000
vt 0.175000 0.825000
vt 0.175000 0.925000
vt 0.075000 0.925000
vt 0.175000 0.825000
vt 0.075000 0.925000
vt 0.075000 0.825000
vt 0.175000 0.925000
vt 0.075000 0.925000
vt 0.075000 0.825000
vt 0.175000 0.925000
vt 0.075000 0.925000
vt 0.835938 0.039258
vt 0.835938 0.039258
vt 0.835938 0.039258
vt 0.835938 0.039258
vt 0.835938 0.039258
vt 0.835938 0.039258
vt 0.075000 0.925000
vt 0.075000 0.825000
vt 0.075000 0.825000
vt 0.175000 0.825000
vt 0.075000 0.925000
vt 0.075000 0.825000
vt 0.175000 0.825000
vt 0.175000 0.925000
vt 0.812500 0.062500
vt 0.812500 0.062500
vt 0.812500 0.062500
vt 0.812500 0.062500
vt 0.075000 0.825000
vt 0.175000 0.925000
vt 0.812500 0.062500
vt 0.812500 0.062500
vt 0.812500 0.062500
vt 0.175000 0.825000
vt 0.812500 0.062500
vt 0.812500 0.062500
vt 0.812500 0.062500
vt 0.812500 0.062500
vt 0.075000 0.825000
vt 0.075000 0.925000
vt 0.175000 0.925000
vt 0.175000 0.825000
vt 0.075000 0.825000
vt 0.075000 0.925000
vt 0.175000 0.825000
vt 0.075000 0.825000
vt 0.075000 0.925000
vt 0.175000 0.925000
vt 0.075000 0.825000
vt 0.075000 0.925000
vt 0.175000 0.925000
vt 0.175000 0.825000
vt 0.075000 0.825000
vt 0.175000 0.925000
vt 0.075000 0.825000
vt 0.075000 0.925000
vt 0.175000 0.925000
vt 0.175000 0.825000
vt 0.075000 0.825000
vt 0.075000 0.925000
vt 0.175000 0.925000
vt 0.175000 0.825000
vt 0.075000 0.825000
vt 0.075000 0.925000
vt 0.175000 0.925000
vt 0.175000 0.825000
vt 0.075000 0.825000
vt 0.175000 0.925000
vt 0.175000 0.825000
vt 0.075000 0.825000
vt 0.075000 0.925000
vt 0.175000 0.925000
vt 0.075000 0.825000
vt 0.075000 0.925000
vt 0.175000 0.925000
vt 0.175000 0.825000
vt 0.075000 0.925000
vt 0.175000 0.825000
vt 0.075000 0.825000
vt 0.075000 0.925000
vt 0.175000 0.925000
vt 0.075000 0.825000
vt 0.075000 0.925000
vt 0.175000 0.925000
vt 0.835938 0.039258
vt 0.835938 0.039258
vt 0.835938 0.039258
vt 0.835938 0.039258
vt 0.835938 0.039258
vt 0.835938 0.039258
vt 0.075000 0.825000
vt 0.075000 0.925000
vt 0.075000 0.825000
vt 0.175000 0.825000
vt 0.075000 0.925000
vt 0.075000 0.825000
vt 0.175000 0.925000
vt 0.175000 0.825000
vt 0.812500 0.062500
vt 0.812500 0.062500
vt 0.812500 0.062500
vt 0.812500 0.062500
vt 0.175000 0.925000
vt 0.075000 0.825000
vt 0.812500 0.062500
vt 0.812500 0.062500
vt 0.812500 0.062500
vt 0.175000 0.825000
vt 0.812500 0.062500
vt 0.812500 0.062500
vt 0.812500 0.062500
vt 0.812500 0.062500
vn 0.0000 -0.0000 1.0000
vn -0.0000 -0.1961 0.9806
vn 0.6934 -0.1961 0.6934
vn 0.9806 -0.1961 0.0000
vn -1.0000 0.0000 0.0000
vn 0.0000 -0.0000 -1.0000
vn 0.6038 -0.7971 0.0000
vn 0.0000 -0.7971 0.6038
vn -0.6038 -0.7971 0.0000
vn -0.0000 -0.7971 -0.6038
vn 0.0000 -1.0000 -0.0000
vn -0.9806 -0.1961 -0.0000
vn -0.6934 -0.1961 0.6934
vn 1.0000 -0.0000 -0.0000
vn 0.0000 -0.1961 -0.9806
vn -0.6934 -0.1961 -0.6934
vn 0.6934 -0.1961 -0.6934
vn 0.0015 -0.0147 0.9999
vn -0.0025 -0.0098 0.9999
vn 0.0009 -0.0010 1.0000
vn 1.0000 -0.0009 0.0008
vn 1.0000 -0.0021 -0.0010
vn 1.0000 -0.0021 0.0043
vn 1.0000 -0.0007 0.0006
vn -1.0000 0.0025 0.0015
vn -1.0000 0.0009 0.0020
vn -1.0000 -0.0010 0.0009
vn -0.9462 0.2633 0.1882
vn -0.8890 0.2702 0.3697
vn -0.9281 0.2671 0.2595
vn -0.8012 0.2675 0.5353
vn -0.5348 0.2710 0.8003
vn -0.3670 0.2771 0.8880
vn -0.2598 0.2760 0.9254
vn -0.1877 0.2733 0.9434
vn 1.0000 0.0025 -0.0015
vn 1.0000 0.0017 -0.0069
vn 1.0000 0.0009 -0.0020
vn -0.3828 0.0020 0.9238
vn -0.1951 0.0018 0.9808
vn -0.3826 0.0020 0.9239
vn -0.7071 0.0021 0.7071
vn -0.9238 0.0020 0.3828
vn -0.9239 0.0020 0.3826
vn -0.9808 0.0018 0.1951
vn -0.0405 -0.0009 -0.9992
vn -0.0217 -0.0113 -0.9997
vn 0.0047 -0.0193 -0.9998
vn 0.9999 -0.0010 -0.0109
vn 0.9996 -0.0000 0.0288
vn 0.0001 1.0000 -0.0000
vn 0.0000 1.0000 -0.0001
vn -0.1392 0.9859 0.0930
vn -0.1836 0.9660 0.1819
vn -0.0944 0.9855 0.1413
vn -0.0000 1.0000 0.0000
vn 0.5061 0.0743 0.8592
vn 0.9808 0.0000 -0.1951
vn -0.0076 -0.0239 -0.9997
vn 0.1951 0.0000 -0.9808
vn -0.3173 0.8929 0.3195
vn -0.3824 0.8880 0.2555
vn -0.0603 0.0000 -0.9982
vn -0.2526 0.8906 0.3781
vn -0.6809 0.2741 0.6792
vn -0.6796 0.2742 0.6804
vn -0.8923 0.0739 -0.4454
vn 0.0027 -0.0237 -0.9997
vn 1.0000 0.0056 -0.0027
vn 0.9462 0.2633 0.1882
vn 0.9281 0.2671 0.2595
vn 0.8890 0.2702 0.3697
vn 0.8012 0.2675 0.5353
vn 0.5348 0.2710 0.8003
vn 0.2598 0.2760 0.9254
vn 0.3670 0.2771 0.8880
vn 0.1877 0.2733 0.9434
vn -1.0000 0.0053 -0.0044
vn -1.0000 0.0028 -0.0006
vn -1.0000 0.0017 -0.0069
vn 0.3828 0.0020 0.9238
vn 0.3826 0.0020 0.9239
vn 0.1951 0.0018 0.9808
vn 0.7071 0.0021 0.7071
vn 0.9238 0.0020 0.3828
vn 0.9239 0.0020 0.3826
vn 0.9808 0.0018 0.1951
vn 0.0405 -0.0009 -0.9992
vn 0.0025 -0.0098 -0.9999
vn 0.0217 -0.0113 -0.9997
vn -0.9999 -0.0010 -0.0109
vn -0.9996 0.0000 0.0288
vn -0.0001 1.0000 -0.0000
vn 0.1392 0.9859 0.0930
vn 0.0944 0.9855 0.1413
vn 0.1836 0.9660 0.1819
vn -0.5061 0.0743 0.8592
vn -0.9808 0.0000 -0.1951
vn -0.0015 -0.0147 -0.9999
vn -0.1951 0.0000 -0.9808
vn 0.3173 0.8929 0.3195
vn 0.3824 0.8880 0.2555
vn 0.0603 0.0000 -0.9982
vn 0.2526 0.8906 0.3781
vn 0.6796 0.2742 0.6804
vn 0.6809 0.2741 0.6792
vn 0.8923 0.0739 -0.4454
vn -0.0027 -0.0237 -0.9997
vn -1.0000 0.0056 -0.0027
vn -0.9462 0.2633 -0.1882
vn -0.9281 0.2671 -0.2595
vn -0.8890 0.2702 -0.3697
vn -0.8012 0.2675 -0.5353
vn -0.5348 0.2710 -0.8003
vn -0.2598 0.2760 -0.9254
vn -0.3670 0.2771 -0.8880
vn -0.1877 0.2733 -0.9434
vn 1.0000 0.0053 0.0044
vn 1.0000 0.0028 0.0006
vn 1.0000 0.0017 0.0069
vn -0.3828 0.0020 -0.9238
vn -0.3826 0.0020 -0.9239
vn -0.1951 0.0018 -0.9808
vn -0.7071 0.0021 -0.7071
vn -0.9238 0.0020 -0.3828
vn -0.9239 0.0020 -0.3826
vn -0.9808 0.0018 -0.1951
vn -0.0405 -0.0009 0.9992
vn -0.0217 -0.0113 0.9997
vn 0.9999 -0.0010 0.0109
vn 0.9996 0.0000 -0.0288
vn 0.0000 1.0000 0.0001
vn -0.1392 0.9859 -0.0930
vn -0.0944 0.9855 -0.1413
vn -0.1836 0.9660 -0.1819
vn 0.5061 0.0743 -0.8592
vn 0.9808 0.0000 0.1951
vn 0.1951 0.0000 0.9808
vn -0.3173 0.8929 -0.3195
vn -0.3824 0.8880 -0.2555
vn -0.0603 -0.0000 0.9982
vn -0.2526 0.8906 -0.3781
vn -0.6796 0.2742 -0.6804
vn -0.6809 0.2741 -0.6792
vn -0.8923 0.0739 0.4454
vn 0.0027 -0.0237 0.9997
vn 1.0000 0.0056 0.0027
vn 0.9462 0.2633 -0.1882
vn 0.8890 0.2702 -0.3697
vn 0.9281 0.2671 -0.2595
vn 0.8012 0.2675 -0.5353
vn 0.5348 0.2710 -0.8003
vn 0.3670 0.2771 -0.8880
vn 0.2598 0.2760 -0.9254
vn 0.1877 0.2733 -0.9434
vn -1.0000 0.0017 0.0069
vn 0.3828 0.0020 -0.9238
vn 0.1951 0.0018 -0.9808
vn 0.3826 0.0020 -0.9239
vn 0.7071 0.0021 -0.7071
vn 0.9238 0.0020 -0.3828
vn 0.9239 0.0020 -0.3826
vn 0.9808 0.0018 -0.1951
vn 0.0405 -0.0009 0.9992
vn 0.0217 -0.0113 0.9997
vn -0.0047 -0.0193 0.9998
vn -0.9999 -0.0010 0.0109
vn -0.9996 0.0000 -0.0288
vn 0.1392 0.9859 -0.0930
vn 0.1836 0.9660 -0.1819
vn 0.0944 0.9855 -0.1413
vn -0.5061 0.0743 -0.8592
vn -0.9808 -0.0000 0.1951
vn 0.0077 -0.0239 0.9997
vn -0.1951 0.0000 0.9808
vn 0.3173 0.8929 -0.3195
vn 0.3824 0.8880 -0.2555
vn 0.0603 -0.0000 0.9982
vn 0.2526 0.8906 -0.3781
vn 0.6809 0.2741 -0.6792
vn 0.6796 0.2742 -0.6804
vn 0.8923 0.0739 0.4454
vn -0.0027 -0.0237 0.9997
vn -1.0000 0.0056 0.0027
vn -0.0008 -0.0009 1.0000
vn -0.0097 0.0024 0.9999
vn 0.0111 0.0056 0.9999
vn -0.0006 -0.0007 1.0000
vn -0.0009 -0.0010 -1.0000
vn -1.0000 -0.0009 -0.0008
vn -1.0000 -0.0021 0.0010
vn -1.0000 -0.0021 -0.0044
vn -1.0000 -0.0007 -0.0006
vn 1.0000 -0.0010 -0.0009
vn 0.0008 -0.0009 -1.0000
vn 0.0097 0.0024 -1.0000
vn -0.0111 0.0056 -0.9999
vn 0.0006 -0.0007 -1.0000
usemtl Material.003
s off
f 219/544/208 221/545/208 220/546/208
f 222/547/209 224/548/209 223/549/209
f 223/549/209 225/550/209 222/547/209
f 224/551/210 227/552/210 226/553/210
f 226/553/210 223/549/210 224/551/210
f 227/554/211 221/545/211 219/544/211
f 219/544/211 226/553/211 227/554/211
f 228/555/212 230/556/212 229/557/212
f 229/557/212 231/558/212 228/555/212
f 232/559/213 228/560/213 231/561/213
f 231/561/213 233/562/213 232/559/213
f 234/563/214 232/564/214 235/565/214
f 235/565/215 230/566/215 234/563/215
f 234/563/216 230/566/216 228/567/216
f 228/567/217 232/564/217 234/563/217
f 220/568/218 236/569/218 226/570/218 219/571/218
f 225/550/218 223/549/218 238/572/218 237/573/218
f 239/574/218 238/575/218 223/576/218
f 240/577/212 242/578/212 241/579/212
f 243/580/219 245/581/219 244/582/219
f 244/582/219 246/583/219 243/580/219
f 245/584/220 248/585/220 247/586/220
f 247/586/220 244/582/220 245/584/220
f 248/587/209 242/578/209 240/577/209
f 240/577/209 247/586/209 248/587/209
f 249/588/213 251/589/213 250/590/213
f 250/590/213 252/591/213 249/588/213
f 253/592/221 249/593/221 252/594/221
f 252/594/221 254/595/221 253/592/221
f 255/596/215 253/597/215 256/598/215
f 256/598/216 251/599/216 255/596/216
f 255/596/217 251/599/217 249/600/217
f 249/600/214 253/597/214 255/596/214
f 241/601/218 257/602/218 247/603/218 240/604/218
f 246/583/218 244/582/218 259/605/218 258/606/218
f 260/607/218 259/608/218 244/609/218
f 261/610/213 263/611/213 262/612/213
f 264/613/222 266/614/222 265/615/222
f 265/615/222 267/616/222 264/613/222
f 266/617/223 269/618/223 268/619/223
f 268/619/223 265/615/223 266/617/223
f 269/620/219 263/611/219 261/610/219
f 261/610/219 268/619/219 269/620/219
f 270/621/221 272/622/221 271/623/221
f 271/623/221 273/624/221 270/621/221
f 274/625/208 270/626/208 273/627/208
f 273/627/208 275/628/208 274/625/208
f 276/629/216 274/630/216 277/631/216
f 277/631/217 272/632/217 276/629/217
f 276/629/214 272/632/214 270/633/214
f 270/633/215 274/630/215 276/629/215
f 262/634/218 278/635/218 268/636/218 261/637/218
f 267/616/218 265/615/218 280/638/218 279/639/218
f 281/640/218 280/641/218 265/642/218
f 282/643/221 284/644/221 283/645/221
f 285/646/211 287/647/211 286/648/211
f 286/648/211 288/649/211 285/646/211
f 287/650/224 290/651/224 289/652/224
f 289/652/224 286/648/224 287/650/224
f 290/653/222 284/644/222 282/643/222
f 282/643/222 289/652/222 290/653/222
f 291/654/208 293/655/208 292/656/208
f 292/656/208 294/657/208 291/654/208
f 295/658/212 291/659/212 294/660/212
f 294/660/212 296/661/212 295/658/212
f 297/662/217 295/663/217 298/664/217
f 298/664/214 293/665/214 297/662/214
f 297/662/215 293/665/215 291/666/215
f 291/666/216 295/663/216 297/662/216
f 283/667/218 299/668/218 289/669/218 282/670/218
f 288/649/218 286/648/218 301/671/218 300/672/218
f 302/673/218 301/674/218 286/675/218
f 272/676/213 277/677/213 271/678/213
f 253/679/208 254/595/208 256/680/208
f 274/681/212 275/628/212 277/677/212
f 295/682/213 296/661/213 298/683/213
f 232/684/221 233/562/221 235/685/221
f 293/686/221 298/683/221 292/687/221
f 230/688/208 235/685/208 229/689/208
f 251/690/212 256/680/212 250/691/212
s 1
f 303/692/225 304/693/226 220/546/227 221/545/227
f 237/573/228 305/694/229 303/695/230 222/547/231
f 225/550/221 237/573/228 222/547/231
f 306/696/232 307/697/233 241/579/234 242/578/234
f 308/698/235 311/699/236 310/700/237 309/701/235
f 311/702/236 312/703/238 310/704/237
f 312/705/239 314/706/240 313/707/241
f 314/708/240 316/709/242 315/710/242 313/711/241
f 317/712/243 318/713/244 316/714/245
f 299/715/246 283/716/247 316/717/247 314/718/248
f 302/719/249 299/720/246 314/721/248 312/722/249
f 301/723/250 302/724/249 312/725/249 311/726/251
f 300/727/252 301/671/250 311/728/251 308/729/252
f 309/730/253 320/731/253 319/732/254 308/729/255
f 316/733/245 318/734/244 321/735/256 315/736/256
f 312/703/257 323/737/257 322/738/257 310/704/257
f 310/739/258 324/740/258 320/741/258 309/701/258
f 315/742/259 321/743/259 325/744/259 313/711/259
f 326/745/260 329/746/261 328/747/262 318/748/263 327/749/263 319/750/263
f 310/739/264 322/751/264 326/752/264 324/740/264
f 324/753/265 326/752/265 319/732/265 320/754/265
f 308/698/255 319/755/254 317/756/266
f 321/757/267 318/734/267 328/758/267 325/759/267
f 330/760/268 329/761/261 326/762/260 322/763/269
f 313/707/270 331/764/270 323/765/270 312/705/270
f 331/766/271 328/767/262 329/761/261 330/760/268
f 331/766/239 330/760/272 323/768/273
f 323/768/273 330/760/272 322/763/238
f 325/744/274 328/758/274 331/769/274 313/711/274
f 319/770/254 327/771/275 317/772/266
f 318/773/244 317/772/243 327/771/276
f 332/774/277 335/775/277 334/776/278 333/777/279
f 333/778/279 334/779/278 336/780/280
f 336/781/281 338/782/282 337/783/283
f 337/784/283 338/785/282 340/786/284 339/787/284
f 341/788/285 339/789/286 342/790/287
f 280/791/288 337/792/289 339/793/290 279/639/290
f 281/794/291 336/795/291 337/796/289 280/638/288
f 278/797/292 333/798/293 336/799/291 281/800/291
f 262/612/294 332/801/294 333/802/293 278/803/292
f 335/804/295 332/801/296 344/805/297 343/806/295
f 339/807/286 340/808/298 345/809/298 342/810/287
f 336/780/299 334/779/299 347/811/299 346/812/299
f 334/813/300 335/775/300 343/814/300 348/815/300
f 340/816/259 338/785/259 349/817/259 345/818/259
f 350/819/301 344/820/263 353/821/263 342/822/263 352/823/302 351/824/303
f 334/813/304 348/815/304 350/825/304 347/826/304
f 348/827/305 343/828/305 344/805/305 350/825/305
f 332/774/296 341/829/306 344/830/297
f 345/831/307 349/832/307 352/833/307 342/810/307
f 354/834/308 347/835/309 350/836/301 351/837/303
f 338/782/310 336/781/310 346/838/310 355/839/310
f 355/840/311 354/834/308 351/837/303 352/841/302
f 355/840/281 346/842/312 354/834/313
f 346/842/312 347/835/280 354/834/313
f 349/817/314 338/785/314 355/843/314 352/833/314
f 344/844/297 341/845/306 353/846/315
f 342/847/287 353/846/316 341/845/285
f 304/848/317 358/849/317 357/850/318 356/851/319
f 356/852/319 357/853/318 359/854/320
f 359/855/321 361/856/322 360/857/323
f 360/858/323 361/859/322 362/860/324 305/861/324
f 303/695/325 305/694/326 363/862/327
f 238/863/328 360/864/329 305/865/330 237/573/330
f 239/866/331 359/867/331 360/868/329 238/572/328
f 236/869/332 356/870/333 359/871/331 239/872/331
f 220/546/334 304/693/334 356/873/333 236/874/332
f 358/875/335 304/693/226 365/876/336 364/877/335
f 305/878/326 362/879/337 366/880/337 363/881/327
f 359/854/338 357/853/338 368/882/338 367/883/338
f 357/884/258 358/849/258 364/885/258 369/886/258
f 362/887/339 361/859/339 370/888/339 366/889/339
f 371/890/340 365/891/263 374/892/263 363/893/263 373/894/341 372/895/342
f 357/884/343 369/886/343 371/896/343 368/897/343
f 369/898/344 364/899/344 365/876/344 371/896/344
f 304/848/226 303/692/225 365/900/336
f 366/901/345 370/902/345 373/903/345 363/881/345
f 375/904/346 368/905/347 371/906/340 372/907/342
f 361/856/348 359/855/348 367/908/348 376/909/348
f 376/910/349 375/904/346 372/907/342 373/911/341
f 376/910/321 367/912/350 375/904/351
f 367/912/350 368/905/320 375/904/351
f 370/888/352 361/859/352 376/913/352 373/903/352
f 365/914/336 303/915/225 374/916/353
f 363/917/327 374/916/354 303/915/325
f 377/918/355 380/919/356 379/920/357 378/921/355
f 380/922/356 381/923/358 379/924/357
f 381/925/359 383/926/360 382/927/361
f 383/928/360 307/929/362 384/930/362 382/931/361
f 306/932/232 385/933/363 307/697/233
f 257/934/364 241/935/365 307/936/365 383/937/366
f 260/938/367 257/939/364 383/940/366 381/941/367
f 259/942/368 260/943/367 381/944/367 380/945/369
f 258/946/370 259/605/368 380/947/369 377/948/370
f 378/949/371 387/950/371 386/951/372 377/948/373
f 307/952/233 385/953/363 388/954/374 384/955/374
f 381/923/375 390/956/375 389/957/375 379/924/375
f 379/958/300 391/959/300 387/960/300 378/921/300
f 384/961/339 388/962/339 392/963/339 382/931/339
f 393/964/376 396/965/377 395/966/378 385/967/263 394/968/263 386/969/263
f 379/958/379 389/970/379 393/971/379 391/959/379
f 391/972/380 393/971/380 386/951/380 387/973/380
f 377/918/373 386/974/372 306/696/381
f 388/975/382 385/953/382 395/976/382 392/977/382
f 397/978/383 396/979/377 393/980/376 389/981/384
f 382/927/385 398/982/385 390/983/385 381/925/385
f 398/984/386 395/985/378 396/979/377 397/978/383
f 398/984/359 397/978/387 390/986/388
f 390/986/388 397/978/387 389/981/358
f 392/963/389 395/976/389 398/987/389 382/931/389
f 386/988/372 394/989/390 306/990/381
f 385/991/363 306/990/232 394/989/391
f 258/606/392 377/948/393 306/932/394 243/580/395
f 246/583/208 258/606/392 243/580/395
f 341/829/306 332/801/296 262/612/396 263/611/396
f 279/639/397 339/789/398 341/788/399 264/613/400
f 267/616/212 279/639/397 264/613/400
f 317/756/243 316/714/245 283/645/401 284/644/401
f 300/672/402 308/729/403 317/712/404 285/646/405
f 288/649/213 300/672/402 285/646/405
usemtl Material.001_NONE
s off
f 239/574/218 223/576/218 226/570/218
f 226/570/218 236/569/218 239/574/218
f 260/607/218 244/609/218 247/603/218
f 247/603/218 257/602/218 260/607/218
f 281/640/218 265/642/218 268/636/218
f 268/636/218 278/635/218 281/640/218
f 302/673/218 286/675/218 289/669/218
f 289/669/218 299/668/218 302/673/218
o Cube_Cube.001
v -1.075000 -0.450000 -0.450000
v -1.017500 0.225000 -0.355000
v -1.355000 0.225000 -0.017500
v -1.450000 -0.450000 -0.075000
v 0.075000 -0.450000 1.450000
v 0.017500 0.225000 1.355000
v 0.355000 0.225000 1.017500
v 0.450000 -0.450000 1.075000
v -1.075000 -0.450000 1.075000
v -1.450000 -0.450000 1.075000
v -1.075000 -0.450000 1.450000
v 0.017500 0.225000 1.017500
v -1.017500 0.225000 1.017500
v -0.500000 0.225000 1.017500
v -0.500000 0.225000 1.355000
v -1.017500 0.225000 1.355000
v 0.075000 -0.450000 1.075000
v -0.500000 -0.450000 1.075000
v -0.500000 -0.450000 1.450000
v 0.075000 -0.450000 -0.450000
v 0.017500 0.225000 -0.355000
v -0.500000 0.225000 -0.355000
v -0.500000 -0.450000 -0.450000
v 0.075000 -0.450000 -0.075000
v -0.500000 -0.450000 -0.075000
v -0.500000 -0.450000 0.500000
v 0.075000 -0.450000 0.500000
v -1.017500 0.225000 -0.017500
v -0.500000 0.225000 -0.017500
v -0.500000 0.225000 0.500000
v -1.017500 0.225000 0.500000
v 0.017500 0.225000 -0.017500
v 0.355000 0.225000 -0.017500
v 0.355000 0.225000 0.500000
v 0.017500 0.225000 0.500000
v -1.075000 -0.450000 -0.075000
v -1.450000 -0.450000 0.500000
v -1.075000 -0.450000 0.500000
v -1.355000 0.225000 0.500000
v 0.450000 -0.450000 0.500000
v -1.355000 0.225000 1.017500
v 0.450000 -0.450000 -0.075000
vt 0.825000 0.825000
vt 0.825000 0.925000
vt 0.925000 0.925000
vt 0.925000 0.825000
vt 0.825000 0.825000
vt 0.825000 0.925000
vt 0.925000 0.925000
vt 0.925000 0.825000
vt 0.825000 0.825000
vt 0.925000 0.925000
vt 0.925000 0.825000
vt 0.825000 0.825000
vt 0.925000 0.925000
vt 0.925000 0.825000
vt 0.825000 0.825000
vt 0.825000 0.925000
vt 0.925000 0.925000
vt 0.925000 0.825000
vt 0.825000 0.825000
vt 0.825000 0.925000
vt 0.925000 0.925000
vt 0.925000 0.825000
vt 0.825000 0.825000
vt 0.825000 0.925000
vt 0.925000 0.825000
vt 0.825000 0.825000
vt 0.825000 0.925000
vt 0.925000 0.925000
vt 0.925000 0.825000
vt 0.825000 0.825000
vt 0.825000 0.925000
vt 0.925000 0.925000
vt 0.925000 0.825000
vt 0.825000 0.825000
vt 0.825000 0.925000
vt 0.925000 0.925000
vt 0.925000 0.825000
vt 0.825000 0.825000
vt 0.825000 0.925000
vt 0.925000 0.925000
vt 0.925000 0.825000
vt 0.825000 0.825000
vt 0.825000 0.925000
vt 0.925000 0.925000
vt 0.925000 0.825000
vt 0.825000 0.825000
vt 0.825000 0.925000
vt 0.925000 0.925000
vt 0.925000 0.825000
vt 0.825000 0.825000
vt 0.825000 0.925000
vt 0.825000 0.825000
vt 0.825000 0.925000
vt 0.925000 0.925000
vt 0.925000 0.825000
vt 0.825000 0.825000
vt 0.825000 0.925000
vt 0.925000 0.925000
vt 0.925000 0.825000
vt 0.825000 0.825000
vt 0.825000 0.925000
vt 0.925000 0.925000
vt 0.925000 0.825000
vt 0.825000 0.825000
vt 0.925000 0.825000
vt 0.825000 0.825000
vt 0.925000 0.825000
vt 0.825000 0.825000
vt 0.825000 0.925000
vt 0.925000 0.925000
vt 0.925000 0.825000
vt 0.825000 0.825000
vt 0.825000 0.925000
vt 0.925000 0.925000
vt 0.925000 0.825000
vt 0.825000 0.825000
vt 0.925000 0.925000
vt 0.925000 0.825000
vt 0.825000 0.925000
vt 0.925000 0.925000
vt 0.925000 0.925000
vt 0.925000 0.825000
vt 0.825000 0.825000
vt 0.825000 0.925000
vt 0.925000 0.825000
vt 0.825000 0.825000
vt 0.925000 0.825000
vt 0.925000 0.925000
vt 0.925000 0.825000
vt 0.825000 0.825000
vt 0.825000 0.925000
vt 0.925000 0.925000
vt 0.925000 0.925000
vt 0.825000 0.925000
vt 0.925000 0.925000
vt 0.925000 0.825000
vt 0.825000 0.825000
vt 0.825000 0.825000
vt 0.825000 0.925000
vt 0.925000 0.925000
vt 0.825000 0.925000
vt 0.925000 0.925000
vt 0.925000 0.825000
vt 0.825000 0.825000
vt 0.825000 0.925000
vt 0.925000 0.925000
vt 0.925000 0.825000
vt 0.825000 0.825000
vt 0.825000 0.925000
vt 0.925000 0.925000
vt 0.925000 0.825000
vt 0.925000 0.925000
vt 0.925000 0.825000
vt 0.825000 0.825000
vt 0.825000 0.925000
vt 0.925000 0.925000
vt 0.925000 0.825000
vt 0.825000 0.825000
vt 0.825000 0.925000
vt 0.925000 0.925000
vt 0.925000 0.825000
vt 0.825000 0.825000
vt 0.825000 0.925000
vt 0.925000 0.925000
vt 0.925000 0.825000
vt 0.825000 0.825000
vt 0.825000 0.925000
vt 0.925000 0.925000
vt 0.925000 0.825000
vt 0.825000 0.825000
vt 0.825000 0.925000
vt 0.825000 0.825000
vt 0.825000 0.925000
vt 0.925000 0.925000
vt 0.925000 0.825000
vt 0.825000 0.825000
vt 0.825000 0.925000
vt 0.925000 0.925000
vt 0.925000 0.825000
vn -0.6983 0.1578 -0.6983
vn 0.6983 0.1578 0.6983
vn 0.0000 -1.0000 0.0000
vn 0.0000 1.0000 0.0000
vn 0.0000 0.1394 0.9902
vn 0.0000 0.1394 -0.9902
vn -0.9902 0.1394 0.0000
vn 0.9902 0.1394 0.0000
vn -0.6983 0.1578 0.6983
vn 0.6983 0.1578 -0.6983
usemtl Material.003
s off
f 399/992/406 402/993/406 401/994/406 400/995/406
f 403/996/407 406/997/407 405/998/407 404/999/407
f 407/1000/408 409/1001/408 408/1002/408
f 410/1003/409 404/1004/409 405/1005/409
f 411/1006/409 414/1007/409 413/1008/409 412/1009/409
f 415/1010/408 403/1011/408 417/1012/408 416/1013/408
f 409/1014/410 417/1015/410 413/1008/410 414/1016/410
f 418/1017/411 421/1018/411 420/1019/411 419/1020/411
f 422/1021/408 425/1022/408 424/1023/408 423/1024/408
f 426/1025/409 429/1026/409 428/1027/409 427/1028/409
f 430/1029/409 433/1030/409 432/1031/409 431/1032/409
f 434/1033/408 436/1034/408 435/1035/408 402/1036/408
f 402/1037/412 435/1038/412 437/1039/412 401/1040/412
f 406/1041/413 438/1042/413 432/1031/413 405/1005/413
f 423/1043/408 424/1044/408 436/1045/408 434/1046/408
f 401/1047/409 437/1048/409 429/1049/409 426/1050/409
f 408/1051/414 409/1052/414 414/1053/414 439/1054/414
f 439/1055/409 414/1053/409 411/1056/409
f 416/1057/408 417/1015/408 409/1001/408 407/1058/408
f 421/1059/411 399/1060/411 400/1061/411 420/1062/411
f 427/1063/409 428/1064/409 433/1065/409 430/1066/409
f 440/1067/408 438/1042/408 425/1068/408 422/1069/408
f 440/1067/415 418/1070/415 419/1071/415 431/1032/415
f 406/1041/408 403/1072/408 415/1073/408
f 412/1074/409 413/1075/409 404/1004/409 410/1076/409
f 417/1077/410 403/1011/410 404/1004/410 413/1078/410
f 440/1067/408 422/1079/408 418/1080/408
f 420/1081/409 427/1082/409 430/1083/409 419/1020/409
f 401/1047/409 426/1084/409 400/995/409
f 421/1059/408 423/1085/408 434/1086/408 399/1087/408
f 399/992/408 434/1086/408 402/1036/408
f 419/1088/409 430/1083/409 431/1032/409
f 400/1089/409 426/1090/409 427/1091/409 420/1062/409
f 418/1017/408 422/1092/408 423/1093/408 421/1094/408
f 438/1095/413 440/1096/413 431/1097/413 432/1098/413
f 428/1099/409 412/1100/409 410/1101/409 433/1102/409
f 438/1095/408 406/997/408 415/1103/408 425/1104/408
f 424/1105/408 416/1106/408 407/1107/408 436/1108/408
f 437/1109/409 439/1110/409 411/1111/409 429/1112/409
f 425/1113/408 415/1114/408 416/1115/408 424/1116/408
f 429/1117/409 411/1118/409 412/1119/409 428/1120/409
f 433/1121/409 410/1122/409 405/998/409 432/1098/409
f 436/1123/408 407/1124/408 408/1125/408 435/1126/408
f 435/1127/412 408/1128/412 439/1129/412 437/1130/412
