# Blender v2.93.1 OBJ File: ''
# www.blender.org
mtllib mtmag ball collider large.mtl
o Cone
v 0.207106 -0.500000 -0.207106
v -0.500000 -0.148527 -0.207106
v -1.207106 -0.500000 -0.207106
v -1.207106 -0.148527 0.500000
v -1.207106 -0.500000 1.207106
v -0.500000 -0.148527 1.207106
v 0.207106 -0.500000 1.207106
v -0.853554 0.100000 0.146446
v -0.500000 0.100000 0.000000
v -0.500000 0.100000 0.500000
v 0.207106 -0.148527 0.500000
v -0.853554 0.100000 0.853554
v -0.146446 0.100000 0.146446
v -0.146446 0.100000 0.853554
v -0.500000 -0.500000 0.500000
v 0.000000 0.100000 0.500000
v -0.500000 0.100000 1.000000
v -1.000000 0.100000 0.500000
vn 0.0000 0.0000 -1.0000
vn -1.0000 0.0000 0.0000
vn 0.0000 -0.0000 1.0000
vn 0.0000 1.0000 0.0000
vn 1.0000 0.0000 0.0000
vn -0.3032 0.6100 0.7321
vn -0.3032 0.6100 -0.7321
vn 0.7321 0.6100 -0.3032
vn 0.3032 0.6100 0.7321
vn -0.7321 0.6100 -0.3032
vn 0.3032 0.6100 -0.7321
vn 0.7321 0.6100 0.3032
vn -0.7321 0.6100 0.3032
vn -0.0000 -1.0000 -0.0000
usemtl None
s 1
f 1//1 3//1 2//1
f 3//2 5//2 4//2
f 5//3 7//3 6//3
f 8//4 10//4 9//4
f 7//5 1//5 11//5
f 6//6 12//6 5//6
f 3//7 8//7 2//7
f 1//8 13//8 11//8
f 7//9 14//9 6//9
f 4//10 8//10 3//10
f 2//11 13//11 1//11
f 11//12 14//12 7//12
f 5//13 12//13 4//13
f 1//14 7//14 15//14
f 13//8 16//8 11//8
f 14//12 11//12 16//12
f 14//9 17//9 6//9
f 12//6 6//6 17//6
f 12//13 18//13 4//13
f 8//10 4//10 18//10
f 8//7 9//7 2//7
f 13//11 2//11 9//11
f 10//4 13//4 9//4
f 13//4 10//4 16//4
f 16//4 10//4 14//4
f 14//4 10//4 17//4
f 17//4 10//4 12//4
f 12//4 10//4 18//4
f 18//4 10//4 8//4
f 7//14 5//14 15//14
f 5//14 3//14 15//14
f 3//14 1//14 15//14
