# Blender v2.93.1 OBJ File: ''
# www.blender.org
mtllib mtmag ball large.mtl
o m_BF_Block_Faired_111_Instance.002
v 0.146268 -0.497472 -0.145367
v -0.213819 -0.247577 -0.190903
v -0.205015 -0.375000 -0.212157
v -1.144842 -0.497578 1.145066
v -0.786182 -0.247577 1.190903
v -0.794985 -0.375000 1.212157
v 0.145930 -0.497577 1.145404
v 0.190902 -0.247577 0.786181
v 0.212157 -0.375000 0.794985
v -1.212157 -0.375000 0.794985
v -1.190903 -0.247577 0.786181
v -0.205015 -0.375000 1.212157
v -0.213819 -0.247577 1.190903
v 0.191324 -0.250000 0.500000
v 0.226360 -0.343350 0.500000
v -0.500000 -0.250000 -0.191324
v -0.500000 -0.343350 -0.226360
v -0.794985 -0.375000 -0.212157
v -0.786181 -0.247577 -0.190903
v -1.144504 -0.497472 -0.145705
v -0.500945 -0.497578 0.251639
v -0.189593 -0.497579 0.190017
v -0.189096 -0.497458 -0.145108
v -0.500000 -0.500000 -0.145367
v -0.500000 -0.343350 1.226360
v -0.500000 -0.250000 1.191324
v 0.212157 -0.375000 0.205015
v 0.190902 -0.247577 0.213819
v -1.212157 -0.375000 0.205015
v -1.190903 -0.247577 0.213819
v -1.191324 -0.250000 0.500000
v -1.226360 -0.343350 0.500000
v -0.809261 -0.497470 0.809686
v -0.866493 -0.413612 0.866937
v -0.866576 -0.413706 1.128866
v -0.809367 -0.497591 1.144811
v 0.145716 -0.497470 0.809966
v 0.145930 -0.500000 0.500000
v -0.251493 -0.500000 0.499975
v -0.322751 -0.498738 0.676933
v -0.189480 -0.497470 0.809878
v -1.144604 -0.497580 0.189722
v -1.128080 -0.413708 0.132609
v -0.804091 -0.497458 -0.144417
v -0.808200 -0.497580 0.189810
v -1.145110 -0.500000 0.500000
v 0.129688 -0.413612 0.867179
v -0.132297 -0.413612 0.867111
v -0.500000 -0.500000 1.145404
v -0.500985 -0.497472 0.748099
v -1.143802 -0.497470 0.809598
v -0.251493 -0.377368 0.499962
v -0.322761 -0.376106 0.676924
v 0.145340 -0.497579 0.190105
v -0.322727 -0.498791 0.322912
v -0.747952 -0.500000 0.499975
v -0.747952 -0.377368 0.499962
v -0.677101 -0.376153 0.322060
v -0.676966 -0.498784 0.321943
v -0.189498 -0.497592 1.144400
v -0.500985 -0.374840 0.748086
v -0.677347 -0.376102 0.677533
v -0.677356 -0.498734 0.677542
v -0.500003 -0.427368 0.499981
v -0.500945 -0.374946 0.251626
v -0.322743 -0.376159 0.322876
v -0.327784 -0.012121 0.084252
v -0.309768 0.003399 0.040736
v -0.148496 0.003399 0.148495
v -0.181793 -0.012121 0.181800
v -0.181793 -0.012121 0.818196
v -0.148496 0.003399 0.851506
v -0.309768 0.003399 0.959264
v -0.327784 -0.012121 0.915744
v -0.915737 -0.012121 0.327791
v -0.959265 0.003399 0.309767
v -0.851506 0.003399 0.148495
v -0.818189 -0.012121 0.181800
v -0.084246 -0.012121 0.327791
v -0.040737 0.003399 0.309767
v 0.123627 -0.237121 0.241687
v -0.241680 -0.237121 -0.123621
v -0.499991 -0.012121 0.049998
v -0.084246 -0.012121 0.672206
v -0.040737 0.003399 0.690234
v -0.672199 -0.012121 0.915744
v -0.690234 0.003399 0.959264
v -0.851506 0.003399 0.851506
v -0.818189 -0.012121 0.818196
v -0.499991 0.437879 0.499998
v -0.672199 -0.012121 0.084252
v -0.499991 -0.012121 0.949998
v -0.915737 -0.012121 0.672206
v -0.049991 -0.012121 0.499998
v -0.949991 -0.012121 0.499998
v -0.959265 0.003399 0.690234
v -1.123610 -0.237121 0.758310
v -1.123610 -0.237121 0.241687
v -0.241680 -0.237121 1.123617
v -0.758302 -0.237121 1.123617
v -0.758302 -0.237121 -0.123621
v 0.123627 -0.237121 0.758310
v -1.027259 -0.245153 -0.027258
v 0.027257 -0.245153 -0.027258
v 0.027257 -0.245153 1.027258
v -1.027259 -0.245153 1.027258
v -0.690234 0.003399 0.040736
v 0.129385 -0.413708 0.132912
v 0.127576 -0.500055 0.131541
v -0.131023 -0.500055 0.131474
v -0.132394 -0.413708 0.132843
v -0.865151 -0.413708 0.132678
v -1.144842 -0.497578 1.145066
v -1.127966 -0.413612 0.866868
v 0.146268 -0.497472 -0.145367
v -0.861939 -0.413613 -0.128549
v -0.132006 -0.413613 -0.129086
v -0.132311 -0.413707 1.128569
v 0.127575 -0.500053 1.127061
v -0.130941 -0.500054 1.126761
v -0.130640 -0.499961 -0.127274
v -1.126158 -0.499960 0.868238
v -0.867862 -0.499960 0.868306
v 0.127876 -0.499960 0.868546
v -0.867943 -0.500053 1.127054
v -0.130927 -0.499960 0.868479
v 0.127876 -0.499961 -0.126973
v -1.125946 -0.499961 -0.127272
v -0.863340 -0.499961 -0.126743
v -1.126247 -0.500055 0.131243
v -1.126459 -0.500054 1.126753
v -0.997051 -0.500006 0.997646
v -0.001532 -0.500008 0.002134
v -0.001533 -0.500007 0.997654
v -0.994793 -0.500008 0.002250
v -0.866512 -0.500055 0.131311
vt 0.375000 0.812500
vt 0.375000 0.812500
vt 0.375000 0.812500
vt 0.375000 0.812500
vt 0.375000 0.812500
vt 0.375000 0.812500
vt 0.375000 0.812500
vt 0.375000 0.812500
vt 0.375000 0.812500
vt 0.375000 0.812500
vt 0.375000 0.812500
vt 0.375000 0.812500
vt 0.375000 0.812500
vt 0.375000 0.812500
vt 0.375000 0.812500
vt 0.375000 0.812500
vt 0.375000 0.812500
vt 0.375000 0.812500
vt 0.375000 0.812500
vt 0.375000 0.812500
vt 0.500000 0.625000
vt 0.500000 0.625000
vt 0.500000 0.625000
vt 0.500000 0.625000
vt 0.375000 0.812500
vt 0.375000 0.812500
vt 0.375000 0.812500
vt 0.375000 0.812500
vt 0.375000 0.812500
vt 0.375000 0.812500
vt 0.375000 0.812500
vt 0.375000 0.812500
vt 0.500000 0.625000
vt 0.500000 0.625000
vt 0.500000 0.625000
vt 0.500000 0.625000
vt 0.500000 0.625000
vt 0.500000 0.625000
vt 0.500000 0.625000
vt 0.500000 0.625000
vt 0.500000 0.625000
vt 0.375000 0.812500
vt 0.375000 0.812500
vt 0.500000 0.625000
vt 0.500000 0.625000
vt 0.375000 0.812500
vt 0.375000 0.812500
vt 0.375000 0.812500
vt 0.500000 0.625000
vt 0.500000 0.625000
vt 0.500000 0.625000
vt 0.500000 0.625000
vt 0.375000 0.812500
vt 0.500000 0.562500
vt 0.500000 0.562500
vt 0.500000 0.562500
vt 0.500000 0.562500
vt 0.375000 0.812500
vt 0.500000 0.625000
vt 0.500000 0.625000
vt 0.500000 0.562500
vt 0.500000 0.562500
vt 0.500000 0.562500
vt 0.500000 0.562500
vt 0.500000 0.625000
vt 0.375000 0.812500
vt 0.375000 0.812500
vt 0.500000 0.562500
vt 0.500000 0.562500
vt 0.500000 0.562500
vt 0.500000 0.562500
vt 0.562500 0.812500
vt 0.562500 0.812500
vt 0.562500 0.812500
vt 0.375000 0.812500
vt 0.375000 0.812500
vt 0.375000 0.812500
vt 0.375000 0.812500
vt 0.375000 0.812500
vt 0.500000 0.625000
vt 0.500000 0.625000
vt 0.500000 0.625000
vt 0.500000 0.625000
vt 0.500000 0.625000
vt 0.500000 0.625000
vt 0.500000 0.562500
vt 0.500000 0.562500
vt 0.500000 0.562500
vt 0.500000 0.562500
vt 0.562500 0.812500
vt 0.562500 0.812500
vt 0.562500 0.812500
vt 0.562500 0.812500
vt 0.562500 0.812500
vt 0.500000 0.562500
vt 0.500000 0.562500
vt 0.500000 0.562500
vt 0.500000 0.562500
vt 0.500000 0.562500
vt 0.500000 0.562500
vt 0.500000 0.562500
vt 0.500000 0.562500
vt 0.500000 0.562500
vt 0.500000 0.562500
vt 0.500000 0.562500
vt 0.500000 0.562500
vt 0.406250 0.718750
vt 0.406250 0.718750
vt 0.406250 0.718750
vt 0.406250 0.718750
vt 0.906250 0.906250
vt 0.906250 0.906250
vt 0.906250 0.906250
vt 0.500000 0.562500
vt 0.500000 0.562500
vt 0.500000 0.562500
vt 0.500000 0.562500
vt 0.500000 0.562500
vt 0.500000 0.562500
vt 0.812500 0.062500
vt 0.812500 0.062500
vt 0.812500 0.062500
vt 0.812500 0.062500
vt 0.812500 0.062500
vt 0.812500 0.062500
vt 0.906250 0.906250
vt 0.906250 0.906250
vt 0.906250 0.906250
vt 0.906250 0.906250
vt 0.906250 0.906250
vt 0.812500 0.062500
vt 0.812500 0.062500
vt 0.812500 0.062500
vt 0.812500 0.062500
vt 0.812500 0.062500
vt 0.812500 0.062500
vt 0.906250 0.906250
vt 0.906250 0.906250
vt 0.906250 0.906250
vt 0.906250 0.906250
vt 0.906250 0.906250
vt 0.906250 0.906250
vt 0.812500 0.062500
vt 0.406250 0.718750
vt 0.406250 0.718750
vt 0.406250 0.718750
vt 0.406250 0.718750
vt 0.500000 0.562500
vt 0.500000 0.562500
vt 0.406250 0.718750
vt 0.406250 0.718750
vt 0.406250 0.718750
vt 0.406250 0.718750
vt 0.406250 0.718750
vt 0.406250 0.718750
vt 0.406250 0.718750
vt 0.406250 0.718750
vt 0.906250 0.906250
vt 0.906250 0.906250
vt 0.906250 0.906250
vt 0.906250 0.906250
vt 0.906250 0.906250
vt 0.906250 0.906250
vt 0.906250 0.906250
vt 0.500000 0.562500
vt 0.500000 0.562500
vt 0.500000 0.562500
vt 0.500000 0.562500
vt 0.500000 0.562500
vt 0.500000 0.562500
vt 0.500000 0.562500
vt 0.500000 0.562500
vt 0.500000 0.562500
vt 0.500000 0.562500
vt 0.500000 0.562500
vt 0.500000 0.562500
vt 0.500000 0.562500
vt 0.500000 0.562500
vt 0.500000 0.562500
vt 0.500000 0.562500
vt 0.500000 0.562500
vt 0.500000 0.562500
vt 0.406250 0.718750
vt 0.406250 0.718750
vt 0.406250 0.718750
vt 0.406250 0.718750
vt 0.500000 0.562500
vt 0.500000 0.562500
vt 0.406250 0.718750
vt 0.406250 0.718750
vt 0.406250 0.718750
vt 0.406250 0.718750
vt 0.406250 0.718750
vt 0.406250 0.718750
vt 0.406250 0.718750
vt 0.406250 0.718750
vt 0.406250 0.718750
vt 0.406250 0.718750
vt 0.406250 0.718750
vt 0.406250 0.718750
vt 0.875000 0.843750
vt 0.875000 0.843750
vt 0.875000 0.843750
vt 0.875000 0.843750
vt 0.500000 0.625000
vt 0.500000 0.625000
vt 0.375000 0.812500
vt 0.375000 0.812500
vt 0.562500 0.812500
vt 0.375000 0.812500
vt 0.375000 0.812500
vt 0.500000 0.625000
vt 0.375000 0.812500
vt 0.500000 0.625000
vt 0.375000 0.812500
vt 0.500000 0.625000
vt 0.875000 0.843750
vt 0.875000 0.843750
vt 0.875000 0.843750
vt 0.875000 0.843750
vt 0.875000 0.843750
vt 0.875000 0.843750
vt 0.875000 0.843750
vt 0.875000 0.843750
vt 0.875000 0.843750
vt 0.875000 0.843750
vt 0.875000 0.843750
vt 0.875000 0.843750
vt 0.875000 0.843750
vt 0.875000 0.843750
vt 0.875000 0.843750
vt 0.875000 0.843750
vt 0.875000 0.843750
vt 0.875000 0.843750
vt 0.875000 0.843750
vt 0.875000 0.843750
vt 0.875000 0.843750
vt 0.875000 0.843750
vt 0.875000 0.843750
vt 0.875000 0.843750
vt 0.875000 0.843750
vt 0.875000 0.843750
vt 0.375000 0.812500
vt 0.375000 0.812500
vt 0.500000 0.625000
vt 0.500000 0.625000
vt 0.500000 0.625000
vt 0.875000 0.843750
vt 0.875000 0.843750
vt 0.875000 0.843750
vt 0.875000 0.843750
vt 0.875000 0.843750
vt 0.875000 0.843750
vn 0.1093 -0.2156 -0.9703
vn 0.0891 -0.1161 -0.9892
vn 0.1123 0.2232 -0.9683
vn -0.1100 -0.2169 0.9700
vn -0.0852 -0.1259 0.9884
vn -0.0895 0.1699 0.9814
vn 0.9709 -0.2132 0.1089
vn 0.9887 -0.1240 0.0841
vn 0.9815 0.1698 0.0885
vn -0.9889 -0.1186 0.0900
vn -0.9691 -0.2214 0.1088
vn -0.9128 0.3090 0.2673
vn 0.0845 -0.1268 0.9883
vn 0.1081 -0.2187 0.9698
vn 0.3216 0.2993 0.8983
vn 0.9994 -0.0348 -0.0001
vn 0.9528 0.3036 0.0000
vn -0.0002 -0.0939 -0.9956
vn 0.0000 0.2484 -0.9686
vn -0.0891 -0.1173 -0.9891
vn -0.1077 -0.2189 -0.9698
vn -0.2650 0.3079 -0.9138
vn -0.0000 -1.0000 -0.0012
vn -0.0000 -1.0000 0.0031
vn 0.4451 -0.8955 0.0024
vn 0.1459 -0.9782 -0.1478
vn 0.0001 -0.0366 0.9993
vn -0.0000 0.3036 0.9528
vn 0.9887 -0.1247 -0.0837
vn 0.9707 -0.2148 -0.1075
vn 0.8995 0.2982 -0.3192
vn -0.9890 -0.1170 -0.0903
vn -0.9955 -0.0949 0.0003
vn -0.9686 0.2484 0.0000
vn -0.9682 0.2233 -0.1133
vn -0.0064 0.3189 -0.9478
vn -0.9475 0.3197 0.0065
vn -0.9697 -0.2175 -0.1111
vn -0.1459 -0.9782 0.1479
vn -0.4444 -0.8958 -0.0024
vn -0.8261 -0.5635 -0.0005
vn 0.0000 -0.8949 0.4463
vn 0.1458 -0.9782 0.1480
vn -0.0011 -0.9999 0.0100
vn 0.0002 -1.0000 0.0002
vn 0.9812 -0.1931 0.0002
vn -0.1465 -0.9778 -0.1502
vn -0.4400 -0.8980 -0.0036
vn -0.8790 -0.4769 0.0004
vn -0.8819 -0.4714 0.0006
vn -0.9821 -0.1881 0.0006
vn -0.0002 -0.5636 0.8260
vn -0.0000 -1.0000 -0.0036
vn -0.0000 -1.0000 0.0010
vn -0.8770 -0.4805 -0.0016
vn -1.0000 -0.0000 -0.0002
vn -0.7073 -0.0001 -0.7069
vn -0.7048 -0.0001 -0.7094
vn -0.0010 -0.4749 -0.8800
vn -0.0010 -1.0000 -0.0096
vn 0.0002 -0.8950 -0.4460
vn 1.0000 0.0002 0.0004
vn 0.7084 0.0001 0.7058
vn 0.7065 0.0001 0.7077
vn 0.4444 -0.8958 -0.0022
vn -0.0004 -0.4695 -0.8829
vn 0.0020 -0.4776 -0.8786
vn 0.0003 -0.0001 -1.0000
vn 0.7091 -0.0001 -0.7051
vn 0.7066 -0.0001 -0.7076
vn 0.1972 -0.9804 0.0002
vn 0.1366 -0.9797 0.1470
vn 0.0000 -1.0000 0.0003
vn 0.8810 -0.4731 0.0016
vn 0.8818 -0.4717 -0.0010
vn 0.8847 -0.4661 -0.0002
vn 0.0003 -0.4696 0.8829
vn -0.0016 -0.4775 0.8786
vn 0.0008 -0.4757 0.8796
vn -0.0002 -1.0000 0.0002
vn 0.0011 -0.9999 0.0100
vn -0.0002 -0.8951 0.4458
vn -0.0000 -0.8953 -0.4455
vn 0.0010 -1.0000 -0.0096
vn -0.0001 -0.0000 1.0000
vn -0.7076 0.0001 0.7066
vn -0.7051 0.0001 0.7091
vn -0.0001 -0.9784 -0.2065
vn -0.1365 -0.9798 -0.1461
vn -0.0002 -0.9783 0.2071
vn -0.1366 -0.9797 0.1465
vn 0.1367 -0.9797 -0.1465
vn -0.1769 0.9479 0.2648
vn -0.2213 0.9498 0.2213
vn -0.2213 0.9498 -0.2213
vn -0.1769 0.9479 -0.2648
vn 0.2647 0.9480 0.1769
vn 0.2213 0.9498 0.2213
vn 0.3827 0.0000 0.9239
vn 0.1393 0.7002 -0.7002
vn 0.0000 0.7071 -0.7071
vn 0.2217 0.7061 -0.6725
vn -0.2648 0.9479 -0.1769
vn 0.1769 0.9480 -0.2647
vn 0.2212 0.9498 -0.2212
vn -0.5000 0.7071 -0.5000
vn -0.6725 0.7061 -0.2217
vn 0.0000 1.0000 0.0000
vn 0.2217 0.7061 0.6725
vn 0.5000 0.7071 0.5000
vn -0.2217 0.7061 -0.6725
vn 0.0000 0.7071 0.7071
vn -0.2217 0.7061 0.6725
vn 0.5000 0.7071 -0.5000
vn -0.5000 0.7071 0.5000
vn 0.6725 0.7061 -0.2217
vn -0.6725 0.7061 0.2217
vn 0.7071 0.7071 -0.0000
vn -0.7071 0.7071 -0.0000
vn 0.6725 0.7061 0.2217
vn -0.3827 -0.0000 -0.9239
vn 0.2647 0.9480 -0.1769
vn -0.3826 -0.0001 0.9239
vn -0.9239 -0.0002 0.3825
vn 0.1393 0.7002 0.7002
vn -0.1393 0.7002 0.7002
vn -0.7002 0.7002 0.1393
vn -0.7002 0.7002 -0.1393
vn -0.1393 0.7002 -0.7002
vn 0.7002 0.7002 -0.1393
vn 0.7002 0.7002 0.1393
vn -0.5511 0.6267 -0.5509
vn -0.6325 0.6488 -0.4230
vn -0.5940 0.7000 -0.3964
vn -0.5001 0.7070 -0.5001
vn 0.6320 0.6496 -0.4227
vn 0.5503 0.6279 -0.5504
vn 0.5001 0.7070 -0.5001
vn 0.5940 0.7000 -0.3964
vn 0.4227 0.6495 -0.6320
vn 0.3964 0.7000 -0.5940
vn 0.4228 0.6493 0.6322
vn 0.5505 0.6276 0.5506
vn 0.5001 0.7070 0.5001
vn 0.3964 0.7000 0.5940
vn 0.6321 0.6494 0.4228
vn 0.5940 0.7000 0.3964
vn -0.6326 0.6486 0.4231
vn -0.5512 0.6264 0.5512
vn -0.5001 0.7070 0.5001
vn -0.5940 0.7000 0.3964
vn -0.4230 0.6489 -0.6325
vn -0.3964 0.7000 -0.5940
vn -0.4231 0.6487 0.6326
vn -0.3964 0.7000 0.5940
vn -0.5898 0.5511 -0.5902
vn -0.5903 0.5505 0.5904
vn 0.5891 0.5535 -0.5888
vn 0.5893 0.5528 0.5892
vn 0.3828 0.0001 -0.9238
vn 0.1769 0.9479 0.2648
vn -0.2648 0.9479 0.1770
vn 0.9238 0.0002 -0.3828
vn -0.9239 -0.0001 -0.3826
vn 0.9238 0.0001 0.3828
vn -0.0003 -0.0159 0.9999
vn 0.0002 -0.5629 -0.8265
vn 0.9823 -0.1875 0.0030
vn -0.1977 -0.9803 0.0001
vn -0.9820 -0.1887 -0.0028
vn -0.0002 -0.5639 0.8258
vn -0.0008 -0.1872 -0.9823
vn -0.8240 -0.5665 -0.0103
vn 0.0008 -0.1882 0.9821
vn 0.8262 -0.5633 -0.0002
vn -0.0638 -0.2092 0.9758
vn -0.9999 -0.0159 -0.0015
vn 0.0003 -0.0159 -0.9999
vn 0.9758 -0.2097 -0.0618
vn 0.9999 -0.0158 0.0003
vn 0.0003 -0.0158 -0.9999
vn 0.9757 -0.2096 0.0639
vn -0.0619 -0.2101 -0.9757
vn 0.0639 -0.2099 -0.9756
vn -0.9753 -0.2119 0.0623
vn -0.9757 -0.2096 -0.0640
vn 0.0029 -0.1874 -0.9823
vn -0.0037 -0.1884 0.9821
vn 0.8265 -0.5630 0.0010
vn 0.0002 -0.5634 -0.8262
vn 0.0000 -1.0000 -0.0004
vn -0.0003 -0.0158 0.9999
vn -0.9999 -0.0159 -0.0001
vn 0.0616 -0.2093 0.9759
vn 0.9998 -0.0160 0.0123
vn -0.0007 0.2517 0.9678
vn 0.9680 0.2510 0.0007
usemtl Material.001
s 1
f 1/1/1 3/2/2 2/3/3
f 4/4/4 6/5/5 5/6/6
f 7/7/7 9/8/8 8/9/9
f 10/10/10 4/4/11 11/11/12
f 12/12/13 7/7/14 13/13/15
f 9/8/8 15/14/16 14/15/17
f 3/2/2 17/16/18 16/17/19 2/3/3
f 18/18/20 20/19/21 19/20/22
f 21/21/23 24/22/24 23/23/25 22/24/26
f 25/25/27 12/12/13 26/26/28
f 27/27/29 1/1/30 28/28/31
f 29/29/32 32/30/33 31/31/34 30/32/35
f 17/16/18 18/18/20 19/20/36 16/17/19
f 15/14/16 27/27/29 14/15/17
f 32/30/33 10/10/10 11/11/37 31/31/34
f 6/5/5 25/25/27 26/26/28
f 20/19/38 29/29/32 30/32/35
f 33/33/39 36/34/40 35/35/41 34/36/41
f 37/37/42 41/38/43 40/39/44 39/40/45 38/41/45
f 42/42/46 20/19/46 43/43/46
f 24/22/24 21/21/23 45/44/47 44/45/48
f 42/42/49 46/46/50 32/30/33 29/29/32
f 37/47/51 7/7/51 47/48/51
f 41/38/43 37/37/42 47/49/52 48/50/52
f 49/51/53 36/34/40 33/33/39 50/52/54
f 51/53/55 4/4/11 10/10/10
f 39/54/56 40/55/57 53/56/58 52/57/56
f 1/1/1 23/58/59 3/2/2
f 38/41/45 39/40/45 55/59/60 22/24/26 54/60/61
f 46/46/50 51/53/55 10/10/10 32/30/33
f 56/61/62 59/62/63 58/63/64 57/64/62
f 50/52/54 41/38/43 60/65/65 49/51/53
f 24/66/66 17/16/18 3/2/2 23/58/59
f 20/19/38 42/42/49 29/29/32
f 24/66/66 44/67/67 18/18/20 17/16/18
f 20/19/21 18/18/20 44/67/67
f 50/68/68 63/69/69 62/70/70 61/71/68
f 52/72/71 53/73/72 64/74/73
f 1/1/30 27/27/29 54/75/74
f 7/7/7 37/47/75 9/8/8
f 38/76/76 54/75/74 27/27/29 15/14/16
f 38/76/76 15/14/16 9/8/8 37/47/75
f 49/77/77 60/78/78 12/12/13 25/25/27
f 4/4/4 36/79/79 6/5/5
f 7/7/14 12/12/13 60/78/78
f 49/77/77 25/25/27 6/5/5 36/79/79
f 56/80/80 63/81/81 33/33/39 51/82/82 46/83/80
f 56/80/80 46/83/80 42/84/83 45/44/47 59/85/84
f 21/86/85 55/87/86 66/88/87 65/89/85
f 65/90/88 64/74/73 58/91/89
f 64/74/73 61/92/90 62/93/91
f 65/90/88 66/94/92 64/74/73
f 67/95/93 70/96/94 69/97/94 68/98/93
f 71/99/95 74/100/96 73/101/96 72/102/95
f 75/103/97 78/104/98 77/105/98 76/106/97
f 79/107/99 81/108/99 28/109/99 80/110/99
f 82/111/100 83/112/101 67/113/102
f 84/114/103 71/99/95 72/102/95 85/115/103
f 86/116/104 89/117/105 88/118/105 87/119/104
f 78/120/106 75/121/107 90/122/108
f 74/123/109 71/124/110 90/122/108
f 91/125/111 78/120/106 90/122/108
f 92/126/112 74/127/109 90/128/108
f 67/113/102 83/112/101 90/128/108
f 83/112/101 91/129/111 90/128/108
f 86/130/113 92/126/112 90/128/108
f 70/131/114 67/132/102 90/122/108
f 89/133/115 86/134/113 90/122/108
f 79/135/116 70/131/114 90/122/108
f 93/136/117 89/133/115 90/122/108
f 94/137/118 79/138/116 90/128/108
f 95/139/119 93/140/117 90/128/108
f 84/141/120 94/137/118 90/128/108
f 75/142/107 95/139/119 90/128/108
f 71/124/110 84/143/120 90/122/108
f 93/144/121 97/145/121 11/146/121 96/147/121
f 89/117/105 93/148/122 96/149/122 88/118/105
f 98/150/123 75/151/123 76/152/123 30/153/123
f 74/154/124 99/155/124 13/156/124 73/157/124
f 92/126/112 99/158/125 74/127/109
f 92/126/112 86/130/113 100/159/126
f 95/139/119 97/160/127 93/140/117
f 95/139/119 75/142/107 98/161/128
f 83/112/101 101/162/129 91/129/111
f 94/137/118 81/163/130 79/138/116
f 94/137/118 84/141/120 102/164/131
f 103/165/132 30/166/133 76/106/134 77/105/135
f 28/167/136 104/168/137 69/97/138 80/169/139
f 104/168/137 2/170/140 68/98/141 69/97/138
f 13/171/142 105/172/143 72/102/144 73/101/145
f 105/172/143 8/173/146 85/115/147 72/102/144
f 11/174/148 106/175/149 88/118/150 96/149/151
f 19/176/152 103/165/132 77/105/135 107/177/153
f 106/175/149 5/178/154 87/119/155 88/118/150
f 30/166/133 103/165/132 20/179/156
f 5/178/154 106/175/149 4/180/157
f 11/174/148 4/180/157 106/175/149
f 19/176/152 20/179/156 103/165/132
f 2/170/140 104/168/137 1/181/158
f 28/167/136 1/181/158 104/168/137
f 13/171/142 7/182/159 105/172/143
f 8/173/146 105/172/143 7/182/159
f 102/183/160 84/184/160 85/185/160 8/186/160
f 78/104/98 91/187/161 107/177/161 77/105/98
f 70/96/94 79/188/162 80/169/162 69/97/94
f 91/189/163 101/190/163 19/191/163 107/192/163
f 82/193/164 67/194/164 68/195/164 2/196/164
f 100/197/165 86/198/165 87/199/165 5/200/165
f 108/201/166 111/202/166 110/203/166 109/204/166
f 40/39/44 41/38/43 50/52/54
f 45/44/47 42/84/83 43/205/167 112/206/167
f 62/70/70 63/69/69 56/61/62 57/64/62
f 4/4/168 51/53/168 114/207/168 113/208/168
f 33/33/39 63/81/81 50/52/54
f 62/93/91 57/209/169 64/74/73
f 53/56/58 40/55/57 50/68/68 61/71/68
f 22/24/26 55/59/60 21/21/23
f 1/1/170 54/75/170 108/210/170 115/211/170
f 64/74/73 53/73/72 61/92/90
f 59/85/84 45/44/47 21/21/23
f 51/82/82 33/33/39 34/36/171 114/212/171
f 58/91/89 64/74/73 57/209/169
f 58/63/64 59/62/63 21/86/85 65/89/85
f 64/74/73 66/94/92 52/72/71
f 66/88/87 55/87/86 39/54/56 52/57/56
f 36/79/172 4/4/172 113/208/172 35/213/172
f 44/45/48 45/44/47 112/206/173 116/214/173
f 23/58/174 1/1/174 115/211/174 117/215/174
f 60/65/65 41/38/43 48/50/175 118/216/175
f 7/217/176 118/218/176 120/219/176 119/220/176
f 111/202/177 117/221/177 121/222/177 110/203/177
f 114/223/178 34/224/178 123/225/178 122/226/178
f 47/227/179 7/217/179 119/220/179 124/228/179
f 34/224/180 35/229/180 125/230/180 123/225/180
f 48/231/181 47/227/181 124/228/181 126/232/181
f 115/233/182 108/201/182 109/204/182 127/234/182
f 117/221/183 115/233/183 127/234/183 121/222/183
f 20/235/184 116/236/184 129/237/184 128/238/184
f 43/239/185 20/235/185 128/238/185 130/240/185
f 113/241/186 114/223/186 122/226/186 131/242/186
f 7/7/187 60/78/187 118/243/187
f 20/19/188 44/67/188 116/244/188
f 22/24/26 23/23/25 117/245/189 111/246/189
f 54/60/61 22/24/26 111/246/190 108/247/190
f 131/242/191 122/226/191 132/248/191 125/230/191
f 127/234/191 109/204/191 133/249/191 121/222/191
f 119/220/191 120/219/191 134/250/191 124/228/191
f 128/238/191 129/237/191 135/251/191 130/240/191
f 135/251/191 136/252/191 130/240/191
f 123/225/191 132/248/191 122/226/191
f 134/250/191 126/232/191 124/228/191
f 110/203/191 133/249/191 109/204/191
f 123/225/191 125/230/191 132/248/191
f 110/203/191 121/222/191 133/249/191
f 120/219/191 126/232/191 134/250/191
f 129/237/191 136/252/191 135/251/191
f 112/253/192 43/239/192 130/240/192 136/252/192
f 118/218/193 48/231/193 126/232/193 120/219/193
f 35/229/194 113/241/194 131/242/194 125/230/194
f 116/236/195 112/253/195 136/252/195 129/237/195
f 26/26/28 5/6/6 6/5/5
f 14/15/17 8/9/9 9/8/8
f 26/26/28 12/12/13 13/13/196
f 14/15/17 27/27/29 28/28/197
o Icosphere_Icosphere.001
v -0.879894 0.265210 0.776006
v -0.802960 0.192176 0.798470
v -0.877484 0.192176 0.695896
v -0.122516 0.807826 0.304104
v -0.145468 0.789110 0.242420
v -0.055860 0.699972 0.304104
v -0.389704 0.885012 0.839450
v -0.449190 0.930454 0.796230
v -0.348320 0.963500 0.694388
v -0.621248 0.569842 -0.006010
v -0.508242 0.639684 -0.006010
v -0.549062 0.699972 0.017062
v -0.056222 0.569842 0.228322
v -0.021304 0.639684 0.335796
v -0.920536 0.807824 0.436606
v -0.870786 0.865692 0.433578
v -0.920536 0.807824 0.563394
v -0.905180 0.249582 0.720782
v -0.450938 0.300028 0.017062
v -0.415230 0.249582 0.046426
v -0.313936 0.312186 0.046424
v -0.145468 0.789110 0.757580
v -0.176442 0.699972 0.861864
v -0.260652 0.822530 0.838100
v -0.584770 0.750418 0.953574
v -0.686064 0.687814 0.953576
v -0.690242 0.807826 0.880364
v -0.978696 0.360316 0.335796
v -0.873878 0.312186 0.182880
v -0.943778 0.430158 0.228322
v -0.016208 0.360316 0.648524
v 0.018712 0.430160 0.541052
v 0.007792 0.366686 0.500000
v -0.870786 0.865692 0.566422
v -0.823558 0.300028 0.138136
v -0.802960 0.192174 0.201530
v -0.709618 0.080762 0.736482
v -0.572554 0.030424 0.723294
v -0.723294 0.053406 0.662230
v -0.766032 0.930454 0.360138
v -0.852846 0.830720 0.295672
v -0.803360 0.830720 0.227564
v -0.508242 0.639684 1.006010
v -0.549062 0.699972 0.982938
v -0.392576 0.714846 0.966826
v -0.621248 0.569842 1.006010
v -0.464192 0.571616 1.018858
v 0.004530 0.571614 0.373720
v 0.018026 0.573530 0.456780
v -0.569660 0.807826 0.080458
v -0.584770 0.750418 0.046426
v -0.202566 0.930454 0.456780
v -0.268252 0.963498 0.584186
v -0.330494 0.995184 0.541050
v -0.803360 0.830720 0.772436
v -0.747590 0.822530 0.832112
v -0.804094 0.709526 0.873164
v -0.209246 0.360316 0.914216
v -0.313936 0.312186 0.953576
v -0.343086 0.366684 0.982938
v -0.892368 0.822530 0.632844
v -0.852846 0.830720 0.704328
v -0.910784 0.714844 0.746420
v -0.610296 0.114990 0.839450
v -0.665360 0.169280 0.872700
v -0.638006 0.223988 0.924732
v -0.530582 0.919240 0.185472
v -0.551406 0.865694 0.126838
v -0.414706 0.830720 0.101284
v -0.861300 0.714846 0.814530
v -0.739350 0.177470 0.838100
v -0.094442 0.830720 0.542094
v -0.094442 0.830720 0.457906
v -0.999306 0.500000 0.337768
v -1.018206 0.500000 0.415814
v -0.130246 0.500000 0.872702
v -0.089186 0.633316 0.798470
v -0.056222 0.569842 0.771678
v -0.804096 0.360316 0.904524
v -0.943776 0.430158 0.771678
v -0.924734 0.500000 0.808586
v -0.776010 0.428384 0.059188
v -0.788754 0.885010 0.709792
v -0.034642 0.709524 0.376848
v -0.022826 0.714844 0.457906
v -0.104484 0.822530 0.376848
v -0.255832 0.300028 0.080456
v -0.166054 0.428384 0.101282
v -0.687490 0.285154 0.059190
v -0.491758 0.360316 -0.006010
v -0.618974 0.426468 -0.006026
v -0.268252 0.963498 0.415814
v -0.330494 0.995184 0.458950
v -0.348320 0.963500 0.305612
v -0.147820 0.354892 0.861300
v -0.092270 0.352938 0.796234
v -0.138700 0.223988 0.762498
v -0.276706 0.946594 0.662230
v -0.414706 0.830720 0.898716
v -0.361994 0.776012 0.924732
v -0.513340 0.004816 0.673894
v -0.550810 0.069546 0.796230
v -0.414710 0.053406 0.762498
v -0.233966 0.069546 0.360140
v -0.211244 0.114990 0.290208
v -0.339868 0.080760 0.227566
v -1.003982 0.352938 0.500000
v -0.946590 0.223988 0.500000
v -0.550648 -0.021254 0.536796
v -0.412746 -0.013802 0.563394
v -0.104484 0.822530 0.623152
v -0.633018 0.069546 0.230480
v -0.709618 0.080760 0.263518
v -0.651680 0.036502 0.305612
v -0.196638 0.169280 0.772436
v -0.252410 0.177470 0.832112
v -0.873878 0.312186 0.817120
v -0.944140 0.300028 0.695896
v -0.025536 0.300028 0.397426
v -0.011126 0.312188 0.463204
v -0.740202 0.500000 0.966828
v -0.808588 0.500000 0.924734
v -0.833946 0.571616 0.898718
v -0.982400 0.571614 0.694390
v -0.944496 0.573530 0.769520
v -0.999306 0.500000 0.662232
v -0.191412 0.500000 0.924734
v -0.223990 0.571616 0.940812
v -0.211246 0.114990 0.709792
v -1.018026 0.426470 0.543220
v -0.412746 -0.013802 0.436606
v -0.263028 0.036502 0.431892
v -0.386996 0.004816 0.367156
v -0.031278 0.500000 0.736482
v -0.000694 0.500000 0.662232
v -0.017600 0.428384 0.694390
v -0.106312 0.426468 0.160548
v -0.055504 0.426468 0.230478
v -0.075266 0.500000 0.191414
v -0.533328 -0.013802 0.397428
v -0.591422 0.004816 0.351476
v -0.669506 0.004816 0.458950
v -0.263028 0.036502 0.568108
v -0.386996 0.004816 0.632844
v -0.197040 0.807826 0.201530
v -0.260652 0.822530 0.161900
v -0.176442 0.699972 0.138136
v -0.034642 0.709526 0.623152
v -0.053410 0.776012 0.500000
v 0.003982 0.647062 0.500000
v -0.656914 0.633316 0.982938
v -0.893688 0.573530 0.839452
v -0.392578 0.714846 0.033174
v -0.361994 0.776012 0.075268
v -0.223992 0.053408 0.500000
v -0.734788 0.354892 0.946590
v -0.655740 0.352938 0.979314
v -0.760930 0.134306 0.771676
v -0.789684 0.080762 0.626280
v -0.164948 0.120106 0.638004
v -0.021304 0.639684 0.664204
v -0.747590 0.822530 0.167888
v -0.677748 0.865694 0.167888
v -0.106312 0.426468 0.839452
v -0.731748 0.036502 0.584186
v -0.797434 0.069546 0.456782
v -0.910784 0.714846 0.253580
v -0.974464 0.699972 0.397428
v -0.983792 0.639682 0.351476
v -0.361996 0.036502 0.704326
v -0.339868 0.080762 0.772436
v -0.977174 0.285154 0.542094
v -0.312510 0.714846 0.059190
v -0.551406 0.865694 0.873162
v -0.569660 0.807826 0.919542
v -0.744170 0.699972 0.919544
v -0.448594 0.134306 0.873162
v -0.322252 0.134306 0.832112
v -0.430340 0.192174 0.919542
v -0.861300 0.714846 0.185470
v -0.861300 0.776012 0.237502
v -0.138700 0.223988 0.237502
v -0.196638 0.169280 0.227564
v -0.239068 0.709526 0.095476
v -0.466672 1.013802 0.397428
v -0.408578 0.995184 0.351476
v -0.392148 1.013802 0.500000
v -0.464192 0.571616 -0.018858
v -0.535808 0.428384 -0.018858
v -0.378752 0.430158 -0.006010
v -0.366982 0.930454 0.230482
v -0.290382 0.919240 0.263518
v -0.905180 0.249582 0.279218
v -0.877484 0.192174 0.304104
v -0.089216 0.285154 0.253578
v -0.051130 0.290476 0.326104
v -0.017600 0.428384 0.305610
v -0.948870 0.709524 0.673896
v -0.448594 0.134306 0.126838
v -0.638006 0.223988 0.075268
v -0.337766 0.500000 0.000696
v -0.736972 0.963498 0.431892
v -0.661262 0.995184 0.433578
v -0.661262 0.995184 0.566422
v -0.789684 0.080760 0.373720
v -0.723294 0.053406 0.337770
v -0.535808 0.428384 1.018858
v -0.500000 0.500000 1.025000
v -0.419932 0.500000 1.018858
v -0.298816 0.573530 0.979316
v -0.957572 0.750416 0.440460
v -0.042428 0.249584 0.559540
v -0.978696 0.360316 0.664204
v -0.974464 0.699970 0.602574
v -0.466672 1.013802 0.602572
v -0.519346 1.021254 0.559538
v -0.804094 0.709526 0.126836
v -0.893688 0.573532 0.160548
v -0.381026 0.573532 -0.006026
v -0.361998 0.036502 0.295674
v -0.513338 0.004816 0.326104
v -0.660132 0.919240 0.227566
v -0.508452 0.963500 0.253582
v -0.591424 0.004816 0.648524
v -0.276706 0.946594 0.337770
v -0.210316 0.919240 0.373720
v -0.808588 0.500000 0.075266
v -0.309758 0.192174 0.880364
v -0.309758 0.192174 0.119636
v -0.195908 0.290474 0.126836
v -0.660132 0.919240 0.772434
v -0.736972 0.963498 0.568108
v -0.607852 -0.013802 0.500000
v -0.138700 0.285154 0.185470
v -0.252410 0.177470 0.167888
v -0.322252 0.134306 0.167888
v -0.839014 0.134306 0.664204
v -0.833946 0.571616 0.101282
v -0.000694 0.500000 0.337768
v -1.004530 0.428384 0.626280
v -0.129214 0.134308 0.433578
v -0.905558 0.169280 0.542094
v -0.122516 0.807826 0.695896
v -0.055860 0.699972 0.695896
v -0.686064 0.687814 0.046424
v -1.018712 0.569842 0.458950
v -0.239068 0.709526 0.904522
v -0.744170 0.699972 0.080456
v -0.587254 1.013802 0.436606
v -0.739348 0.177470 0.161900
v -0.760932 0.290474 0.095478
v -0.808586 0.919238 0.431892
v -0.808586 0.919238 0.568108
v -0.988874 0.687812 0.536796
v -0.731748 0.036502 0.415814
v -0.079464 0.192176 0.436606
v -0.491548 0.036502 0.253580
v -0.701184 0.426468 0.020684
v -0.662234 0.500000 0.000696
v -1.007792 0.633314 0.500000
v -0.610296 0.114990 0.160550
v -0.760930 0.134306 0.228324
v -0.491758 0.360316 1.006010
v -0.924736 0.500000 0.191414
v -0.701184 0.426468 0.979316
v -0.530582 0.919240 0.814528
v -0.944496 0.573532 0.230480
v -0.982400 0.571616 0.305612
v -0.354896 0.265210 0.946590
v 0.018206 0.500000 0.584186
v -0.861300 0.776012 0.762498
v -0.665360 0.169280 0.127300
v -0.677748 0.865694 0.832112
v -0.312510 0.714846 0.940810
v -0.580068 0.500000 1.018858
v -0.519346 1.021254 0.440462
v -0.587254 1.013802 0.563394
v -0.585290 0.946594 0.762498
v -0.334640 0.830720 0.127300
v -0.437396 -0.021254 0.500000
v -0.126120 0.687814 0.182880
v -0.310054 0.879896 0.808584
v -0.469420 0.080760 0.814528
v -0.107632 0.177470 0.367156
v -0.690242 0.807826 0.119636
v -0.585290 0.946594 0.237502
v -0.089216 0.285154 0.746422
v -0.408578 0.995184 0.648524
v -0.025536 0.300028 0.602574
v -0.839014 0.134306 0.335796
v -0.191412 0.500000 0.075266
v -0.298816 0.573532 0.020684
v -0.129214 0.134308 0.566422
v -0.126122 0.687814 0.817120
v -0.450938 0.300028 0.982938
v -0.378752 0.430158 1.006010
v -0.233966 0.069546 0.639862
v -0.239070 0.865694 0.771676
v -0.415230 0.249582 0.953574
v -0.776008 0.946592 0.500000
v -0.607424 0.285154 0.966826
v -0.223990 0.571616 0.059188
v -0.414710 0.053406 0.237502
vt 0.680315 0.894095
vt 0.680315 0.894095
vt 0.680315 0.894095
vt 0.680315 0.894095
vt 0.680315 0.894095
vt 0.680315 0.894095
vt 0.680315 0.894095
vt 0.680315 0.894095
vt 0.680315 0.894095
vt 0.680315 0.894095
vt 0.680315 0.894095
vt 0.680315 0.894095
vt 0.680315 0.894095
vt 0.680315 0.894095
vt 0.680315 0.894095
vt 0.680315 0.894095
vt 0.680315 0.894095
vt 0.680315 0.894095
vt 0.680315 0.894095
vt 0.680315 0.894095
vt 0.680315 0.894095
vt 0.680315 0.894095
vt 0.680315 0.894095
vt 0.680315 0.894095
vt 0.680315 0.894095
vt 0.680315 0.894095
vt 0.680315 0.894095
vt 0.680315 0.894095
vt 0.680315 0.894095
vt 0.680315 0.894095
vt 0.680315 0.894095
vt 0.680315 0.894095
vt 0.680315 0.894095
vt 0.680315 0.894095
vt 0.680315 0.894095
vt 0.680315 0.894095
vt 0.680315 0.894095
vt 0.680315 0.894095
vt 0.680315 0.894095
vt 0.680315 0.894095
vt 0.680315 0.894095
vt 0.680315 0.894095
vt 0.680315 0.894095
vt 0.680315 0.894095
vt 0.680315 0.894095
vt 0.680315 0.894095
vt 0.680315 0.894095
vt 0.680315 0.894095
vt 0.680315 0.894095
vt 0.680315 0.894095
vt 0.680315 0.894095
vt 0.680315 0.894095
vt 0.680315 0.894095
vt 0.680315 0.894095
vt 0.680315 0.894095
vt 0.680315 0.894095
vt 0.680315 0.894095
vt 0.680315 0.894095
vt 0.680315 0.894095
vt 0.680315 0.894095
vt 0.680315 0.894095
vt 0.680315 0.894095
vt 0.680315 0.894095
vt 0.680315 0.894095
vt 0.680315 0.894095
vt 0.680315 0.894095
vt 0.680315 0.894095
vt 0.680315 0.894095
vt 0.680315 0.894095
vt 0.680315 0.894095
vt 0.680315 0.894095
vt 0.680315 0.894095
vt 0.680315 0.894095
vt 0.680315 0.894095
vt 0.680315 0.894095
vt 0.680315 0.894095
vt 0.680315 0.894095
vt 0.680315 0.894095
vt 0.680315 0.894095
vt 0.680315 0.894095
vt 0.680315 0.894095
vt 0.680315 0.894095
vt 0.680315 0.894095
vt 0.680315 0.894095
vt 0.680315 0.894095
vt 0.680315 0.894095
vt 0.680315 0.894095
vt 0.680315 0.894095
vt 0.680315 0.894095
vt 0.680315 0.894095
vt 0.680315 0.894095
vt 0.680315 0.894095
vt 0.680315 0.894095
vt 0.680315 0.894095
vt 0.680315 0.894095
vt 0.680315 0.894095
vt 0.680315 0.894095
vt 0.680315 0.894095
vt 0.680315 0.894095
vt 0.680315 0.894095
vt 0.680315 0.894095
vt 0.680315 0.894095
vt 0.680315 0.894095
vt 0.680315 0.894095
vt 0.680315 0.894095
vt 0.680315 0.894095
vt 0.680315 0.894095
vt 0.680315 0.894095
vt 0.680315 0.894095
vt 0.680315 0.894095
vt 0.680315 0.894095
vt 0.680315 0.894095
vt 0.680315 0.894095
vt 0.680315 0.894095
vt 0.680315 0.894095
vt 0.680315 0.894095
vt 0.680315 0.894095
vt 0.680315 0.894095
vt 0.680315 0.894095
vt 0.680315 0.894095
vt 0.680315 0.894095
vt 0.680315 0.894095
vt 0.680315 0.894095
vt 0.680315 0.894095
vt 0.680315 0.894095
vt 0.680315 0.894095
vt 0.680315 0.894095
vt 0.680315 0.894095
vt 0.680315 0.894095
vt 0.680315 0.894095
vt 0.680315 0.894095
vt 0.680315 0.894095
vt 0.680315 0.894095
vt 0.680315 0.894095
vt 0.680315 0.894095
vt 0.680315 0.894095
vt 0.680315 0.894095
vt 0.680315 0.894095
vt 0.680315 0.894095
vt 0.680315 0.894095
vt 0.680315 0.894095
vt 0.680315 0.894095
vt 0.680315 0.894095
vt 0.680315 0.894095
vt 0.680315 0.894095
vt 0.680315 0.894095
vt 0.680315 0.894095
vt 0.680315 0.894095
vt 0.680315 0.894095
vt 0.680315 0.894095
vt 0.680315 0.894095
vt 0.680315 0.894095
vt 0.680315 0.894095
vt 0.680315 0.894095
vt 0.680315 0.894095
vt 0.680315 0.894095
vt 0.680315 0.894095
vt 0.680315 0.894095
vt 0.680315 0.894095
vt 0.680315 0.894095
vt 0.680315 0.894095
vt 0.680315 0.894095
vt 0.680315 0.894095
vt 0.680315 0.894095
vt 0.680315 0.894095
vt 0.680315 0.894095
vt 0.680315 0.894095
vt 0.680315 0.894095
vt 0.680315 0.894095
vt 0.680315 0.894095
vt 0.680315 0.894095
vt 0.680315 0.894095
vt 0.680315 0.894095
vt 0.680315 0.894095
vt 0.680315 0.894095
vt 0.680315 0.894095
vt 0.680315 0.894095
vt 0.680315 0.894095
vt 0.680315 0.894095
vt 0.680315 0.894095
vt 0.680315 0.894095
vt 0.680315 0.894095
vt 0.680315 0.894095
vt 0.680315 0.894095
vt 0.680315 0.894095
vt 0.680315 0.894095
vt 0.680315 0.894095
vt 0.680315 0.894095
vt 0.680315 0.894095
vt 0.680315 0.894095
vt 0.680315 0.894095
vt 0.680315 0.894095
vt 0.680315 0.894095
vt 0.680315 0.894095
vt 0.680315 0.894095
vt 0.680315 0.894095
vt 0.680315 0.894095
vt 0.680315 0.894095
vt 0.680315 0.894095
vt 0.680315 0.894095
vt 0.680315 0.894095
vt 0.680315 0.894095
vt 0.680315 0.894095
vt 0.680315 0.894095
vt 0.680315 0.894095
vt 0.680315 0.894095
vt 0.680315 0.894095
vt 0.680315 0.894095
vt 0.680315 0.894095
vt 0.680315 0.894095
vt 0.680315 0.894095
vt 0.680315 0.894095
vt 0.680315 0.894095
vt 0.680315 0.894095
vt 0.680315 0.894095
vt 0.680315 0.894095
vt 0.680315 0.894095
vt 0.680315 0.894095
vt 0.680315 0.894095
vt 0.680315 0.894095
vt 0.680315 0.894095
vt 0.680315 0.894095
vt 0.680315 0.894095
vt 0.680315 0.894095
vt 0.680315 0.894095
vt 0.680315 0.894095
vt 0.680315 0.894095
vt 0.680315 0.894095
vt 0.680315 0.894095
vt 0.680315 0.894095
vt 0.680315 0.894095
vt 0.680315 0.894095
vt 0.680315 0.894095
vt 0.680315 0.894095
vt 0.680315 0.894095
vt 0.680315 0.894095
vt 0.680315 0.894095
vt 0.680315 0.894095
vt 0.680315 0.894095
vt 0.680315 0.894095
vt 0.680315 0.894095
vt 0.680315 0.894095
vt 0.680315 0.894095
vt 0.680315 0.894095
vt 0.680315 0.894095
vt 0.680315 0.894095
vt 0.680315 0.894095
vt 0.680315 0.894095
vt 0.680315 0.894095
vt 0.680315 0.894095
vt 0.680315 0.894095
vt 0.680315 0.894095
vt 0.680315 0.894095
vt 0.680315 0.894095
vt 0.680315 0.894095
vt 0.680315 0.894095
vt 0.680315 0.894095
vt 0.680315 0.894095
vt 0.680315 0.894095
vt 0.680315 0.894095
vt 0.680315 0.894095
vt 0.680315 0.894095
vt 0.680315 0.894095
vt 0.680315 0.894095
vt 0.680315 0.894095
vt 0.680315 0.894095
vt 0.680315 0.894095
vt 0.680315 0.894095
vt 0.680315 0.894095
vt 0.680315 0.894095
vt 0.680315 0.894095
vt 0.680315 0.894095
vt 0.680315 0.894095
vt 0.680315 0.894095
vt 0.680315 0.894095
vt 0.680315 0.894095
vt 0.680315 0.894095
vt 0.680315 0.894095
vt 0.680315 0.894095
vt 0.680315 0.894095
vt 0.680315 0.894095
vt 0.680315 0.894095
vt 0.680315 0.894095
vt 0.680315 0.894095
vt 0.680315 0.894095
vt 0.680315 0.894095
vt 0.680315 0.894095
vt 0.680315 0.894095
vt 0.680315 0.894095
vt 0.680315 0.894095
vt 0.680315 0.894095
vt 0.680315 0.894095
vt 0.680315 0.894095
vt 0.680315 0.894095
vt 0.680315 0.894095
vt 0.680315 0.894095
vt 0.680315 0.894095
vt 0.680315 0.894095
vt 0.680315 0.894095
vt 0.680315 0.894095
vt 0.680315 0.894095
vt 0.680315 0.894095
vt 0.680315 0.894095
vn -0.6801 -0.5519 0.4827
vn -0.6475 -0.6043 0.4642
vn -0.6361 -0.6180 0.4621
vn 0.7920 0.4895 -0.3650
vn 0.8164 0.3956 -0.4207
vn 0.7653 0.4526 -0.4576
vn 0.2520 0.8192 0.5151
vn 0.3360 0.8101 0.4804
vn 0.2517 0.8193 0.5151
vn -0.2022 0.2786 -0.9389
vn -0.2029 0.3035 -0.9310
vn -0.1589 0.2572 -0.9532
vn 0.8305 0.2786 -0.4824
vn 0.8574 0.2572 -0.4457
vn -0.7999 0.6001 0.0000
vn -0.8284 0.5529 0.0901
vn -0.7583 0.6519 0.0000
vn -0.6965 -0.5406 0.4719
vn 0.2029 -0.3035 -0.9310
vn 0.2255 -0.3138 -0.9223
vn 0.2260 -0.3656 -0.9029
vn 0.6047 0.5078 0.6136
vn 0.5691 0.5153 0.6407
vn 0.5896 0.5005 0.6339
vn -0.2812 0.5156 0.8094
vn -0.3417 0.5529 0.7600
vn -0.3354 0.4821 0.8094
vn -0.8270 -0.3091 -0.4696
vn 0.9557 -0.2572 0.1434
vn 0.9447 -0.3105 0.1052
vn -0.5918 -0.4895 -0.6404
vn -0.6172 -0.5529 -0.5598
vn -0.6661 -0.4821 -0.5691
vn -0.2733 -0.8580 0.4349
vn -0.2868 -0.8810 0.3763
vn -0.2696 -0.8529 0.4470
vn -0.4978 0.7546 -0.4275
vn -0.5320 0.7111 -0.4596
vn -0.5896 0.6848 -0.4284
vn 0.1029 0.3307 0.9381
vn 0.1644 0.2821 0.9452
vn 0.0575 0.3905 0.9188
vn -0.0823 0.1332 0.9877
vn -0.0806 0.1304 0.9882
vn 0.9319 0.2984 -0.2063
vn 0.9487 0.2734 -0.1589
vn 0.9492 0.2708 -0.1605
vn 0.0338 0.5112 -0.8588
vn 0.0095 0.5081 -0.8613
vn 0.4821 0.8737 -0.0658
vn 0.4011 0.9160 0.0007
vn 0.4526 0.8917 0.0020
vn -0.5899 0.5195 0.6181
vn -0.5877 0.5193 0.6205
vn 0.4460 -0.1490 0.8825
vn 0.4418 -0.1861 0.8776
vn 0.4350 -0.2355 0.8691
vn -0.7717 0.5192 0.3672
vn -0.7702 0.5195 0.3700
vn -0.0905 -0.6630 0.7431
vn -0.1094 -0.6263 0.7719
vn -0.1688 -0.6336 0.7550
vn 0.9144 0.1294 -0.3836
vn 0.9029 0.0512 -0.4268
vn 0.9139 0.1332 -0.3835
vn 0.0520 0.7939 -0.6059
vn 0.0802 0.7233 -0.6858
vn 0.0365 0.6786 -0.7336
vn -0.4071 -0.6993 0.5876
vn -0.3570 -0.7256 0.5883
vn -0.3565 -0.7236 0.5911
vn 0.7413 0.6712 0.0000
vn 0.7095 0.7023 -0.0586
vn 0.6730 0.7299 -0.1196
vn -0.9686 -0.1697 -0.1819
vn -0.9724 -0.1577 -0.1717
vn -0.9625 -0.1387 -0.2331
vn 0.7973 0.0272 0.6030
vn 0.7868 0.0569 0.6146
vn 0.7579 0.1232 0.6406
vn -0.7133 -0.1479 0.6850
vn -0.7143 -0.1470 0.6842
vn -0.7215 -0.1628 0.6730
vn -0.6776 -0.1865 -0.7114
vn -0.6937 -0.1689 -0.7001
vn -0.6931 -0.1636 -0.7020
vn -0.6252 0.6347 0.4542
vn -0.5411 0.6829 0.4907
vn -0.5130 0.7050 0.4897
vn 0.8402 0.5193 -0.1566
vn 0.8406 0.5195 -0.1533
vn 0.4672 -0.1865 -0.8643
vn 0.4515 -0.1689 -0.8761
vn 0.4535 -0.1636 -0.8761
vn -0.1943 -0.3442 -0.9186
vn -0.2116 -0.3085 -0.9274
vn -0.1408 -0.3662 -0.9198
vn 0.3148 0.9212 -0.2287
vn 0.3123 0.9225 -0.2269
vn 0.6502 -0.4283 0.6275
vn 0.6290 -0.4498 0.6341
vn 0.6905 -0.4054 0.5990
vn 0.3148 0.9212 0.2287
vn 0.3215 0.9176 0.2336
vn 0.3072 0.6336 0.7100
vn 0.3563 0.5819 0.7311
vn 0.3124 0.6336 0.7078
vn 0.0549 -0.9006 0.4311
vn 0.0633 -0.9024 0.4262
vn 0.0121 -0.8815 0.4720
vn 0.4121 -0.8193 -0.3985
vn 0.3868 -0.7967 -0.4644
vn 0.4320 -0.7750 -0.4612
vn -0.8762 -0.4408 -0.1947
vn -0.8871 -0.4325 -0.1614
vn -0.9051 -0.4029 -0.1358
vn 0.0229 -0.9872 0.1576
vn 0.0430 -0.9837 0.1744
vn 0.0380 -0.9791 0.1996
vn 0.6027 0.7596 0.2445
vn 0.6130 0.7572 0.2254
vn 0.6126 0.7691 0.1824
vn -0.2115 -0.8737 -0.4382
vn -0.2441 -0.8724 -0.4235
vn -0.3430 -0.8430 -0.4143
vn 0.5925 -0.4782 0.6482
vn 0.5910 -0.5128 0.6227
vn -0.8093 -0.3083 0.5000
vn -0.8254 -0.3017 0.4771
vn -0.7997 -0.3451 0.4913
vn 0.9627 -0.1984 -0.1839
vn 0.9652 -0.1895 -0.1804
vn 0.9609 -0.2187 -0.1701
vn -0.4878 0.1748 0.8552
vn -0.4878 0.1748 0.8553
vn -0.5202 0.1228 0.8452
vn -0.8929 0.0086 0.4502
vn -0.9054 -0.0585 0.4206
vn -0.8914 0.0039 0.4531
vn 0.6626 0.1748 0.7283
vn 0.6430 0.1228 0.7559
vn 0.4330 -0.6993 0.5687
vn 0.4410 -0.7508 0.4918
vn 0.4520 -0.7236 0.5217
vn -0.9867 -0.1413 -0.0802
vn -0.9795 -0.1627 -0.1188
vn 0.3116 -0.9403 -0.1365
vn 0.3403 -0.9179 -0.2042
vn 0.3532 -0.9061 -0.2328
vn 0.8566 -0.0682 0.5114
vn 0.8877 -0.0952 0.4505
vn 0.9236 -0.0472 0.3804
vn 0.7421 -0.0339 -0.6694
vn 0.7600 -0.0488 -0.6481
vn 0.8054 -0.0944 -0.5852
vn -0.0474 -0.9882 -0.1458
vn -0.1974 -0.9698 -0.1434
vn 0.3532 -0.9061 0.2328
vn 0.3403 -0.9179 0.2042
vn 0.3116 -0.9403 0.1365
vn 0.5918 0.4895 -0.6404
vn 0.5381 0.5011 -0.6777
vn 0.9097 0.3779 0.1725
vn 0.9224 0.3737 0.0979
vn 0.8806 0.4602 0.1129
vn -0.4724 0.1984 0.8588
vn -0.7041 0.0086 0.7100
vn -0.7421 0.0339 0.6694
vn -0.7056 0.0052 0.7086
vn 0.0618 0.5145 -0.8552
vn 0.1228 0.5202 -0.8452
vn 0.3397 -0.9405 -0.0000
vn 0.3974 -0.9176 -0.0000
vn -0.3959 -0.4283 0.8123
vn -0.4087 -0.4498 0.7941
vn -0.3563 -0.4053 0.8419
vn 0.6224 0.7697 0.1423
vn 0.6208 0.7749 0.1191
vn -0.5278 -0.7579 0.3835
vn -0.5258 -0.7600 0.3820
vn 0.6680 -0.6334 0.3905
vn 0.6375 -0.6789 0.3643
vn 0.6206 -0.7016 0.3502
vn 0.9217 0.3118 0.2310
vn -0.4329 0.7005 -0.5673
vn 0.6389 -0.1390 0.7566
vn 0.6743 -0.1698 0.7187
vn 0.6399 -0.1364 0.7562
vn -0.5340 -0.8336 0.1415
vn -0.5923 -0.7939 0.1378
vn -0.6172 -0.7827 0.0800
vn -0.6135 -0.6519 0.4457
vn 0.0754 -0.9698 0.2320
vn -0.8420 0.3056 -0.4447
vn -0.8608 0.3310 -0.3866
vn -0.8561 0.3905 -0.3386
vn 0.3321 -0.8366 0.4357
vn 0.3868 -0.7967 0.4644
vn 0.2472 -0.8472 0.4702
vn -0.8325 -0.5145 0.2055
vn -0.8272 -0.5112 0.2332
vn 0.3478 0.3205 -0.8811
vn 0.2880 0.3629 -0.8862
vn 0.2764 0.4472 -0.8507
vn -0.2343 0.6519 0.7212
vn -0.2472 0.6001 0.7608
vn 0.2016 -0.7579 0.6205
vn 0.2008 -0.7600 0.6181
vn 0.2343 -0.6519 0.7212
vn 0.2414 -0.6043 0.7593
vn -0.7305 0.3205 -0.6031
vn -0.7539 0.3629 -0.5477
vn -0.7236 0.4472 -0.5257
vn 0.7180 -0.5819 -0.3820
vn 0.6617 -0.6579 -0.3597
vn 0.6659 -0.6336 -0.3939
vn 0.6422 -0.1323 0.7550
vn 0.1448 0.9838 -0.1052
vn 0.1533 0.9882 -0.0000
vn 0.1974 0.9698 -0.1434
vn 0.1179 -0.0190 -0.9928
vn 0.1119 -0.0424 -0.9928
vn 0.0822 -0.0851 -0.9930
vn 0.2113 0.8738 -0.4380
vn 0.2441 0.8724 -0.4235
vn 0.3430 0.8430 -0.4144
vn -0.6829 -0.5156 -0.5175
vn -0.6472 -0.6001 -0.4702
vn 0.8401 -0.2767 -0.4665
vn 0.8216 -0.2767 -0.4985
vn 0.8904 -0.2716 -0.3652
vn -0.1537 -0.0023 -0.9881
vn -0.1119 0.0424 -0.9928
vn -0.1179 0.0190 -0.9928
vn 0.8770 -0.2721 -0.3960
vn 0.0565 0.7249 0.6865
vn 0.0555 0.7263 0.6852
vn 0.0351 0.6780 0.7342
vn -0.8216 0.2767 0.4985
vn -0.8904 0.2716 0.3652
vn -0.8770 0.2721 0.3960
vn -0.0578 -0.5866 -0.8078
vn -0.0886 -0.6000 -0.7951
vn -0.0456 -0.5458 -0.8367
vn 0.4398 -0.1594 -0.8838
vn 0.4238 -0.1632 -0.8909
vn 0.9484 0.2751 -0.1579
vn -0.3891 0.9212 0.0000
vn -0.3861 0.9225 0.0000
vn -0.5258 -0.7600 -0.3820
vn -0.5202 -0.7659 -0.3780
vn 0.0806 -0.1304 0.9882
vn 0.0759 -0.1228 0.9895
vn 0.8416 0.5178 0.1533
vn 0.4043 -0.0353 0.9140
vn 0.4315 -0.0466 0.9009
vn 0.4577 0.0086 0.8891
vn -0.8567 0.5156 0.0173
vn 0.9286 -0.3656 0.0641
vn 0.8198 -0.0387 0.5714
vn -0.9236 -0.3310 0.1935
vn -0.9360 -0.3048 0.1759
vn -0.8916 -0.3905 0.2293
vn -0.8337 0.5011 0.2320
vn -0.8552 0.4895 0.1703
vn -0.4587 0.2187 0.8613
vn 0.1448 0.9838 0.1052
vn 0.0733 0.9968 0.0319
vn -0.4334 -0.4783 0.7638
vn -0.4096 -0.5128 0.7545
vn -0.6225 0.2716 -0.7340
vn -0.7014 0.2755 -0.6574
vn 0.1537 0.0023 -0.9881
vn 0.1575 0.0024 -0.9875
vn -0.5647 -0.4514 0.6909
vn -0.5860 -0.4509 0.6733
vn -0.6257 -0.4669 0.6250
vn 0.1193 -0.9225 -0.3672
vn 0.1202 -0.9212 -0.3700
vn 0.4007 0.9162 -0.0007
vn -0.4611 0.7461 -0.4803
vn -0.9112 -0.4055 -0.0727
vn 0.1146 0.7827 -0.6117
vn 0.0304 0.8336 -0.5516
vn -0.2016 0.7579 -0.6205
vn -0.2008 0.7600 -0.6181
vn -0.0903 -0.9564 0.2778
vn -0.1718 -0.9596 0.2228
vn -0.1805 -0.9704 0.1605
vn 0.4782 0.8724 -0.1013
vn 0.5000 0.8430 -0.1981
vn 0.4764 0.8472 -0.2351
vn -0.6971 -0.1584 -0.6993
vn 0.2429 -0.6180 0.7477
vn 0.3354 -0.4821 -0.8094
vn 0.3343 -0.5533 -0.7630
vn 0.2571 -0.5452 -0.7979
vn 0.4783 -0.5011 -0.7212
vn 0.4262 -0.4895 -0.7608
vn -0.3313 0.8831 0.3322
vn -0.3701 0.8694 0.3275
vn -0.3905 0.8584 0.3328
vn 0.8402 0.5193 0.1565
vn -0.4134 -0.9102 0.0248
vn -0.3951 -0.9180 0.0349
vn -0.3324 -0.9403 0.0727
vn 0.5899 -0.5195 -0.6181
vn 0.5877 -0.5193 -0.6205
vn 0.4320 -0.7003 -0.5683
vn 0.8109 0.5011 -0.3023
vn -0.7041 0.0086 -0.7100
vn -0.7056 0.0052 -0.7086
vn -0.7421 0.0339 -0.6694
vn 0.9054 0.0584 -0.4206
vn 0.8914 -0.0039 -0.4531
vn -0.9870 -0.0086 0.1606
vn -0.9902 0.0465 0.1319
vn -0.9942 0.0353 0.1021
vn 0.5854 -0.7996 -0.1340
vn 0.6119 -0.7652 -0.2002
vn 0.6054 -0.7753 -0.1798
vn -0.7480 -0.6228 0.2293
vn -0.6770 -0.7233 0.1357
vn -0.7090 -0.6786 0.1920
vn 0.5741 0.7046 -0.4171
vn 0.5576 0.7245 -0.4052
vn 0.7920 0.4895 0.3650
vn 0.8179 0.3996 0.4140
vn 0.8109 0.5011 0.3023
vn -0.2260 0.3656 -0.9029
vn -0.2255 0.3138 -0.9223
vn 0.1183 -0.9212 0.3707
vn 0.1193 -0.9225 0.3672
vn -0.7224 -0.1698 0.6703
vn -0.9557 0.2572 -0.1434
vn -0.9447 0.3105 -0.1052
vn 0.4768 0.2721 0.8359
vn 0.5057 0.2716 0.8188
vn 0.4085 0.2755 0.8702
vn -0.5214 -0.4458 0.7276
vn -0.5322 -0.4492 0.7176
vn -0.4897 -0.4456 0.7494
vn -0.6739 0.2738 0.6862
vn -0.6225 0.2716 0.7340
vn -0.6755 0.2754 0.6840
vn 0.0335 0.9403 -0.3386
vn 0.0889 0.9180 -0.3866
vn 0.1042 0.9102 -0.4009
vn -0.6476 0.2721 0.7117
vn -0.8063 0.5112 -0.2975
vn -0.7943 0.5145 -0.3231
vn -0.4515 0.1689 -0.8761
vn -0.4535 0.1636 -0.8761
vn -0.4672 0.1865 -0.8643
vn -0.1267 0.9412 -0.3132
vn -0.1061 0.9480 -0.3001
vn -0.0967 0.9498 -0.2975
vn -0.5381 -0.5011 -0.6777
vn 0.7539 -0.3629 -0.5477
vn 0.7304 -0.3205 -0.6031
vn 0.7014 -0.2755 -0.6574
vn -0.2440 0.9698 0.0000
vn -0.1790 0.9838 0.0000
vn -0.2861 -0.8821 0.3743
vn -0.6499 0.7600 0.0000
vn -0.6524 0.7579 0.0000
vn 0.3488 -0.8336 -0.4283
vn -0.9286 0.3656 -0.0641
vn -0.3148 -0.9212 -0.2287
vn -0.3215 -0.9176 -0.2336
vn 0.8734 -0.4821 -0.0689
vn 0.8289 -0.5533 -0.0822
vn 0.8552 -0.4895 -0.1703
vn -0.1233 -0.9160 -0.3817
vn -0.1379 -0.8917 -0.4310
vn 0.1627 0.3056 -0.9382
vn 0.1017 0.3311 -0.9381
vn 0.0575 0.3905 -0.9188
vn -0.4262 0.4895 0.7608
vn -0.4074 -0.0339 -0.9126
vn -0.3815 -0.0488 -0.9231
vn -0.3076 -0.0944 -0.9468
vn -0.9652 0.1895 0.1804
vn -0.9700 0.1645 0.1789
vn -0.9627 0.1984 0.1839
vn 0.0131 0.6228 -0.7823
vn 0.8108 0.5011 0.3023
vn -0.3578 -0.7263 -0.5870
vn -0.4074 -0.7001 -0.5864
vn -0.3573 -0.7252 -0.5886
vn -0.1652 -0.2390 0.9569
vn -0.1862 -0.2087 0.9601
vn -0.1018 -0.3309 0.9382
vn -0.1589 0.2572 0.9532
vn -0.1919 0.3105 0.9310
vn -0.4497 0.1584 -0.8790
vn -0.4398 0.1594 -0.8838
vn -0.1575 -0.0024 -0.9875
vn -0.8503 -0.4802 -0.2152
vn -0.9179 0.2668 0.2937
vn -0.7047 -0.1594 -0.6914
vn 0.9942 -0.0353 -0.1021
vn 0.9956 -0.0504 -0.0790
vn 0.9902 -0.0465 -0.1319
vn -0.2901 -0.0387 0.9562
vn -0.3414 0.0569 0.9382
vn -0.3271 0.0272 0.9446
vn 0.0534 0.7278 0.6837
vn -0.7772 0.2777 -0.5647
vn -0.8214 0.2767 -0.4987
vn -0.9647 0.1304 -0.2287
vn -0.9648 0.1332 -0.2269
vn 0.4826 -0.4514 0.7505
vn 0.4593 -0.4509 0.7654
vn 0.4010 -0.4669 0.7882
vn 0.2204 0.2767 -0.9353
vn 0.1407 0.2708 -0.9523
vn 0.3939 -0.6373 0.6623
vn 0.4320 -0.7003 0.5683
vn 0.0338 0.5112 0.8588
vn 0.0618 0.5145 0.8552
vn 0.8000 0.6000 0.0000
vn 0.9625 0.1387 0.2331
vn 0.9724 0.1577 0.1717
vn 0.9686 0.1697 0.1819
vn 0.7767 -0.5590 0.2903
vn 0.7847 -0.5450 0.2953
vn 0.7778 -0.5527 0.2993
vn -0.1448 -0.9838 -0.1052
vn -0.0530 -0.9968 -0.0599
vn 0.6659 -0.6336 0.3939
vn -0.7659 0.5202 0.3780
vn -0.8162 0.5081 -0.2752
vn -0.3586 -0.7278 -0.5845
vn -0.4070 -0.6993 -0.5876
vn -0.3565 -0.7236 -0.5911
vn 0.4874 0.6993 -0.5229
vn 0.4211 0.7148 -0.5583
vn 0.3910 0.7211 -0.5719
vn -0.5629 0.2668 0.7823
vn -0.4320 0.7003 0.5683
vn -0.4330 0.6993 0.5687
vn -0.3939 0.6373 0.6623
vn 0.3708 0.8472 -0.3804
vn -0.2287 -0.1413 0.9632
vn 0.3479 0.3205 0.8811
vn 0.2880 0.3629 0.8862
vn -0.6476 0.2721 -0.7117
vn 0.3521 0.5897 0.7268
vn 0.4053 0.5212 0.7511
vn 0.4085 0.5193 0.7507
vn -0.2217 -0.0682 0.9727
vn -0.1541 -0.0953 0.9834
vn -0.0764 -0.0472 0.9960
vn 0.3217 0.7299 -0.6030
vn 0.0733 0.9968 -0.0319
vn -0.1003 0.9458 0.3088
vn -0.1037 0.9421 0.3190
vn -0.1407 -0.2708 -0.9523
vn 0.4056 0.5195 -0.7521
vn 0.3974 0.5202 -0.7559
vn -0.9031 -0.0462 -0.4269
vn -0.9033 -0.0512 -0.4259
vn -0.9152 -0.1296 -0.3816
vn -0.6873 0.6781 -0.2605
vn -0.5807 0.7894 -0.1991
vn -0.5899 0.7740 -0.2301
vn 0.3129 -0.9498 -0.0000
vn 0.2894 -0.9572 -0.0000
vn 0.0553 -0.9838 -0.1703
vn 0.0754 -0.9698 -0.2320
vn 0.7904 0.3617 -0.4944
vn -0.3310 0.8904 -0.3126
vn -0.2815 0.9073 -0.3123
vn -0.2962 0.8957 -0.3318
vn 0.3145 0.6342 0.7063
vn -0.0702 -0.6562 0.7514
vn -0.0555 -0.7263 0.6852
vn -0.0534 -0.7278 0.6837
vn 0.7039 -0.6447 -0.2982
vn 0.6948 -0.6849 -0.2193
vn -0.4783 0.5011 -0.7212
vn -0.3417 0.5529 -0.7600
vn -0.4262 0.4895 -0.7608
vn -0.8734 0.4821 0.0689
vn 0.3654 -0.8925 -0.2646
vn 0.3649 -0.8917 -0.2677
vn -0.0736 -0.6095 0.7894
vn -0.2715 0.9044 -0.3293
vn -0.2195 0.9237 -0.3140
vn 0.9870 0.0086 -0.1606
vn 0.9795 0.1627 0.1188
vn 0.9867 0.1413 0.0802
vn 0.0463 0.7009 0.7117
vn 0.0131 0.6228 0.7823
vn 0.8607 -0.3048 0.4079
vn 0.8608 -0.3308 0.3867
vn 0.8555 -0.2087 0.4738
vn -0.0759 0.1228 0.9895
vn -0.3750 0.1233 0.9188
vn 0.6347 -0.7257 -0.2654
vn -0.7772 0.2777 0.5647
vn -0.7993 0.3205 0.5083
vn -0.0015 0.9064 0.4223
vn 0.0485 0.9130 0.4050
vn -0.0069 0.9237 0.3830
vn -0.7600 0.0489 -0.6481
vn -0.8054 0.0944 -0.5852
vn 0.6745 -0.1720 0.7180
vn -0.6135 -0.6519 -0.4457
vn 0.7047 0.1594 -0.6914
vn 0.6937 0.1689 -0.7001
vn 0.7164 0.1631 -0.6784
vn 0.7361 -0.2329 0.6355
vn -0.4070 -0.7003 0.5864
vn -0.3570 -0.7273 0.5861
vn -0.9029 -0.0512 0.4268
vn -0.9144 -0.1294 0.3836
vn -0.9139 -0.1332 0.3835
vn 0.6461 0.4747 -0.5977
vn -0.8622 0.2708 -0.4281
vn -0.3354 0.4821 -0.8094
vn -0.2812 0.5156 -0.8094
vn 0.4497 -0.1584 -0.8790
vn 0.3815 0.0488 -0.9231
vn 0.4074 0.0339 -0.9126
vn 0.4559 0.0052 -0.8900
vn -0.2260 0.3656 0.9029
vn 0.8590 -0.2390 0.4528
vn 0.9647 -0.1304 0.2287
vn 0.9646 -0.1228 0.2336
vn -0.7164 -0.1632 -0.6784
vn 0.0106 -0.8825 0.4702
vn 0.2749 0.7023 -0.6566
vn 0.3939 -0.6373 -0.6623
vn 0.4330 -0.6993 -0.5687
vn 0.4486 -0.1239 0.8851
vn 0.0306 0.9050 0.4244
vn -0.0139 0.8789 0.4767
vn -0.8905 0.0024 0.4549
vn -0.4782 -0.8724 -0.1013
vn -0.5000 -0.8430 -0.1981
vn -0.4764 -0.8472 -0.2351
vn 0.7856 -0.6182 0.0255
vn 0.8383 -0.5452 0.0020
vn 0.6708 0.1984 0.7146
vn 0.6774 0.2187 0.7024
vn 0.1936 -0.3036 0.9329
vn 0.1850 -0.3089 0.9329
vn 0.2220 -0.3592 0.9065
vn 0.8574 0.2572 0.4457
vn 0.8262 0.3105 0.4702
vn -0.7382 -0.6576 -0.1503
vn -0.7497 -0.6473 -0.1377
vn -0.7735 -0.6095 -0.1739
vn -0.6710 0.6932 -0.2631
vn 0.2255 0.2020 0.9531
vn 0.1702 0.1747 0.9698
vn 0.1696 0.1048 0.9799
vn 0.1418 0.8917 0.4298
vn 0.8337 -0.5011 -0.2320
vn -0.4744 -0.1720 0.8633
vn -0.4751 -0.1698 0.8634
vn -0.5222 -0.1390 0.8414
vn 0.2764 0.4472 0.8506
vn -0.7658 0.5202 -0.3780
vn 0.0823 -0.1332 0.9877
vn 0.5860 -0.7991 0.1343
vn 0.6142 -0.7850 0.0802
vn 0.5879 -0.7976 0.1352
vn -0.7600 0.0488 0.6481
vn -0.8054 0.0944 0.5852
vn -0.4238 0.1632 -0.8909
vn 0.6111 -0.7871 0.0837
vn -0.9645 0.1228 -0.2336
vn 0.0139 -0.8789 0.4767
vn 0.2968 0.2777 -0.9137
vn 0.8108 0.5011 -0.3023
vn -0.0822 0.0851 -0.9930
vn 0.5814 -0.8025 0.1341
vn -0.7399 0.6228 -0.2542
vn 0.3828 -0.0504 0.9224
vn 0.4242 -0.0892 0.9012
vn -0.2016 0.7579 0.6205
vn -0.2008 0.7600 0.6181
vn -0.1091 0.9940 0.0000
vn -0.1245 -0.9162 -0.3809
vn -0.0893 -0.9573 -0.2749
vn -0.4444 -0.2739 -0.8529
vn -0.5057 -0.2716 -0.8188
vn -0.4768 -0.2721 -0.8359
vn 0.6012 0.6490 0.4662
vn 0.5561 0.6750 0.4849
vn 0.5056 0.6391 0.5796
vn 0.2489 -0.5519 0.7959
vn 0.2336 -0.5406 0.8082
vn 0.3238 0.8115 0.4864
vn 0.3937 0.7993 0.4540
vn 0.6004 0.6978 0.3906
vn -0.0823 0.1332 -0.9877
vn 0.9700 -0.1645 -0.1789
vn 0.9729 -0.1511 -0.1750
vn 0.5880 0.6869 -0.4272
vn 0.3215 0.9176 -0.2336
vn -0.3974 0.9176 0.0000
vn 0.9648 -0.1332 0.2269
vn 0.6492 -0.7606 -0.0000
vn -0.1987 0.7658 0.6116
vn -0.5170 0.8366 0.1812
vn -0.5612 0.7967 0.2244
vn -0.6040 0.7508 0.2674
vn -0.1219 -0.3048 0.9446
vn 0.6611 0.7148 -0.2279
vn 0.6647 0.7211 -0.1951
vn 0.1974 0.9698 0.1434
vn 0.1589 -0.2572 0.9532
vn 0.6931 0.1636 -0.7021
vn 0.6776 0.1865 -0.7114
vn -0.0894 0.9572 -0.2752
vn 0.7041 -0.0086 -0.7100
vn 0.7056 -0.0052 -0.7086
vn -0.4056 -0.5195 -0.7521
vn -0.3974 -0.5202 -0.7559
vn 0.7693 -0.5212 -0.3694
vn 0.0095 0.5081 0.8613
vn -0.7950 -0.3812 0.4719
vn 0.9317 0.2996 -0.2056
vn 0.5381 0.5011 0.6777
vn -0.5082 -0.6373 0.5793
vn 0.9478 0.2777 -0.1564
vn -0.1516 -0.3811 -0.9120
vn -0.0491 -0.5282 -0.8477
vn 0.9154 0.1315 0.3804
vn 0.9168 0.1299 0.3776
vn 0.9153 0.1316 0.3806
vn -0.5210 0.8430 -0.1336
vn -0.5236 0.8472 -0.0898
vn 0.0077 -0.9968 -0.0796
vn -0.2516 -0.8195 0.5149
vn -0.2517 -0.8193 0.5151
vn 0.7653 0.4526 0.4577
vn -0.5700 -0.2668 -0.7771
vn 0.2291 0.6712 -0.7050
vn 0.2472 0.6000 -0.7608
vn 0.6971 0.1583 -0.6993
vn -0.8574 -0.2572 0.4457
vn -0.8305 -0.2786 0.4824
vn 0.5181 -0.4492 0.7279
vn 0.5309 -0.4458 0.7208
vn -0.8914 0.0039 -0.4531
vn -0.8905 0.0024 -0.4549
vn 0.6225 -0.2716 -0.7340
vn 0.2022 -0.2786 -0.9389
vn 0.7583 -0.6519 0.0000
vn -0.5215 -0.1364 0.8423
vn 0.4085 0.5193 -0.7507
vn 0.3123 0.9225 0.2269
vn -0.0338 -0.5112 0.8588
vn -0.0380 -0.5188 0.8540
vn -0.0095 -0.5081 0.8613
vn -0.5202 -0.7658 0.3780
vn -0.9956 0.0504 0.0790
vn -0.9881 0.0892 0.1250
vn 0.2501 -0.3522 0.9019
vn 0.8561 -0.3905 0.3386
vn -0.2917 0.9007 0.3219
vn -0.2715 0.9044 0.3293
vn -0.2195 0.9237 0.3140
vn 0.7760 -0.5678 0.2747
vn 0.8929 -0.0086 -0.4502
vn 0.8866 0.3482 0.3043
vn -0.2472 0.6001 -0.7608
vn 0.5865 0.7345 0.3412
vn -0.4418 -0.2755 -0.8538
vn -0.0553 -0.5343 0.8435
vn -0.0625 -0.5444 0.8365
vn 0.1987 -0.7658 0.6116
vn -0.6747 0.6993 0.2361
vn -0.6358 0.7236 0.2686
vn 0.3958 0.7983 0.4540
vn -0.4085 -0.5193 -0.7507
vn -0.6740 0.7003 0.2352
vn -0.1099 -0.4193 -0.9012
vn -0.2999 -0.9340 0.1941
vn -0.3148 -0.9200 0.2334
vn -0.6430 0.7658 0.0000
vn -0.9609 0.2187 0.1701
vn 0.7756 0.3984 0.4895
vn 0.3779 -0.8752 0.3020
vn 0.3901 -0.8585 0.3328
vn 0.4121 -0.8193 0.3985
vn -0.7592 0.3456 0.5516
vn -0.4783 0.5011 0.7212
vn -0.3939 0.6373 -0.6623
vn -1.0000 -0.0060 -0.0020
vn -0.1128 -0.9309 0.3473
vn -0.2343 0.6519 -0.7212
vn 0.7818 -0.5468 0.2998
vn 0.7983 -0.5227 0.2993
vn -0.5278 -0.7579 -0.3835
vn 0.2185 -0.6182 -0.7550
vn 0.5614 -0.4456 0.6973
vn 0.5670 -0.7626 0.3113
vn -0.1987 0.7658 -0.6116
vn -0.0764 0.8472 -0.5257
vn -0.6472 0.6000 0.4702
vn -0.2535 -0.9560 0.1479
vn 0.7236 -0.4472 -0.5257
vn -0.9482 -0.2754 0.1584
vn 0.6476 -0.2721 -0.7117
vn 0.5629 -0.2668 -0.7823
vn 0.0823 -0.1332 -0.9877
vn -0.8221 -0.5081 0.2571
vn 0.2472 -0.8472 -0.4702
vn -0.9487 -0.2734 0.1589
vn 0.9112 0.4055 0.0727
vn -0.1398 0.9378 -0.3179
vn 0.7516 -0.6373 -0.1699
vn 0.9179 -0.2668 -0.2937
vn 0.0764 0.0472 0.9960
vn 0.1228 -0.9177 -0.3779
vn 0.5577 0.7245 -0.4052
vn 0.5202 0.7659 -0.3780
vn 0.3076 0.0944 -0.9468
vn -0.6472 0.6000 -0.4702
vn -0.5082 -0.6373 -0.5793
vn -0.5236 0.8472 0.0898
vn -0.5899 0.5195 -0.6181
vn -0.5961 0.5202 -0.6116
vn 0.7717 -0.5192 -0.3672
vn 0.7772 -0.2777 -0.5647
vn -0.3769 -0.2330 0.8965
vn -0.7082 -0.6942 -0.1282
vn -0.6667 -0.7279 -0.1605
vn 0.4768 0.2721 -0.8359
vn 0.5057 0.2716 -0.8188
vn 0.5700 0.2668 -0.7771
vn -0.4819 -0.8738 -0.0656
vn -0.0894 0.9572 0.2752
vn -0.4471 0.7273 0.5206
vn -0.9729 0.1511 0.1750
vn -0.0575 -0.3905 0.9188
vn -0.1073 -0.6294 -0.7696
vn -0.7360 -0.6655 -0.1246
vn -0.7236 0.4472 0.5257
vn 0.4085 0.2755 -0.8702
vn 0.9139 0.1332 0.3835
vn 0.6944 -0.4055 0.5944
vn -0.3708 -0.8472 -0.3804
vn 0.3071 0.0060 0.9517
vn -0.4577 -0.0086 -0.8891
vn -0.4559 -0.0052 -0.8900
vn -0.3123 -0.9225 -0.2269
vn -0.1688 -0.6336 -0.7550
vn 0.8454 -0.1413 0.5151
vn -0.5196 -0.1323 0.8441
vn 0.9881 -0.0892 -0.1250
vn 0.4577 0.0086 -0.8891
vn -0.8929 0.0086 -0.4502
vn 0.4406 0.6806 0.5854
vn 0.2031 -0.3812 0.9019
vn -0.2968 -0.2777 -0.9136
vn -0.5877 0.5193 -0.6205
vn 0.6015 0.7409 0.2989
vn 0.2343 -0.6519 -0.7212
vn 0.6461 0.4747 0.5977
vn 0.1228 0.5202 0.8452
vn -0.0077 -0.7904 -0.6126
vn -0.0147 -0.7992 -0.6008
vn -0.0674 -0.8033 -0.5917
vn -0.3508 -0.4055 0.8441
vn 0.1989 -0.7600 -0.6187
vn 0.1965 -0.7619 -0.6172
vn 0.1991 -0.7599 -0.6188
vn 0.8905 -0.0024 -0.4550
vn 0.5814 -0.8025 -0.1341
vn 0.6479 0.6993 -0.3020
vn -0.0992 -0.8193 -0.5647
vn 0.5700 0.2668 0.7771
vn 0.4520 -0.7236 -0.5217
vn 0.1589 -0.2572 -0.9532
vn -0.4764 -0.8472 0.2351
vn -0.9492 -0.2708 0.1605
vn -0.8417 -0.5202 0.1444
vn 0.2016 -0.7579 -0.6205
vn 0.0503 -0.7989 -0.5994
vn 0.8866 0.3482 -0.3043
vn -0.5629 0.2668 -0.7823
vn -0.5961 0.5202 0.6116
vn -0.7016 -0.1241 0.7016
vn 1.0000 0.0060 0.0020
vn 0.2891 0.9573 0.0000
vn 0.5961 -0.5202 -0.6116
vn 0.8417 0.5202 -0.1444
vn -0.3676 0.8923 -0.2620
vn -0.8398 -0.4985 -0.2153
vn -0.7516 0.6373 0.1699
vn 0.0337 -0.9940 0.1037
usemtl Material.001
s 1
f 137/254/198 139/255/199 138/256/200
f 140/257/201 142/258/202 141/259/203
f 143/260/204 145/261/205 144/262/206
f 146/263/207 148/264/208 147/265/209
f 149/266/210 142/258/202 150/267/211
f 151/268/212 153/269/213 152/270/214
f 139/255/199 137/254/198 154/271/215
f 155/272/216 157/273/217 156/274/218
f 158/275/219 160/276/220 159/277/221
f 161/278/222 163/279/223 162/280/224
f 164/281/225 166/282/225 165/283/225
f 167/284/226 169/285/227 168/286/226
f 152/270/214 153/269/213 170/287/214
f 171/288/228 172/289/229 165/283/230
f 173/290/231 175/291/232 174/292/233
f 176/293/234 178/294/235 177/295/236
f 179/296/237 181/297/238 180/298/239
f 182/299/240 183/300/241 179/296/240
f 150/267/242 185/301/243 184/302/244
f 186/303/245 148/264/245 187/304/246
f 188/305/247 190/306/248 189/307/249
f 191/308/250 193/309/251 192/310/251
f 194/311/252 196/312/253 195/313/254
f 197/314/255 199/315/256 198/316/256
f 200/317/257 202/318/258 201/319/259
f 184/302/260 149/266/261 150/267/262
f 203/320/263 205/321/264 204/322/265
f 193/309/251 191/308/250 206/323/250
f 207/324/266 200/317/267 201/319/268
f 208/325/269 209/326/270 188/305/271
f 164/281/272 211/327/273 210/328/274
f 212/329/275 214/330/276 213/331/277
f 215/332/278 217/333/279 216/334/280
f 171/288/281 165/283/282 218/335/283
f 198/316/284 191/308/285 219/336/286
f 220/337/287 222/338/287 221/339/288
f 223/340/289 157/273/290 224/341/291
f 225/342/292 227/343/293 226/344/294
f 228/345/295 230/346/295 229/347/296
f 231/348/297 233/349/298 232/350/299
f 189/307/300 145/261/300 234/351/301
f 235/352/302 236/353/303 143/260/304
f 237/354/305 239/355/306 238/356/307
f 240/357/308 242/358/309 241/359/310
f 164/281/311 244/360/312 243/361/313
f 245/362/314 246/363/315 237/354/316
f 234/351/317 247/364/318 189/307/319
f 248/365/320 250/366/321 249/367/322
f 233/349/298 252/368/323 251/369/324
f 253/370/325 254/371/326 137/254/327
f 255/372/328 169/285/329 256/373/330
f 257/374/331 259/375/332 258/376/333
f 260/377/334 262/378/335 261/379/336
f 212/329/337 264/380/337 263/381/338
f 252/368/339 265/382/340 251/369/341
f 266/383/342 211/327/273 243/361/343
f 267/384/344 269/385/345 268/386/346
f 270/387/347 272/388/348 271/389/349
f 273/390/350 275/391/351 274/392/352
f 276/393/353 278/394/354 277/395/354
f 279/396/355 280/397/356 246/363/357
f 281/398/358 283/399/358 282/400/359
f 284/401/360 286/402/361 285/403/362
f 287/404/363 259/375/332 257/374/331
f 259/375/364 288/405/365 258/376/366
f 289/406/367 205/321/367 290/407/368
f 279/396/369 268/386/369 291/408/370
f 292/409/371 202/318/372 293/410/373
f 189/307/319 208/325/374 188/305/375
f 294/411/376 295/412/377 173/290/377
f 233/349/378 265/382/379 296/413/380
f 286/402/361 284/401/360 297/414/381
f 178/294/235 299/415/382 298/416/382
f 194/311/383 300/417/384 263/381/385
f 301/418/386 295/412/387 302/419/388
f 138/256/200 139/255/199 294/411/389
f 237/354/316 246/363/315 280/397/390
f 303/420/391 305/421/392 304/422/393
f 306/423/394 307/424/395 239/355/396
f 308/425/397 139/255/398 254/371/398
f 309/426/399 289/406/400 290/407/401
f 310/427/402 163/279/223 311/428/403
f 259/375/332 287/404/363 312/429/363
f 313/430/404 307/424/405 314/431/404
f 314/431/406 315/432/407 313/430/406
f 316/433/408 303/420/409 317/434/410
f 318/435/411 241/359/412 319/436/413
f 263/381/385 300/417/384 212/329/414
f 282/400/359 283/399/358 320/437/359
f 321/438/415 323/439/416 322/440/417
f 324/441/418 326/442/419 325/443/420
f 327/444/421 230/346/422 328/445/423
f 329/446/424 172/289/229 330/447/425
f 331/448/426 274/392/427 332/449/428
f 227/343/429 146/263/430 325/443/431
f 333/450/432 332/449/428 274/392/427
f 143/260/433 144/262/434 310/427/435
f 261/379/436 334/451/437 260/377/438
f 335/452/439 336/453/440 156/274/441
f 337/454/442 157/273/290 326/442/443
f 185/301/243 150/267/242 286/402/444
f 311/428/403 163/279/223 161/278/222
f 338/455/445 340/456/446 339/457/446
f 341/458/447 249/367/447 342/459/448
f 343/460/449 345/461/449 344/462/450
f 208/325/451 284/401/360 285/403/362
f 346/463/452 263/381/453 264/380/454
f 347/464/455 153/269/213 151/268/212
f 169/285/227 348/465/456 256/373/456
f 270/387/347 214/330/276 300/417/457
f 349/466/458 308/425/459 254/371/460
f 334/451/461 153/269/213 350/467/462
f 312/429/363 287/404/363 162/280/463
f 351/468/464 323/439/416 352/469/465
f 202/318/372 207/324/466 201/319/467
f 353/470/468 354/471/469 316/433/408
f 326/442/419 355/472/470 337/454/471
f 138/256/472 253/370/473 137/254/474
f 269/385/475 357/473/475 356/474/476
f 190/306/248 188/305/247 229/347/477
f 299/415/382 178/294/235 358/475/478
f 308/425/479 243/361/313 244/360/312
f 327/444/480 203/320/263 359/476/481
f 204/322/482 299/415/482 203/320/483
f 237/354/484 360/477/485 245/362/486
f 228/345/487 362/478/488 361/479/489
f 218/335/283 165/283/282 363/480/490
f 148/264/245 186/303/245 289/406/367
f 364/481/491 315/432/407 314/431/406
f 322/440/417 323/439/416 229/347/417
f 157/273/492 365/482/493 156/274/494
f 366/483/495 365/482/493 223/340/496
f 367/484/497 368/485/498 219/336/499
f 284/401/360 208/325/451 247/364/500
f 301/418/501 278/394/502 369/486/503
f 370/487/504 371/488/505 366/483/505
f 372/489/506 241/359/310 242/358/309
f 222/338/507 142/258/202 140/257/201
f 294/411/389 139/255/199 373/490/389
f 374/491/508 363/480/509 354/471/510
f 149/266/261 375/492/511 274/392/512
f 376/493/513 262/378/514 266/383/515
f 291/408/516 240/357/517 377/494/518
f 139/255/519 378/495/520 373/490/521
f 362/478/488 228/345/487 188/305/247
f 355/472/470 326/442/419 324/441/418
f 140/257/522 281/398/522 362/478/523
f 379/496/524 380/497/525 247/364/526
f 187/304/527 148/264/208 381/498/528
f 306/423/529 237/354/305 280/397/530
f 215/332/278 216/334/280 253/370/531
f 382/499/532 304/422/533 305/421/532
f 264/380/534 383/500/535 346/463/536
f 215/332/537 207/324/538 292/409/539
f 288/405/540 193/309/541 206/323/542
f 321/438/543 322/440/544 359/476/545
f 259/375/546 193/309/541 288/405/540
f 304/422/547 151/268/547 303/420/548
f 381/498/549 374/491/550 384/501/551
f 359/476/552 385/502/553 321/438/554
f 172/289/229 387/503/555 386/504/555
f 331/448/556 370/487/557 273/390/558
f 340/456/559 385/502/560 339/457/559
f 174/292/233 175/291/232 360/477/561
f 388/505/562 170/287/563 389/506/562
f 356/474/564 242/358/309 240/357/308
f 304/422/533 390/507/565 347/464/565
f 250/366/566 391/508/566 342/459/567
f 256/373/568 392/509/569 255/372/570
f 357/473/571 248/365/320 393/510/572
f 289/406/573 147/265/574 148/264/575
f 162/280/224 163/279/223 312/429/576
f 394/511/577 395/512/578 227/343/579
f 396/513/580 260/377/581 350/467/582
f 204/322/265 205/321/264 186/303/583
f 358/475/478 178/294/235 176/293/234
f 247/364/526 380/497/525 284/401/584
f 248/365/585 398/514/586 397/515/587
f 371/488/505 370/487/504 319/436/504
f 343/460/588 293/410/589 399/516/590
f 243/361/343 211/327/273 164/281/272
f 182/299/591 180/298/592 287/404/592
f 363/480/593 381/498/549 395/512/594
f 390/507/565 304/422/533 396/513/533
f 146/263/430 227/343/429 395/512/595
f 164/281/311 329/446/596 244/360/312
f 350/467/597 260/377/438 334/451/437
f 363/480/490 165/283/282 400/517/598
f 185/301/599 168/286/600 375/492/601
f 401/518/602 182/299/603 257/374/604
f 310/427/435 144/262/434 402/519/605
f 365/482/493 366/483/495 371/488/495
f 354/471/606 403/520/607 303/420/391
f 404/521/608 382/499/609 305/421/609
f 364/481/610 195/313/611 405/522/612
f 147/265/574 355/472/613 324/441/614
f 364/481/615 314/431/616 252/368/339
f 311/428/617 181/297/618 235/352/618
f 209/326/270 208/325/269 285/403/619
f 271/389/620 406/523/621 297/414/622
f 296/413/623 348/465/624 233/349/625
f 369/486/626 276/393/353 245/362/627
f 251/369/628 265/382/379 233/349/378
f 198/316/256 199/315/256 407/524/629
f 223/340/496 365/482/493 157/273/492
f 151/268/547 304/422/547 347/464/630
f 398/514/586 248/365/585 249/367/631
f 314/431/616 265/382/340 252/368/339
f 397/515/587 386/504/632 408/525/633
f 281/398/634 282/400/635 328/445/636
f 312/429/637 193/309/541 259/375/546
f 409/526/638 192/310/639 163/279/640
f 328/445/423 230/346/422 361/479/641
f 293/410/589 343/460/588 401/518/642
f 346/463/536 410/527/643 181/297/644
f 354/471/469 353/470/468 374/491/645
f 160/276/646 410/527/647 383/500/648
f 239/355/306 237/354/305 306/423/529
f 411/528/649 343/460/650 344/462/651
f 328/445/636 282/400/635 327/444/652
f 352/469/465 323/439/416 412/529/653
f 413/530/654 414/531/655 351/468/654
f 226/344/294 227/343/293 325/443/656
f 415/532/657 309/426/657 290/407/658
f 210/328/659 166/282/660 164/281/661
f 152/270/662 388/505/663 176/293/664
f 299/415/482 358/475/483 203/320/483
f 267/384/665 246/363/665 416/533/666
f 267/384/667 276/393/353 269/385/668
f 417/534/669 142/258/202 149/266/210
f 176/293/670 339/457/671 358/475/672
f 143/260/304 160/276/646 418/535/673
f 313/430/674 238/356/675 419/536/676
f 241/359/412 420/537/677 377/494/678
f 357/473/475 393/510/476 356/474/476
f 353/470/679 421/538/680 384/501/681
f 350/467/462 153/269/213 390/507/682
f 240/357/683 269/385/345 356/474/684
f 313/430/674 315/432/685 202/318/258
f 278/394/354 276/393/353 369/486/626
f 410/527/643 346/463/536 383/500/535
f 382/499/609 404/521/608 211/327/608
f 422/539/686 339/457/671 385/502/687
f 185/301/599 375/492/601 184/302/688
f 286/402/689 406/523/621 185/301/690
f 235/352/691 310/427/435 311/428/692
f 381/498/528 148/264/208 146/263/207
f 423/540/693 167/284/694 232/350/695
f 183/300/241 411/528/241 344/462/696
f 257/374/604 182/299/603 287/404/697
f 377/494/518 240/357/517 241/359/698
f 288/405/699 199/315/700 261/379/436
f 414/531/701 424/541/702 351/468/703
f 265/382/340 307/424/395 306/423/394
f 354/471/510 400/517/704 403/520/705
f 231/348/706 300/417/384 194/311/383
f 421/538/680 353/470/679 298/416/679
f 425/542/227 169/285/227 167/284/226
f 426/543/707 172/289/229 398/514/707
f 275/391/708 417/534/709 149/266/710
f 232/350/711 300/417/384 231/348/706
f 200/317/267 294/411/712 173/290/713
f 216/334/714 376/493/715 349/466/716
f 283/399/358 141/259/717 417/534/717
f 403/520/607 404/521/718 305/421/392
f 381/498/719 421/538/680 187/304/720
f 427/544/721 157/273/290 337/454/442
f 272/388/348 270/387/347 300/417/457
f 337/454/722 428/545/723 427/544/724
f 162/280/725 180/298/592 161/278/725
f 303/420/409 316/433/408 354/471/469
f 141/259/717 283/399/358 281/398/358
f 272/388/726 232/350/695 167/284/694
f 272/388/727 406/523/727 271/389/728
f 222/338/287 209/326/288 221/339/288
f 400/517/598 165/283/282 166/282/729
f 237/354/305 238/356/307 174/292/730
f 415/532/731 327/444/652 282/400/635
f 207/324/466 202/318/372 292/409/371
f 365/482/732 371/488/733 372/489/506
f 194/311/252 263/381/734 196/312/253
f 144/262/735 414/531/701 402/519/736
f 261/379/336 216/334/714 217/333/737
f 391/508/738 341/458/739 342/459/740
f 429/546/741 392/509/569 348/465/742
f 159/277/743 213/331/743 430/547/744
f 196/312/745 431/548/746 405/522/747
f 214/330/748 380/497/525 213/331/749
f 426/543/750 244/360/751 330/447/752
f 177/295/753 152/270/662 176/293/664
f 346/463/754 183/300/755 345/461/756
f 424/541/702 144/262/735 145/261/757
f 332/449/758 392/509/569 420/537/758
f 292/409/759 401/518/760 215/332/761
f 181/297/644 410/527/643 236/353/762
f 303/420/548 177/295/548 317/434/763
f 399/516/764 432/549/764 343/460/449
f 433/550/765 429/546/766 296/413/767
f 217/333/768 288/405/365 261/379/769
f 395/512/594 381/498/549 146/263/770
f 429/546/766 433/550/765 291/408/771
f 246/363/665 268/386/369 279/396/369
f 211/327/608 404/521/608 210/328/772
f 238/356/307 239/355/306 419/536/773
f 355/472/613 289/406/573 428/545/774
f 142/258/202 222/338/507 220/337/775
f 325/443/431 146/263/430 324/441/776
f 412/529/653 323/439/416 321/438/415
f 279/396/777 291/408/771 433/550/765
f 340/456/446 338/455/445 368/485/445
f 151/268/778 152/270/662 177/295/753
f 263/381/453 432/549/779 196/312/780
f 310/427/781 402/519/782 367/484/782
f 352/469/783 385/502/560 413/530/560
f 277/395/784 357/473/571 276/393/785
f 394/511/786 387/503/787 218/335/788
f 158/275/789 434/551/790 160/276/791
f 315/432/407 405/522/792 435/552/793
f 145/261/205 418/535/794 234/351/795
f 379/496/796 434/551/790 158/275/789
f 324/441/776 146/263/430 147/265/797
f 169/285/329 333/450/798 375/492/799
f 281/398/522 140/257/522 141/259/800
f 230/346/295 228/345/295 361/479/801
f 368/485/445 338/455/445 436/553/802
f 168/286/803 406/523/727 272/388/727
f 429/546/766 291/408/771 377/494/804
f 367/484/782 402/519/782 414/531/805
f 368/485/806 389/506/807 219/336/808
f 396/513/533 304/422/533 382/499/532
f 374/491/550 381/498/549 363/480/593
f 437/554/809 399/516/590 293/410/589
f 188/305/271 222/338/810 362/478/811
f 419/536/405 307/424/405 313/430/404
f 323/439/416 424/541/812 190/306/812
f 399/516/813 196/312/745 432/549/813
f 346/463/452 432/549/779 263/381/453
f 334/451/255 199/315/256 197/314/255
f 417/534/709 438/555/814 283/399/815
f 208/325/374 189/307/319 247/364/318
f 321/438/554 385/502/553 412/529/816
f 224/341/817 427/544/818 273/390/350
f 408/525/819 225/342/819 336/453/820
f 255/372/570 392/509/569 332/449/758
f 331/448/821 420/537/677 318/435/411
f 180/298/617 311/428/617 161/278/822
f 137/254/327 254/371/326 154/271/823
f 150/267/242 220/337/824 286/402/444
f 159/277/221 160/276/220 383/500/825
f 294/411/712 207/324/266 138/256/826
f 286/402/444 220/337/824 221/339/827
f 225/342/292 226/344/294 336/453/828
f 155/272/829 156/274/441 336/453/440
f 270/387/830 271/389/831 297/414/832
f 338/455/833 388/505/663 436/553/834
f 170/287/563 388/505/562 152/270/563
f 357/473/571 277/395/784 248/365/320
f 416/533/835 276/393/353 267/384/667
f 173/290/231 238/356/836 200/317/837
f 158/275/838 380/497/525 379/496/524
f 139/255/398 308/425/397 378/495/397
f 218/335/788 387/503/787 171/288/839
f 205/321/840 415/532/731 290/407/841
f 144/262/735 424/541/702 414/531/701
f 228/345/487 229/347/477 188/305/247
f 438/555/814 417/534/709 427/544/842
f 349/466/843 254/371/326 216/334/844
f 252/368/845 194/311/846 364/481/610
f 166/282/660 403/520/847 400/517/848
f 348/465/742 392/509/569 256/373/568
f 370/487/557 366/483/849 273/390/558
f 373/490/521 378/495/520 295/412/387
f 157/273/217 155/272/216 326/442/850
f 392/509/569 429/546/741 377/494/851
f 215/332/761 401/518/760 258/376/852
f 320/437/853 309/426/657 415/532/657
f 145/261/300 190/306/854 424/541/854
f 431/548/855 315/432/856 435/552/857
f 173/290/377 295/412/377 175/291/858
f 322/440/544 230/346/422 327/444/421
f 382/499/859 262/378/514 396/513/860
f 213/331/743 264/380/337 212/329/337
f 200/317/257 313/430/674 202/318/258
f 205/321/264 203/320/263 327/444/480
f 375/492/511 149/266/261 184/302/260
f 196/312/745 405/522/747 195/313/861
f 355/472/613 147/265/574 289/406/573
f 245/362/627 276/393/353 416/533/835
f 425/542/862 167/284/694 423/540/693
f 340/456/863 414/531/864 413/530/865
f 348/465/624 296/413/623 429/546/866
f 269/385/668 276/393/353 357/473/668
f 274/392/512 375/492/511 333/450/867
f 327/444/652 415/532/731 205/321/840
f 297/414/381 284/401/360 380/497/868
f 187/304/720 421/538/680 186/303/869
f 434/551/790 379/496/796 234/351/870
f 333/450/798 169/285/329 255/372/328
f 225/342/871 387/503/787 394/511/786
f 315/432/856 437/554/872 202/318/873
f 307/424/405 419/536/405 239/355/874
f 219/336/808 197/314/875 198/316/876
f 234/351/795 418/535/794 434/551/877
f 141/259/203 142/258/202 417/534/669
f 348/465/456 169/285/227 425/542/227
f 432/549/764 345/461/449 343/460/449
f 387/503/878 225/342/819 408/525/819
f 197/314/875 219/336/808 170/287/879
f 336/453/828 226/344/294 155/272/880
f 301/418/881 360/477/485 175/291/882
f 262/378/335 376/493/715 216/334/714
f 268/386/369 246/363/665 267/384/665
f 180/298/592 182/299/591 179/296/591
f 215/332/537 253/370/473 138/256/472
f 388/505/562 389/506/562 436/553/883
f 411/528/241 183/300/241 182/299/240
f 192/310/639 219/336/286 191/308/285
f 396/513/580 350/467/582 390/507/884
f 430/547/885 380/497/525 158/275/838
f 306/423/886 433/550/887 265/382/888
f 424/541/812 323/439/416 351/468/464
f 307/424/395 265/382/340 314/431/616
f 206/323/889 199/315/700 288/405/699
f 216/334/844 254/371/326 253/370/325
f 312/429/576 163/279/223 193/309/890
f 298/416/382 299/415/382 421/538/891
f 266/383/515 382/499/859 211/327/892
f 360/477/485 237/354/484 174/292/893
f 280/397/356 433/550/887 306/423/886
f 297/414/622 406/523/621 286/402/689
f 413/530/560 385/502/560 340/456/559
f 186/303/869 421/538/680 204/322/894
f 423/540/895 348/465/624 425/542/896
f 398/514/897 249/367/447 341/458/447
f 156/274/494 365/482/493 335/452/898
f 358/475/672 339/457/671 422/539/686
f 194/311/846 252/368/845 231/348/899
f 252/368/323 233/349/298 231/348/297
f 296/413/380 265/382/379 433/550/900
f 330/447/425 172/289/229 426/543/707
f 294/411/712 200/317/267 207/324/266
f 203/320/483 358/475/483 422/539/901
f 359/476/481 203/320/263 422/539/902
f 191/308/285 198/316/284 407/524/903
f 183/300/755 181/297/238 179/296/237
f 369/486/904 360/477/485 301/418/881
f 209/326/270 222/338/810 188/305/271
f 370/487/557 331/448/556 318/435/905
f 151/268/547 177/295/548 303/420/548
f 243/361/906 308/425/459 349/466/458
f 384/501/681 421/538/680 381/498/719
f 164/281/225 165/283/225 329/446/225
f 145/261/300 189/307/300 190/306/854
f 245/362/486 360/477/485 369/486/904
f 224/341/907 366/483/849 223/340/908
f 325/443/420 326/442/419 226/344/909
f 153/269/213 334/451/461 197/314/461
f 254/371/398 139/255/398 154/271/910
f 242/358/309 356/474/564 439/556/911
f 243/361/906 349/466/458 266/383/912
f 414/531/864 340/456/863 367/484/497
f 285/403/362 286/402/361 221/339/913
f 250/366/321 248/365/320 277/395/784
f 181/297/618 311/428/617 180/298/617
f 385/502/553 359/476/552 422/539/914
f 377/494/678 420/537/677 392/509/915
f 255/372/916 332/449/428 333/450/432
f 345/461/756 183/300/755 344/462/917
f 382/499/859 266/383/515 262/378/514
f 356/474/476 393/510/476 439/556/918
f 186/303/245 205/321/367 289/406/367
f 362/478/523 328/445/919 361/479/920
f 428/545/723 337/454/722 355/472/921
f 409/526/638 219/336/286 192/310/639
f 167/284/803 168/286/803 272/388/727
f 385/502/560 352/469/783 412/529/783
f 177/295/236 178/294/235 317/434/922
f 343/460/650 411/528/649 401/518/602
f 275/391/351 273/390/350 427/544/818
f 340/456/863 368/485/498 367/484/497
f 386/504/632 398/514/586 172/289/923
f 389/506/807 368/485/806 436/553/924
f 178/294/925 316/433/925 317/434/926
f 236/353/303 410/527/647 160/276/646
f 236/353/303 160/276/646 143/260/304
f 420/537/677 331/448/821 332/449/927
f 274/392/427 331/448/426 273/390/928
f 170/287/879 219/336/808 389/506/807
f 293/410/929 401/518/760 292/409/759
f 433/550/887 280/397/356 279/396/355
f 403/520/847 166/282/660 210/328/659
f 302/419/930 426/543/750 341/458/931
f 438/555/932 320/437/933 283/399/934
f 224/341/291 157/273/290 427/544/721
f 302/419/935 391/508/738 278/394/502
f 405/522/792 315/432/407 364/481/491
f 413/530/654 351/468/654 352/469/936
f 219/336/286 409/526/638 367/484/937
f 341/458/739 391/508/738 302/419/935
f 400/517/704 354/471/510 363/480/509
f 431/548/746 196/312/745 399/516/813
f 260/377/581 396/513/580 262/378/938
f 431/548/939 399/516/590 437/554/809
f 380/497/525 214/330/748 297/414/748
f 176/293/664 388/505/663 338/455/833
f 335/452/439 397/515/940 336/453/440
f 398/514/586 386/504/632 397/515/587
f 378/495/941 244/360/751 426/543/750
f 264/380/337 213/331/743 159/277/743
f 199/315/700 206/323/889 407/524/942
f 320/437/933 428/545/943 309/426/399
f 270/387/830 297/414/832 214/330/944
f 232/350/299 233/349/298 423/540/945
f 249/367/322 250/366/321 342/459/946
f 233/349/625 348/465/624 423/540/895
f 238/356/675 313/430/674 200/317/257
f 390/507/682 153/269/213 347/464/455
f 204/322/894 421/538/680 299/415/894
f 432/549/779 346/463/452 345/461/947
f 300/417/457 214/330/276 212/329/275
f 437/554/872 315/432/856 431/548/855
f 218/335/948 363/480/949 394/511/577
f 278/394/950 250/366/566 277/395/950
f 336/453/440 397/515/940 408/525/951
f 250/366/566 278/394/950 391/508/566
f 232/350/695 272/388/726 300/417/952
f 409/526/781 310/427/781 367/484/782
f 258/376/852 401/518/760 257/374/953
f 375/492/601 168/286/600 169/285/954
f 193/309/890 163/279/223 192/310/890
f 281/398/522 328/445/919 362/478/523
f 303/420/391 403/520/607 305/421/392
f 438/555/955 427/544/724 428/545/723
f 411/528/649 182/299/603 401/518/602
f 403/520/847 210/328/659 404/521/956
f 160/276/791 434/551/790 418/535/957
f 405/522/747 431/548/746 435/552/958
f 207/324/538 215/332/537 138/256/472
f 227/343/293 225/342/292 394/511/959
f 378/495/941 426/543/750 302/419/930
f 298/416/960 353/470/960 178/294/925
f 143/260/433 310/427/435 235/352/691
f 282/400/853 320/437/853 415/532/657
f 273/390/558 366/483/849 224/341/907
f 262/378/335 216/334/714 261/379/336
f 379/496/961 247/364/318 234/351/317
f 335/452/898 365/482/493 372/489/962
f 430/547/963 158/275/219 159/277/221
f 235/352/618 181/297/618 236/353/964
f 426/543/897 398/514/897 341/458/447
f 302/419/935 278/394/502 301/418/501
f 427/544/842 417/534/709 275/391/708
f 335/452/965 393/510/966 397/515/967
f 293/410/373 202/318/372 437/554/968
f 242/358/969 439/556/970 335/452/971
f 149/266/261 274/392/512 275/391/972
f 268/386/346 269/385/345 240/357/683
f 240/357/517 291/408/516 268/386/973
f 362/478/811 222/338/810 140/257/974
f 397/515/967 393/510/966 248/365/975
f 159/277/976 383/500/535 264/380/534
f 213/331/749 380/497/525 430/547/885
f 386/504/878 387/503/878 408/525/819
f 241/359/310 371/488/733 319/436/977
f 289/406/400 309/426/399 428/545/943
f 326/442/850 155/272/216 226/344/978
f 302/419/388 295/412/387 378/495/520
f 295/412/387 301/418/386 175/291/979
f 387/503/555 172/289/229 171/288/228
f 229/347/296 230/346/295 322/440/296
f 266/383/912 349/466/458 376/493/980
f 378/495/397 308/425/397 244/360/981
f 353/470/960 316/433/925 178/294/925
f 242/358/969 335/452/971 372/489/982
f 395/512/578 394/511/577 363/480/949
f 371/488/733 241/359/310 372/489/506
f 238/356/836 173/290/231 174/292/233
f 295/412/377 294/411/376 373/490/376
f 428/545/943 320/437/933 438/555/932
f 439/556/983 393/510/966 335/452/965
f 220/337/824 150/267/242 142/258/984
f 194/311/846 195/313/611 364/481/610
f 374/491/645 353/470/468 384/501/985
f 258/376/366 288/405/365 217/333/768
f 206/323/250 191/308/250 407/524/986
f 165/283/230 172/289/229 329/446/424
f 217/333/279 215/332/278 258/376/987
f 287/404/592 180/298/592 162/280/725
f 418/535/794 145/261/205 143/260/204
f 168/286/600 185/301/599 406/523/988
f 420/537/677 241/359/412 318/435/411
f 190/306/248 229/347/477 323/439/989
f 359/476/545 322/440/544 327/444/421
f 319/436/504 370/487/504 318/435/990
f 221/339/288 209/326/288 285/403/991
f 334/451/437 261/379/436 199/315/700
f 339/457/671 176/293/670 338/455/992
f 163/279/223 310/427/402 409/526/402
f 244/360/312 329/446/596 330/447/993
f 181/297/238 183/300/755 346/463/754
f 197/314/875 170/287/879 153/269/994
f 246/363/315 245/362/314 416/533/995
o m_BF_Block_Faired_111_Instance.003
v -0.000001 -0.599999 -0.000000
v 0.132022 -0.499999 0.132023
v 0.132022 -0.500000 -0.132023
v -0.132023 -0.499999 0.132023
v -0.132023 -0.499999 -0.132023
vt 0.031246 0.031498
vt 0.060715 0.002028
vt 0.060715 0.060967
vt 0.001776 0.060967
vt 0.001776 0.002028
vn 0.6038 -0.7971 0.0000
vn 0.0000 -0.7971 0.6038
vn -0.6038 -0.7971 0.0000
vn -0.0000 -0.7971 -0.6038
usemtl Material.001
s off
f 440/557/996 442/558/996 441/559/996
f 441/559/997 443/560/997 440/557/997
f 440/557/998 443/560/998 444/561/998
f 444/561/999 442/558/999 440/557/999
o m_BF_Block_Faired_111_Instance.004
v -1.000001 -0.599999 -0.000000
v -0.867978 -0.499999 0.132023
v -0.867978 -0.500000 -0.132023
v -1.132023 -0.499999 0.132023
v -1.132023 -0.499999 -0.132023
vt 0.031246 0.031498
vt 0.060715 0.002028
vt 0.060715 0.060967
vt 0.001776 0.060967
vt 0.001776 0.002028
vn 0.6038 -0.7971 0.0000
vn 0.0000 -0.7971 0.6038
vn -0.6038 -0.7971 0.0000
vn -0.0000 -0.7971 -0.6038
usemtl Material.001
s off
f 445/562/1000 447/563/1000 446/564/1000
f 446/564/1001 448/565/1001 445/562/1001
f 445/562/1002 448/565/1002 449/566/1002
f 449/566/1003 447/563/1003 445/562/1003
o m_BF_Block_Faired_111_Instance.005
v -0.000001 -0.599999 1.000000
v 0.132022 -0.499999 1.132023
v 0.132022 -0.500000 0.867977
v -0.132023 -0.499999 1.132023
v -0.132023 -0.499999 0.867977
vt 0.031246 0.031498
vt 0.060715 0.002028
vt 0.060715 0.060967
vt 0.001776 0.060967
vt 0.001776 0.002028
vn 0.6038 -0.7971 0.0000
vn 0.0000 -0.7971 0.6038
vn -0.6038 -0.7971 0.0000
vn -0.0000 -0.7971 -0.6038
usemtl Material.001
s off
f 450/567/1004 452/568/1004 451/569/1004
f 451/569/1005 453/570/1005 450/567/1005
f 450/567/1006 453/570/1006 454/571/1006
f 454/571/1007 452/568/1007 450/567/1007
o m_BF_Block_Faired_111_Instance.006
v -1.000001 -0.599999 1.000000
v -0.867978 -0.499999 1.132023
v -0.867978 -0.500000 0.867977
v -1.132023 -0.499999 1.132023
v -1.132023 -0.499999 0.867977
vt 0.031246 0.031498
vt 0.060715 0.002028
vt 0.060715 0.060967
vt 0.001776 0.060967
vt 0.001776 0.002028
vn 0.6038 -0.7971 0.0000
vn 0.0000 -0.7971 0.6038
vn -0.6038 -0.7971 0.0000
vn -0.0000 -0.7971 -0.6038
usemtl Material.001
s off
f 455/572/1008 457/573/1008 456/574/1008
f 456/574/1009 458/575/1009 455/572/1009
f 455/572/1010 458/575/1010 459/576/1010
f 459/576/1011 457/573/1011 455/572/1011
o m_BF_Block_Faired_111_Instance.006_m_BF_Block_Faired_111_Instan
v 0.191324 -0.250000 0.500000
v 0.000000 -0.000000 0.500000
v 0.190902 -0.247577 0.213819
v 0.190902 -0.247577 0.786181
v 0.123627 -0.237121 0.758310
v -0.049991 -0.012121 0.499998
v 0.123627 -0.237121 0.241687
vt 0.562500 0.812500
vt 0.562500 0.812500
vt 0.562500 0.812500
vt 0.562500 0.812500
vt 0.562500 0.812500
vt 0.562500 0.812500
vt 0.562500 0.812500
vn 0.9850 0.1634 0.0553
vn 0.5723 0.7057 -0.4176
vn 0.6959 0.5326 0.4817
vn 0.5177 0.7773 0.3576
vn 0.3798 0.3021 0.8743
vn 0.4738 0.7923 0.3846
vn -0.6111 0.7432 0.2723
vn -0.7327 0.6273 0.2639
vn -0.3906 0.5527 -0.7362
vn 0.3599 0.3864 -0.8492
vn -0.6987 0.6224 -0.3527
vn -0.1772 0.8911 -0.4178
usemtl Material.001
s 1
f 460/577/1012 462/578/1013 461/579/1014
f 463/580/1015 460/577/1012 461/579/1014
f 463/580/1016 461/579/1017 465/581/1018 464/582/1019
f 461/579/1020 462/578/1021 466/583/1022 465/581/1023
o m_BF_Block_Faired_111_Instance.007_m_BF_Block_Faired_111_Instan
v -0.500000 -0.250000 -0.191324
v -0.500000 0.000000 0.000000
v -0.786181 -0.247577 -0.190902
v -0.213819 -0.247577 -0.190902
v -0.241690 -0.237121 -0.123627
v -0.500002 -0.012121 0.049991
v -0.758313 -0.237121 -0.123627
vt 0.562500 0.812500
vt 0.562500 0.812500
vt 0.562500 0.812500
vt 0.562500 0.812500
vt 0.562500 0.812500
vt 0.562500 0.812500
vt 0.562500 0.812500
vn 0.0553 0.1634 -0.9850
vn -0.4176 0.7057 -0.5723
vn 0.4817 0.5326 -0.6959
vn 0.3576 0.7773 -0.5177
vn 0.8743 0.3021 -0.3798
vn 0.3846 0.7923 -0.4738
vn 0.2723 0.7432 0.6111
vn 0.2639 0.6273 0.7327
vn -0.7362 0.5527 0.3906
vn -0.8492 0.3864 -0.3599
vn -0.3527 0.6224 0.6987
vn -0.4178 0.8911 0.1772
usemtl Material.001
s 1
f 467/584/1024 469/585/1025 468/586/1026
f 470/587/1027 467/584/1024 468/586/1026
f 470/587/1028 468/586/1029 472/588/1030 471/589/1031
f 468/586/1032 469/585/1033 473/590/1034 472/588/1035
o m_BF_Block_Faired_111_Instance.008_m_BF_Block_Faired_111_Instan
v -1.191324 -0.250001 0.500000
v -1.000000 -0.000000 0.500000
v -1.190902 -0.247577 0.786182
v -1.190902 -0.247577 0.213819
v -1.123627 -0.237122 0.241691
v -0.950009 -0.012122 0.500002
v -1.123627 -0.237121 0.758313
vt 0.562500 0.812500
vt 0.562500 0.812500
vt 0.562500 0.812500
vt 0.562500 0.812500
vt 0.562500 0.812500
vt 0.562500 0.812500
vt 0.562500 0.812500
vn -0.9850 0.1634 -0.0553
vn -0.5723 0.7057 0.4176
vn -0.6959 0.5326 -0.4817
vn -0.5177 0.7773 -0.3576
vn -0.3798 0.3021 -0.8743
vn -0.4737 0.7923 -0.3845
vn 0.6111 0.7432 -0.2723
vn 0.7327 0.6273 -0.2639
vn 0.3906 0.5527 0.7362
vn -0.3599 0.3864 0.8492
vn 0.6987 0.6224 0.3527
vn 0.1772 0.8911 0.4178
usemtl Material.001
s 1
f 474/591/1036 476/592/1037 475/593/1038
f 477/594/1039 474/591/1036 475/593/1038
f 477/594/1040 475/593/1041 479/595/1042 478/596/1043
f 475/593/1044 476/592/1045 480/597/1046 479/595/1047
o m_BF_Block_Faired_111_Instance.009_m_BF_Block_Faired_111_Instan
v -0.500000 -0.249999 1.191324
v -0.500000 0.000001 1.000000
v -0.213819 -0.247576 1.190902
v -0.786181 -0.247576 1.190902
v -0.758309 -0.237121 1.123627
v -0.499998 -0.012121 0.950009
v -0.241687 -0.237120 1.123627
vt 0.562500 0.812500
vt 0.562500 0.812500
vt 0.562500 0.812500
vt 0.562500 0.812500
vt 0.562500 0.812500
vt 0.562500 0.812500
vt 0.562500 0.812500
vn -0.0553 0.1634 0.9850
vn 0.4176 0.7057 0.5723
vn -0.4817 0.5326 0.6959
vn -0.3576 0.7773 0.5177
vn -0.8743 0.3021 0.3798
vn -0.3845 0.7923 0.4737
vn -0.2723 0.7432 -0.6111
vn -0.2639 0.6273 -0.7327
vn 0.7362 0.5527 -0.3906
vn 0.8492 0.3864 0.3599
vn 0.3527 0.6224 -0.6987
vn 0.4178 0.8911 -0.1772
usemtl Material.001
s 1
f 481/598/1048 483/599/1049 482/600/1050
f 484/601/1051 481/598/1048 482/600/1050
f 484/601/1052 482/600/1053 486/602/1054 485/603/1055
f 482/600/1056 483/599/1057 487/604/1058 486/602/1059
