# Blender v2.93.1 OBJ File: ''
# www.blender.org
mtllib swivel_rr_base.mtl
o Cylinder
v -1.170004 0.260000 1.120000
v -1.154004 0.260000 1.154000
v -1.120004 0.260000 1.170000
v -1.170004 -0.500000 0.900000
v -1.170004 -0.500000 1.120000
v -1.130004 -0.500000 0.900000
v -0.207721 0.460000 0.724274
v -0.548087 0.460000 0.865258
v -0.792280 0.460000 0.275726
v 0.170004 0.500000 -0.120000
v 0.170004 0.500000 0.100000
v 0.130004 0.500000 0.100000
v -0.343351 0.500000 0.121815
v -0.446570 0.500000 0.094157
v -0.186701 0.500000 -0.256370
v -0.900000 -0.260000 1.130000
v -1.120004 -0.260000 1.170000
v -1.170004 -0.260000 1.120000
v -0.001613 0.500000 -0.149510
v -0.175245 0.500000 0.250807
v -0.250807 0.500000 0.175245
v 0.130004 0.260000 0.900000
v -0.100000 0.260000 1.130000
v 0.170004 0.260000 1.120000
v -0.878185 0.500000 0.343351
v -0.905843 0.500000 0.446570
v -1.311685 0.500000 0.393140
v 0.120004 -0.500000 1.170000
v 0.154004 -0.500000 1.154000
v 0.170004 -0.500000 1.120000
v 0.130004 -0.500000 0.900000
v -0.100000 -0.500000 1.130000
v -0.900000 0.260000 -0.130000
v -1.120004 0.260000 -0.170000
v -1.170004 0.260000 -0.120000
v -0.451913 0.460000 0.134742
v -0.359016 0.460000 0.159633
v -0.275726 0.460000 0.207721
v -1.130004 0.500000 0.100000
v -1.170004 0.500000 0.100000
v -1.170004 0.500000 -0.120000
v -0.900000 -0.500000 -0.130000
v -0.900000 -0.500000 -0.170000
v -1.120004 -0.500000 -0.170000
v -1.130004 0.260000 0.100000
v 0.149510 0.500000 0.998387
v -0.001614 0.500000 1.149510
v -0.175245 0.500000 0.749193
v -0.451913 0.460000 0.865258
v -0.121815 0.500000 0.656650
v -0.094157 0.500000 0.553431
v 0.256370 0.500000 0.813299
v -0.998387 0.500000 -0.149510
v -0.813299 0.500000 -0.256370
v -0.749193 0.500000 0.175245
v -0.840367 0.460000 0.640985
v -0.865258 0.460000 0.451913
v -0.343350 0.500000 0.878185
v -0.391999 0.500000 1.073185
v -0.446570 0.500000 0.905843
v 0.120004 -0.260000 -0.170000
v 0.154004 -0.260000 -0.154000
v 0.170004 -0.260000 -0.120000
v -0.100000 -0.260000 1.130000
v 0.170004 -0.260000 1.120000
v 0.120004 -0.260000 1.170000
v -1.130004 0.260000 0.900000
v -1.170004 0.500000 0.900000
v -1.130004 0.500000 0.900000
v -1.170004 0.500000 1.120000
v -0.656649 0.500000 0.121815
v -0.100000 0.500000 -0.130000
v -0.900000 0.260000 -0.170000
v 0.154004 0.260000 -0.154000
v 0.120004 0.260000 -0.170000
v 0.170004 0.260000 -0.120000
v -0.100000 0.260000 -0.130000
v 0.170004 -0.500000 -0.120000
v 0.154004 -0.500000 -0.154000
v 0.120004 -0.500000 -0.170000
v -0.616999 0.500000 1.073185
v -0.553430 0.500000 0.905843
v 0.154004 -0.260000 1.154000
v -0.900000 0.260000 1.130000
v 0.130004 -0.260000 0.900000
v 0.170004 -0.260000 0.900000
v -0.100000 0.500000 1.130000
v 0.130004 0.500000 0.900000
v 0.170004 0.500000 1.120000
v -0.393139 0.500000 -0.311685
v -0.159633 0.460000 0.359016
v 0.149510 0.500000 0.001614
v -0.840367 0.460000 0.359016
v -0.865258 0.460000 0.548088
v 0.130004 -0.500000 0.100000
v -0.121815 0.500000 0.343351
v 0.311685 0.500000 0.393140
v -0.094157 0.500000 0.446570
v -1.311685 0.500000 0.606860
v -1.170004 -0.500000 -0.120000
v -0.606860 0.500000 -0.311685
v -0.553430 0.500000 0.094157
v 0.170004 -0.260000 0.100000
v 0.130004 -0.260000 0.100000
v -0.900000 -0.500000 1.130000
v -0.656649 0.500000 0.878185
v -0.207721 0.460000 0.275726
v 0.256370 0.500000 0.186701
v -0.100000 -0.260000 -0.130000
v -1.256370 0.500000 0.186701
v -1.149510 0.500000 0.001614
v -0.824755 0.500000 0.250807
v 0.130004 0.260000 0.100000
v -0.100000 0.260000 -0.170000
v -0.134742 0.460000 0.451913
v -0.134742 0.460000 0.548088
v -0.159633 0.460000 0.640985
v -0.724274 0.460000 0.207721
v -0.900000 -0.260000 -0.170000
v -0.900000 -0.260000 -0.130000
v -1.120004 -0.260000 -0.170000
v -0.900000 0.500000 1.130000
v -0.900000 0.500000 1.170000
v -1.120004 0.500000 1.170000
v -1.130004 -0.260000 0.100000
v -1.170004 -0.260000 -0.120000
v -0.640985 0.460000 0.159633
v -0.275726 0.460000 0.792280
v -0.359015 0.460000 0.840367
v -0.548087 0.460000 0.134742
v -0.640984 0.460000 0.840367
v -1.120004 -0.500000 1.170000
v -0.100000 -0.500000 -0.170000
v -0.100000 -0.500000 -0.130000
v -0.749193 0.500000 0.824755
v -1.149510 0.500000 0.998386
v -0.824755 0.500000 0.749194
v -0.900000 -0.260000 1.170000
v 0.120004 0.500000 1.170000
v -0.100000 0.500000 1.170000
v -1.130004 -0.260000 0.900000
v -0.100000 -0.260000 1.170000
v 0.170004 -0.500000 0.100000
v 0.170004 0.260000 0.100000
v -0.900000 0.500000 -0.130000
v -1.120004 0.500000 -0.170000
v -1.154004 0.260000 -0.154000
v -0.100000 0.500000 -0.170000
v 0.120004 0.500000 -0.170000
v -0.250807 0.500000 0.824755
v -0.900000 0.500000 -0.170000
v -0.813299 0.500000 1.256370
v -0.998387 0.500000 1.149510
v 0.311685 0.500000 0.606861
v -0.186701 0.500000 1.256370
v -0.319999 0.500000 1.291885
v -0.679999 0.500000 1.291885
v -1.170004 0.260000 0.900000
v -0.905843 0.500000 0.553431
v -1.154004 0.500000 1.154000
v -1.256370 0.500000 0.813299
v -0.878185 0.500000 0.656650
v -0.100000 0.260000 1.170000
v 0.120004 0.260000 1.170000
v -0.900000 0.260000 1.170000
v -1.130004 -0.500000 0.100000
v -1.154004 -0.260000 1.154000
v -1.170004 0.260000 0.100000
v 0.154004 0.260000 1.154000
v -1.154004 -0.500000 -0.154000
v 0.170004 0.500000 0.900000
v 0.154004 0.500000 -0.154000
v 0.170004 0.260000 0.900000
v -1.170004 -0.260000 0.100000
v -0.724274 0.460000 0.792280
v 0.154004 0.500000 1.154000
v -1.154004 0.500000 -0.154000
v -1.154004 -0.260000 -0.154000
v -0.100000 -0.260000 -0.170000
v -0.900000 -0.500000 1.170000
v -0.100000 -0.500000 1.170000
v -1.170004 -0.500000 0.100000
v -1.170004 -0.260000 0.900000
v 0.170004 -0.500000 0.900000
v -1.154004 -0.500000 1.154000
v -0.792280 0.460000 0.724274
v 0.289917 -0.460000 0.827194
v 0.149510 -0.500000 0.998386
v 0.178317 -0.460000 1.020491
v -1.347685 -0.300000 0.611600
v -1.347685 -0.460000 0.388400
v -1.347685 -0.300000 0.388400
v 0.020491 -0.300000 -0.178317
v -0.172806 -0.460000 -0.289917
v 0.020491 -0.460000 -0.178317
v 0.347685 0.300000 0.388400
v 0.347685 0.460000 0.611600
v 0.347685 0.460000 0.388400
v -0.388400 -0.460000 1.347685
v -0.338001 -0.460000 1.334185
v -0.401001 -0.460000 1.109188
v -1.144004 0.300000 -0.210000
v -1.190126 0.459756 -0.190122
v -1.189926 0.300000 -0.190078
v 0.178317 0.300000 1.020491
v 0.020491 0.460000 1.178317
v 0.178317 0.460000 1.020491
v -0.827195 0.300000 1.289917
v -0.606861 0.260000 1.311685
v -0.813299 0.260000 1.256370
v -0.581001 -0.400000 1.361185
v -0.419001 -0.380000 1.334185
v -0.419001 -0.400000 1.361185
v -1.210004 0.300000 0.100000
v -1.144004 -0.300000 1.210000
v -0.900000 -0.460000 1.210000
v -1.144004 -0.460000 1.210000
v 0.289917 0.300000 0.172806
v 0.289917 0.460000 0.172806
v 0.289917 -0.300000 0.172806
v 0.178317 -0.460000 -0.020491
v 0.289917 -0.460000 0.172806
v 0.347685 -0.300000 0.388400
v 0.347685 -0.460000 0.388400
v -0.900000 0.300000 -0.210000
v -1.289917 0.300000 0.827194
v -1.149510 0.260000 0.998386
v -1.256370 0.260000 0.813299
v -1.311685 0.260000 0.606860
v 0.289917 0.300000 0.827195
v 0.289917 0.460000 0.827195
v -0.900000 0.300000 1.210000
v 0.347685 -0.460000 0.611600
v 0.311685 -0.500000 0.606860
v -1.178317 0.300000 1.020491
v -0.998387 0.260000 1.149510
v -0.590001 -0.460000 1.109188
v -0.608001 -0.500000 1.073185
v -0.680001 -0.500000 1.291885
v -1.210004 -0.300000 -0.144000
v -1.189926 -0.300000 -0.190078
v -1.210004 -0.460000 0.100000
v -0.186701 -0.500000 -0.256370
v -0.001614 -0.500000 -0.149510
v -0.383001 -0.500000 1.073185
v -0.827195 0.460000 1.289917
v 0.311685 0.260000 0.393140
v 0.256370 0.260000 0.186701
v 0.149510 0.260000 0.001614
v -0.388400 0.300000 -0.347685
v -0.172805 0.460000 -0.289917
v -0.388400 0.460000 -0.347685
v -1.020491 0.300000 1.178317
v -1.020491 0.460000 -0.178317
v -0.827194 0.460000 -0.289917
v -1.289917 0.300000 0.172806
v -1.178317 0.460000 -0.020491
v -1.289917 0.460000 0.172806
v 0.289917 -0.300000 0.827194
v -0.320001 -0.500000 1.291885
v -0.172806 -0.460000 1.289917
v -0.186701 -0.500000 1.256370
v 0.178317 0.460000 -0.020491
v 0.020491 0.460000 -0.178317
v 0.020491 0.300000 1.178317
v 0.149510 0.260000 0.998387
v -0.001614 0.260000 1.149510
v -0.172806 0.300000 1.289917
v -0.186701 0.260000 1.256370
v -0.393140 -0.500000 -0.311685
v -0.388401 -0.460000 -0.347685
v 0.178317 0.300000 -0.020491
v -0.827194 0.300000 -0.289917
v -0.611599 0.460000 -0.347685
v 0.178317 -0.300000 -0.020491
v -1.020491 -0.300000 1.178317
v -1.149510 -0.260000 0.998387
v -0.998386 -0.260000 1.149510
v 0.020491 -0.460000 1.178317
v -0.001613 0.260000 -0.149510
v -0.607999 0.467071 1.354821
v -0.391999 0.482929 1.340549
v -0.391999 0.467071 1.354821
v -1.189926 0.300000 1.190078
v -1.144004 0.300000 1.210000
v -1.311685 -0.260000 0.606861
v -0.827194 -0.300000 1.289917
v -0.827194 -0.460000 1.289917
v -0.900000 0.460000 -0.210000
v -1.144004 0.460000 -0.210000
v -1.190126 0.459756 1.190122
v -1.210004 0.300000 1.144000
v -1.289917 0.460000 0.827194
v -0.611599 0.300000 -0.347685
v -0.393139 0.260000 -0.311685
v -0.611600 -0.300000 1.347685
v -0.662001 -0.460000 1.334185
v 0.256370 -0.260000 0.813299
v 0.149510 -0.260000 0.998386
v -0.393139 -0.260000 1.311685
v 0.311685 -0.260000 0.606861
v -0.434479 0.460000 1.145185
v -0.381559 0.460000 1.334185
v -0.434479 0.490000 1.163185
v -0.396499 0.450000 1.361185
v -0.603499 0.450000 1.361185
v -0.606161 0.490000 1.325185
v -0.618439 0.460000 1.334185
v -0.573079 0.490000 1.163185
v -0.580999 0.380000 1.334185
v -0.580999 0.400000 1.361185
v -0.611601 -0.460000 -0.347685
v -0.813299 -0.500000 -0.256370
v -0.606861 -0.500000 -0.311685
v -0.607999 0.482929 1.340549
v -0.394235 0.490000 1.325185
v -0.418999 0.400000 1.361185
v -0.409999 0.460000 1.109188
v -0.337999 0.460000 1.334185
v -1.210004 0.460000 0.900000
v -0.573079 0.460000 1.145185
v -0.813299 -0.500000 1.256370
v -1.178317 -0.300000 -0.020491
v -1.020491 -0.460000 -0.178317
v -1.020491 -0.300000 -0.178317
v 0.311685 0.260000 0.606861
v 0.347685 0.300000 0.611600
v -0.388400 0.300000 1.347685
v -0.611600 0.460000 1.347685
v -0.388400 0.460000 1.347685
v -0.001614 -0.260000 -0.149510
v 0.149510 -0.260000 0.001614
v -0.388400 -0.300000 1.347685
v -1.210004 -0.460000 -0.144000
v -1.190126 -0.459756 -0.190122
v 0.020491 -0.300000 1.178317
v -1.289917 -0.300000 0.172806
v -1.178317 -0.460000 -0.020491
v -1.020491 -0.460000 1.178317
v 0.347685 -0.300000 0.611600
v -1.178317 0.460000 1.020491
v -1.178317 -0.460000 1.020491
v -1.178317 -0.300000 1.020491
v -0.172806 -0.300000 -0.289917
v -1.210004 -0.460000 0.900000
v -1.210004 -0.460000 1.144000
v -0.392001 -0.467071 1.354821
v -0.603501 -0.450000 1.361185
v -0.396501 -0.450000 1.361185
v -0.998387 -0.500000 -0.149510
v -1.289917 -0.460000 0.172806
v 0.149510 -0.500000 0.001614
v -0.611601 -0.300000 -0.347685
v -0.172806 -0.300000 1.289917
v -0.186701 -0.260000 1.256370
v -1.289917 -0.300000 0.827195
v 0.256370 -0.500000 0.186701
v -1.210004 0.300000 -0.144000
v -1.210004 0.460000 -0.144000
v -1.347685 0.460000 0.611600
v -1.347685 0.300000 0.611600
v 0.311685 -0.500000 0.393140
v -0.186701 -0.260000 -0.256370
v 0.144004 0.460000 -0.210000
v 0.190126 0.459756 -0.190122
v -0.606860 -0.260000 1.311685
v -1.289917 -0.460000 0.827195
v -0.998386 -0.500000 1.149510
v -1.149510 -0.500000 0.998387
v -1.256370 -0.500000 0.813299
v -0.001613 -0.260000 1.149510
v -0.186701 0.260000 -0.256370
v -1.149510 -0.500000 0.001614
v -1.256371 -0.500000 0.186701
v -0.001613 -0.500000 1.149510
v -0.813299 -0.260000 1.256371
v -1.347685 -0.460000 0.611600
v -1.311685 -0.500000 0.606861
v -1.210004 0.300000 0.900000
v -1.311685 -0.260000 0.393140
v -0.827195 -0.300000 -0.289917
v 0.256370 0.260000 0.813299
v -0.827195 -0.460000 -0.289917
v -0.172805 0.300000 -0.289917
v -0.418999 0.380000 1.334185
v -1.256370 -0.260000 0.813299
v -0.606861 -0.260000 -0.311685
v -0.813299 -0.260000 -0.256370
v -0.100000 -0.300000 -0.210000
v -1.020491 0.300000 -0.178317
v -1.178317 0.300000 -0.020491
v -1.149510 0.260000 0.001614
v -0.611600 -0.460000 1.347685
v -0.565521 -0.460000 1.145185
v -0.618441 -0.460000 1.334185
v -0.565521 -0.490000 1.163185
v -1.210004 -0.300000 0.900000
v -0.393839 -0.490000 1.325185
v -0.381561 -0.460000 1.334185
v -0.426921 -0.490000 1.163185
v -0.172806 0.460000 1.289917
v -0.100000 0.460000 -0.210000
v -0.100000 0.300000 -0.210000
v 0.144004 0.300000 -0.210000
v -0.605765 -0.490000 1.325185
v -0.426921 -0.460000 1.145185
v -0.608001 -0.482929 1.340549
v -0.392001 -0.482929 1.340549
v -0.608001 -0.467071 1.354821
v 0.210004 0.460000 0.100000
v 0.210004 0.460000 -0.144000
v 0.210004 -0.460000 0.100000
v 0.210004 -0.460000 -0.144000
v -0.393140 -0.260000 -0.311685
v 0.178317 -0.300000 1.020491
v 0.256370 -0.260000 0.186701
v 0.311685 -0.260000 0.393140
v -0.100000 0.460000 1.210000
v -1.311685 0.260000 0.393140
v 0.210004 0.300000 0.900000
v -0.900000 -0.300000 1.210000
v 0.144004 0.460000 1.210000
v -1.256371 -0.260000 0.186702
v 0.144004 -0.300000 1.210000
v -1.210004 0.460000 1.144000
v 0.210004 0.300000 -0.144000
v 0.210004 0.300000 1.144000
v 0.190126 0.459756 1.190122
v 0.210004 0.460000 1.144000
v -0.900000 0.460000 1.210000
v -1.144004 0.460000 1.210000
v 0.210004 -0.460000 1.144000
v 0.210004 0.300000 0.100000
v 0.210004 -0.300000 0.100000
v -0.598999 0.460000 1.109188
v -1.256370 0.260000 0.186701
v -0.606860 0.260000 -0.311685
v 0.144004 0.300000 1.210000
v 0.189926 0.300000 1.190078
v 0.210004 -0.300000 0.900000
v 0.210004 -0.300000 1.144000
v -1.311685 -0.500000 0.393140
v 0.210004 -0.300000 -0.144000
v -1.020491 0.460000 1.178317
v -0.998387 -0.260000 -0.149509
v -0.998387 0.260000 -0.149510
v 0.190126 -0.459756 1.190122
v 0.144004 -0.460000 1.210000
v -1.144004 -0.300000 -0.210000
v -1.144004 -0.460000 -0.210000
v -0.100000 -0.460000 1.210000
v -0.581001 -0.380000 1.334185
v -1.210004 -0.300000 1.144000
v -1.189926 -0.300000 1.190078
v -1.190126 -0.459756 1.190122
v 0.190126 -0.459756 -0.190122
v 0.144004 -0.300000 -0.210000
v -0.100000 0.300000 1.210000
v -0.100000 -0.300000 1.210000
v 0.210004 -0.460000 0.900000
v 0.189926 0.300000 -0.190078
v -0.611600 0.300000 1.347685
v -0.661999 0.460000 1.334185
v 0.144004 -0.460000 -0.210000
v 0.210004 0.460000 0.900000
v 0.189926 -0.300000 -0.190078
v -1.149510 -0.260000 0.001614
v 0.256370 -0.500000 0.813299
v -1.210004 -0.300000 0.100000
v -1.347685 0.460000 0.388400
v -0.393140 0.260000 1.311685
v -0.100000 -0.460000 -0.210000
v -0.900000 -0.460000 -0.210000
v 0.189926 -0.300000 1.190078
v 0.000000 -0.600000 0.999999
v -0.130000 -0.500000 0.870000
v -0.130000 -0.500000 1.130000
v 0.130000 -0.500000 0.870000
v 0.130004 -0.500000 1.130000
v 0.000000 0.600000 0.000000
v -0.130000 0.500000 0.130000
v -0.130000 0.500000 -0.130000
v 0.130000 0.500000 0.130000
v 0.130000 0.500000 -0.130000
v -1.000000 -0.600000 1.000000
v -1.130004 -0.500000 1.130000
v -0.870000 -0.500000 1.130000
v -1.130000 -0.500000 0.870000
v -0.870000 -0.500000 0.870000
v 0.130000 -0.500000 0.130000
v 0.000000 -0.600000 -0.000000
v -0.130000 -0.500000 0.130000
v 0.130000 -0.500000 -0.130000
v -0.130000 -0.500000 -0.130000
v -1.130000 -0.500000 0.130000
v -1.000000 -0.600000 -0.000000
v -1.130004 -0.500000 -0.130000
v -0.870000 -0.500000 0.130000
v -0.870000 -0.500000 -0.130000
v 0.130004 0.500000 1.130000
v 0.000000 0.600000 0.999999
v 0.130000 0.500000 0.870000
v -0.130000 0.500000 1.130000
v -0.130000 0.500000 0.870000
v -1.130000 0.500000 0.870000
v -1.000000 0.600000 1.000000
v -1.130000 0.500000 1.130000
v -0.870000 0.500000 0.870000
v -0.870000 0.500000 1.130000
v -1.000000 0.600000 0.000000
v -1.130000 0.500000 0.130000
v -1.130000 0.500000 -0.130000
v -0.870000 0.500000 0.130000
v -0.870000 0.500000 -0.130000
v -0.388401 -0.300000 -0.347685
v 0.020491 0.300000 -0.178317
v -0.813299 0.260000 -0.256370
v -1.347685 0.300000 0.388400
v -1.210004 0.460000 0.100000
v -0.900000 -0.300000 -0.210000
vt 0.359883 0.848333
vt 0.359883 0.848333
vt 0.359883 0.848333
vt 0.476054 0.810956
vt 0.476054 0.810956
vt 0.476054 0.848333
vt 0.389700 0.658164
vt 0.412819 0.697503
vt 0.412799 0.658913
vt 0.476054 0.848333
vt 0.476054 0.810956
vt 0.476054 0.810956
vt 0.385373 0.693867
vt 0.369392 0.709848
vt 0.390091 0.697465
vt 0.397260 0.848333
vt 0.359883 0.848333
vt 0.359883 0.848333
vt 0.362185 0.700457
vt 0.381763 0.689157
vt 0.379478 0.683685
vt 0.359883 0.810956
vt 0.359883 0.848333
vt 0.397260 0.848333
vt 0.417535 0.693919
vt 0.440725 0.700457
vt 0.421165 0.689251
vt 0.476054 0.848333
vt 0.476054 0.848333
vt 0.476054 0.848333
vt 0.476054 0.810956
vt 0.438677 0.848333
vt 0.397260 0.848333
vt 0.359883 0.848333
vt 0.359883 0.848333
vt 0.390091 0.697465
vt 0.381763 0.689157
vt 0.385373 0.693867
vt 0.476054 0.810956
vt 0.476054 0.848333
vt 0.476054 0.810956
vt 0.438677 0.848333
vt 0.476054 0.848333
vt 0.438677 0.848333
vt 0.359883 0.810956
vt 0.378783 0.638515
vt 0.389700 0.658164
vt 0.389719 0.633985
vt 0.406701 0.656313
vt 0.385141 0.661768
vt 0.369392 0.645721
vt 0.381624 0.666468
vt 0.413191 0.721584
vt 0.407335 0.699755
vt 0.401455 0.723129
vt 0.424302 0.678025
vt 0.421165 0.689251
vt 0.400648 0.655245
vt 0.406701 0.656313
vt 0.405301 0.646270
vt 0.359883 0.848333
vt 0.359883 0.848333
vt 0.359883 0.848333
vt 0.397260 0.848333
vt 0.359883 0.848333
vt 0.359883 0.848333
vt 0.359883 0.810956
vt 0.476054 0.810956
vt 0.476054 0.848333
vt 0.476054 0.810956
vt 0.401453 0.700517
vt 0.438677 0.848333
vt 0.397260 0.848333
vt 0.359883 0.848333
vt 0.359883 0.848333
vt 0.359883 0.848333
vt 0.397260 0.848333
vt 0.476054 0.848333
vt 0.476054 0.848333
vt 0.476054 0.848333
vt 0.412799 0.658913
vt 0.421154 0.653502
vt 0.359883 0.848333
vt 0.397260 0.848333
vt 0.359883 0.810956
vt 0.359883 0.810956
vt 0.438677 0.810956
vt 0.476054 0.848333
vt 0.476054 0.810956
vt 0.378783 0.717054
vt 0.378679 0.677813
vt 0.357655 0.689521
vt 0.417535 0.693919
vt 0.423470 0.683826
vt 0.476054 0.810956
vt 0.378679 0.677813
vt 0.379414 0.671940
vt 0.357655 0.666049
vt 0.445255 0.689521
vt 0.476054 0.848333
vt 0.389719 0.721584
vt 0.395572 0.699737
vt 0.359883 0.810956
vt 0.359883 0.810956
vt 0.438677 0.810956
vt 0.417878 0.662504
vt 0.379478 0.683685
vt 0.356110 0.677785
vt 0.397260 0.848333
vt 0.433519 0.709848
vt 0.412819 0.697503
vt 0.424128 0.717054
vt 0.359883 0.810956
vt 0.397260 0.848333
vt 0.379414 0.671940
vt 0.381624 0.666468
vt 0.385141 0.661768
vt 0.407335 0.699755
vt 0.397260 0.848333
vt 0.359883 0.848333
vt 0.397260 0.848333
vt 0.438677 0.848333
vt 0.476054 0.848333
vt 0.438677 0.848333
vt 0.359883 0.810956
vt 0.359883 0.848333
vt 0.401453 0.700517
vt 0.400648 0.655245
vt 0.394966 0.655918
vt 0.395572 0.699737
vt 0.417878 0.662504
vt 0.476054 0.848333
vt 0.438677 0.848333
vt 0.438677 0.810956
vt 0.421464 0.666982
vt 0.423618 0.672270
vt 0.445255 0.666049
vt 0.397260 0.848333
vt 0.476054 0.848333
vt 0.438677 0.848333
vt 0.359883 0.810956
vt 0.397260 0.848333
vt 0.476054 0.810956
vt 0.359883 0.810956
vt 0.438677 0.810956
vt 0.476054 0.848333
vt 0.359883 0.848333
vt 0.438677 0.848333
vt 0.476054 0.848333
vt 0.394966 0.655918
vt 0.438677 0.848333
vt 0.440725 0.655112
vt 0.433519 0.645721
vt 0.362185 0.655112
vt 0.401455 0.632440
vt 0.405244 0.632939
vt 0.430878 0.643695
vt 0.359883 0.810956
vt 0.423470 0.683826
vt 0.476054 0.848333
vt 0.446800 0.677785
vt 0.424302 0.678025
vt 0.397260 0.848333
vt 0.359883 0.848333
vt 0.397260 0.848333
vt 0.476054 0.810956
vt 0.359883 0.848333
vt 0.359883 0.810956
vt 0.359883 0.848333
vt 0.476054 0.848333
vt 0.476054 0.810956
vt 0.476054 0.848333
vt 0.359883 0.810956
vt 0.359883 0.810956
vt 0.421464 0.666982
vt 0.476054 0.848333
vt 0.476054 0.848333
vt 0.359883 0.848333
vt 0.397260 0.848333
vt 0.438677 0.848333
vt 0.438677 0.848333
vt 0.476054 0.810956
vt 0.359883 0.810956
vt 0.476054 0.810956
vt 0.476054 0.848333
vt 0.423618 0.672270
vt 0.500113 0.809329
vt 0.491892 0.809329
vt 0.492066 0.825772
vt 0.417898 0.743557
vt 0.409677 0.743557
vt 0.409677 0.809329
vt 0.541221 0.743557
vt 0.541221 0.809329
vt 0.549443 0.809329
vt 0.409677 0.743557
vt 0.409677 0.809329
vt 0.417898 0.809329
vt 0.467227 0.809329
vt 0.473693 0.850801
vt 0.472357 0.809329
vt 0.404163 0.889750
vt 0.404163 0.891778
vt 0.431775 0.891778
vt 0.434341 0.743557
vt 0.434341 0.809329
vt 0.442563 0.809329
vt 0.475449 0.743557
vt 0.475274 0.727114
vt 0.467402 0.727114
vt 0.861418 0.701273
vt 0.879524 0.701011
vt 0.881501 0.705055
vt 0.355843 0.810956
vt 0.404163 0.889750
vt 0.431775 0.889750
vt 0.431775 0.852373
vt 0.401455 0.743557
vt 0.401455 0.809329
vt 0.524778 0.743557
vt 0.524778 0.809329
vt 0.532999 0.809329
vt 0.516556 0.743557
vt 0.516556 0.809329
vt 0.397260 0.852373
vt 0.500113 0.743557
vt 0.499939 0.727114
vt 0.492066 0.727114
vt 0.508160 0.727114
vt 0.500288 0.727114
vt 0.426120 0.743557
vt 0.426120 0.809329
vt 0.397260 0.852373
vt 0.508160 0.825772
vt 0.508335 0.809329
vt 0.434516 0.825772
vt 0.491892 0.743557
vt 0.491717 0.727114
vt 0.483845 0.727114
vt 0.473693 0.850801
vt 0.483341 0.901448
vt 0.483341 0.841152
vt 0.355843 0.848333
vt 0.361197 0.848333
vt 0.357871 0.850361
vt 0.480095 0.810956
vt 0.541396 0.825772
vt 0.549268 0.825772
vt 0.387566 0.850801
vt 0.332093 0.841152
vt 0.392389 0.841152
vt 0.473060 0.825772
vt 0.475274 0.825772
vt 0.475449 0.809329
vt 0.456314 0.666049
vt 0.456314 0.689521
vt 0.454769 0.677785
vt 0.368569 0.743557
vt 0.368569 0.809329
vt 0.376791 0.809329
vt 0.483670 0.743557
vt 0.483496 0.727114
vt 0.541396 0.825772
vt 0.549443 0.809329
vt 0.541221 0.809329
vt 0.524778 0.743557
vt 0.524778 0.809329
vt 0.532999 0.809329
vt 0.524953 0.825772
vt 0.500113 0.743557
vt 0.438677 0.852373
vt 0.473060 0.825772
vt 0.475274 0.825772
vt 0.475449 0.809329
vt 0.393234 0.809329
vt 0.385012 0.809329
vt 0.385187 0.825772
vt 0.409851 0.825772
vt 0.417724 0.825772
vt 0.442563 0.743557
vt 0.442388 0.727114
vt 0.434516 0.727114
vt 0.409502 0.727114
vt 0.450784 0.743557
vt 0.450610 0.727114
vt 0.442737 0.727114
vt 0.360173 0.825772
vt 0.360348 0.809329
vt 0.352126 0.809329
vt 0.393234 0.743557
vt 0.401281 0.727114
vt 0.352126 0.743557
vt 0.352126 0.809329
vt 0.360348 0.809329
vt 0.532999 0.743557
vt 0.442563 0.743557
vt 0.442388 0.727114
vt 0.434516 0.727114
vt 0.360522 0.825772
vt 0.483670 0.809329
vt 0.475623 0.825772
vt 0.393059 0.727114
vt 0.385187 0.727114
vt 0.881200 0.693941
vt 0.859701 0.693827
vt 0.859653 0.691565
vt 0.418073 0.825772
vt 0.425945 0.825772
vt 0.359883 0.847019
vt 0.359883 0.852373
vt 0.357851 0.850365
vt 0.417724 0.727114
vt 0.450784 0.809329
vt 0.450784 0.743557
vt 0.431775 0.889750
vt 0.431775 0.852373
vt 0.431775 0.732162
vt 0.404163 0.732162
vt 0.404163 0.732162
vt 0.500113 0.809329
vt 0.492066 0.825772
vt 0.499939 0.825772
vt 0.360348 0.743557
vt 0.368394 0.727114
vt 0.454277 0.809329
vt 0.459006 0.743557
vt 0.545458 0.677785
vt 0.522786 0.638515
vt 0.543913 0.666049
vt 0.376965 0.825772
vt 0.384837 0.825772
vt 0.508160 0.727114
vt 0.500288 0.727114
vt 0.861917 0.666845
vt 0.863974 0.671830
vt 0.854314 0.692983
vt 0.880860 0.695940
vt 0.860004 0.695909
vt 0.881351 0.689778
vt 0.879851 0.672278
vt 0.886152 0.693353
vt 0.881501 0.705055
vt 0.879524 0.701011
vt 0.368569 0.809329
vt 0.368744 0.825772
vt 0.376616 0.825772
vt 0.881362 0.691734
vt 0.882521 0.694489
vt 0.858158 0.691229
vt 0.859861 0.689570
vt 0.861418 0.701273
vt 0.473693 0.850801
vt 0.473693 0.911096
vt 0.483341 0.901448
vt 0.480095 0.810956
vt 0.882335 0.668223
vt 0.859854 0.689847
vt 0.882742 0.691472
vt 0.881401 0.691443
vt 0.858222 0.694322
vt 0.859782 0.694088
vt 0.880640 0.695622
vt 0.434167 0.825772
vt 0.450959 0.825772
vt 0.453501 0.825772
vt 0.393234 0.743557
vt 0.385012 0.743557
vt 0.385012 0.809329
vt 0.417898 0.743557
vt 0.417724 0.727114
vt 0.459006 0.743557
vt 0.459006 0.809329
vt 0.467227 0.809329
vt 0.541046 0.727114
vt 0.533174 0.727114
vt 0.467227 0.743557
vt 0.480095 0.848333
vt 0.479103 0.848333
vt 0.474741 0.848333
vt 0.483670 0.743557
vt 0.401455 0.743557
vt 0.393234 0.809329
vt 0.442563 0.809329
vt 0.508335 0.743557
vt 0.491892 0.809329
vt 0.434341 0.743557
vt 0.434341 0.809329
vt 0.352126 0.743557
vt 0.480095 0.848333
vt 0.480095 0.810956
vt 0.881200 0.693941
vt 0.880860 0.695940
vt 0.860004 0.695909
vt 0.376965 0.825772
vt 0.384837 0.825772
vt 0.401455 0.809329
vt 0.533174 0.825772
vt 0.541046 0.825772
vt 0.368569 0.743557
vt 0.475449 0.743557
vt 0.475274 0.727114
vt 0.467402 0.727114
vt 0.426120 0.743557
vt 0.434167 0.727114
vt 0.524953 0.825772
vt 0.404163 0.732162
vt 0.431775 0.732162
vt 0.431775 0.732162
vt 0.508335 0.809329
vt 0.508335 0.743557
vt 0.516731 0.825772
vt 0.524603 0.825772
vt 0.549443 0.743557
vt 0.549268 0.727114
vt 0.476054 0.852373
vt 0.476054 0.847020
vt 0.476054 0.851359
vt 0.467053 0.727114
vt 0.459180 0.727114
vt 0.426120 0.809329
vt 0.442737 0.825772
vt 0.450610 0.825772
vt 0.458831 0.727114
vt 0.499939 0.727114
vt 0.492066 0.727114
vt 0.426294 0.825772
vt 0.434167 0.825772
vt 0.491717 0.727114
vt 0.483845 0.727114
vt 0.483496 0.727114
vt 0.376616 0.727114
vt 0.368744 0.727114
vt 0.393408 0.825772
vt 0.401281 0.825772
vt 0.483845 0.825772
vt 0.450610 0.727114
vt 0.442737 0.727114
vt 0.417898 0.809329
vt 0.418073 0.825772
vt 0.425945 0.825772
vt 0.404163 0.732162
vt 0.404163 0.732162
vt 0.431775 0.732162
vt 0.508509 0.825772
vt 0.516382 0.825772
vt 0.355843 0.810956
vt 0.352301 0.825772
vt 0.508160 0.825772
vt 0.409502 0.727114
vt 0.376791 0.743557
vt 0.336917 0.850801
vt 0.425945 0.727114
vt 0.376791 0.809329
vt 0.549268 0.825772
vt 0.376791 0.743557
vt 0.859317 0.705946
vt 0.425945 0.727114
vt 0.376616 0.727114
vt 0.368744 0.727114
vt 0.433519 0.645721
vt 0.421154 0.653502
vt 0.440725 0.655112
vt 0.368744 0.825772
vt 0.376616 0.825772
vt 0.397260 0.852373
vt 0.450959 0.727114
vt 0.541221 0.743557
vt 0.533174 0.727114
vt 0.532999 0.743557
vt 0.459006 0.809329
vt 0.861917 0.666845
vt 0.863974 0.671830
vt 0.854314 0.692983
vt 0.417724 0.825772
vt 0.355843 0.810956
vt 0.881351 0.689778
vt 0.879851 0.672278
vt 0.886152 0.693353
vt 0.450784 0.809329
vt 0.431775 0.852373
vt 0.404163 0.889750
vt 0.404163 0.852373
vt 0.882521 0.694489
vt 0.858158 0.691229
vt 0.859861 0.689570
vt 0.473693 0.911096
vt 0.430878 0.643695
vt 0.882335 0.668223
vt 0.859653 0.691565
vt 0.859854 0.689847
vt 0.882742 0.691472
vt 0.881401 0.691443
vt 0.858222 0.694322
vt 0.859782 0.694088
vt 0.880640 0.695622
vt 0.480095 0.810956
vt 0.480095 0.848333
vt 0.881362 0.691734
vt 0.859701 0.693827
vt 0.440725 0.700457
vt 0.433519 0.709848
vt 0.480095 0.848333
vt 0.480095 0.810956
vt 0.360173 0.727114
vt 0.352301 0.727114
vt 0.434516 0.825772
vt 0.491892 0.743557
vt 0.424128 0.717054
vt 0.522786 0.717054
vt 0.539383 0.700457
vt 0.532177 0.709848
vt 0.438677 0.852373
vt 0.539383 0.700457
vt 0.543913 0.666049
vt 0.543913 0.689521
vt 0.355843 0.810956
vt 0.539383 0.655112
vt 0.397260 0.852373
vt 0.359883 0.852373
vt 0.476054 0.847020
vt 0.476054 0.852373
vt 0.369392 0.645721
vt 0.405301 0.646270
vt 0.378783 0.638515
vt 0.401630 0.727114
vt 0.359883 0.847019
vt 0.359883 0.852373
vt 0.431775 0.732162
vt 0.431775 0.769539
vt 0.404163 0.769539
vt 0.532177 0.645721
vt 0.434167 0.727114
vt 0.355843 0.848333
vt 0.361197 0.848333
vt 0.431775 0.889750
vt 0.431775 0.891778
vt 0.404163 0.732162
vt 0.431775 0.732162
vt 0.431775 0.732162
vt 0.431775 0.852373
vt 0.431775 0.889750
vt 0.404163 0.889750
vt 0.426294 0.825772
vt 0.474741 0.848333
vt 0.480095 0.848333
vt 0.355843 0.810956
vt 0.454277 0.809329
vt 0.474741 0.848333
vt 0.480095 0.848333
vt 0.355843 0.810956
vt 0.473693 0.850801
vt 0.483341 0.841152
vt 0.483341 0.901448
vt 0.516731 0.727114
vt 0.404163 0.769539
vt 0.431775 0.769539
vt 0.431775 0.732162
vt 0.352301 0.825772
vt 0.369392 0.709848
vt 0.362185 0.700457
vt 0.549443 0.743557
vt 0.418073 0.727114
vt 0.361197 0.848333
vt 0.355843 0.848333
vt 0.522786 0.717054
vt 0.488377 0.721584
vt 0.532177 0.709848
vt 0.404163 0.889750
vt 0.404163 0.891778
vt 0.431775 0.891778
vt 0.355843 0.810956
vt 0.355843 0.848333
vt 0.356110 0.677785
vt 0.357655 0.666049
vt 0.474741 0.848333
vt 0.357655 0.689521
vt 0.483496 0.825772
vt 0.475623 0.825772
vt 0.474741 0.848333
vt 0.361197 0.848333
vt 0.355843 0.848333
vt 0.438677 0.852373
vt 0.355843 0.848333
vt 0.361197 0.848333
vt 0.483670 0.809329
vt 0.361197 0.848333
vt 0.384837 0.727114
vt 0.511849 0.721584
vt 0.404163 0.889750
vt 0.431775 0.889750
vt 0.431775 0.891778
vt 0.431775 0.732162
vt 0.431775 0.732162
vt 0.404163 0.732162
vt 0.476054 0.852373
vt 0.476054 0.851359
vt 0.476054 0.847020
vt 0.385187 0.727114
vt 0.431775 0.732162
vt 0.431775 0.769539
vt 0.404163 0.769539
vt 0.359883 0.847019
vt 0.404163 0.889750
vt 0.431775 0.889750
vt 0.431775 0.891778
vt 0.438677 0.852373
vt 0.438677 0.852373
vt 0.483845 0.825772
vt 0.404163 0.769539
vt 0.431775 0.769539
vt 0.431775 0.732162
vt 0.859317 0.705946
vt 0.476054 0.852373
vt 0.476054 0.847020
vt 0.355843 0.848333
vt 0.357871 0.850361
vt 0.361197 0.848333
vt 0.389719 0.721584
vt 0.431775 0.891778
vt 0.404163 0.732162
vt 0.431775 0.732162
vt 0.442388 0.825772
vt 0.476054 0.852373
vt 0.476054 0.847020
vt 0.431775 0.852373
vt 0.359883 0.852373
vt 0.359883 0.847019
vt 0.479103 0.848333
vt 0.483496 0.825772
vt 0.404163 0.769539
vt 0.397260 0.852373
vt 0.545458 0.677785
vt 0.393059 0.825772
vt 0.431775 0.732162
vt 0.404163 0.732162
vt 0.541046 0.727114
vt 0.474741 0.848333
vt 0.479103 0.848333
vt 0.359883 0.852373
vt 0.359883 0.847019
vt 0.532825 0.825772
vt 0.476054 0.852373
vt 0.397260 0.852373
vt 0.480095 0.810956
vt 0.404163 0.891778
vt 0.431775 0.891778
vt 0.404163 0.732162
vt 0.431775 0.732162
vt 0.467227 0.743557
vt 0.472357 0.809329
vt 0.476054 0.847020
vt 0.476054 0.852373
vt 0.480095 0.848333
vt 0.474741 0.848333
vt 0.359883 0.847019
vt 0.359883 0.852373
vt 0.360522 0.825772
vt 0.368394 0.825772
vt 0.368394 0.825772
vt 0.476054 0.851359
vt 0.480095 0.810956
vt 0.524603 0.727114
vt 0.361197 0.848333
vt 0.355843 0.848333
vt 0.378783 0.717054
vt 0.404163 0.889750
vt 0.404163 0.891778
vt 0.431775 0.891778
vt 0.476054 0.852373
vt 0.476054 0.847020
vt 0.393408 0.727114
vt 0.500288 0.825772
vt 0.404163 0.769539
vt 0.431775 0.732162
vt 0.359883 0.852373
vt 0.359883 0.847019
vt 0.516556 0.809329
vt 0.516731 0.825772
vt 0.532177 0.645721
vt 0.511849 0.633985
vt 0.522786 0.638515
vt 0.476054 0.847020
vt 0.431775 0.889750
vt 0.431775 0.852373
vt 0.483341 0.841152
vt 0.483341 0.901448
vt 0.393408 0.825772
vt 0.431775 0.852373
vt 0.438677 0.852373
vt 0.357851 0.850365
vt 0.541396 0.727114
vt 0.359883 0.847019
vt 0.359883 0.852373
vt 0.418073 0.727114
vt 0.480095 0.848333
vt 0.474741 0.848333
vt 0.479103 0.848333
vt 0.450959 0.825772
vt 0.453501 0.825772
vt 0.031032 0.968854
vt 0.059392 0.997215
vt 0.059392 0.940494
vt 0.002671 0.940494
vt 0.002671 0.997215
vt 0.031032 0.968854
vt 0.059392 0.940494
vt 0.059392 0.997215
vt 0.002671 0.997215
vt 0.002671 0.940494
vt 0.031031 0.968854
vt 0.002671 0.997215
vt 0.059392 0.997215
vt 0.059392 0.940494
vt 0.002671 0.940494
vt 0.002671 0.997215
vt 0.059392 0.997215
vt 0.031032 0.968854
vt 0.002671 0.940494
vt 0.059392 0.940494
vt 0.059392 0.997215
vt 0.059392 0.940494
vt 0.031031 0.968854
vt 0.002671 0.997215
vt 0.002671 0.940494
vt 0.002671 0.997215
vt 0.002671 0.940494
vt 0.031032 0.968854
vt 0.059392 0.997215
vt 0.059392 0.940494
vt 0.059392 0.940494
vt 0.059392 0.997215
vt 0.031031 0.968854
vt 0.002671 0.940494
vt 0.002671 0.997215
vt 0.031031 0.968854
vt 0.059392 0.940494
vt 0.059392 0.997215
vt 0.002671 0.997215
vt 0.002671 0.940494
vt 0.431775 0.889750
vt 0.384837 0.727114
vt 0.376965 0.727114
vt 0.533174 0.825772
vt 0.541046 0.825772
vt 0.357871 0.850361
vt 0.393408 0.727114
vt 0.360348 0.743557
vt 0.368394 0.727114
vt 0.360522 0.727114
vt 0.385012 0.743557
vt 0.532825 0.727114
vt 0.524953 0.727114
vt 0.336917 0.850801
vt 0.357871 0.850361
vt 0.475623 0.727114
vt 0.479103 0.848333
vt 0.467053 0.727114
vt 0.459180 0.727114
vt 0.404163 0.769539
vt 0.404163 0.732162
vt 0.404163 0.852373
vt 0.549268 0.727114
vt 0.508509 0.727114
vt 0.516382 0.727114
vt 0.355843 0.810956
vt 0.409851 0.727114
vt 0.357871 0.850361
vt 0.404163 0.769539
vt 0.404163 0.852373
vt 0.458831 0.727114
vt 0.450959 0.727114
vt 0.401630 0.727114
vt 0.473693 0.911096
vt 0.516556 0.743557
vt 0.360522 0.727114
vt 0.360173 0.727114
vt 0.352301 0.727114
vt 0.397260 0.852373
vt 0.362185 0.655112
vt 0.477441 0.638515
vt 0.460844 0.655112
vt 0.468050 0.645721
vt 0.404163 0.732162
vt 0.479103 0.848333
vt 0.404163 0.852373
vt 0.480095 0.810956
vt 0.431775 0.852373
vt 0.409851 0.727114
vt 0.516382 0.727114
vt 0.508509 0.727114
vt 0.476054 0.851359
vt 0.456314 0.666049
vt 0.454769 0.677785
vt 0.460844 0.700457
vt 0.456314 0.689521
vt 0.543913 0.689521
vt 0.409502 0.825772
vt 0.450610 0.825772
vt 0.500113 0.632440
vt 0.488377 0.633985
vt 0.401630 0.825772
vt 0.477441 0.717054
vt 0.468050 0.709848
vt 0.404163 0.732162
vt 0.401455 0.632440
vt 0.405244 0.632939
vt 0.404163 0.852373
vt 0.404163 0.732162
vt 0.404163 0.891778
vt 0.500113 0.723129
vt 0.511849 0.721584
vt 0.488377 0.721584
vt 0.401281 0.825772
vt 0.438677 0.852373
vt 0.476054 0.851359
vt 0.442388 0.825772
vt 0.357851 0.850365
vt 0.508509 0.825772
vt 0.404163 0.732162
vt 0.500113 0.723129
vt 0.524953 0.727114
vt 0.426294 0.727114
vt 0.409502 0.825772
vt 0.389719 0.633985
vt 0.532825 0.825772
vt 0.476054 0.851359
vt 0.479103 0.848333
vt 0.511849 0.633985
vt 0.401455 0.723129
vt 0.387566 0.850801
vt 0.332093 0.841152
vt 0.473693 0.911096
vt 0.392389 0.841152
vt 0.401281 0.727114
vt 0.445255 0.666049
vt 0.446800 0.677785
vt 0.516731 0.727114
vt 0.476054 0.851359
vt 0.431775 0.769539
vt 0.483341 0.841152
vt 0.524603 0.825772
vt 0.409851 0.825772
vt 0.404163 0.852373
vt 0.445255 0.689521
vt 0.360173 0.825772
vt 0.476054 0.851359
vt 0.404163 0.732162
vt 0.413191 0.721584
vt 0.401630 0.825772
vt 0.426294 0.727114
vt 0.488377 0.633985
vt 0.541396 0.727114
vt 0.404163 0.852373
vt 0.431775 0.769539
vt 0.468050 0.645721
vt 0.460844 0.655112
vt 0.532825 0.727114
vt 0.524603 0.727114
vt 0.385187 0.825772
vt 0.460844 0.700457
vt 0.468050 0.709848
vt 0.500288 0.825772
vt 0.477441 0.717054
vt 0.539383 0.655112
vt 0.479103 0.848333
vt 0.404163 0.852373
vt 0.397260 0.852373
vt 0.491717 0.825772
vt 0.431775 0.769539
vt 0.500113 0.632440
vt 0.491717 0.825772
vt 0.393059 0.825772
vt 0.376965 0.727114
vt 0.404163 0.891778
vt 0.438677 0.852373
vt 0.477441 0.638515
vt 0.499939 0.825772
vt 0.442737 0.825772
vt 0.393059 0.727114
vt 0.431775 0.769539
vt 0.404163 0.891778
vt 0.404163 0.891778
vt 0.475623 0.727114
vt 0.516382 0.825772
vn 0.0000 -1.0000 0.0000
vn -0.0000 1.0000 0.0000
vn -0.5545 0.7152 -0.4255
vn -0.4255 0.7152 -0.5545
vn 0.8652 -0.3506 0.3584
vn 0.7430 -0.3506 0.5701
vn 0.5874 -0.6721 0.4507
vn -0.0912 0.7152 -0.6929
vn -0.2675 0.7152 -0.6457
vn -0.9285 0.3506 0.1222
vn -0.9285 0.3506 -0.1222
vn -0.9285 -0.3506 -0.1222
vn 0.5701 0.3506 -0.7430
vn 0.5701 -0.3506 -0.7430
vn 0.3584 -0.3506 -0.8652
vn 0.9285 -0.3506 -0.1222
vn 0.9285 0.3506 -0.1222
vn 0.9285 0.3506 0.1222
vn -0.2862 -0.0266 -0.9578
vn -0.7064 -0.0011 -0.7078
vn -0.7071 -0.0002 -0.7071
vn 0.7430 0.3506 0.5701
vn 0.5701 0.3506 0.7430
vn 0.2675 0.7152 -0.6457
vn 0.0912 0.7152 -0.6929
vn -0.3584 -0.3506 0.8652
vn -0.2833 -0.6721 0.6841
vn -0.0966 -0.6721 0.7341
vn 0.0000 0.8036 0.5952
vn 0.2675 0.7152 0.6457
vn 0.0912 0.7152 0.6929
vn -0.6646 -0.7373 -0.1212
vn -0.7071 -0.7071 -0.0000
vn -0.2862 0.0266 0.9578
vn -0.2018 -0.0000 0.9794
vn 0.0000 -0.0000 1.0000
vn 0.8652 -0.3506 -0.3584
vn 0.8652 0.3506 -0.3584
vn 0.7430 -0.3506 -0.5701
vn 0.4255 0.7152 -0.5545
vn 0.0000 -0.7071 -0.7071
vn -0.1302 -0.6871 -0.7148
vn -0.8652 -0.3506 0.3584
vn -0.6841 -0.6721 0.2833
vn -0.5874 -0.6721 0.4507
vn -0.7341 -0.6721 0.0966
vn 0.8652 0.3506 0.3584
vn -0.1212 -0.7373 0.6646
vn 0.0000 -0.7071 0.7071
vn 0.7341 -0.6721 0.0966
vn 0.9285 -0.3506 0.1222
vn 0.5874 0.6721 0.4507
vn -0.7430 -0.3506 0.5701
vn -0.4507 -0.6721 0.5874
vn 0.7734 -0.5809 0.2538
vn 0.7631 -0.5981 0.2450
vn 0.7749 -0.5783 0.2551
vn -0.6458 0.7471 -0.1573
vn -0.4419 0.7807 -0.4418
vn -0.4364 0.7863 -0.4373
vn 0.4507 -0.6721 -0.5874
vn 0.2833 -0.6721 -0.6841
vn 0.0000 -0.6690 0.7433
vn -0.1918 0.6671 0.7199
vn -0.2828 0.6721 0.6843
vn -0.3582 0.3507 0.8653
vn 0.1222 -0.3506 -0.9285
vn 0.1222 0.3506 -0.9285
vn 0.3584 0.3506 -0.8652
vn -0.5701 -0.3506 0.7430
vn -0.4507 0.6721 -0.5874
vn -0.3584 0.3506 -0.8652
vn -0.5701 0.3506 -0.7430
vn -0.8652 -0.3506 -0.3584
vn -0.8652 0.3506 -0.3584
vn -0.7430 0.3506 -0.5701
vn -0.6841 0.6721 -0.2833
vn -0.2675 0.7152 0.6457
vn -0.0912 0.7152 0.6929
vn 0.1918 -0.6706 0.7166
vn 0.2828 -0.6721 0.6843
vn 0.3582 -0.3507 0.8653
vn 0.7430 0.3506 -0.5701
vn 0.4507 0.6721 -0.5874
vn 0.7341 0.6721 -0.0966
vn 0.7341 0.6721 0.0966
vn 0.5701 -0.3506 0.7430
vn 0.4507 -0.6721 0.5874
vn 0.5545 0.7152 0.4255
vn 0.6457 0.7152 0.2675
vn 0.7341 -0.6721 -0.0966
vn 0.3584 -0.3506 0.8652
vn 0.2833 -0.6721 0.6841
vn 0.0966 -0.6721 -0.7341
vn 0.6841 -0.6721 -0.2833
vn -0.3584 -0.3506 -0.8652
vn -0.1222 0.3506 -0.9285
vn -0.5701 0.3506 0.7430
vn -0.4507 0.6721 0.5874
vn -0.5874 0.6721 0.4507
vn -0.0966 0.6721 -0.7341
vn 0.5874 -0.6721 -0.4507
vn 0.0000 0.5318 0.8469
vn 0.0000 0.7999 0.6001
vn 0.6841 0.6721 0.2833
vn -0.4419 -0.7807 0.4418
vn -0.1569 -0.7472 0.6458
vn -0.4364 -0.7863 0.4373
vn -0.7341 0.6721 0.0966
vn -0.3582 -0.3507 0.8653
vn -0.3584 0.3506 0.8652
vn -0.2018 0.0000 -0.9794
vn 0.0000 0.0000 -1.0000
vn -0.7071 -0.0002 0.7071
vn -0.9790 -0.0005 0.2036
vn -0.7064 -0.0011 0.7078
vn -0.8652 0.3506 0.3584
vn -0.6841 0.6721 0.2833
vn -0.1222 -0.3506 -0.9285
vn -0.2545 -0.1817 0.9499
vn -0.1222 0.3506 0.9285
vn 0.2833 0.6721 -0.6841
vn 0.6841 0.6721 0.2834
vn 0.9506 0.1597 -0.2662
vn 0.9490 0.1733 -0.2633
vn 0.9802 0.0968 0.1728
vn 0.0000 0.2172 0.9761
vn -0.9310 0.3484 -0.1088
vn -0.9614 0.1544 -0.2279
vn -0.9780 0.0963 0.1852
vn -0.8641 -0.4044 0.2996
vn -0.8635 -0.4013 0.3056
vn -0.0966 -0.6721 -0.7341
vn -0.2833 -0.6721 -0.6841
vn 0.0000 0.8009 0.5988
vn -0.8779 -0.2964 0.3760
vn 0.9263 0.3483 -0.1437
vn 0.8779 -0.2964 0.3760
vn 0.8635 -0.4013 0.3056
vn -0.7471 0.6202 0.2391
vn -0.7616 0.6005 0.2437
vn -0.7633 0.5991 0.2417
vn -0.6646 0.7373 0.1212
vn -0.7071 0.7071 0.0000
vn -0.9630 0.1387 -0.2311
vn 0.9142 0.3712 0.1625
vn -0.9134 0.3671 0.1759
vn 0.9010 0.0959 0.4230
vn -0.9010 0.0959 0.4230
vn -0.2828 -0.6721 0.6843
vn -0.1918 -0.6706 0.7166
vn -0.5701 -0.3506 -0.7430
vn 0.1222 -0.3506 0.9285
vn 0.1305 -0.0000 0.9915
vn -0.1305 -0.0000 0.9915
vn 0.5874 0.6721 -0.4507
vn 0.1222 0.3506 0.9285
vn -0.4255 0.7152 0.5545
vn -0.5545 0.7152 0.4255
vn -0.6457 -0.7470 -0.1580
vn -0.4376 -0.7855 -0.4376
vn -0.4422 -0.7804 -0.4422
vn -0.7430 -0.3506 -0.5701
vn -0.7430 0.3506 0.5701
vn -0.6584 -0.7393 0.1410
vn -0.6458 -0.7470 0.1580
vn 0.4255 0.7152 0.5545
vn 0.0000 -0.5318 0.8469
vn 0.0000 -0.2172 0.9761
vn -0.4507 -0.6721 -0.5874
vn 0.0000 0.9718 0.2357
vn 0.2545 -0.1817 0.9499
vn 0.3584 0.3506 0.8652
vn 0.2833 0.6721 0.6841
vn 0.0966 0.6721 0.7341
vn -0.9790 -0.0005 -0.2036
vn -0.9583 0.0260 -0.2847
vn -0.9285 -0.3506 0.1222
vn 0.1580 0.7470 -0.6457
vn 0.4422 0.7804 -0.4422
vn 0.4376 0.7855 -0.4376
vn -0.0966 0.6721 0.7341
vn 0.4507 0.6721 0.5874
vn -0.5874 -0.6721 -0.4507
vn -0.6841 -0.6721 -0.2834
vn -0.2834 0.6721 0.6841
vn -0.9790 0.0005 -0.2036
vn -0.7064 0.0011 -0.7078
vn -0.7071 0.0002 -0.7071
vn -0.7148 -0.6871 0.1302
vn -0.7341 0.6721 -0.0966
vn 0.6841 -0.6721 0.2833
vn -0.2833 0.6721 -0.6841
vn 0.0000 -0.8036 0.5952
vn 0.0966 0.6721 -0.7341
vn 0.0000 0.7071 -0.7071
vn 0.1302 0.6871 -0.7148
vn -0.9506 -0.1597 -0.2662
vn -0.9490 -0.1733 -0.2633
vn -0.9802 -0.0968 0.1728
vn 0.9310 -0.3484 -0.1088
vn 0.9614 -0.1544 -0.2279
vn 0.9780 -0.0963 0.1852
vn -0.8779 0.2964 0.3760
vn -0.8635 0.4013 0.3056
vn 0.8641 0.4044 0.2996
vn 0.8635 0.4013 0.3056
vn 0.3582 0.3507 0.8653
vn 0.2030 -0.0003 -0.9792
vn 0.8779 0.2964 0.3760
vn -0.9263 -0.3483 -0.1437
vn 0.7616 -0.6005 0.2437
vn 0.9630 -0.1387 -0.2311
vn -0.9142 -0.3712 0.1625
vn 0.9134 -0.3671 0.1759
vn -0.9010 -0.0959 0.4230
vn 0.9010 -0.0959 0.4230
vn 0.7071 0.7071 0.0000
vn 0.6457 0.7470 -0.1580
vn 0.6646 0.7373 -0.1212
vn 0.6584 -0.7393 -0.1410
vn 0.6457 -0.7470 -0.1580
vn 0.7071 -0.7071 -0.0000
vn 0.5545 0.7152 -0.4255
vn 0.7148 -0.6871 -0.1302
vn -0.6457 0.7152 0.2675
vn -0.6457 0.7152 -0.2675
vn 0.1212 0.7373 0.6646
vn 0.0000 0.7071 0.7071
vn 0.6646 -0.7373 0.1212
vn -0.6929 0.7152 -0.0912
vn 0.6457 0.7152 -0.2675
vn -0.1410 0.7393 0.6584
vn -0.1569 0.7472 0.6458
vn 0.4422 0.7804 0.4422
vn 0.1580 0.7470 0.6457
vn 0.1410 0.7393 -0.6584
vn 0.4419 0.7807 0.4418
vn 0.1569 0.7472 0.6458
vn -0.9794 -0.0000 0.2018
vn -1.0000 0.0000 0.0000
vn 0.6929 0.7152 0.0912
vn 0.6929 0.7152 -0.0912
vn 0.6458 -0.7471 -0.1573
vn 0.4419 -0.7807 -0.4418
vn 0.2018 0.0000 -0.9794
vn 0.7071 -0.0002 -0.7071
vn 0.9790 -0.0005 0.2036
vn 0.9583 0.0260 0.2847
vn 0.7071 -0.0002 0.7071
vn -0.2030 -0.0003 0.9792
vn 0.4422 -0.7804 0.4422
vn 0.6457 -0.7470 0.1580
vn 0.2545 0.1817 0.9499
vn -0.4422 0.7804 0.4422
vn -0.6457 0.7470 0.1580
vn 0.7927 0.5655 0.2276
vn 0.7940 0.5632 0.2287
vn 0.7834 0.5813 0.2200
vn 1.0000 -0.0000 0.0000
vn 0.9794 -0.1106 -0.1687
vn 0.0000 -0.9718 0.2357
vn -0.4419 -0.7807 -0.4418
vn -0.6458 -0.7471 -0.1573
vn 0.2862 -0.0266 0.9578
vn 0.7064 -0.0011 0.7078
vn 0.6584 0.7393 0.1410
vn 0.6458 0.7471 0.1573
vn -0.4422 -0.7804 0.4422
vn 0.4419 0.7807 -0.4418
vn 0.6458 0.7471 -0.1573
vn -0.1212 0.7373 -0.6646
vn -0.6458 -0.7471 0.1573
vn 0.2030 0.0003 0.9792
vn 0.2018 -0.0000 0.9794
vn 0.7071 0.0002 0.7071
vn 0.9794 -0.0000 0.2018
vn 0.9790 0.0005 0.2036
vn -0.1580 0.7470 -0.6457
vn -0.4376 0.7855 -0.4376
vn -0.4422 0.7804 -0.4422
vn 0.9794 0.0000 -0.2018
vn -0.4419 0.7807 0.4418
vn -0.2030 0.0003 -0.9792
vn 0.1302 -0.6871 0.7148
vn -0.9794 -0.1106 0.1687
vn -0.8641 0.4044 0.2996
vn 0.1580 -0.7470 0.6457
vn 0.1410 -0.7393 0.6584
vn -0.6458 0.7471 0.1573
vn -0.4364 0.7863 0.4373
vn -0.7071 0.0002 0.7071
vn 0.9790 0.0005 -0.2036
vn 0.9583 -0.0260 -0.2847
vn 0.7071 0.0002 -0.7071
vn -0.1580 0.7470 0.6457
vn 0.1569 0.7472 -0.6458
vn -0.4376 -0.7855 0.4376
vn 0.9790 -0.0005 -0.2036
vn 0.4422 -0.7804 -0.4422
vn 0.4376 -0.7855 -0.4376
vn -0.1302 0.6871 0.7148
vn 0.1569 -0.7472 0.6458
vn 0.4419 -0.7807 0.4418
vn -0.5874 0.6721 -0.4507
vn -0.1580 -0.7470 0.6457
vn 0.7064 -0.0011 -0.7078
vn -0.6584 0.7393 -0.1410
vn -0.9790 0.0005 0.2036
vn -0.9583 -0.0260 0.2847
vn -0.1222 -0.3506 0.9285
vn -0.2545 0.1817 0.9499
vn 0.1212 -0.7373 -0.6646
vn 0.1580 -0.7470 -0.6457
vn 0.6457 0.7470 0.1580
vn 0.1569 -0.7472 -0.6458
vn 0.4376 0.7855 0.4376
vn 0.7148 0.6871 0.1302
vn 0.6841 0.6721 -0.2833
vn 0.6458 -0.7471 0.1573
vn 0.2862 0.0266 -0.9578
vn 0.7064 0.0011 -0.7078
vn -0.1580 -0.7470 -0.6457
vn -0.1410 -0.7393 -0.6584
vn -0.9794 -0.0000 -0.2018
vn -0.1569 -0.7472 -0.6458
vn -0.7927 -0.5655 0.2276
vn -0.7940 -0.5632 0.2287
vn -0.7834 -0.5813 0.2200
vn 0.4364 0.7863 0.4373
vn -0.1569 0.7472 -0.6458
vn -0.6457 0.7470 -0.1580
vn 0.2828 0.6721 0.6843
vn 0.1918 0.6706 0.7166
vn -0.6097 -0.7926 0.0000
vn 0.0000 -0.7926 -0.6097
vn 0.6097 -0.7926 -0.0000
vn 0.0000 -0.7926 0.6097
vn -0.6097 0.7926 0.0000
vn 0.0000 0.7926 0.6097
vn 0.6097 0.7926 0.0000
vn 0.0000 0.7926 -0.6097
vn 0.4364 0.7863 -0.4373
vn -0.6841 -0.6721 -0.2833
vn 0.4364 -0.7863 -0.4373
vn 0.4376 -0.7855 0.4376
vn 0.0966 -0.6721 0.7341
vn -0.1699 0.1110 0.9792
vn -0.6929 0.7152 0.0912
vn 0.0000 -0.9707 0.2404
vn -0.4364 -0.7863 -0.4373
vn 0.7820 0.5835 0.2190
vn 0.0000 -0.5145 -0.8575
vn 0.0000 -0.7999 0.6001
vn 0.0000 -0.8009 0.5988
vn 0.7064 0.0011 0.7078
vn -0.4376 0.7855 0.4376
vn -0.1699 -0.1110 -0.9792
vn -0.7148 0.6871 -0.1302
vn -0.7341 -0.6721 -0.0966
vn 0.0000 0.9707 0.2404
vn -0.7064 0.0011 0.7078
vn 0.4364 -0.7863 0.4373
vn 0.0000 0.6690 0.7433
vn -0.7820 -0.5835 0.2190
vn 0.9794 0.1106 0.1687
vn -0.7731 0.5797 0.2575
vn -0.7885 0.5576 0.2596
vn -0.7749 0.5783 0.2551
vn 0.0000 0.5145 -0.8575
vn 0.1699 0.1110 -0.9792
vn 0.1699 -0.1110 0.9792
vn -0.9794 0.1106 -0.1687
vn -0.1924 0.6708 0.7162
vn 0.8641 -0.4044 0.2996
usemtl Color_M01.002
s off
f 1/1/1 3/2/1 2/3/1
f 4/4/1 6/5/1 5/6/1
f 7/7/2 9/8/2 8/9/2
f 10/10/2 12/11/2 11/12/2
f 13/13/2 15/14/2 14/15/2
f 16/16/2 18/17/2 17/18/2
f 19/19/2 21/20/2 20/21/2
f 22/22/1 24/23/1 23/24/1
f 25/25/2 27/26/2 26/27/2
f 28/28/1 30/29/1 29/30/1
f 31/31/1 30/29/1 32/32/1
f 33/33/1 35/34/1 34/35/1
f 36/36/2 38/37/2 37/38/2
f 39/39/2 41/40/2 40/41/2
f 42/42/1 44/43/1 43/44/1
f 45/45/1 35/34/1 33/33/1
f 46/46/2 48/47/2 47/48/2
f 49/49/2 7/7/2 8/9/2
f 50/50/2 52/51/2 51/52/2
f 53/53/2 55/54/2 54/55/2
f 56/56/2 8/9/2 57/57/2
f 58/58/2 60/59/2 59/60/2
f 61/61/2 63/62/2 62/63/2
f 64/64/2 66/65/2 65/66/2
f 67/67/1 3/2/1 1/1/1
f 68/68/2 70/69/2 69/70/2
f 55/54/2 71/71/2 54/55/2
f 12/11/2 10/10/2 72/72/2
f 33/33/1 34/35/1 73/73/1
f 74/74/1 76/75/1 75/76/1
f 76/75/1 77/77/1 75/76/1
f 78/78/1 80/79/1 79/80/1
f 59/60/2 82/81/2 81/82/2
f 65/66/2 66/65/2 83/83/2
f 84/84/1 3/2/1 67/67/1
f 85/85/2 65/66/2 86/86/2
f 87/87/2 89/88/2 88/89/2
f 90/90/2 14/15/2 15/14/2
f 38/37/2 9/8/2 91/91/2
f 19/19/2 20/21/2 92/92/2
f 57/57/2 9/8/2 93/93/2
f 56/56/2 57/57/2 94/94/2
f 95/95/1 80/79/1 78/78/1
f 15/14/2 21/20/2 19/19/2
f 96/96/2 98/97/2 97/98/2
f 99/99/2 26/27/2 27/26/2
f 42/42/1 100/100/1 44/43/1
f 101/101/2 102/102/2 90/90/2
f 63/62/2 104/103/2 103/104/2
f 6/5/1 105/105/1 5/6/1
f 82/81/2 106/106/2 81/82/2
f 38/37/2 91/91/2 107/107/2
f 20/21/2 96/96/2 108/108/2
f 109/109/2 63/62/2 61/61/2
f 110/110/2 112/111/2 111/112/2
f 77/77/1 76/75/1 113/113/1
f 75/76/1 77/77/1 114/114/1
f 91/91/2 7/7/2 115/115/2
f 116/116/2 7/7/2 117/117/2
f 9/8/2 36/36/2 118/118/2
f 119/119/2 121/120/2 120/121/2
f 122/122/2 124/123/2 123/124/2
f 125/125/2 121/120/2 126/126/2
f 118/118/2 36/36/2 127/127/2
f 115/115/2 7/7/2 116/116/2
f 60/59/2 82/81/2 59/60/2
f 108/108/2 96/96/2 97/98/2
f 71/71/2 102/102/2 101/101/2
f 7/7/2 129/128/2 128/129/2
f 129/128/2 7/7/2 49/49/2
f 127/127/2 36/36/2 130/130/2
f 8/9/2 56/56/2 131/131/2
f 105/105/1 132/132/1 5/6/1
f 133/133/1 80/79/1 134/134/1
f 102/102/2 14/15/2 90/90/2
f 104/103/2 63/62/2 109/109/2
f 135/135/2 137/136/2 136/137/2
f 15/14/2 13/13/2 21/20/2
f 54/55/2 71/71/2 101/101/2
f 16/16/2 17/18/2 138/138/2
f 139/139/2 87/87/2 140/140/2
f 141/141/2 18/17/2 16/16/2
f 57/57/2 8/9/2 9/8/2
f 66/65/2 64/64/2 142/142/2
f 95/95/1 78/78/1 143/143/1
f 113/113/1 76/75/1 144/144/1
f 52/51/2 50/50/2 46/46/2
f 145/145/2 146/146/2 39/39/2
f 35/34/1 147/147/1 34/35/1
f 148/148/2 72/72/2 149/149/2
f 47/48/2 150/150/2 59/60/2
f 151/151/2 146/146/2 145/145/2
f 150/150/2 58/58/2 59/60/2
f 48/47/2 150/150/2 47/48/2
f 81/82/2 153/152/2 152/153/2
f 97/98/2 98/97/2 154/154/2
f 155/155/2 59/60/2 156/156/2
f 81/82/2 152/153/2 157/157/2
f 122/122/2 70/69/2 124/123/2
f 47/48/2 59/60/2 155/155/2
f 111/112/2 55/54/2 53/53/2
f 67/67/1 1/1/1 158/158/1
f 69/70/2 70/69/2 122/122/2
f 81/82/2 106/106/2 135/135/2
f 99/99/2 159/159/2 26/27/2
f 124/123/2 70/69/2 160/160/2
f 161/161/2 137/136/2 162/162/2
f 163/163/1 23/24/1 164/164/1
f 165/165/1 3/2/1 84/84/1
f 166/166/1 100/100/1 42/42/1
f 18/17/2 167/167/2 17/18/2
f 161/161/2 159/159/2 99/99/2
f 81/82/2 135/135/2 153/152/2
f 161/161/2 162/162/2 159/159/2
f 35/34/1 45/45/1 168/168/1
f 27/26/2 25/25/2 110/110/2
f 112/111/2 110/110/2 25/25/2
f 50/50/2 48/47/2 46/46/2
f 154/154/2 98/97/2 51/52/2
f 153/152/2 135/135/2 136/137/2
f 120/121/2 121/120/2 125/125/2
f 164/164/1 24/23/1 169/169/1
f 100/100/1 170/170/1 44/43/1
f 134/134/1 80/79/1 95/95/1
f 88/89/2 89/88/2 171/171/2
f 149/149/2 10/10/2 172/172/2
f 111/112/2 112/111/2 55/54/2
f 23/24/1 24/23/1 164/164/1
f 24/23/1 22/22/1 173/173/1
f 72/72/2 10/10/2 149/149/2
f 89/88/2 87/87/2 139/139/2
f 125/125/2 126/126/2 174/174/2
f 131/131/2 56/56/2 175/175/2
f 92/92/2 20/21/2 108/108/2
f 176/176/2 89/88/2 139/139/2
f 36/36/2 9/8/2 38/37/2
f 41/40/2 146/146/2 177/177/2
f 126/126/2 121/120/2 178/178/2
f 179/179/2 109/109/2 61/61/2
f 132/132/1 105/105/1 180/180/1
f 181/181/1 32/32/1 28/28/1
f 154/154/2 51/52/2 52/51/2
f 91/91/2 9/8/2 7/7/2
f 100/100/1 166/166/1 182/182/1
f 18/17/2 141/141/2 183/183/2
f 30/29/1 31/31/1 184/184/1
f 39/39/2 146/146/2 41/40/2
f 136/137/2 137/136/2 161/161/2
f 5/6/1 132/132/1 185/185/1
f 175/175/2 56/56/2 186/186/2
f 64/64/2 65/66/2 85/85/2
f 32/32/1 30/29/1 28/28/1
s 1
f 48/47/3 7/7/3 128/129/4
f 187/187/5 189/188/6 188/189/7
f 60/59/8 58/58/9 129/128/9
f 190/190/10 192/191/11 191/192/12
f 193/193/13 195/194/14 194/195/15
f 196/196/16 198/197/17 197/198/18
f 199/199/1 201/200/1 200/201/1
f 202/202/19 204/203/20 203/204/21
f 205/205/6 207/206/22 206/207/23
f 106/106/24 82/81/25 8/9/25
f 208/208/26 210/209/27 209/210/28
f 211/211/29 213/212/29 212/213/29
f 71/71/30 127/127/30 130/130/31
f 35/34/32 168/168/33 214/214/33
f 215/215/34 217/216/35 216/217/36
f 218/218/37 219/219/38 198/197/17
f 220/220/38 222/221/37 221/222/39
f 175/175/40 106/106/24 131/131/24
f 223/223/17 224/224/16 222/221/37
f 225/225/41 73/73/41 34/35/42
f 226/226/43 228/227/44 227/228/45
f 229/229/46 228/230/44 226/226/43
f 230/231/5 231/232/47 207/206/22
f 3/2/48 165/165/49 232/233/49
f 187/187/5 234/234/50 233/235/51
f 206/207/23 207/206/22 46/236/52
f 235/237/53 227/238/45 236/239/54
f 237/240/55 239/241/56 238/242/57
f 240/243/58 178/244/59 241/245/60
f 100/100/32 182/182/33 242/246/33
f 194/195/15 244/247/61 243/248/62
f 201/249/63 238/250/63 245/251/63
f 157/252/64 152/253/65 246/254/66
f 247/255/1 249/256/1 248/257/1
f 250/258/67 252/259/68 251/260/69
f 208/208/26 253/261/70 236/262/54
f 53/263/71 255/264/72 254/265/73
f 256/266/74 258/267/75 257/268/76
f 257/268/76 258/267/75 110/269/77
f 259/270/47 187/187/5 233/235/51
f 13/13/78 14/15/79 36/36/79
f 216/271/49 132/132/48 180/180/49
f 260/272/80 262/273/81 261/274/82
f 263/275/83 264/276/13 19/277/84
f 198/197/17 97/278/85 154/279/86
f 265/280/87 267/281/88 266/282/7
f 112/111/89 93/93/90 9/8/89
f 218/218/37 196/196/16 247/283/91
f 268/284/92 269/285/93 267/286/88
f 270/287/94 271/288/67 194/289/15
f 272/290/39 218/218/37 248/291/95
f 273/292/96 255/293/72 274/294/97
f 195/194/14 193/193/13 275/295/83
f 276/296/98 278/297/99 277/298/100
f 252/259/68 274/294/97 101/299/101
f 279/300/87 261/274/82 262/301/81
f 272/290/39 249/302/102 280/303/61
f 281/304/103 283/305/103 282/306/104
f 197/198/18 154/307/86 52/308/105
f 2/309/106 285/310/107 284/311/108
f 192/191/11 190/190/10 286/312/109
f 276/296/98 288/313/110 287/314/111
f 202/202/19 290/315/112 289/316/113
f 291/317/114 292/318/115 284/319/116
f 293/320/117 136/321/100 161/322/118
f 294/323/119 250/258/67 295/324/94
f 287/314/111 297/325/120 296/326/121
f 298/327/2 300/328/2 299/329/2
f 15/330/122 19/331/84 264/276/13
f 259/270/47 301/332/86 298/333/123
f 302/334/124 304/335/125 303/336/126
f 281/304/103 306/337/127 305/338/127
f 307/339/128 309/340/129 308/341/130
f 310/342/131 311/343/132 308/341/130
f 312/344/119 314/345/133 313/346/134
f 281/304/103 282/306/104 315/347/135
f 308/348/130 311/343/132 306/337/136
f 303/349/126 304/335/125 316/350/137
f 303/336/126 305/338/138 317/351/139
f 318/352/140 319/353/141 156/354/142
f 70/69/143 68/68/144 320/355/144
f 321/356/145 308/341/130 309/340/129
f 282/306/146 303/349/126 316/357/137
f 307/339/128 308/358/130 315/359/147
f 305/338/138 303/360/126 283/361/148
f 281/304/149 308/348/130 306/362/136
f 112/111/89 25/25/90 93/93/90
f 231/232/47 46/363/52 207/206/22
f 308/358/130 281/304/149 315/347/147
f 303/360/126 282/306/146 283/305/148
f 288/313/110 322/364/150 239/365/151
f 323/366/76 325/367/73 324/368/152
f 196/196/16 327/369/51 326/370/50
f 328/371/153 330/372/154 329/373/155
f 331/374/84 332/375/156 275/295/83
f 199/199/154 333/376/157 296/326/121
f 21/20/158 38/37/158 107/107/159
f 334/377/160 335/378/161 170/379/162
f 336/380/23 279/300/87 189/188/6
f 337/381/75 323/366/76 338/382/163
f 276/296/98 339/383/70 288/313/110
f 259/270/47 340/384/18 301/332/86
f 235/237/53 341/385/164 293/320/117
f 276/296/98 343/386/164 342/387/53
f 344/388/69 194/289/15 271/288/67
f 5/6/165 346/389/166 345/390/33
f 9/8/89 118/118/167 55/54/167
f 347/391/168 349/392/169 348/393/169
f 324/368/152 313/394/134 350/395/170
f 337/381/75 351/396/74 191/192/12
f 304/335/2 309/340/2 307/339/171
f 195/194/14 352/397/102 244/398/61
f 353/399/97 271/288/67 312/344/119
f 333/376/157 200/201/172 354/400/173
f 354/400/173 355/401/174 300/402/175
f 356/403/117 343/386/164 277/404/100
f 221/222/39 222/221/37 357/405/95
f 358/406/176 359/407/177 203/408/21
f 360/409/10 361/410/178 226/226/43
f 222/221/37 362/411/91 357/412/95
f 193/193/13 344/413/69 363/414/122
f 222/221/37 224/224/16 362/411/91
f 364/415/179 172/416/180 365/417/181
f 300/418/175 366/419/182 296/326/121
f 343/386/164 367/420/43 342/387/53
f 368/421/54 322/422/150 288/313/110
f 287/314/111 296/326/121 366/423/182
f 259/270/47 298/424/123 299/425/52
f 367/420/43 370/426/44 369/427/45
f 299/428/52 371/429/183 336/380/23
f 354/400/173 336/380/23 371/430/183
f 372/431/62 295/432/94 250/258/67
f 373/433/184 374/434/185 351/396/74
f 189/188/6 279/300/87 375/435/88
f 287/314/111 376/436/186 278/437/99
f 377/438/178 378/439/46 370/440/44
f 240/441/187 241/442/188 335/443/189
f 234/444/50 362/445/91 224/224/16
f 379/446/33 158/158/33 1/1/190
f 270/287/94 194/289/15 243/447/62
f 343/386/164 356/403/117 367/420/43
f 99/448/109 360/409/10 293/320/117
f 337/381/75 192/191/11 380/449/191
f 381/450/72 353/399/97 312/344/119
f 201/249/63 237/451/63 238/250/63
f 327/369/51 230/231/5 382/452/192
f 312/344/119 313/346/134 383/453/96
f 53/263/71 54/454/193 255/264/72
f 372/431/62 250/258/67 384/455/15
f 294/323/119 274/294/97 252/259/68
f 311/343/194 310/342/194 385/456/194
f 190/190/10 356/403/117 386/457/118
f 381/450/72 388/458/193 387/459/101
f 262/460/1 245/461/1 375/462/1
f 90/463/195 15/464/122 251/260/69
f 389/465/196 179/179/196 61/61/197
f 287/314/111 366/423/182 376/466/186
f 390/467/152 392/468/184 391/469/163
f 288/313/110 239/365/151 297/325/120
f 296/326/121 297/325/120 393/470/155
f 394/471/198 396/472/199 395/473/200
f 378/474/46 377/438/178 191/192/12
f 397/475/144 18/17/143 183/183/144
f 398/476/201 400/477/202 399/478/203
f 395/473/200 348/393/204 211/211/205
f 212/213/206 213/212/207 399/478/203
f 265/280/87 206/207/23 401/479/208
f 402/480/113 404/481/209 403/482/113
f 399/483/203 213/212/207 349/392/210
f 395/484/200 396/472/199 405/485/211
f 48/47/3 128/129/4 150/150/4
f 237/240/55 297/486/212 239/241/56
f 245/461/1 262/460/1 260/487/1
f 406/488/213 399/478/203 400/477/202
f 407/489/214 395/484/200 405/490/211
f 398/476/201 399/491/203 408/492/215
f 348/393/204 395/493/200 409/494/216
f 347/391/217 399/483/203 349/495/210
f 410/496/218 411/497/219 10/10/220
f 391/469/163 257/268/76 254/265/73
f 399/491/203 347/391/217 408/498/215
f 395/493/200 407/489/214 409/499/216
f 362/500/1 245/461/1 357/501/1
f 78/78/221 413/502/222 412/503/223
f 349/392/169 213/212/36 211/211/36
f 199/199/154 296/326/121 393/470/155
f 414/504/195 363/505/122 344/388/69
f 339/383/70 342/387/53 369/506/45
f 415/507/22 187/187/5 259/270/47
f 135/135/40 175/175/40 186/186/224
f 78/78/225 412/503/223 143/143/223
f 96/96/226 20/21/159 107/107/159
f 381/450/72 312/344/119 383/453/96
f 381/450/72 383/453/96 324/368/152
f 55/54/167 118/118/167 127/127/30
f 357/501/1 245/461/1 352/508/1
f 332/509/2 417/510/2 416/511/2
f 117/117/227 7/7/3 48/47/3
f 139/139/228 140/140/229 418/512/229
f 419/513/1 227/514/1 229/515/1
f 24/23/230 173/173/223 420/516/223
f 390/467/152 254/265/73 255/264/72
f 50/50/227 51/52/231 116/116/231
f 162/162/232 137/136/224 186/186/224
f 299/329/2 300/328/2 371/517/2
f 14/15/79 102/102/31 130/130/31
f 421/518/229 17/18/233 215/519/234
f 176/520/235 139/139/228 422/521/236
f 370/522/1 238/523/1 369/524/1
f 21/20/158 13/13/78 37/38/78
f 364/415/179 149/149/237 172/416/180
f 337/381/75 380/449/191 423/525/77
f 83/526/238 66/65/228 424/527/239
f 425/528/240 320/529/241 379/530/241
f 272/290/39 263/275/83 219/219/38
f 371/517/2 300/328/2 355/531/2
f 230/231/5 205/205/6 266/532/7
f 334/377/160 170/379/162 100/100/32
f 26/27/242 159/159/243 94/94/243
f 426/533/244 76/75/221 74/534/245
f 404/481/209 364/535/246 365/536/247
f 427/537/248 429/538/249 428/539/250
f 430/540/36 431/541/35 285/542/251
f 231/232/47 52/543/105 46/363/52
f 29/544/252 30/29/230 432/545/253
f 433/546/223 144/144/223 76/75/225
f 319/547/254 268/284/92 401/479/208
f 160/548/255 70/69/143 425/549/256
f 434/550/218 63/62/220 103/104/218
f 435/551/257 81/552/258 157/553/259
f 220/220/38 417/554/85 223/223/17
f 410/496/218 10/10/220 11/12/218
f 434/555/260 412/556/260 413/557/261
f 274/294/97 255/293/72 54/558/193
f 313/559/1 238/523/1 350/560/1
f 324/368/152 383/453/96 313/394/134
f 390/467/152 255/264/72 273/561/96
f 396/472/1 400/477/1 398/476/262
f 327/369/51 382/452/192 326/562/50
f 147/563/263 35/34/32 358/564/264
f 311/343/194 385/456/194 317/351/194
f 392/565/1 437/566/1 436/567/1
f 438/568/265 439/569/266 428/570/250
f 291/317/114 425/528/240 292/318/115
f 440/571/218 65/66/267 441/572/268
f 26/27/242 94/94/243 57/57/242
f 374/573/1 238/523/1 442/574/1
f 346/389/166 5/6/165 185/575/269
f 373/576/1 238/523/1 374/573/1
f 153/577/99 246/254/66 152/578/65
f 172/579/180 10/10/220 411/497/219
f 293/320/117 341/385/164 136/321/100
f 2/309/106 3/2/48 285/310/107
f 62/580/270 63/62/220 443/581/271
f 402/480/113 364/535/246 404/481/209
f 146/146/272 151/151/196 289/582/196
f 373/433/184 351/396/74 338/382/163
f 292/583/273 1/1/165 2/584/106
f 350/560/1 238/523/1 373/576/1
f 208/208/26 246/254/66 444/585/98
f 441/572/268 65/66/267 83/586/238
f 445/587/71 381/450/72 325/367/73
f 446/588/1 437/566/1 392/565/1
f 424/589/274 448/590/275 447/591/276
f 447/592/276 432/593/277 441/594/278
f 90/463/195 251/260/69 252/259/68
f 290/595/279 203/596/280 177/597/281
f 445/598/71 325/367/73 323/366/76
f 411/599/282 410/600/260 433/601/260
f 13/13/78 36/36/79 37/38/78
f 215/519/234 17/18/233 167/602/283
f 449/603/284 450/604/112 335/605/189
f 276/296/98 277/298/100 343/386/164
f 149/149/237 364/415/179 402/606/196
f 451/607/49 181/181/49 28/28/285
f 341/385/164 444/585/98 153/608/99
f 397/609/241 345/610/241 346/611/286
f 395/473/200 211/211/205 452/612/287
f 448/613/288 28/28/289 29/614/252
f 453/615/290 454/616/291 167/617/283
f 270/618/1 245/461/1 238/523/1
f 455/619/292 217/216/35 215/215/34
f 443/620/293 413/557/294 456/621/295
f 381/450/72 387/459/101 353/399/97
f 206/207/23 46/236/52 47/622/183
f 259/270/47 233/235/51 340/384/18
f 367/420/43 190/190/10 377/438/178
f 431/623/296 124/123/233 160/624/255
f 451/625/36 448/590/275 424/589/274
f 457/626/297 61/61/237 62/627/270
f 198/197/17 154/279/86 197/198/18
f 346/389/166 185/575/269 455/628/298
f 279/300/87 262/301/81 375/629/88
f 440/630/260 441/594/278 432/593/277
f 139/139/228 418/512/229 422/521/236
f 229/229/46 226/226/43 361/410/178
f 164/164/285 458/631/49 163/163/49
f 226/226/43 227/228/45 235/237/53
f 229/515/1 227/514/1 228/632/1
f 263/275/83 19/277/84 92/633/156
f 365/634/247 411/599/282 426/635/299
f 381/450/72 324/368/152 325/367/73
f 235/237/53 236/239/54 253/261/70
f 390/467/152 446/636/170 392/468/184
f 79/637/300 456/638/301 413/502/222
f 421/518/229 138/138/229 17/18/302
f 438/639/303 164/164/289 169/640/304
f 257/268/76 110/269/77 111/641/305
f 216/271/49 217/642/306 132/132/48
f 66/65/228 142/142/229 459/643/229
f 117/117/227 48/47/3 50/50/227
f 30/29/230 184/184/223 460/644/223
f 14/15/79 130/130/31 36/36/79
f 404/481/209 365/536/247 461/645/307
f 128/129/4 58/58/9 150/150/4
f 240/243/58 126/126/308 178/244/59
f 195/194/14 275/295/83 221/222/39
f 285/542/251 431/541/35 291/646/114
f 453/647/309 346/611/310 455/648/292
f 462/649/311 463/650/312 208/208/26
f 35/34/32 214/214/33 358/564/264
f 79/651/300 80/79/313 464/652/314
f 429/653/315 89/88/267 176/654/235
f 74/655/245 75/76/313 404/656/316
f 312/344/119 270/657/94 314/658/133
f 252/259/68 101/299/101 90/659/195
f 176/520/235 422/521/236 428/660/317
f 89/88/318 465/661/218 171/171/218
f 71/71/30 130/130/31 102/102/31
f 220/220/38 416/662/319 417/554/85
f 169/663/304 24/23/230 427/664/320
f 314/665/1 238/523/1 313/559/1
f 457/666/321 466/667/322 456/668/295
f 450/669/323 44/43/324 170/670/162
f 337/381/75 467/671/305 323/366/76
f 187/187/5 468/672/192 234/234/50
f 469/673/241 240/441/187 334/674/325
f 202/675/326 34/35/324 147/676/263
f 258/267/75 470/677/11 27/678/191
f 210/679/1 471/680/1 209/681/1
f 185/682/269 132/132/48 217/642/306
f 457/666/321 464/683/246 472/684/113
f 201/200/327 245/685/328 260/686/329
f 272/290/39 219/219/38 218/218/37
f 92/687/156 219/219/38 263/275/83
f 473/688/113 450/604/112 449/603/284
f 361/410/178 360/409/10 470/677/11
f 124/123/302 430/689/229 123/124/229
f 83/526/238 424/527/239 474/690/330
f 194/195/15 195/194/14 244/247/61
f 50/50/227 116/116/231 117/117/227
f 273/561/96 446/691/170 390/467/152
f 178/692/59 121/120/272 449/693/331
f 190/190/10 386/457/118 286/694/109
f 359/695/332 177/696/281 203/697/280
f 401/479/208 155/698/333 156/699/334
f 359/695/332 41/40/308 177/696/281
f 475/700/335 477/701/335 476/702/335
f 475/700/336 476/702/336 478/703/336
f 475/700/337 478/703/337 479/704/337
f 475/700/338 479/704/338 477/701/338
f 480/705/339 482/706/339 481/707/339
f 480/705/340 481/707/340 483/708/340
f 480/705/341 483/708/341 484/709/341
f 480/705/342 484/709/342 482/706/342
f 485/710/338 487/711/338 486/712/338
f 485/710/335 486/712/335 488/713/335
f 485/710/336 488/713/336 489/714/336
f 485/710/337 489/714/337 487/711/337
f 490/715/338 492/716/338 491/717/338
f 493/718/337 490/715/337 491/717/337
f 494/719/336 493/718/336 491/717/336
f 492/716/335 494/719/335 491/717/335
f 495/720/335 497/721/335 496/722/335
f 498/723/338 495/720/338 496/722/338
f 499/724/337 498/723/337 496/722/337
f 497/721/336 499/724/336 496/722/336
f 500/725/341 502/726/341 501/727/341
f 503/728/340 500/725/340 501/727/340
f 504/729/339 503/728/339 501/727/339
f 502/726/342 504/729/342 501/727/342
f 505/730/339 507/731/339 506/732/339
f 508/733/342 505/730/342 506/732/342
f 509/734/341 508/733/341 506/732/341
f 507/731/340 509/734/340 506/732/340
f 510/735/339 512/736/339 511/737/339
f 510/735/340 511/737/340 513/738/340
f 510/735/341 513/738/341 514/739/341
f 510/735/342 514/739/342 512/736/342
f 438/568/265 428/570/250 422/740/275
f 124/123/233 431/623/296 430/689/229
f 280/741/61 372/742/62 384/455/15
f 437/566/1 471/680/1 436/567/1
f 265/280/87 401/479/208 268/284/92
f 49/49/8 8/9/25 82/81/25
f 337/381/75 338/382/163 351/396/74
f 111/743/305 53/744/71 254/265/73
f 425/528/240 379/530/241 292/318/115
f 279/300/87 336/380/23 354/400/173
f 62/580/270 443/581/271 466/745/343
f 292/583/273 2/584/106 284/311/108
f 272/290/39 248/291/95 249/746/102
f 515/747/68 387/748/101 414/749/195
f 272/290/39 280/303/61 516/750/14
f 391/469/163 392/751/184 436/752/344
f 330/372/2 318/753/2 329/373/2
f 426/533/244 74/534/245 461/754/345
f 253/261/70 341/385/164 235/237/53
f 354/400/173 371/430/183 355/755/174
f 306/337/127 317/351/36 305/338/127
f 265/280/87 266/282/7 205/205/6
f 331/374/84 275/295/83 193/193/13
f 29/544/252 432/545/253 447/756/346
f 230/231/5 207/206/22 205/205/6
f 328/371/153 209/757/28 471/758/347
f 197/198/18 52/308/105 231/232/47
f 359/407/177 358/406/176 214/759/241
f 434/555/260 413/557/294 443/620/293
f 427/537/248 428/539/250 439/760/266
f 215/215/348 216/217/36 421/761/36
f 273/561/96 517/762/134 446/691/170
f 384/455/15 264/276/13 516/750/14
f 377/438/178 370/440/44 367/420/43
f 301/763/86 223/223/17 417/764/85
f 469/765/144 126/126/308 240/243/58
f 98/97/349 115/115/349 116/116/231
f 128/129/4 129/128/9 58/58/9
f 192/191/11 286/312/109 380/766/191
f 396/472/1 398/476/262 405/485/350
f 306/337/127 311/343/36 317/351/36
f 147/563/263 358/564/264 204/767/351
f 420/768/260 429/538/249 427/537/248
f 430/540/36 285/542/251 232/769/36
f 268/284/92 471/770/347 269/771/93
f 218/218/37 247/283/91 248/772/95
f 435/551/257 157/553/259 463/773/352
f 396/472/353 406/488/353 400/477/353
f 340/384/18 233/235/51 224/224/16
f 347/391/168 407/489/354 408/498/355
f 518/774/12 470/677/11 258/267/75
f 294/323/119 295/324/94 437/775/133
f 294/323/119 437/776/133 517/777/134
f 403/778/41 75/76/313 114/114/41
f 3/2/48 232/233/49 285/310/107
f 411/599/282 433/601/260 426/635/299
f 442/574/1 238/523/1 378/779/1
f 276/296/98 342/387/53 339/383/70
f 98/97/349 91/91/226 115/115/349
f 277/780/2 286/781/2 386/782/2
f 447/592/276 441/594/278 474/783/356
f 160/548/255 425/549/256 291/784/357
f 202/202/358 289/316/113 225/785/113
f 519/786/144 40/41/144 41/40/359
f 205/205/6 206/207/23 265/280/87
f 378/779/1 238/523/1 370/522/1
f 318/753/2 435/551/2 329/373/2
f 438/568/265 422/740/275 418/787/36
f 312/344/119 271/288/67 270/657/94
f 268/284/92 267/286/88 265/280/87
f 196/196/16 326/370/50 247/788/91
f 419/789/360 229/790/46 361/410/178
f 397/609/241 346/611/310 453/647/309
f 448/613/288 29/614/252 447/791/346
f 453/615/290 167/617/283 18/17/143
f 56/56/232 94/94/243 159/159/243
f 315/347/135 282/306/104 316/350/361
f 286/781/2 277/780/2 380/792/2
f 423/793/2 445/794/2 467/795/2
f 417/510/2 298/327/2 301/796/2
f 218/218/37 198/197/17 196/196/16
f 219/219/38 97/797/85 198/197/17
f 155/798/333 401/479/208 206/207/23
f 376/799/2 277/780/2 278/800/2
f 219/219/38 108/801/319 97/797/85
f 457/626/297 62/627/270 466/745/343
f 445/794/2 387/802/2 388/803/2
f 453/647/309 455/648/292 454/804/362
f 322/805/1 238/523/1 239/806/1
f 208/208/26 444/585/98 253/261/70
f 15/330/122 264/276/13 251/260/69
f 354/400/173 200/201/172 261/274/82
f 60/59/8 129/128/9 49/49/8
f 451/625/36 424/589/274 459/807/36
f 365/634/247 426/635/299 461/808/307
f 424/589/274 447/591/276 474/809/356
f 363/810/2 332/509/2 331/811/2
f 387/802/2 332/509/2 414/812/2
f 415/507/22 189/188/6 187/187/5
f 367/420/43 356/403/117 190/190/10
f 92/687/156 108/813/319 219/219/38
f 433/546/223 76/75/221 426/533/244
f 299/428/52 336/380/23 415/507/22
f 268/284/92 319/547/254 328/371/153
f 164/164/289 438/639/303 458/631/49
f 472/814/41 464/652/314 80/79/313
f 431/623/296 160/624/255 291/815/357
f 376/799/2 298/327/2 277/780/2
f 397/475/144 453/615/290 18/17/143
f 175/175/40 135/135/40 106/106/24
f 339/383/70 369/506/45 368/816/54
f 401/479/208 156/699/334 319/547/254
f 253/261/70 444/585/98 341/385/164
f 332/509/2 387/802/2 417/510/2
f 89/88/267 429/653/315 465/661/218
f 438/639/303 169/640/304 439/817/363
f 417/510/2 387/802/2 298/327/2
f 470/677/11 360/409/10 99/818/109
f 93/93/90 26/27/242 57/57/242
f 384/455/15 251/260/69 264/276/13
f 443/620/293 456/621/295 466/819/322
f 437/566/1 446/588/1 517/820/1
f 275/295/83 416/821/319 220/220/38
f 445/794/2 277/780/2 387/802/2
f 230/231/5 266/532/7 382/822/192
f 351/396/74 442/823/360 191/192/12
f 369/524/1 238/523/1 368/824/1
f 368/421/54 288/313/110 339/383/70
f 367/420/43 369/427/45 342/387/53
f 328/371/153 329/373/155 462/649/311
f 405/485/350 398/476/262 408/498/355
f 240/441/187 335/443/189 334/674/325
f 434/550/218 443/581/271 63/62/220
f 74/655/245 404/656/316 461/754/345
f 221/222/39 357/405/95 352/825/102
f 268/284/92 328/371/153 471/770/347
f 79/651/300 464/652/314 456/826/301
f 429/653/315 176/654/235 428/827/317
f 190/190/10 191/192/12 377/438/178
f 196/196/16 197/198/18 327/369/51
f 301/763/86 340/384/18 223/223/17
f 414/812/2 332/509/2 363/810/2
f 79/637/300 413/502/222 78/78/221
f 273/292/96 274/294/97 294/323/119
f 300/328/2 376/799/2 366/828/2
f 243/829/1 245/461/1 270/618/1
f 435/830/364 318/753/364 59/831/364
f 328/371/153 319/547/254 330/372/154
f 304/335/2 307/339/171 316/350/361
f 193/193/13 194/195/15 344/413/69
f 515/747/68 353/399/97 387/748/101
f 169/663/304 427/664/320 439/817/363
f 201/200/327 260/686/329 200/832/365
f 347/391/168 409/499/168 407/489/354
f 435/830/364 59/831/364 81/833/364
f 396/472/353 394/471/353 406/488/353
f 153/577/99 444/585/98 246/254/66
f 300/418/175 296/326/121 333/376/157
f 337/381/75 423/834/77 467/671/305
f 403/778/41 404/656/316 75/76/313
f 188/835/1 245/461/1 468/836/1
f 256/266/74 419/837/360 518/774/12
f 450/669/323 170/670/162 335/838/161
f 420/768/260 465/839/260 429/538/366
f 393/470/1 237/451/1 199/199/1
f 318/352/367 156/354/368 59/840/369
f 258/267/75 27/678/191 110/841/77
f 318/753/2 330/372/2 319/547/2
f 309/340/370 302/334/370 321/356/370
f 457/666/321 456/668/295 464/683/246
f 354/400/173 300/402/175 333/376/157
f 98/97/349 96/96/226 91/91/226
f 327/369/51 231/232/47 230/231/5
f 378/474/46 191/192/12 442/842/360
f 457/666/371 472/684/113 389/843/113
f 468/836/1 245/461/1 234/844/1
f 327/369/51 197/198/18 231/232/47
f 274/294/97 54/558/193 101/845/101
f 146/146/272 289/582/196 290/595/279
f 202/675/326 147/676/263 204/767/351
f 277/780/2 298/327/2 387/802/2
f 185/682/269 217/642/306 455/846/298
f 361/410/178 470/677/11 518/774/12
f 358/406/176 203/408/21 204/847/20
f 352/508/1 245/461/1 244/848/1
f 351/396/74 374/849/185 442/823/360
f 234/844/1 245/461/1 362/500/1
f 356/403/117 277/404/100 386/850/118
f 178/692/59 449/693/331 241/245/60
f 471/680/1 249/256/1 267/851/1
f 288/313/110 297/325/120 287/314/111
f 193/193/13 363/414/122 331/852/84
f 280/741/61 384/455/15 516/750/14
f 368/824/1 238/523/1 322/805/1
f 259/270/47 299/425/52 415/507/22
f 473/688/113 449/603/284 520/853/113
f 353/399/97 515/747/68 271/288/67
f 49/49/8 82/81/25 60/59/8
f 469/673/241 334/674/325 242/854/241
f 382/855/1 247/255/1 326/856/1
f 516/750/14 263/275/83 272/290/39
f 436/567/1 227/514/1 419/513/1
f 391/469/163 254/265/73 390/467/152
f 275/295/83 332/857/156 416/821/319
f 287/314/111 278/437/99 276/296/98
f 256/266/74 436/858/344 419/837/360
f 237/451/1 393/470/1 297/325/1
f 337/381/75 191/192/12 192/191/11
f 270/618/1 238/523/1 314/665/1
f 379/446/33 1/1/165 292/583/273
f 440/571/218 86/86/218 65/66/318
f 200/201/172 333/376/157 199/199/154
f 338/382/163 324/368/152 350/859/170
f 30/29/230 460/644/223 432/545/253
f 309/340/370 304/335/370 302/334/370
f 280/860/1 437/566/1 372/861/1
f 99/448/109 293/320/117 161/862/118
f 328/371/153 462/649/311 209/757/28
f 469/765/144 174/174/144 126/126/359
f 419/789/360 361/410/178 518/774/12
f 227/514/1 471/680/1 210/679/1
f 234/444/50 224/224/16 233/235/51
f 391/469/163 436/752/344 256/266/74
f 372/861/1 437/566/1 295/863/1
f 441/572/268 83/586/238 474/690/330
f 249/256/1 437/566/1 280/860/1
f 195/194/14 221/222/39 352/397/102
f 21/20/158 107/107/159 20/21/159
f 227/514/1 210/679/1 236/864/1
f 281/304/103 305/338/127 283/305/103
f 172/579/180 411/497/219 365/865/181
f 111/743/305 254/265/73 257/268/76
f 438/568/372 418/787/36 458/866/36
f 340/384/18 224/224/16 223/223/17
f 121/120/272 119/119/196 520/867/196
f 380/792/2 277/780/2 423/793/2
f 349/392/169 211/211/36 348/393/169
f 382/855/1 249/256/1 247/255/1
f 249/256/1 471/680/1 437/566/1
f 436/567/1 471/680/1 227/514/1
f 237/451/1 201/200/1 199/199/1
f 189/188/6 375/435/88 188/868/7
f 347/391/168 348/393/169 409/499/168
f 344/388/69 271/288/67 515/747/68
f 516/750/14 264/276/13 263/275/83
f 244/848/1 245/461/1 243/829/1
f 359/407/373 214/759/241 519/869/241
f 135/135/40 186/186/224 137/136/224
f 405/485/350 408/498/355 407/489/354
f 414/504/195 344/388/69 515/747/68
f 66/65/228 459/643/229 424/527/239
f 375/462/1 245/461/1 188/835/1
f 471/680/1 267/851/1 269/870/1
f 235/237/53 293/320/117 226/226/43
f 341/385/164 153/608/99 136/871/100
f 294/323/119 252/259/68 250/258/67
f 208/208/26 463/650/312 246/254/66
f 338/382/163 350/859/170 373/872/184
f 208/208/26 209/210/28 462/649/311
f 445/587/71 388/873/193 381/450/72
f 518/774/12 258/267/75 256/266/74
f 329/373/155 463/650/312 462/649/311
f 285/542/251 291/646/114 284/874/116
f 96/96/226 107/107/159 91/91/226
f 294/323/119 517/777/134 273/292/96
f 473/875/41 43/44/41 44/43/42
f 360/409/10 226/226/43 293/320/117
f 202/202/19 203/204/21 290/315/112
f 267/851/1 382/855/1 266/876/1
f 187/187/5 188/189/7 468/877/192
f 155/798/333 206/207/23 47/878/183
f 445/598/71 323/366/76 467/879/305
f 323/366/76 324/368/152 338/382/163
f 157/252/374 246/254/66 463/650/312
f 9/8/89 55/54/167 112/111/89
f 24/23/230 420/516/223 427/664/320
f 315/347/135 316/350/361 307/339/171
f 519/786/144 41/40/308 359/695/332
f 220/220/38 221/222/39 275/295/83
f 440/630/260 432/593/277 460/880/260
f 303/336/126 317/351/139 385/456/375
f 223/223/17 222/221/37 220/220/38
f 290/595/279 177/597/281 146/146/272
f 250/258/67 251/260/69 384/455/15
f 56/56/232 159/159/243 162/162/232
f 267/851/1 249/256/1 382/855/1
f 279/300/87 354/400/173 261/274/82
f 455/619/292 215/215/34 454/881/362
f 121/120/272 520/867/196 449/693/331
f 149/149/197 402/606/196 148/148/196
f 449/603/284 335/605/189 241/882/188
f 106/106/24 8/9/25 131/131/24
f 423/793/2 277/780/2 445/794/2
f 256/266/74 257/268/76 391/469/163
f 208/208/26 236/262/54 210/883/27
f 225/225/41 34/35/324 202/675/326
f 260/272/80 261/274/82 200/201/172
f 470/677/11 99/818/109 27/884/191
f 98/97/349 116/116/231 51/52/231
f 55/54/167 127/127/30 71/71/30
f 70/69/143 320/355/144 425/549/256
f 336/380/23 189/188/6 415/507/22
f 451/607/49 28/28/289 448/613/288
f 329/373/2 435/551/2 463/650/2
f 5/6/190 345/390/33 4/4/33
f 21/20/158 37/38/78 38/37/158
f 211/211/29 212/213/29 452/612/29
f 100/100/32 242/246/33 334/377/160
f 389/465/196 61/61/237 457/626/297
f 472/814/41 80/79/313 133/133/41
f 300/328/2 298/327/2 376/799/2
f 162/162/232 186/186/224 56/56/232
f 215/519/234 167/602/283 454/616/291
f 473/875/41 44/43/324 450/669/323
f 93/93/90 25/25/90 26/27/242
