# Blender v2.93.1 OBJ File: ''
# www.blender.org
mtllib swivel_small_base.mtl
o Cube_Cube.001
v -0.132021 -0.499998 0.132022
v 0.000002 -0.599998 -0.000002
v 0.132024 -0.499998 0.132022
v -0.132021 -0.499998 -0.132024
v 0.132024 -0.499998 -0.132024
v 0.000000 -0.212125 0.466506
v 0.125000 -0.305377 0.466506
v 0.125000 -0.212125 0.466506
v -0.125000 -0.305377 0.466506
v -0.125000 -0.212125 0.466506
v 0.000000 -0.324964 0.466506
v 0.000000 -0.212125 -0.500000
v 0.000000 -0.157783 -0.479705
v 0.239852 -0.157783 -0.415437
v 0.250000 -0.212125 -0.433013
v 0.415437 -0.157783 -0.239852
v 0.433013 -0.212125 -0.250000
v 0.479705 -0.157783 -0.000000
v 0.500000 -0.212125 -0.000000
v 0.415437 -0.157783 0.239853
v 0.433013 -0.212125 0.250000
v 0.239853 -0.157783 0.415437
v 0.250000 -0.212125 0.433013
v 0.000000 -0.157783 0.479705
v 0.000000 -0.212125 0.500000
v -0.239852 -0.157783 0.415437
v -0.250000 -0.212125 0.433013
v -0.415437 -0.157783 0.239853
v -0.433013 -0.212125 0.250000
v -0.479705 -0.157783 -0.000000
v -0.500000 -0.212125 -0.000000
v -0.415437 -0.157783 -0.239852
v -0.433013 -0.212125 -0.250000
v -0.425000 -0.112819 -0.000000
v -0.368061 -0.112819 -0.212500
v -0.239853 -0.157783 -0.415437
v -0.250000 -0.212125 -0.433013
v 0.000000 -0.500000 -0.329517
v 0.164759 -0.500000 -0.285370
v 0.285370 -0.500000 -0.164759
v 0.329517 -0.500000 -0.000000
v 0.285370 -0.500000 0.164759
v 0.164759 -0.500000 0.285370
v 0.000000 -0.500000 0.329517
v -0.164759 -0.500000 0.285370
v -0.285370 -0.500000 0.164759
v -0.329517 -0.500000 -0.000000
v -0.285370 -0.500000 -0.164758
v -0.164759 -0.500000 -0.285370
v 0.212500 -0.112819 -0.368061
v 0.000000 -0.112819 -0.425000
v -0.212500 -0.112819 -0.368061
v -0.368061 -0.112819 0.212500
v -0.212500 -0.112819 0.368061
v 0.000000 -0.112819 0.425000
v 0.212500 -0.112819 0.368061
v 0.368061 -0.112819 0.212500
v 0.425000 -0.112819 -0.000000
v 0.368061 -0.112819 -0.212500
v -0.235909 -0.432495 -0.408606
v -0.250000 -0.324964 -0.433013
v 0.000000 -0.324964 -0.500000
v 0.000000 -0.432495 -0.471818
v -0.408606 -0.432495 -0.235909
v -0.433013 -0.324964 -0.250000
v -0.471818 -0.432495 -0.000000
v -0.500000 -0.324964 -0.000000
v -0.408606 -0.432495 0.235909
v -0.433013 -0.324964 0.250000
v -0.235909 -0.432495 0.408606
v -0.250000 -0.324964 0.433013
v 0.000000 -0.432495 0.471818
v 0.000000 -0.324964 0.500000
v -0.125000 -0.324964 0.466506
v 0.235909 -0.432495 0.408606
v 0.250000 -0.324964 0.433013
v 0.125000 -0.324964 0.466506
v 0.408606 -0.432495 0.235909
v 0.433013 -0.324964 0.250000
v 0.471818 -0.432495 -0.000000
v 0.500000 -0.324964 -0.000000
v 0.408606 -0.432495 -0.235909
v 0.433013 -0.324964 -0.250000
v 0.235909 -0.432495 -0.408606
v 0.250000 -0.324964 -0.433013
v 0.000000 -0.250000 -0.355000
v 0.000000 0.250000 -0.355000
v 0.177500 0.250000 -0.307439
v 0.177500 -0.250000 -0.307439
v 0.307439 0.250000 -0.177500
v 0.307439 -0.250000 -0.177500
v 0.355000 0.250000 0.000000
v 0.355000 -0.250000 -0.000000
v 0.307439 0.250000 0.177500
v 0.307439 -0.250000 0.177500
v 0.177500 0.250000 0.307439
v 0.177500 -0.250000 0.307439
v 0.000000 0.250000 0.355000
v 0.000000 -0.250000 0.355000
v -0.177500 0.250000 0.307439
v -0.177500 -0.250000 0.307439
v -0.307439 0.250000 0.177500
v -0.307439 -0.250000 0.177500
v -0.355000 0.250000 0.000000
v -0.355000 -0.250000 -0.000000
v -0.307439 0.250000 -0.177500
v -0.307439 -0.250000 -0.177500
v -0.177500 0.250000 -0.307439
v -0.177500 -0.250000 -0.307439
vt 0.320286 0.850624
vt 0.284544 0.886755
vt 0.320286 0.922777
vt 0.247709 0.850624
vt 0.247709 0.922777
vt 0.363254 0.874294
vt 0.376717 0.862048
vt 0.376717 0.874475
vt 0.351146 0.860707
vt 0.349846 0.873066
vt 0.363744 0.864952
vt 0.421270 0.947878
vt 0.455691 0.947878
vt 0.455691 0.982298
vt 0.421270 0.982298
vt 0.421270 0.947878
vt 0.455691 0.947878
vt 0.455691 0.982298
vt 0.421270 0.982298
vt 0.421270 0.947878
vt 0.455691 0.947878
vt 0.455691 0.982298
vt 0.421270 0.982298
vt 0.421270 0.947878
vt 0.455691 0.947878
vt 0.455691 0.982298
vt 0.421270 0.982298
vt 0.421270 0.947878
vt 0.455691 0.947878
vt 0.455691 0.982298
vt 0.421270 0.982298
vt 0.421270 0.947878
vt 0.455691 0.947878
vt 0.455691 0.982298
vt 0.421270 0.982298
vt 0.421270 0.965088
vt 0.421270 0.947878
vt 0.455691 0.947878
vt 0.455691 0.982298
vt 0.421270 0.982298
vt 0.421270 0.965088
vt 0.421270 0.947878
vt 0.455691 0.947878
vt 0.455691 0.982298
vt 0.421270 0.982298
vt 0.421270 0.947878
vt 0.455691 0.947878
vt 0.455691 0.982298
vt 0.421270 0.982298
vt 0.421270 0.947878
vt 0.455691 0.947878
vt 0.455691 0.982298
vt 0.421270 0.982298
vt 0.421270 0.947878
vt 0.455691 0.982298
vt 0.421270 0.982298
vt 0.421270 0.947878
vt 0.455691 0.947878
vt 0.455691 0.982298
vt 0.421270 0.982298
vt 0.421270 0.947878
vt 0.455691 0.947878
vt 0.455691 0.982298
vt 0.421270 0.982298
vt 0.860543 0.094059
vt 0.883314 0.093110
vt 0.903410 0.103892
vt 0.915423 0.123544
vt 0.916360 0.146712
vt 0.905826 0.167191
vt 0.886641 0.179521
vt 0.863887 0.180365
vt 0.843718 0.169517
vt 0.831521 0.149918
vt 0.830573 0.126820
vt 0.841206 0.106384
vt 0.438480 0.982298
vt 0.447086 0.979993
vt 0.453385 0.973693
vt 0.455691 0.965088
vt 0.453385 0.956483
vt 0.447086 0.950183
vt 0.438480 0.947878
vt 0.429875 0.950183
vt 0.423576 0.956483
vt 0.421270 0.965088
vt 0.423576 0.973693
vt 0.429875 0.979993
vt 0.421270 0.947878
vt 0.455691 0.982298
vt 0.421270 0.982298
vt 0.421270 0.947878
vt 0.455691 0.982298
vt 0.421270 0.982298
vt 0.421270 0.947878
vt 0.455691 0.982298
vt 0.421270 0.982298
vt 0.421270 0.947878
vt 0.455691 0.982298
vt 0.421270 0.982298
vt 0.421270 0.947878
vt 0.455691 0.982298
vt 0.421270 0.982298
vt 0.421270 0.947878
vt 0.455691 0.982298
vt 0.421270 0.982298
vt 0.421270 0.947878
vt 0.455691 0.982298
vt 0.421270 0.982298
vt 0.421270 0.947878
vt 0.455691 0.982298
vt 0.421270 0.982298
vt 0.421270 0.947878
vt 0.455691 0.982298
vt 0.421270 0.982298
vt 0.421270 0.947878
vt 0.455691 0.982298
vt 0.421270 0.982298
vt 0.421270 0.947878
vt 0.455691 0.982298
vt 0.421270 0.982298
vt 0.833452 0.098606
vt 0.825699 0.090829
vt 0.854941 0.072899
vt 0.857742 0.083479
vt 0.819941 0.123943
vt 0.809309 0.121066
vt 0.820850 0.152709
vt 0.810180 0.155499
vt 0.835869 0.177208
vt 0.828020 0.184900
vt 0.860960 0.190893
vt 0.858032 0.201420
vt 0.889423 0.190069
vt 0.892204 0.200617
vt 0.875118 0.201018
vt 0.913587 0.174933
vt 0.921348 0.182675
vt 0.906776 0.191646
vt 0.927008 0.149572
vt 0.937656 0.152431
vt 0.926111 0.120773
vt 0.936799 0.118003
vt 0.911254 0.096250
vt 0.919097 0.088609
vt 0.886229 0.082595
vt 0.889145 0.072080
vt 0.788490 0.051560
vt 0.842447 0.020332
vt 0.757425 0.105647
vt 0.757537 0.167993
vt 0.788667 0.221926
vt 0.842507 0.253105
vt 0.364402 0.852413
vt 0.364234 0.855612
vt 0.958556 0.221829
vt 0.931643 0.237467
vt 0.919209 0.214557
vt 0.989478 0.167796
vt 0.989380 0.105592
vt 0.958452 0.051702
vt 0.904716 0.020419
vt 0.874368 0.227062
vt 0.873618 0.253105
vt 0.363064 0.877915
vt 0.821173 0.741080
vt 0.810499 0.698552
vt 0.814604 0.696093
vt 0.844645 0.727675
vt 0.816707 0.691932
vt 0.858502 0.704235
vt 0.816327 0.687304
vt 0.858720 0.676888
vt 0.813609 0.683472
vt 0.845108 0.653102
vt 0.809277 0.681488
vt 0.821372 0.639365
vt 0.804489 0.681914
vt 0.793950 0.639356
vt 0.800534 0.684649
vt 0.770200 0.653042
vt 0.798472 0.688949
vt 0.756476 0.676751
vt 0.798836 0.693638
vt 0.756476 0.704129
vt 0.801509 0.697439
vt 0.770226 0.727776
vt 0.805784 0.699287
vt 0.793967 0.741267
vn 0.0000 -0.7971 0.6038
vn 0.0000 -0.7971 -0.6038
vn 0.6038 -0.7971 -0.0000
vn -0.6038 -0.7971 -0.0000
vn 0.0000 -0.0000 1.0000
vn 0.0000 0.1728 -0.9849
vn 0.0000 0.5617 -0.8274
vn 0.4137 0.5617 -0.7165
vn 0.4925 0.1728 -0.8530
vn 0.7165 0.5617 -0.4137
vn 0.8530 0.1728 -0.4925
vn 0.8274 0.5617 -0.0000
vn 0.9849 0.1728 -0.0000
vn 0.7165 0.5617 0.4137
vn 0.8530 0.1728 0.4925
vn 0.4137 0.5617 0.7165
vn 0.4925 0.1728 0.8530
vn -0.0000 0.5617 0.8274
vn -0.0000 0.3499 0.9368
vn 0.2519 0.2293 0.9402
vn -0.4137 0.5617 0.7165
vn -0.4925 0.1728 0.8530
vn -0.2519 0.2293 0.9402
vn -0.7165 0.5617 0.4137
vn -0.8530 0.1728 0.4925
vn -0.8274 0.5617 -0.0000
vn -0.9849 0.1728 -0.0000
vn -0.7165 0.5617 -0.4137
vn -0.8530 0.1728 -0.4925
vn -0.3851 0.9229 -0.0000
vn -0.3335 0.9229 -0.1925
vn -0.4137 0.5617 -0.7165
vn -0.4925 0.1728 -0.8530
vn 0.0000 -0.9672 -0.2539
vn 0.1270 -0.9672 -0.2199
vn 0.2199 -0.9672 -0.1270
vn 0.2539 -0.9672 -0.0000
vn 0.2199 -0.9672 0.1270
vn 0.1270 -0.9672 0.2199
vn 0.0000 -0.9672 0.2539
vn -0.1270 -0.9672 0.2199
vn -0.2199 -0.9672 0.1270
vn -0.2539 -0.9672 -0.0000
vn -0.2199 -0.9672 -0.1270
vn -0.1270 -0.9672 -0.2199
vn 0.1925 0.9229 -0.3335
vn 0.0000 0.9229 -0.3851
vn -0.1925 0.9229 -0.3335
vn -0.3335 0.9229 0.1925
vn -0.1925 0.9229 0.3335
vn -0.0000 0.9229 0.3851
vn 0.1925 0.9229 0.3335
vn 0.3335 0.9229 0.1925
vn 0.3851 0.9229 -0.0000
vn 0.3335 0.9229 -0.1925
vn -0.3978 -0.6058 -0.6890
vn -0.4961 -0.1252 -0.8592
vn 0.0000 -0.1252 -0.9921
vn 0.0000 -0.6058 -0.7956
vn -0.6890 -0.6058 -0.3978
vn -0.8592 -0.1252 -0.4961
vn -0.7956 -0.6058 -0.0000
vn -0.9921 -0.1252 -0.0000
vn -0.6890 -0.6058 0.3978
vn -0.8592 -0.1252 0.4961
vn -0.3978 -0.6058 0.6890
vn -0.4961 -0.1252 0.8592
vn -0.0000 -0.6058 0.7956
vn -0.0000 -0.2312 0.9729
vn -0.2568 -0.1237 0.9585
vn 0.3978 -0.6058 0.6890
vn 0.4961 -0.1252 0.8592
vn 0.2568 -0.1237 0.9585
vn 0.6890 -0.6058 0.3978
vn 0.8592 -0.1252 0.4961
vn 0.7956 -0.6058 -0.0000
vn 0.9921 -0.1252 -0.0000
vn 0.6890 -0.6058 -0.3978
vn 0.8592 -0.1252 -0.4961
vn 0.3978 -0.6058 -0.6890
vn 0.4961 -0.1252 -0.8592
vn 0.1548 0.9879 0.0000
vn 0.2588 -0.0000 0.9659
vn -0.2588 -0.0000 0.9659
vn 0.0000 -1.0000 0.0000
vn -0.1548 0.9879 0.0000
vn 0.2588 0.0000 -0.9659
vn 0.7071 0.0000 -0.7071
vn 0.9659 0.0000 -0.2588
vn 0.9659 -0.0000 0.2588
vn 0.7071 -0.0000 0.7071
vn -0.7071 -0.0000 0.7071
vn -0.9659 -0.0000 0.2588
vn -0.9659 0.0000 -0.2588
vn -0.7071 0.0000 -0.7071
vn -0.2588 0.0000 -0.9659
vn 0.0000 1.0000 0.0000
usemtl Material.001
s off
f 1/1/1 2/2/1 3/3/1
f 4/4/2 5/5/2 2/2/2
f 2/2/3 5/5/3 3/3/3
f 4/4/4 2/2/4 1/1/4
f 6/6/5 7/7/5 8/8/5
f 9/9/5 6/6/5 10/10/5
f 11/11/5 7/7/5 6/6/5
f 9/9/5 11/11/5 6/6/5
s 1
f 12/12/6 13/13/7 14/14/8 15/15/9
f 15/16/9 14/17/8 16/18/10 17/19/11
f 17/20/11 16/21/10 18/22/12 19/23/13
f 19/24/13 18/25/12 20/26/14 21/27/15
f 21/28/15 20/29/14 22/30/16 23/31/17
f 23/32/17 22/33/16 24/34/18 25/35/19 8/36/20
f 25/37/19 24/38/18 26/39/21 27/40/22 10/41/23
f 27/42/22 26/43/21 28/44/24 29/45/25
f 29/46/25 28/47/24 30/48/26 31/49/27
f 31/50/27 30/51/26 32/52/28 33/53/29
f 32/54/28 30/51/26 34/55/30 35/56/31
f 33/57/29 32/58/28 36/59/32 37/60/33
f 37/61/33 36/62/32 13/63/7 12/64/6
f 38/65/34 39/66/35 40/67/36 41/68/37 42/69/38 43/70/39 44/71/40 45/72/41 46/73/42 47/74/43 48/75/44 49/76/45
f 50/77/46 51/78/47 52/79/48 35/80/31 34/81/30 53/82/49 54/83/50 55/84/51 56/85/52 57/86/53 58/87/54 59/88/55
f 30/89/26 28/47/24 53/90/49 34/91/30
f 28/92/24 26/43/21 54/93/50 53/94/49
f 26/95/21 24/38/18 55/96/51 54/97/50
f 24/98/18 22/33/16 56/99/52 55/100/51
f 22/101/16 20/29/14 57/102/53 56/103/52
f 20/104/14 18/25/12 58/105/54 57/106/53
f 13/107/7 36/62/32 52/108/48 51/109/47
f 14/110/8 13/13/7 51/111/47 50/112/46
f 18/113/12 16/21/10 59/114/55 58/115/54
f 36/116/32 32/58/28 35/117/31 52/118/48
f 16/119/10 14/17/8 50/120/46 59/121/55
f 60/122/56 61/123/57 62/124/58 63/125/59
f 64/126/60 65/127/61 61/123/57 60/122/56
f 66/128/62 67/129/63 65/127/61 64/126/60
f 68/130/64 69/131/65 67/129/63 66/128/62
f 70/132/66 71/133/67 69/131/65 68/130/64
f 72/134/68 73/135/69 74/136/70 71/133/67 70/132/66
f 75/137/71 76/138/72 77/139/73 73/135/69 72/134/68
f 78/140/74 79/141/75 76/138/72 75/137/71
f 80/142/76 81/143/77 79/141/75 78/140/74
f 82/144/78 83/145/79 81/143/77 80/142/76
f 84/146/80 85/147/81 83/145/79 82/144/78
f 63/125/59 62/124/58 85/147/81 84/146/80
f 61/123/57 37/148/33 12/149/6 62/124/58
f 65/127/61 33/150/29 37/148/33 61/123/57
f 67/129/63 31/151/27 33/150/29 65/127/61
f 69/131/65 29/152/25 31/151/27 67/129/63
f 71/133/67 27/153/22 29/152/25 69/131/65
f 9/9/82 73/154/82 11/155/82
f 76/138/72 23/156/17 8/157/20 7/158/83 77/139/73
f 79/141/75 21/159/15 23/156/17 76/138/72
f 81/143/77 19/160/13 21/159/15 79/141/75
f 83/145/79 17/161/11 19/160/13 81/143/77
f 85/147/81 15/162/9 17/161/11 83/145/79
f 62/124/58 12/149/6 15/162/9 85/147/81
f 38/65/34 63/125/59 84/146/80 39/66/35
f 39/66/35 84/146/80 82/144/78 40/67/36
f 40/67/36 82/144/78 80/142/76 41/68/37
f 41/68/37 80/142/76 78/140/74 42/69/38
f 42/69/38 78/140/74 75/137/71 43/70/39
f 43/70/39 75/137/71 72/134/68 44/71/40
f 44/71/40 72/134/68 70/132/66 45/72/41
f 45/72/41 70/132/66 68/130/64 46/73/42
f 46/73/42 68/130/64 66/128/62 47/74/43
f 47/74/43 66/128/62 64/126/60 48/75/44
f 48/75/44 64/126/60 60/122/56 49/76/45
f 49/76/45 60/122/56 63/125/59 38/65/34
f 74/136/70 9/163/84 10/164/23 27/153/22 71/133/67
f 77/139/73 7/158/83 73/135/69
f 25/165/85 10/10/85 6/6/85
f 9/163/84 74/136/70 73/135/69
f 73/154/86 7/7/86 11/155/86
f 8/8/85 25/165/85 6/6/85
usemtl Material.001_t_GSO_01_c-sharedassets0.assets-999.png.005
s off
f 86/166/87 87/167/87 88/168/87 89/169/87
f 89/169/88 88/168/88 90/170/88 91/171/88
f 91/171/89 90/170/89 92/172/89 93/173/89
f 93/173/90 92/172/90 94/174/90 95/175/90
f 95/175/91 94/174/91 96/176/91 97/177/91
f 97/177/83 96/176/83 98/178/83 99/179/83
f 99/179/84 98/178/84 100/180/84 101/181/84
f 101/181/92 100/180/92 102/182/92 103/183/92
f 103/183/93 102/182/93 104/184/93 105/185/93
f 105/185/94 104/184/94 106/186/94 107/187/94
f 107/187/95 106/186/95 108/188/95 109/189/95
f 109/189/96 108/188/96 87/167/96 86/166/96
f 92/172/97 90/170/97 94/174/97
f 94/174/97 90/170/97 96/176/97
f 90/170/97 88/168/97 96/176/97
f 96/176/97 88/168/97 98/178/97
f 88/168/97 87/167/97 98/178/97
f 98/178/97 87/167/97 100/180/97
f 87/167/97 108/188/97 100/180/97
f 100/180/97 108/188/97 102/182/97
f 108/188/97 106/186/97 102/182/97
f 102/182/97 106/186/97 104/184/97
