# Blender v2.93.1 OBJ File: ''
# www.blender.org
mtllib swivel_base.mtl
o m_GSO_Block_111_Instance.001_m_GSO_Block_111_Instance.002
v -0.867977 -0.132023 1.500001
v -1.000000 -0.000000 1.600002
v -0.867977 0.132023 1.500001
v -1.132023 -0.132023 1.500001
v -1.132023 0.132023 1.500001
v 0.132023 -0.132023 1.500001
v 0.000000 -0.000000 1.600002
v 0.132023 0.132023 1.500001
v -0.132023 -0.132023 1.500001
v -0.132023 0.132023 1.500001
v 0.500002 -0.132023 0.867980
v 0.600002 -0.000000 1.000004
v 0.500002 0.132023 0.867980
v 0.500002 -0.132023 1.132026
v 0.500002 0.132023 1.132026
v 0.500001 -0.132022 -0.132020
v 0.600002 0.000001 0.000004
v 0.500002 0.132023 -0.132020
v 0.500001 -0.132022 0.132026
v 0.500002 0.132023 0.132026
v -0.132020 -0.132022 -0.499997
v 0.000003 0.000001 -0.599998
v -0.132020 0.132023 -0.499997
v 0.132026 -0.132022 -0.499997
v 0.132026 0.132023 -0.499997
v -1.132020 -0.132022 -0.499997
v -0.999996 0.000001 -0.599998
v -1.132020 0.132024 -0.499997
v -0.867974 -0.132022 -0.499997
v -0.867974 0.132023 -0.499997
v -1.499998 -0.132022 0.132023
v -1.599998 0.000001 0.000000
v -1.499998 0.132023 0.132023
v -1.499998 -0.132022 -0.132023
v -1.499998 0.132023 -0.132023
v -1.499998 -0.132023 1.132023
v -1.599998 -0.000000 1.000000
v -1.499998 0.132023 1.132023
v -1.499998 -0.132023 0.867977
v -1.499998 0.132023 0.867977
v -0.867977 -0.499998 0.132023
v -1.000000 -0.599998 -0.000000
v -1.132023 -0.499998 0.132023
v -0.867977 -0.499998 -0.132023
v -1.132023 -0.499998 -0.132023
v -0.867977 -0.499998 1.132023
v -1.000000 -0.599998 1.000000
v -1.132023 -0.499998 1.132023
v -0.867977 -0.499998 0.867977
v -1.132023 -0.499998 0.867977
v 0.132023 -0.499998 0.132023
v 0.000000 -0.599998 -0.000000
v -0.132023 -0.499998 0.132023
v 0.132023 -0.499998 -0.132023
v -0.132023 -0.499998 -0.132023
v 0.132023 -0.499998 1.132023
v 0.000000 -0.599998 1.000000
v -0.132023 -0.499998 1.132023
v 0.132023 -0.499998 0.867977
v -0.132023 -0.499998 0.867977
v -1.500000 0.300000 1.200000
v -1.466667 -0.132023 1.366667
v -1.500000 -0.132023 1.200000
v -1.366667 -0.477778 -0.200000
v -1.466667 -0.411111 1.200000
v -1.366667 -0.477778 1.200000
v 0.200000 -0.500000 1.200000
v 0.366667 -0.477778 -0.200000
v 0.200000 -0.500000 -0.200000
v -1.200000 -0.411111 1.466667
v 0.200000 -0.477778 1.366666
v -1.200000 -0.477778 1.366666
v -1.348148 -0.411111 -0.437037
v -1.200000 -0.300000 -0.500000
v -1.366667 -0.300000 -0.466667
v -1.437037 -0.411111 -0.348148
v -1.466667 -0.300000 -0.366667
v -1.500000 -0.300000 -0.200000
v -1.466667 -0.411111 -0.200000
v 0.200000 -0.132023 1.500000
v -1.181625 -0.134227 1.473750
v -1.200000 -0.132023 1.500000
v -1.348148 -0.411111 1.437037
v -1.466667 -0.300000 1.366667
v -1.366667 -0.300000 1.466666
v -1.437037 -0.411111 1.348148
v -1.292593 -0.477778 1.348148
v -1.348148 -0.477778 1.292592
v 0.500000 0.300000 1.200000
v 0.466667 -0.132023 1.366667
v 0.466667 0.300000 1.366667
v 0.348148 -0.411111 1.437037
v 0.466667 -0.300000 1.366667
v 0.437037 -0.411111 1.348148
v 0.343917 -0.134227 1.441291
v 0.366667 -0.132023 1.466667
v -1.200000 -0.500000 1.200000
v -1.500000 -0.300000 1.200000
v 0.466667 -0.132023 -0.366667
v 0.343917 -0.134227 -0.441292
v 0.441292 -0.134227 -0.343917
v 0.200000 0.300000 1.500000
v 0.200000 -0.300000 1.500000
v 0.200000 -0.411111 1.466667
v -1.441292 -0.134227 1.343917
v -1.473750 -0.134227 1.181625
v -1.200000 -0.500000 -0.200000
v 0.200000 -0.477778 -0.366667
v -1.200000 -0.477778 -0.366667
v 0.200000 -0.300000 -0.500000
v 0.348148 -0.411111 -0.437037
v 0.366667 -0.300000 -0.466667
v 0.466667 -0.411111 1.200000
v 0.500000 -0.300000 -0.200000
v 0.466667 -0.411111 -0.200000
v 0.366667 -0.300000 1.466666
v 0.437037 -0.411111 -0.348148
v 0.500000 -0.300000 1.200000
v 0.366667 -0.132022 -0.466667
v 0.200000 0.300000 -0.500000
v 0.200000 -0.132022 -0.500000
v 0.500000 0.300000 -0.200000
v 0.500000 -0.132023 1.200000
v 0.366667 -0.477778 1.200000
v -1.200000 -0.300000 1.500000
v 0.466667 -0.300000 -0.366667
v 0.500000 -0.132023 -0.200000
v 0.466667 0.300000 -0.366666
v -1.466667 0.300000 -0.366666
v -1.500000 -0.132023 -0.200000
v -1.466667 -0.132023 -0.366667
v 0.292593 -0.477778 -0.348148
v 0.348148 -0.477778 -0.292593
v -1.343917 -0.297795 -0.441292
v 0.292593 -0.477778 1.348148
v 0.348148 -0.477778 1.292592
v 0.366667 0.300000 1.466667
v 0.181625 -0.134227 1.473750
v -1.366667 0.300000 1.466667
v -1.366667 -0.132023 1.466667
v -1.366667 -0.132022 -0.466667
v -1.441292 -0.134227 -0.343917
v -1.343917 -0.134227 -0.441292
v -1.292593 -0.477778 -0.348148
v -1.441292 -0.297795 1.343916
v -1.181625 -0.297795 -0.473750
v -1.200000 -0.411111 -0.466667
v -1.366667 0.300000 -0.466667
v 0.441292 -0.134227 1.343917
v -1.466667 0.300000 1.366667
v 0.181625 -0.297795 1.473750
v -1.348148 -0.477778 -0.292593
v 0.441291 -0.297795 1.343916
v -1.500000 0.300000 -0.200000
v -1.343917 -0.134227 1.441291
v -1.200000 -0.132022 -0.500000
v 0.181625 -0.134227 -0.473750
v 0.200000 -0.411111 -0.466667
v 0.366667 0.300000 -0.466666
v -1.200000 0.300000 -0.500000
v 0.473750 -0.134227 -0.181625
v 0.473750 -0.297795 1.181625
v 0.473750 -0.134227 1.181625
v -1.473750 -0.297795 1.181625
v 0.441292 -0.297795 -0.343917
v 0.343917 -0.297795 -0.441292
v -1.473750 -0.297795 -0.181625
v -1.441292 -0.297795 -0.343917
v -1.181625 -0.297795 1.473750
v -1.343917 -0.297795 1.441291
v 0.181625 -0.297795 -0.473750
v 0.343917 -0.297795 1.441291
v -1.181625 -0.134227 -0.473750
v 0.473750 -0.297795 -0.181625
v -1.473750 -0.134227 -0.181625
v -1.200000 0.300000 1.500000
v 0.437500 0.437500 1.437500
v 0.509148 0.376286 1.318216
v 0.445504 0.089891 1.445504
v 0.437500 0.437500 -0.437500
v 0.318217 0.376286 -0.509148
v 0.445504 0.089891 -0.445504
v -1.437500 0.437500 -0.437500
v -1.509148 0.376286 -0.318219
v -1.445504 0.089891 -0.445504
v -1.437500 0.437500 1.437500
v -1.318217 0.376286 1.509148
v -1.445504 0.089891 1.445504
v -1.312500 0.500000 -0.500000
v -1.500000 0.500000 -0.312502
v -1.189429 0.500000 1.189429
v -0.962275 0.500000 1.361255
v -1.312500 0.500000 1.500000
v 0.189429 0.500000 1.189429
v 0.361255 0.500000 0.962274
v 0.500000 0.500000 1.312500
v 0.189429 0.500000 -0.189429
v -0.037726 0.500000 -0.361255
v 0.312500 0.500000 -0.500000
v 0.361255 0.500000 0.037725
v 0.421362 0.481871 0.243122
v 0.339724 0.481871 0.049282
v 0.339724 0.481871 0.950718
v 0.471618 0.500000 0.384235
v 0.444986 0.500000 0.236535
v -0.049282 0.481871 1.339724
v 0.172193 0.481871 1.172193
v 0.475000 0.500000 0.500000
v 0.447328 0.481871 0.387129
v -0.037726 0.500000 1.361255
v -0.243122 0.481871 1.421361
v 0.447328 0.481871 0.612872
v 0.450625 0.481871 0.500000
v -0.384235 0.500000 1.471618
v -0.236536 0.500000 1.444986
v 0.471618 0.500000 0.615766
v 0.421362 0.481871 0.756878
v -0.500000 0.500000 1.475000
v -0.387129 0.481871 1.447328
v 0.444986 0.500000 0.763464
v -0.612871 0.481871 1.447328
v -0.500000 0.481871 1.450625
v -0.615765 0.500000 1.471619
v -0.756878 0.481871 1.421362
v -0.763465 0.500000 1.444986
v -0.950718 0.481871 1.339724
v -1.339724 0.481871 0.950718
v -1.172193 0.481871 1.172194
v -1.361255 0.500000 0.962275
v -1.421362 0.481871 0.756878
v -1.471618 0.500000 0.615766
v -1.444986 0.500000 0.763464
v -1.475000 0.500000 0.499994
v -1.447328 0.481871 0.612872
v -0.500000 0.115356 1.518296
v -0.500000 0.368940 1.524385
v -0.281782 0.295821 1.518296
v 0.518296 0.376286 0.500000
v 0.500000 0.500000 -0.312500
v 0.509148 0.376286 -0.318217
v -0.500000 0.376286 -0.518296
v -1.318217 0.376286 -0.509148
v -1.518296 0.376286 0.499995
v -1.500000 0.500000 1.312498
v -1.509148 0.376286 1.318216
v -1.189429 0.500000 -0.189429
v -1.361255 0.500000 0.037726
v 0.312500 0.500000 1.500000
v -0.718217 0.295821 1.518296
v 0.318217 0.376286 1.509148
v 0.500000 0.250000 -0.312499
v 0.437500 0.000001 -0.437500
v 0.500000 0.250000 1.312496
v 0.500000 0.250000 0.500000
v 0.312500 0.250000 1.500000
v 0.437500 0.000001 1.437500
v -1.312500 0.250000 1.500000
v -0.712500 0.169535 1.500000
v -1.312500 0.250000 -0.500000
v -1.437500 0.000001 -0.437500
v 0.312500 0.250000 -0.500000
v -0.500000 0.250000 -0.500000
v -1.500000 0.250000 1.312499
v -1.437500 0.000001 1.437500
v -1.500000 0.250000 -0.312501
v -1.500000 0.250000 0.499997
v -0.287500 0.169535 1.500000
v -0.500000 -0.000000 1.500000
v -0.384234 0.500000 -0.471619
v -0.500000 0.500000 -0.475000
v -0.236535 0.500000 -0.444987
v -0.615765 0.500000 -0.471618
v -0.763465 0.500000 -0.444987
v -1.471618 0.500000 0.384234
v -1.444986 0.500000 0.236535
v -0.962275 0.500000 -0.361255
v -1.325060 0.253125 0.942847
v -1.160455 0.253125 1.160456
v -0.387129 0.481871 -0.447328
v -0.247608 0.253125 -0.405273
v -0.389100 0.253125 -0.430786
v -0.942847 0.253125 1.325060
v -0.500000 0.481871 -0.450625
v -0.500000 0.253125 -0.434025
v -0.752392 0.253125 1.405272
v -0.610900 0.253125 -0.430785
v -0.612871 0.481871 -0.447328
v -0.610900 0.253125 1.430786
v -0.753025 0.253125 -0.407541
v -0.756878 0.481871 -0.421362
v -0.500000 0.253125 1.434025
v -0.950718 0.481871 -0.339724
v -0.942847 0.253125 -0.325060
v 0.405272 0.253125 0.752392
v -0.389100 0.253125 1.430785
v -1.172193 0.481871 -0.172193
v -1.160455 0.253125 -0.160455
v 0.430785 0.253125 0.610900
v -0.247608 0.253125 1.405272
v -1.325060 0.253125 0.057153
v -1.339724 0.481871 0.049282
v 0.434025 0.253125 0.500000
v -0.057153 0.253125 1.325060
v -1.405272 0.253125 0.247607
v -1.421362 0.481871 0.243122
v 0.430785 0.253125 0.389100
v 0.160455 0.253125 1.160455
v -1.447328 0.481871 0.387128
v -1.430785 0.253125 0.389099
v 0.405272 0.253125 0.247607
v 0.325060 0.253125 0.942847
v -1.450625 0.481871 0.499994
v -1.434025 0.253125 0.499994
v 0.325060 0.253125 0.057153
v -1.430785 0.253125 0.610900
v 0.172193 0.481871 -0.172193
v 0.160455 0.253125 -0.160455
v -1.405272 0.253125 0.752392
v -0.057153 0.253125 -0.325060
v -0.049282 0.481871 -0.339724
v -0.243122 0.481871 -0.421362
v -1.231250 0.235000 1.400000
v -1.343750 -0.035000 1.343750
v 0.231250 0.235000 -0.400000
v -1.400000 0.235000 -0.231251
v -1.343750 -0.035000 -0.343750
v -1.400000 0.235000 1.231249
v 0.343750 -0.035000 -0.343750
v -0.308750 0.162581 1.400000
v -0.500000 0.000162 1.400000
v 0.400000 0.235000 -0.231250
v 0.400000 0.235000 1.231246
v 0.343750 -0.035000 1.343750
v -1.400000 0.235000 0.499997
v -1.231250 0.235000 -0.400000
v -0.500000 0.235000 -0.400000
v 0.231250 0.235000 1.400000
v 0.400000 0.235000 0.500000
v -0.691250 0.162581 1.400000
vt 0.320286 0.850624
vt 0.320286 0.922777
vt 0.284543 0.886755
vt 0.247709 0.850624
vt 0.247709 0.922777
vt 0.320286 0.850624
vt 0.320286 0.922777
vt 0.284544 0.886755
vt 0.247709 0.850624
vt 0.247709 0.922777
vt 0.247709 0.850624
vt 0.247709 0.922777
vt 0.284544 0.886755
vt 0.320286 0.850624
vt 0.320286 0.922777
vt 0.247709 0.850624
vt 0.247709 0.922777
vt 0.284544 0.886755
vt 0.320286 0.850624
vt 0.320286 0.922777
vt 0.247709 0.850624
vt 0.247709 0.922777
vt 0.284544 0.886755
vt 0.320286 0.850624
vt 0.320286 0.922777
vt 0.247709 0.850624
vt 0.247709 0.922777
vt 0.284543 0.886755
vt 0.320286 0.850624
vt 0.320286 0.922777
vt 0.320286 0.850624
vt 0.320286 0.922777
vt 0.284544 0.886755
vt 0.247709 0.850624
vt 0.247709 0.922777
vt 0.320286 0.850624
vt 0.320286 0.922777
vt 0.284544 0.886755
vt 0.247709 0.850624
vt 0.247709 0.922777
vt 0.320286 0.850624
vt 0.320286 0.922777
vt 0.284544 0.886755
vt 0.247709 0.850624
vt 0.247709 0.922777
vt 0.320286 0.850624
vt 0.320286 0.922777
vt 0.284544 0.886755
vt 0.247709 0.850624
vt 0.247709 0.922777
vt 0.320286 0.850624
vt 0.320286 0.922777
vt 0.284544 0.886755
vt 0.247709 0.850624
vt 0.247709 0.922777
vt 0.320286 0.850624
vt 0.320286 0.922777
vt 0.284544 0.886755
vt 0.247709 0.850624
vt 0.247709 0.922777
vt 0.205025 0.891503
vt 0.205025 0.944066
vt 0.224816 0.944066
vt 0.983413 0.062930
vt 0.983413 0.220430
vt 0.994663 0.220430
vt 0.807163 0.220430
vt 0.807163 0.062930
vt 0.788413 0.062930
vt 0.964663 0.250430
vt 0.964663 0.239180
vt 0.807163 0.239180
vt 0.222617 0.891471
vt 0.224816 0.877582
vt 0.205025 0.877582
vt 0.233173 0.891471
vt 0.018983 0.877582
vt 0.007108 0.877582
vt 0.021182 0.891471
vt 0.038775 0.891471
vt 0.038775 0.877582
vt 0.038775 0.944066
vt 0.205025 0.944066
vt 0.205025 0.944066
vt 0.233173 0.891471
vt 0.224816 0.877582
vt 0.236691 0.877582
vt 0.991329 0.237097
vt 0.981329 0.230847
vt 0.975079 0.237097
vt 0.205025 0.891503
vt 0.224816 0.891503
vt 0.224816 0.944066
vt 0.021182 0.891471
vt 0.222617 0.891471
vt 0.224816 0.877582
vt 0.007108 0.944066
vt 0.018983 0.944066
vt 0.018983 0.944066
vt 0.964663 0.220430
vt 0.222617 0.891471
vt 0.224816 0.877582
vt 0.205025 0.877582
vt 0.007108 0.944066
vt 0.007108 0.944066
vt 0.018983 0.944066
vt 0.038775 0.891503
vt 0.205025 0.891471
vt 0.038775 0.891471
vt 0.038775 0.877582
vt 0.205025 0.944066
vt 0.224816 0.944066
vt 0.964663 0.062930
vt 0.964663 0.044180
vt 0.807163 0.044180
vt 0.038775 0.877582
vt 0.018983 0.877582
vt 0.021182 0.891471
vt 0.205025 0.891471
vt 0.205025 0.891471
vt 0.038775 0.891471
vt 0.038775 0.877582
vt 0.018983 0.877582
vt 0.010626 0.891471
vt 0.205025 0.877582
vt 0.018983 0.944066
vt 0.038775 0.944066
vt 0.038775 0.891503
vt 0.038775 0.891503
vt 0.205025 0.944066
vt 0.777163 0.220430
vt 0.788413 0.220430
vt 0.205025 0.877582
vt 0.222617 0.891471
vt 0.021182 0.891471
vt 0.018983 0.877582
vt 0.038775 0.944066
vt 0.018983 0.944066
vt 0.018983 0.891503
vt 0.018983 0.891503
vt 0.018983 0.944066
vt 0.038775 0.944066
vt 0.796746 0.046263
vt 0.790496 0.052513
vt 0.224816 0.877582
vt 0.796746 0.237097
vt 0.790496 0.230847
vt 0.780496 0.237097
vt 0.007108 0.891503
vt 0.018983 0.891503
vt 0.038775 0.944066
vt 0.224816 0.891503
vt 0.224816 0.944066
vt 0.807163 0.250430
vt 0.007108 0.944066
vt 0.007108 0.944066
vt 0.018983 0.944066
vt 0.991329 0.046263
vt 0.981329 0.036263
vt 0.975079 0.046263
vt 0.224816 0.877582
vt 0.205025 0.877582
vt 0.964663 0.032930
vt 0.007108 0.891503
vt 0.224816 0.944066
vt 0.236691 0.891503
vt 0.780496 0.046263
vt 0.038775 0.877582
vt 0.981329 0.052513
vt 0.994663 0.062930
vt 0.224816 0.877582
vt 0.038775 0.891503
vt 0.224816 0.944066
vt 0.205025 0.944066
vt 0.038775 0.944066
vt 0.807163 0.032930
vt 0.777163 0.062930
vt 0.018983 0.891503
vt 0.224816 0.891503
vt 0.205025 0.891503
vt 0.205025 0.891471
vt 0.679667 0.684978
vt 0.719383 0.684978
vt 0.719383 0.688764
vt 0.724111 0.684978
vt 0.719383 0.684978
vt 0.719383 0.688764
vt 0.724111 0.688764
vt 0.672102 0.688764
vt 0.672102 0.684978
vt 0.674938 0.684978
vt 0.672102 0.688764
vt 0.674938 0.688764
vt 0.674938 0.684978
vt 0.674938 0.684978
vt 0.674938 0.688764
vt 0.679667 0.688764
vt 0.724111 0.684978
vt 0.724111 0.688764
vt 0.719383 0.688764
vt 0.679667 0.688764
vt 0.679667 0.684978
vt 0.674938 0.688764
vt 0.679667 0.684978
vt 0.719383 0.688764
vt 0.679667 0.688764
vt 0.672102 0.684978
vt 0.672102 0.688764
vt 0.724111 0.684978
vt 0.719383 0.684978
vt 0.679667 0.688764
vt 0.674938 0.688764
vt 0.674938 0.684978
vt 0.726948 0.684978
vt 0.018983 0.877582
vt 0.007108 0.877582
vt 0.038775 0.877582
vt 0.205025 0.877582
vt 0.038775 0.944066
vt 0.205025 0.944066
vt 0.224816 0.944066
vt 0.018983 0.877582
vt 0.018983 0.877582
vt 0.205025 0.944066
vt 0.038775 0.877582
vt 0.038775 0.877582
vt 0.205025 0.877582
vt 0.224816 0.877582
vt 0.018983 0.877582
vt 0.205025 0.877582
vt 0.038775 0.944066
vt 0.018983 0.944066
vt 0.236691 0.944066
vt 0.236691 0.944066
vt 0.224816 0.891503
vt 0.981329 0.247097
vt 0.007108 0.944066
vt 0.205025 0.891503
vt 0.038775 0.891471
vt 0.007108 0.877582
vt 0.790496 0.247097
vt 0.790496 0.036263
vt 0.007108 0.891503
vt 0.224816 0.944066
vt 0.724111 0.688764
vt 0.724111 0.684978
vt 0.672102 0.684978
vt 0.679667 0.684978
vt 0.719383 0.684978
vt 0.724111 0.688764
vt 0.726948 0.688764
vt 0.007108 0.877582
vt 0.236691 0.877582
vt 0.419245 0.955096
vt 0.419826 0.955024
vt 0.419921 0.953396
vt 0.426273 0.946809
vt 0.426329 0.947437
vt 0.428150 0.947488
vt 0.435036 0.953849
vt 0.434457 0.953904
vt 0.434257 0.955523
vt 0.427910 0.962092
vt 0.427873 0.961456
vt 0.426032 0.961294
vt 0.438202 0.964258
vt 0.439360 0.962019
vt 0.435807 0.965046
vt 0.437760 0.949520
vt 0.437236 0.946909
vt 0.435840 0.947728
vt 0.424726 0.948521
vt 0.422112 0.949052
vt 0.422935 0.950449
vt 0.423725 0.961522
vt 0.424250 0.964128
vt 0.425642 0.963310
vt 0.807215 0.711019
vt 0.807267 0.710398
vt 0.801879 0.709381
vt 0.784284 0.690895
vt 0.786900 0.697960
vt 0.787463 0.697642
vt 0.798049 0.708612
vt 0.801695 0.709998
vt 0.784903 0.690777
vt 0.784746 0.683443
vt 0.795479 0.707151
vt 0.798308 0.708042
vt 0.784104 0.683356
vt 0.786070 0.677933
vt 0.795810 0.706633
vt 0.793476 0.704950
vt 0.787035 0.674069
vt 0.785446 0.677714
vt 0.793065 0.705428
vt 0.790734 0.702237
vt 0.788629 0.671536
vt 0.787601 0.674358
vt 0.790241 0.702672
vt 0.789137 0.671893
vt 0.790929 0.669615
vt 0.790467 0.669183
vt 0.793748 0.666980
vt 0.798095 0.663361
vt 0.793335 0.666475
vt 0.805010 0.661028
vt 0.798387 0.663919
vt 0.805108 0.661625
vt 0.812107 0.661652
vt 0.812207 0.661046
vt 0.817243 0.663066
vt 0.820797 0.664109
vt 0.817469 0.662491
vt 0.823078 0.665686
vt 0.820507 0.664623
vt 0.358464 0.851786
vt 0.357162 0.850497
vt 0.358304 0.851980
vt 0.422076 0.950392
vt 0.424620 0.947839
vt 0.424257 0.947197
vt 0.431341 0.949583
vt 0.433961 0.952334
vt 0.434596 0.951939
vt 0.432047 0.958410
vt 0.429581 0.961058
vt 0.429983 0.961712
vt 0.440262 0.950437
vt 0.439469 0.948055
vt 0.436737 0.962540
vt 0.438539 0.960615
vt 0.421226 0.960609
vt 0.422020 0.962985
vt 0.425643 0.946009
vt 0.423256 0.946809
vt 0.434918 0.955801
vt 0.428414 0.946735
vt 0.425750 0.962044
vt 0.424475 0.960251
vt 0.420314 0.956631
vt 0.419245 0.953144
vt 0.424982 0.948480
vt 0.426384 0.948064
vt 0.420597 0.953648
vt 0.422693 0.950904
vt 0.420936 0.956244
vt 0.420407 0.954951
vt 0.426314 0.960544
vt 0.424865 0.959574
vt 0.433327 0.952729
vt 0.433878 0.953959
vt 0.427885 0.948242
vt 0.430823 0.950194
vt 0.429180 0.960403
vt 0.427836 0.960819
vt 0.433595 0.955244
vt 0.431455 0.957911
vt 0.358962 0.851181
vt 0.357722 0.850002
vt 0.440233 0.954880
vt 0.440287 0.956254
vt 0.439990 0.953513
vt 0.432839 0.946250
vt 0.431488 0.945984
vt 0.434152 0.946702
vt 0.439238 0.951689
vt 0.430111 0.946038
vt 0.428737 0.946282
vt 0.421462 0.953455
vt 0.421200 0.954802
vt 0.421911 0.952141
vt 0.426903 0.947038
vt 0.421254 0.956173
vt 0.421497 0.957537
vt 0.428636 0.964782
vt 0.429980 0.965046
vt 0.427326 0.964333
vt 0.422248 0.959357
vt 0.431351 0.964998
vt 0.432720 0.964761
vt 0.440021 0.957604
vt 0.439568 0.958921
vt 0.434552 0.964014
vt 0.360412 0.852152
vt 0.360021 0.852829
vt 0.357966 0.852390
vt 0.421616 0.957919
vt 0.422175 0.957424
vt 0.419693 0.957018
vt 0.806109 0.667320
vt 0.811375 0.667078
vt 0.827034 0.700978
vt 0.822754 0.697942
vt 0.820989 0.700092
vt 0.800961 0.668977
vt 0.828426 0.698717
vt 0.823820 0.696121
vt 0.797362 0.671253
vt 0.829569 0.696367
vt 0.824791 0.694227
vt 0.795213 0.673358
vt 0.830766 0.693020
vt 0.825192 0.693246
vt 0.793862 0.675189
vt 0.831463 0.688015
vt 0.826032 0.687561
vt 0.794911 0.698496
vt 0.792615 0.677096
vt 0.831480 0.681432
vt 0.826086 0.682177
vt 0.797053 0.700569
vt 0.791397 0.679862
vt 0.829671 0.675050
vt 0.824864 0.677163
vt 0.798901 0.701846
vt 0.790518 0.684105
vt 0.827068 0.670602
vt 0.822989 0.673705
vt 0.800815 0.703013
vt 0.790796 0.689657
vt 0.824760 0.667889
vt 0.821132 0.671706
vt 0.803558 0.704130
vt 0.792550 0.694909
vt 0.822727 0.666142
vt 0.819497 0.670397
vt 0.807666 0.704820
vt 0.817781 0.669181
vt 0.814258 0.709884
vt 0.812919 0.704336
vt 0.815304 0.667938
vt 0.820611 0.707082
vt 0.817766 0.702469
vt 0.824709 0.703716
vt 0.814403 0.710466
vt 0.820944 0.707593
vt 0.825148 0.704146
vt 0.827503 0.701324
vt 0.828918 0.698989
vt 0.830103 0.696585
vt 0.831340 0.693173
vt 0.832037 0.688070
vt 0.832037 0.681355
vt 0.830204 0.674806
vt 0.827554 0.670244
vt 0.825179 0.667480
vt 0.427836 0.960819
vt 0.426314 0.960544
vt 0.427885 0.948242
vt 0.433878 0.953959
vt 0.433595 0.955244
vt 0.429180 0.960403
vt 0.426384 0.948064
vt 0.358962 0.851181
vt 0.357722 0.850002
vt 0.424982 0.948480
vt 0.420407 0.954951
vt 0.420597 0.953648
vt 0.431455 0.957911
vt 0.430823 0.950194
vt 0.433327 0.952729
vt 0.420936 0.956244
vt 0.422693 0.950904
vt 0.360412 0.852152
vt 0.422175 0.957424
vt 0.421459 0.949881
vt 0.431858 0.948973
vt 0.432639 0.958908
vt 0.422419 0.959812
vt 0.424865 0.959574
vn 0.6038 0.0000 0.7971
vn -0.6038 0.0000 0.7971
vn 0.0000 0.6038 0.7971
vn 0.0000 -0.6038 0.7971
vn 0.7971 0.0000 -0.6038
vn 0.7971 0.0000 0.6038
vn 0.7971 0.6038 0.0000
vn 0.7971 -0.6038 -0.0000
vn -0.6038 0.0000 -0.7971
vn 0.6038 0.0000 -0.7971
vn 0.0000 0.6038 -0.7971
vn 0.0000 -0.6038 -0.7971
vn -0.7971 0.0000 0.6038
vn -0.7971 0.0000 -0.6038
vn -0.7971 0.6038 0.0000
vn -0.7971 -0.6038 -0.0000
vn 0.0000 -0.7971 0.6038
vn 0.0000 -0.7971 -0.6038
vn -0.6038 -0.7971 -0.0000
vn 0.6038 -0.7971 -0.0000
vn -0.9951 0.0000 0.0985
vn -0.8817 0.0000 0.4719
vn -0.3644 -0.9305 -0.0374
vn -0.3644 -0.9305 0.0374
vn -0.8082 -0.5836 0.0796
vn 0.0539 -0.9971 0.0539
vn 0.0539 -0.9971 -0.0539
vn 0.3644 -0.9305 -0.0374
vn -0.0796 -0.5836 0.8082
vn -0.0374 -0.9305 0.3644
vn 0.0374 -0.9305 0.3644
vn -0.3846 -0.5793 -0.7187
vn -0.4531 -0.2994 -0.8397
vn -0.0928 -0.2861 -0.9537
vn -0.7187 -0.5793 -0.3846
vn -0.8397 -0.2994 -0.4531
vn -0.8082 -0.5836 -0.0796
vn -0.9537 -0.2861 -0.0928
vn 0.0099 -0.9970 0.0768
vn -0.0099 -0.9970 0.0768
vn -0.0051 -0.9968 0.0801
vn -0.3846 -0.5793 0.7187
vn -0.4531 -0.2994 0.8397
vn -0.8397 -0.2994 0.4531
vn -0.7187 -0.5793 0.3846
vn -0.3329 -0.9268 0.1738
vn -0.1738 -0.9268 0.3329
vn 0.9951 0.0000 0.0985
vn 0.8817 0.0000 0.4719
vn 0.3846 -0.5793 0.7187
vn 0.7187 -0.5793 0.3846
vn 0.8397 -0.2994 0.4531
vn 0.0570 -0.9978 0.0331
vn 0.0331 -0.9978 0.0570
vn 0.0282 -0.9977 0.0614
vn -0.0539 -0.9971 0.0539
vn -0.9537 -0.2861 0.0928
vn 0.0570 -0.9978 -0.0331
vn 0.0614 -0.9977 -0.0282
vn 0.0282 -0.9977 -0.0614
vn -0.0985 0.0000 0.9951
vn 0.0985 0.0000 0.9951
vn 0.0796 -0.5836 0.8082
vn 0.0928 -0.2861 0.9537
vn -0.0768 -0.9970 0.0099
vn -0.0801 -0.9968 0.0051
vn -0.0614 -0.9977 0.0282
vn -0.0539 -0.9971 -0.0539
vn -0.0374 -0.9305 -0.3644
vn 0.0374 -0.9305 -0.3644
vn 0.0928 -0.2861 -0.9537
vn 0.4531 -0.2994 -0.8397
vn 0.3846 -0.5793 -0.7187
vn 0.8082 -0.5836 0.0796
vn 0.8082 -0.5836 -0.0796
vn 0.9537 -0.2861 -0.0928
vn 0.4531 -0.2994 0.8397
vn 0.7187 -0.5793 -0.3846
vn 0.9537 -0.2861 0.0928
vn 0.4719 0.0000 -0.8817
vn 0.0985 0.0000 -0.9951
vn 0.9951 0.0000 -0.0985
vn 0.3644 -0.9305 0.0374
vn -0.0928 -0.2861 0.9537
vn 0.8397 -0.2994 -0.4531
vn 0.8817 0.0000 -0.4719
vn -0.8817 0.0000 -0.4719
vn -0.9951 0.0000 -0.0985
vn 0.1738 -0.9268 -0.3329
vn 0.3329 -0.9268 -0.1738
vn -0.0099 0.9970 -0.0768
vn -0.0331 0.9978 -0.0570
vn -0.0282 0.9977 -0.0614
vn 0.1738 -0.9268 0.3329
vn 0.3329 -0.9268 0.1738
vn 0.4719 0.0000 0.8817
vn 0.0051 -0.9968 0.0801
vn -0.4719 0.0000 0.8817
vn -0.0331 -0.9978 -0.0570
vn -0.0282 -0.9977 -0.0614
vn -0.0614 -0.9977 -0.0282
vn -0.1738 -0.9268 -0.3329
vn -0.0768 0.9970 0.0099
vn -0.0570 0.9978 0.0331
vn -0.0614 0.9977 0.0282
vn 0.0099 0.9970 -0.0768
vn -0.0051 0.9968 -0.0802
vn -0.0796 -0.5836 -0.8082
vn -0.4719 0.0000 -0.8817
vn 0.0768 -0.9970 0.0099
vn 0.0614 -0.9977 0.0282
vn -0.0099 0.9970 0.0768
vn 0.0099 0.9970 0.0768
vn 0.0051 0.9968 0.0802
vn -0.3329 -0.9268 -0.1738
vn 0.0331 0.9978 0.0570
vn 0.0570 0.9978 0.0331
vn 0.0614 0.9977 0.0282
vn -0.0331 -0.9978 0.0570
vn -0.0282 -0.9977 0.0614
vn -0.0099 -0.9970 -0.0768
vn 0.0099 -0.9970 -0.0768
vn 0.0051 -0.9968 -0.0802
vn 0.0796 -0.5836 -0.8082
vn -0.0768 -0.9970 -0.0099
vn -0.0570 -0.9978 -0.0331
vn 0.0331 -0.9978 -0.0570
vn -0.0985 0.0000 -0.9951
vn 0.0331 0.9978 -0.0570
vn 0.0282 0.9977 -0.0614
vn 0.0614 0.9977 -0.0282
vn 0.0051 0.9968 -0.0802
vn -0.0768 0.9970 -0.0099
vn -0.0802 0.9968 0.0051
vn -0.0801 -0.9968 -0.0051
vn -0.0051 -0.9968 -0.0802
vn -0.0570 0.9978 -0.0331
vn -0.0614 0.9977 -0.0282
vn 0.0768 0.9970 -0.0099
vn 0.0570 0.9978 -0.0331
vn 0.0768 -0.9970 -0.0099
vn 0.0801 -0.9968 0.0051
vn -0.0802 0.9968 -0.0051
vn 0.0802 0.9968 -0.0051
vn 0.0802 0.9968 0.0051
vn -0.0331 0.9978 0.0570
vn -0.0282 0.9977 0.0614
vn 0.0282 0.9977 0.0614
vn 0.0768 0.9970 0.0099
vn -0.0051 0.9968 0.0802
vn 0.0801 -0.9968 -0.0051
vn -0.0570 -0.9978 0.0331
vn 0.7060 0.0566 0.7060
vn 0.7067 0.0325 0.7067
vn 0.9425 0.0641 0.3280
vn 0.7060 0.0566 -0.7060
vn 0.7067 0.0325 -0.7067
vn 0.3280 0.0641 -0.9425
vn -0.7060 0.0566 -0.7060
vn -0.7067 0.0325 -0.7067
vn -0.9425 0.0641 -0.3280
vn -0.7060 0.0566 0.7060
vn -0.7067 0.0325 0.7067
vn -0.3164 0.0644 0.9464
vn -0.5774 0.5773 -0.5774
vn 0.0000 1.0000 0.0000
vn -0.5168 0.8030 0.2968
vn -0.5157 0.8030 0.2989
vn -0.5697 0.8041 0.1697
vn -0.4220 0.8024 -0.4220
vn -0.5168 0.8030 -0.2968
vn -0.5157 0.8030 -0.2989
vn -0.5922 0.8034 0.0620
vn -0.5701 0.8041 0.1686
vn -0.2989 0.8030 -0.5157
vn -0.5968 0.8024 0.0000
vn -0.5923 0.8034 0.0613
vn -0.2968 0.8030 -0.5168
vn -0.1697 0.8041 -0.5697
vn -0.5923 0.8034 -0.0613
vn -0.0620 0.8034 -0.5922
vn -0.1686 0.8041 -0.5700
vn -0.5922 0.8034 -0.0620
vn -0.5697 0.8041 -0.1697
vn -0.0000 0.8024 -0.5968
vn -0.0613 0.8034 -0.5923
vn -0.5701 0.8041 -0.1686
vn 0.0613 0.8034 -0.5923
vn 0.0620 0.8034 -0.5922
vn 0.1697 0.8041 -0.5697
vn 0.2968 0.8030 -0.5168
vn 0.1686 0.8041 -0.5701
vn 0.4220 0.8024 -0.4220
vn 0.2989 0.8030 -0.5157
vn 0.5157 0.8030 -0.2989
vn 0.5168 0.8030 -0.2968
vn 0.5697 0.8041 -0.1697
vn 0.5922 0.8034 -0.0620
vn 0.5701 0.8041 -0.1686
vn 0.5968 0.8024 0.0000
vn 0.5923 0.8034 -0.0613
vn 0.0000 -0.1183 0.9930
vn 0.0830 0.0051 0.9965
vn -0.0000 0.2043 0.9789
vn 0.9519 0.3066 0.0000
vn 0.9425 0.0641 -0.3280
vn 0.9731 0.0972 -0.2090
vn 0.0000 0.3066 -0.9519
vn -0.3280 0.0641 -0.9425
vn -0.2090 0.0972 -0.9731
vn -0.9519 0.3066 0.0000
vn -0.9425 0.0641 0.3280
vn -0.9731 0.0972 0.2090
vn -0.5774 0.5774 0.5773
vn 0.5773 0.5774 -0.5774
vn 0.5774 0.5774 0.5774
vn -0.9731 0.0972 -0.2090
vn 0.2090 0.0972 -0.9731
vn -0.2036 0.0946 0.9745
vn 0.0272 0.1673 0.9855
vn 0.3164 0.0644 0.9464
vn 0.9731 0.0972 0.2090
vn 0.9793 -0.0834 -0.1843
vn 0.9589 -0.1087 -0.2620
vn 0.9584 -0.1060 -0.2651
vn 0.9793 -0.0834 0.1842
vn 0.9897 -0.1434 -0.0000
vn 0.9906 -0.1365 -0.0000
vn 0.1846 -0.0842 0.9792
vn 0.2620 -0.1087 0.9589
vn 0.2651 -0.1060 0.9584
vn -0.1846 -0.0842 0.9792
vn -0.0193 -0.1442 0.9894
vn -0.0200 -0.1357 0.9905
vn -0.1843 -0.0834 -0.9793
vn -0.2620 -0.1087 -0.9589
vn -0.2651 -0.1060 -0.9584
vn 0.1843 -0.0834 -0.9793
vn 0.0000 -0.1434 -0.9897
vn 0.0000 -0.1365 -0.9906
vn -0.9793 -0.0834 0.1843
vn -0.9589 -0.1087 0.2620
vn -0.9584 -0.1060 0.2651
vn -0.9793 -0.0834 -0.1843
vn -0.9897 -0.1434 -0.0000
vn -0.9906 -0.1365 -0.0000
vn 0.0000 -0.1566 0.9877
vn 0.1225 -0.1492 0.9812
vn -0.2651 -0.1060 0.9584
vn -0.2620 -0.1087 0.9589
vn -0.9584 -0.1060 -0.2651
vn -0.9589 -0.1087 -0.2620
vn 0.2651 -0.1060 -0.9584
vn 0.2620 -0.1087 -0.9589
vn 0.9584 -0.1060 0.2651
vn 0.9589 -0.1087 0.2620
vn -0.1225 -0.1492 0.9812
vn -0.0830 0.0051 0.9965
vn -0.0000 0.3526 0.9358
vn 0.0200 -0.1357 0.9905
vn 0.0193 -0.1442 0.9894
vn -0.0272 0.1673 0.9855
vn 0.2036 0.0946 0.9745
vn 0.7053 0.0724 -0.7053
vn 0.8639 0.0725 -0.4984
vn -0.1034 0.0726 0.9920
vn -0.1033 0.0726 0.9920
vn -0.2838 0.0728 0.9561
vn 0.4981 0.0725 -0.8641
vn 0.4984 0.0725 -0.8639
vn 0.0000 0.0724 0.9974
vn 0.2837 0.0728 -0.9561
vn 0.2838 0.0728 -0.9561
vn 0.1005 0.0693 0.9925
vn 0.0952 0.0726 0.9928
vn 0.1034 0.0726 -0.9920
vn 0.1033 0.0726 -0.9920
vn 0.2839 0.0626 0.9568
vn 0.2818 0.0687 0.9570
vn -0.0000 0.0724 -0.9974
vn 0.5005 0.0698 0.8629
vn 0.5033 0.0725 0.8611
vn -0.8641 0.0725 -0.4981
vn -0.9561 0.0728 -0.2837
vn -0.9561 0.0728 -0.2838
vn -0.1034 0.0726 -0.9920
vn -0.1033 0.0726 -0.9920
vn 0.7053 0.0724 0.7053
vn -0.9920 0.0726 -0.1034
vn -0.9920 0.0726 -0.1033
vn -0.2837 0.0728 -0.9561
vn -0.2838 0.0728 -0.9561
vn 0.8641 0.0725 0.4981
vn 0.8639 0.0725 0.4984
vn -0.9974 0.0724 0.0000
vn -0.4981 0.0725 -0.8641
vn -0.4984 0.0725 -0.8639
vn 0.9561 0.0728 0.2837
vn 0.9561 0.0728 0.2838
vn -0.9920 0.0726 0.1034
vn -0.9920 0.0726 0.1033
vn -0.7053 0.0724 -0.7053
vn 0.9920 0.0726 0.1034
vn 0.9920 0.0726 0.1033
vn -0.9561 0.0728 0.2837
vn -0.9561 0.0728 0.2838
vn -0.8639 0.0725 -0.4984
vn 0.9974 0.0724 0.0000
vn -0.8641 0.0725 0.4981
vn -0.8639 0.0725 0.4984
vn 0.9920 0.0726 -0.1034
vn 0.9920 0.0726 -0.1033
vn -0.7053 0.0724 0.7053
vn 0.9561 0.0728 -0.2837
vn 0.9561 0.0728 -0.2838
vn -0.4981 0.0725 0.8641
vn -0.4984 0.0725 0.8639
vn 0.8641 0.0725 -0.4981
vn -0.2837 0.0728 0.9561
vn -0.4220 0.8024 0.4220
vn -0.2968 0.8030 0.5168
vn -0.2989 0.8030 0.5157
vn -0.1686 0.8041 0.5700
vn -0.1697 0.8041 0.5697
vn -0.0620 0.8034 0.5922
vn -0.0613 0.8034 0.5923
vn 0.0000 0.8024 0.5968
vn 0.0620 0.8034 0.5922
vn 0.0613 0.8034 0.5923
vn 0.1686 0.8041 0.5700
vn 0.1697 0.8041 0.5697
vn 0.2968 0.8030 0.5168
vn 0.2989 0.8030 0.5157
vn 0.4220 0.8024 0.4220
vn 0.5168 0.8030 0.2968
vn 0.5157 0.8030 0.2989
vn 0.5701 0.8041 0.1686
vn 0.5697 0.8041 0.1697
vn 0.5922 0.8034 0.0620
vn 0.5923 0.8034 0.0613
vn 0.5949 -0.4120 0.6902
vn 0.5745 -0.3894 0.7199
vn 0.6288 -0.4508 0.6335
vn 0.0000 -0.9889 -0.1483
vn -0.6902 -0.4120 0.5949
vn -0.7199 -0.3894 0.5745
vn -0.6335 -0.4508 0.6288
vn -0.4978 -0.4842 -0.7195
vn -0.5972 -0.4731 -0.6477
vn -0.5863 -0.5133 -0.6268
vn -0.5949 -0.4120 -0.6902
vn -0.5745 -0.3894 -0.7199
vn -0.6288 -0.4508 -0.6335
vn 0.6415 -0.7668 -0.0198
vn 0.6473 -0.7622 -0.0012
vn 0.4296 -0.9029 -0.0180
vn -0.1483 -0.9889 -0.0000
vn 0.4978 -0.4842 0.7195
vn 0.5972 -0.4731 0.6477
vn 0.5862 -0.5133 0.6267
vn 0.6901 -0.4120 -0.5949
vn 0.7199 -0.3894 -0.5745
vn 0.6335 -0.4508 -0.6288
vn -0.3629 -0.9307 0.0459
vn -0.1328 -0.9903 0.0406
vn 0.1483 -0.9889 -0.0000
vn -0.7195 -0.4842 0.4978
vn -0.6477 -0.4731 0.5972
vn -0.6268 -0.5133 0.5863
vn -0.6415 -0.7668 -0.0198
vn -0.3865 -0.9222 -0.0141
vn -0.4296 -0.9029 -0.0180
vn 0.3579 -0.9337 -0.0111
vn 0.1328 -0.9903 0.0406
vn 0.7195 -0.4842 -0.4978
vn 0.6477 -0.4731 -0.5972
vn 0.6268 -0.5133 -0.5863
vn 0.9439 0.3303 0.0000
vn 0.0000 0.3303 -0.9439
vn -0.9439 0.3303 0.0000
vn 0.0303 0.1763 0.9839
vn 0.9941 -0.0756 -0.0784
vn 0.9941 -0.0756 0.0784
vn 0.0936 -0.0761 0.9927
vn -0.0936 -0.0761 0.9927
vn -0.0784 -0.0756 -0.9941
vn 0.0784 -0.0756 -0.9941
vn -0.9941 -0.0756 0.0784
vn -0.9941 -0.0756 -0.0784
vn -0.0303 0.1763 0.9839
vn 0.6477 -0.4731 0.5972
vn -0.5972 -0.4731 0.6477
vn -0.7244 -0.3514 -0.5931
vn -0.7942 -0.3672 -0.4841
vn -0.7199 -0.3894 -0.5745
vn -0.6477 -0.4731 -0.5972
vn 0.7244 -0.3514 0.5931
vn 0.7942 -0.3672 0.4841
vn 0.7199 -0.3894 0.5745
vn 0.5972 -0.4731 -0.6477
vn -0.5931 -0.3514 0.7244
vn -0.4841 -0.3672 0.7942
vn -0.5745 -0.3894 0.7199
vn -0.6473 -0.7622 -0.0012
vn 0.5931 -0.3514 -0.7244
vn 0.4841 -0.3672 -0.7942
vn 0.5745 -0.3894 -0.7199
usemtl Default_OBJ.001
s off
f 1/1/1 3/2/1 2/3/1
f 4/4/2 2/3/2 5/5/2
f 2/3/3 3/2/3 5/5/3
f 4/4/4 1/1/4 2/3/4
f 6/6/1 8/7/1 7/8/1
f 9/9/2 7/8/2 10/10/2
f 7/8/3 8/7/3 10/10/3
f 9/9/4 6/6/4 7/8/4
f 11/11/5 13/12/5 12/13/5
f 14/14/6 12/13/6 15/15/6
f 12/13/7 13/12/7 15/15/7
f 14/14/8 11/11/8 12/13/8
f 16/16/5 18/17/5 17/18/5
f 19/19/6 17/18/6 20/20/6
f 17/18/7 18/17/7 20/20/7
f 19/19/8 16/16/8 17/18/8
f 21/21/9 23/22/9 22/23/9
f 24/24/10 22/23/10 25/25/10
f 22/23/11 23/22/11 25/25/11
f 24/24/12 21/21/12 22/23/12
f 26/26/9 28/27/9 27/28/9
f 29/29/10 27/28/10 30/30/10
f 27/28/11 28/27/11 30/30/11
f 29/29/12 26/26/12 27/28/12
f 31/31/13 33/32/13 32/33/13
f 34/34/14 32/33/14 35/35/14
f 32/33/15 33/32/15 35/35/15
f 34/34/16 31/31/16 32/33/16
f 36/36/13 38/37/13 37/38/13
f 39/39/14 37/38/14 40/40/14
f 37/38/15 38/37/15 40/40/15
f 39/39/16 36/36/16 37/38/16
f 41/41/17 43/42/17 42/43/17
f 44/44/18 42/43/18 45/45/18
f 42/43/19 43/42/19 45/45/19
f 44/44/20 41/41/20 42/43/20
f 46/46/17 48/47/17 47/48/17
f 49/49/18 47/48/18 50/50/18
f 47/48/19 48/47/19 50/50/19
f 49/49/20 46/46/20 47/48/20
f 51/51/17 53/52/17 52/53/17
f 54/54/18 52/53/18 55/55/18
f 52/53/19 53/52/19 55/55/19
f 54/54/20 51/51/20 52/53/20
f 56/56/17 58/57/17 57/58/17
f 59/59/18 57/58/18 60/60/18
f 57/58/19 58/57/19 60/60/19
f 59/59/20 56/56/20 57/58/20
s 1
f 61/61/21 63/62/21 62/63/22
f 64/64/23 66/65/24 65/66/25
f 67/67/26 69/68/27 68/69/28
f 70/70/29 72/71/30 71/72/31
f 73/73/32 75/74/33 74/75/34
f 76/76/35 77/77/36 75/78/33
f 76/79/35 79/80/37 78/81/38
f 80/82/39 82/83/40 81/84/41
f 83/85/42 85/86/43 84/87/44
f 86/88/45 88/89/46 87/90/47
f 89/91/48 91/92/49 90/93/49
f 92/94/50 94/95/51 93/96/52
f 90/97/53 96/98/54 95/99/55
f 72/71/30 97/100/56 67/67/26
f 86/101/45 84/102/44 98/103/57
f 99/104/58 101/105/59 100/106/60
f 82/83/61 80/82/62 102/107/62
f 70/108/29 104/109/63 103/110/64
f 63/62/65 106/111/66 105/112/67
f 107/113/68 109/114/69 108/115/70
f 110/116/71 112/117/72 111/118/73
f 64/64/23 107/113/68 97/100/56
f 79/80/37 65/119/25 98/103/57
f 113/120/74 115/121/75 114/122/76
f 92/94/50 116/123/77 103/110/64
f 117/124/78 111/118/73 112/117/72
f 118/125/79 93/96/52 94/95/51
f 119/126/80 121/127/81 120/128/81
f 122/129/82 89/91/48 123/130/48
f 113/131/74 124/132/83 68/69/28
f 125/133/84 85/86/43 83/134/42
f 117/135/78 126/136/85 114/122/76
f 97/100/56 107/113/68 69/68/27
f 127/137/82 99/138/86 128/139/86
f 129/140/87 131/141/87 130/142/88
f 69/68/27 108/115/70 132/143/89
f 69/68/27 132/143/89 133/144/90
f 69/68/27 133/144/90 68/69/28
f 87/90/47 72/71/30 70/70/29
f 74/75/91 75/74/92 134/145/93
f 135/146/94 136/147/95 94/148/51
f 90/97/49 91/149/49 137/150/96
f 113/131/74 94/148/51 136/147/95
f 80/82/39 138/151/97 95/99/55
f 96/98/96 137/150/96 102/107/62
f 139/152/98 140/153/98 82/83/61
f 104/154/63 71/72/31 135/146/94
f 67/67/26 124/132/83 136/147/95
f 67/67/26 136/147/95 135/146/94
f 67/67/26 135/146/94 71/72/31
f 88/89/46 86/88/45 65/66/25
f 141/155/99 143/156/100 142/157/101
f 76/158/35 73/159/32 144/160/102
f 98/103/103 84/102/104 145/161/105
f 110/116/106 74/75/91 146/162/107
f 108/115/70 109/114/69 147/163/108
f 148/164/109 141/155/109 131/141/87
f 123/130/110 90/93/53 149/165/111
f 97/100/56 72/71/30 87/90/47
f 140/153/98 139/152/98 150/166/22
f 97/100/56 87/90/47 88/89/46
f 97/100/56 88/89/46 66/65/24
f 117/167/78 133/144/90 132/143/89
f 125/133/112 103/110/113 151/168/114
f 152/169/115 64/64/23 79/170/37
f 116/123/116 93/96/117 153/171/118
f 63/62/21 61/61/21 154/172/88
f 144/160/102 73/159/32 147/163/108
f 107/113/68 64/64/23 152/169/115
f 82/83/40 140/153/119 155/173/120
f 156/174/121 121/127/122 157/175/123
f 107/113/68 152/169/115 144/160/102
f 107/113/68 144/160/102 109/114/69
f 132/143/89 108/115/70 158/176/124
f 130/142/125 131/141/126 142/157/101
f 115/177/75 68/69/28 133/144/90
f 99/104/86 119/126/80 159/178/80
f 121/127/122 119/126/127 100/106/60
f 148/179/109 160/180/128 156/174/128
f 120/128/81 121/127/81 156/174/128
f 147/181/108 74/75/34 110/116/71
f 161/182/82 163/183/48 162/184/48
f 162/184/48 163/183/48 149/185/49
f 106/186/21 164/187/21 145/188/22
f 153/189/49 149/190/49 95/191/96
f 165/192/86 166/193/80 100/194/80
f 142/195/87 168/196/87 167/197/88
f 155/198/98 170/199/98 169/200/61
f 166/193/80 171/201/81 157/202/81
f 172/203/96 95/191/96 138/204/62
f 157/202/81 171/201/81 146/205/128
f 169/200/61 151/206/62 138/204/62
f 143/207/109 134/208/109 168/196/87
f 143/209/109 173/210/128 146/205/128
f 167/197/88 164/187/21 106/186/21
f 174/211/82 165/212/86 101/213/86
f 170/199/98 155/198/98 105/214/22
f 112/117/129 166/215/130 165/216/131
f 110/116/106 171/217/132 166/215/130
f 78/81/133 98/103/103 164/218/134
f 63/62/65 130/142/125 175/219/135
f 156/174/121 173/220/136 143/221/100
f 75/78/92 77/77/137 168/222/138
f 114/122/139 126/136/140 165/223/131
f 127/137/141 123/130/110 163/224/142
f 78/81/133 167/225/143 168/222/138
f 114/122/139 174/226/144 162/227/145
f 84/87/104 85/86/146 170/228/147
f 103/110/113 116/123/116 172/229/148
f 118/125/149 162/227/145 153/171/118
f 125/133/112 169/230/150 170/228/147
f 127/137/141 161/231/151 101/232/59
f 140/153/119 62/233/152 105/234/67
f 61/61/21 62/63/22 150/235/22
f 64/64/23 65/66/25 79/170/37
f 67/67/26 68/69/28 124/132/83
f 70/70/29 71/72/31 104/154/63
f 73/73/32 74/75/34 147/181/108
f 76/76/35 75/78/33 73/73/32
f 76/79/35 78/81/38 77/77/36
f 80/82/39 81/84/41 138/151/97
f 83/85/42 84/87/44 86/101/45
f 86/88/45 87/90/47 83/236/42
f 89/91/48 90/93/49 123/130/48
f 92/94/50 93/96/52 116/123/77
f 90/97/53 95/99/55 149/237/111
f 72/71/30 67/67/26 71/72/31
f 86/101/45 98/103/57 65/119/25
f 99/104/58 100/106/60 119/126/127
f 82/83/61 102/107/62 176/238/61
f 70/108/29 103/110/64 125/133/84
f 63/62/65 105/112/67 62/63/152
f 107/113/68 108/115/70 69/68/27
f 110/116/71 111/118/73 158/239/124
f 64/64/23 97/100/56 66/65/24
f 79/80/37 98/103/57 78/81/38
f 113/120/74 114/122/76 118/125/79
f 92/94/50 103/110/64 104/109/63
f 117/124/78 112/117/72 126/240/85
f 118/125/79 94/95/51 113/120/74
f 119/126/80 120/128/81 159/178/80
f 122/129/82 123/130/48 127/137/82
f 113/131/74 68/69/28 115/177/75
f 125/133/84 83/134/42 70/108/29
f 117/135/78 114/122/76 115/121/75
f 97/100/56 69/68/27 67/67/26
f 127/137/82 128/139/86 122/129/82
f 129/140/87 130/142/88 154/172/88
f 87/90/47 70/70/29 83/236/42
f 74/75/91 134/145/93 146/162/107
f 135/146/94 94/148/51 92/241/50
f 90/97/49 137/150/96 96/98/96
f 113/131/74 136/147/95 124/132/83
f 80/82/39 95/99/55 96/98/54
f 96/98/96 102/107/62 80/82/62
f 139/152/98 82/83/61 176/238/61
f 104/154/63 135/146/94 92/241/50
f 88/89/46 65/66/25 66/65/24
f 141/155/99 142/157/101 131/141/126
f 76/158/35 144/160/102 152/169/115
f 98/103/103 145/161/105 164/218/134
f 110/116/106 146/162/107 171/217/132
f 108/115/70 147/163/108 158/176/124
f 148/164/109 131/141/87 129/140/87
f 123/130/110 149/165/111 163/224/142
f 140/153/98 150/166/22 62/233/22
f 117/167/78 132/143/89 111/242/73
f 125/133/112 151/168/114 169/230/150
f 152/169/115 79/170/37 76/158/35
f 116/123/116 153/171/118 172/229/148
f 63/62/21 154/172/88 130/142/88
f 144/160/102 147/163/108 109/114/69
f 82/83/40 155/173/120 81/84/41
f 156/174/121 157/175/123 173/220/136
f 132/143/89 158/176/124 111/242/73
f 130/142/125 142/157/101 175/219/135
f 115/177/75 133/144/90 117/167/78
f 99/104/86 159/178/80 128/243/86
f 121/127/122 100/106/60 157/175/123
f 148/179/109 156/174/128 141/244/109
f 120/128/81 156/174/128 160/180/128
f 147/181/108 110/116/71 158/239/124
f 161/182/82 162/184/48 174/211/82
f 162/184/48 149/185/49 153/245/49
f 106/186/21 145/188/22 105/246/22
f 153/189/49 95/191/96 172/203/96
f 165/192/86 100/194/80 101/247/86
f 142/195/87 167/197/88 175/248/88
f 155/198/98 169/200/61 81/249/61
f 166/193/80 157/202/81 100/194/80
f 172/203/96 138/204/62 151/206/62
f 157/202/81 146/205/128 173/210/128
f 169/200/61 138/204/62 81/249/61
f 143/207/109 168/196/87 142/195/87
f 143/209/109 146/205/128 134/250/109
f 167/197/88 106/186/21 175/248/88
f 174/211/82 101/213/86 161/182/82
f 170/199/98 105/214/22 145/251/22
f 112/117/129 165/216/131 126/240/140
f 110/116/106 166/215/130 112/117/129
f 78/81/133 164/218/134 167/225/143
f 63/62/65 175/219/135 106/111/66
f 156/174/121 143/221/100 141/244/99
f 75/78/92 168/222/138 134/252/93
f 114/122/139 165/223/131 174/226/144
f 127/137/141 163/224/142 161/231/151
f 78/81/133 168/222/138 77/77/137
f 114/122/139 162/227/145 118/125/149
f 84/87/104 170/228/147 145/253/105
f 103/110/113 172/229/148 151/168/114
f 118/125/149 153/171/118 93/96/117
f 125/133/112 170/228/147 85/86/146
f 127/137/141 101/232/59 99/138/58
f 140/153/119 105/234/67 155/173/120
f 177/254/153 179/255/154 178/256/155
f 180/257/156 182/258/157 181/259/158
f 183/260/159 185/261/160 184/262/161
f 186/263/162 188/264/163 187/265/164
f 183/266/165 190/267/165 189/268/165
f 191/269/166 193/270/166 192/271/166
f 194/272/166 196/273/166 195/274/166
f 197/275/166 199/276/166 198/277/166
f 200/278/167 202/279/168 201/280/169
f 194/281/170 195/282/171 203/283/172
f 204/284/173 205/285/174 201/280/169
f 194/281/170 207/286/170 206/287/175
f 208/288/176 204/284/173 209/289/177
f 210/290/178 206/287/175 211/291/179
f 208/288/176 213/292/176 212/293/180
f 214/294/181 215/295/182 211/291/179
f 216/296/183 212/293/180 217/297/184
f 218/298/185 214/294/181 219/299/186
f 195/282/171 220/300/187 217/297/184
f 218/298/185 222/301/185 221/302/188
f 223/303/189 221/302/188 224/304/190
f 192/305/191 225/306/192 224/304/190
f 191/307/193 192/305/191 226/308/194
f 191/307/193 228/309/193 227/310/195
f 229/311/196 227/310/195 230/312/197
f 231/313/198 232/314/199 230/312/197
f 233/315/200 231/313/198 234/316/201
f 235/317/202 237/318/203 236/319/204
f 238/320/205 240/321/206 239/322/207
f 241/323/208 242/324/209 189/325/210
f 243/326/211 245/327/212 244/328/213
f 244/329/214 186/330/214 193/270/214
f 246/331/166 190/267/166 247/332/166
f 239/333/215 180/334/215 199/276/215
f 248/335/216 177/336/216 196/273/216
f 190/337/217 184/262/161 243/326/211
f 245/327/212 188/264/163 186/263/162
f 199/338/218 181/259/158 241/323/208
f 242/324/209 185/261/160 183/260/159
f 193/339/219 187/265/164 249/340/220
f 250/341/221 179/255/154 177/254/153
f 196/342/222 178/256/155 238/320/205
f 240/321/206 182/258/157 180/257/156
f 251/343/223 252/344/224 182/258/225
f 253/345/226 254/346/227 238/320/228
f 255/347/229 256/348/230 179/255/231
f 257/349/232 258/350/233 249/340/234
f 259/351/235 260/352/236 185/261/237
f 261/353/238 262/354/239 241/323/240
f 263/355/241 264/356/242 188/264/243
f 265/357/244 266/358/245 243/326/246
f 243/326/246 266/358/245 263/355/241
f 241/323/240 262/354/239 259/351/235
f 238/320/228 254/346/227 251/343/223
f 235/317/202 268/359/247 267/360/248
f 188/264/249 264/356/250 257/349/232
f 185/261/251 260/352/252 265/357/244
f 182/258/253 252/344/254 261/353/238
f 179/255/255 256/348/256 253/345/226
f 244/329/166 231/361/166 233/362/166
f 244/329/166 232/363/166 231/361/166
f 223/364/166 193/270/166 218/365/166
f 225/366/166 193/270/166 223/364/166
f 244/329/166 229/367/166 232/363/166
f 244/329/166 191/269/166 229/367/166
f 192/271/166 193/270/166 225/366/166
f 244/329/166 193/270/166 191/269/166
f 248/335/166 214/368/166 218/365/166
f 248/335/166 215/369/166 214/368/166
f 216/370/166 196/273/166 208/371/166
f 220/372/166 196/273/166 216/370/166
f 248/335/166 210/373/166 215/369/166
f 248/335/166 194/272/166 210/373/166
f 195/274/166 196/273/166 220/372/166
f 248/335/166 196/273/166 194/272/166
f 239/333/166 204/374/166 208/371/166
f 239/333/166 205/375/166 204/374/166
f 269/376/166 199/276/166 270/377/166
f 271/378/166 199/276/166 269/376/166
f 239/333/166 200/379/166 205/375/166
f 239/333/166 197/275/166 200/379/166
f 198/277/166 199/276/166 271/378/166
f 239/333/166 199/276/166 197/275/166
f 189/268/166 272/380/166 270/377/166
f 189/268/166 273/381/166 272/380/166
f 274/382/166 190/267/166 233/362/166
f 275/383/166 190/267/166 274/382/166
f 189/268/166 276/384/166 273/381/166
f 189/268/166 246/331/166 276/384/166
f 247/332/166 190/267/166 275/383/166
f 189/268/166 190/267/166 246/331/166
f 258/385/257 268/359/247 235/317/202
f 249/386/258 236/319/204 218/387/259
f 237/388/260 267/389/261 255/347/229
f 237/388/262 250/341/221 248/390/263
f 237/318/203 218/387/259 236/319/204
f 236/319/204 249/386/258 235/317/202
f 228/309/264 278/391/264 277/392/265
f 279/393/266 281/394/267 280/395/268
f 228/309/264 226/308/269 282/396/270
f 283/397/271 284/398/271 281/394/267
f 226/308/269 224/304/272 285/399/273
f 283/397/271 287/400/274 286/401/275
f 221/302/276 288/402/277 285/399/273
f 287/400/274 290/403/278 289/404/279
f 222/301/280 291/405/280 288/402/277
f 292/406/281 293/407/282 289/404/279
f 203/283/283 217/297/284 294/408/285
f 222/301/280 219/299/286 295/409/287
f 296/410/288 297/411/288 293/407/282
f 212/293/289 298/412/290 294/408/285
f 219/299/286 211/291/291 299/413/292
f 296/410/288 301/414/293 300/415/294
f 213/292/295 302/416/295 298/412/290
f 206/287/296 303/417/297 299/413/292
f 301/414/293 305/418/298 304/419/299
f 213/292/295 209/289/300 306/420/301
f 207/286/302 307/421/302 303/417/297
f 308/422/303 309/423/304 304/419/299
f 209/289/300 201/280/305 310/424/306
f 207/286/302 203/283/283 311/425/307
f 312/426/308 313/427/308 309/423/304
f 202/279/309 314/428/310 310/424/306
f 312/426/308 234/316/311 315/429/312
f 316/430/313 317/431/313 314/428/310
f 234/316/311 230/312/314 318/432/315
f 316/430/313 320/433/316 319/434/317
f 227/310/318 277/392/265 318/432/315
f 320/433/316 321/435/319 280/395/268
f 197/436/320 316/430/320 202/279/168
f 197/436/320 198/437/321 320/433/322
f 198/437/321 271/438/323 321/435/324
f 269/439/325 279/393/326 321/435/324
f 270/440/327 283/397/327 279/393/326
f 270/440/327 272/441/328 287/400/329
f 272/441/328 273/442/330 290/403/331
f 276/443/332 292/406/333 290/403/331
f 246/444/334 296/410/334 292/406/333
f 246/444/334 247/445/335 301/414/336
f 247/445/335 275/446/337 305/418/338
f 274/447/339 308/422/340 305/418/338
f 233/315/200 312/426/200 308/422/340
f 264/356/341 323/448/342 322/449/343
f 262/354/344 261/353/344 324/450/344
f 260/352/345 326/451/346 325/452/347
f 264/356/348 263/355/349 327/453/350
f 252/344/351 328/454/352 324/450/353
f 268/359/354 330/455/355 329/456/356
f 266/358/357 265/357/357 325/452/357
f 252/344/358 251/343/359 331/457/360
f 256/348/361 333/458/362 332/459/363
f 258/350/364 257/349/365 322/449/365
f 266/358/357 334/460/357 327/453/357
f 254/346/366 253/345/366 332/459/366
f 262/354/344 336/461/344 335/462/344
f 256/348/367 255/347/368 337/463/369
f 254/346/366 338/464/366 331/457/366
f 268/359/370 258/385/371 339/465/372
f 267/389/373 329/466/356 337/463/374
f 260/352/375 259/351/376 335/462/377
f 177/254/153 178/256/155 196/342/222
f 180/257/156 181/259/158 199/338/218
f 183/260/159 184/262/161 190/337/217
f 186/263/162 187/265/164 193/339/219
f 200/278/167 201/280/169 205/285/174
f 194/281/170 203/283/172 207/286/170
f 204/284/173 201/280/169 209/289/177
f 194/281/170 206/287/175 210/290/178
f 208/288/176 209/289/177 213/292/176
f 210/290/178 211/291/179 215/295/182
f 208/288/176 212/293/180 216/296/183
f 214/294/181 211/291/179 219/299/186
f 216/296/183 217/297/184 220/300/187
f 218/298/185 219/299/186 222/301/185
f 195/282/171 217/297/184 203/283/172
f 218/298/185 221/302/188 223/303/189
f 223/303/189 224/304/190 225/306/192
f 192/305/191 224/304/190 226/308/194
f 191/307/193 226/308/194 228/309/193
f 191/307/193 227/310/195 229/311/196
f 229/311/196 230/312/197 232/314/199
f 231/313/198 230/312/197 234/316/201
f 233/315/200 234/316/201 312/426/200
f 238/320/205 239/322/207 208/467/378
f 241/323/208 189/325/210 270/468/379
f 243/326/211 244/328/213 233/469/380
f 190/337/217 243/326/211 233/469/380
f 245/327/212 186/263/162 244/328/213
f 199/338/218 241/323/208 270/468/379
f 242/324/209 183/260/159 189/325/210
f 193/339/219 249/340/220 218/470/381
f 250/341/221 177/254/153 248/390/263
f 196/342/222 238/320/205 208/467/378
f 240/321/206 180/257/156 239/322/207
f 251/343/223 182/258/225 240/321/382
f 253/345/226 238/320/228 178/256/383
f 255/347/229 179/255/231 250/341/384
f 257/349/232 249/340/234 187/265/385
f 259/351/235 185/261/237 242/324/386
f 261/353/238 241/323/240 181/259/387
f 263/355/241 188/264/243 245/327/388
f 265/357/244 243/326/246 184/262/389
f 243/326/246 263/355/241 245/327/388
f 241/323/240 259/351/235 242/324/386
f 238/320/228 251/343/223 240/321/382
f 235/317/202 267/360/248 237/318/203
f 188/264/249 257/349/232 187/265/385
f 185/261/251 265/357/244 184/262/389
f 182/258/253 261/353/238 181/259/387
f 179/255/255 253/345/226 178/256/383
f 258/385/257 235/317/202 249/386/258
f 237/388/260 255/347/229 250/341/384
f 237/388/262 248/390/263 218/470/390
f 228/309/264 277/392/265 227/310/318
f 279/393/266 280/395/268 321/435/319
f 228/309/264 282/396/270 278/391/264
f 283/397/271 281/394/267 279/393/266
f 226/308/269 285/399/273 282/396/270
f 283/397/271 286/401/275 284/398/271
f 221/302/276 285/399/273 224/304/272
f 287/400/274 289/404/279 286/401/275
f 222/301/280 288/402/277 221/302/276
f 292/406/281 289/404/279 290/403/278
f 203/283/283 294/408/285 311/425/307
f 222/301/280 295/409/287 291/405/280
f 296/410/288 293/407/282 292/406/281
f 212/293/289 294/408/285 217/297/284
f 219/299/286 299/413/292 295/409/287
f 296/410/288 300/415/294 297/411/288
f 213/292/295 298/412/290 212/293/289
f 206/287/296 299/413/292 211/291/291
f 301/414/293 304/419/299 300/415/294
f 213/292/295 306/420/301 302/416/295
f 207/286/302 303/417/297 206/287/296
f 308/422/303 304/419/299 305/418/298
f 209/289/300 310/424/306 306/420/301
f 207/286/302 311/425/307 307/421/302
f 312/426/308 309/423/304 308/422/303
f 202/279/309 310/424/306 201/280/305
f 312/426/308 315/429/312 313/427/308
f 316/430/313 314/428/310 202/279/309
f 234/316/311 318/432/315 315/429/312
f 316/430/313 319/434/317 317/431/313
f 227/310/318 318/432/315 230/312/314
f 320/433/316 280/395/268 319/434/317
f 197/436/320 202/279/168 200/278/167
f 197/436/320 320/433/322 316/430/320
f 198/437/321 321/435/324 320/433/322
f 269/439/325 321/435/324 271/438/323
f 270/440/327 279/393/326 269/439/325
f 270/440/327 287/400/329 283/397/327
f 272/441/328 290/403/331 287/400/329
f 276/443/332 290/403/331 273/442/330
f 246/444/334 292/406/333 276/443/332
f 246/444/334 301/414/336 296/410/334
f 247/445/335 305/418/338 301/414/336
f 274/447/339 305/418/338 275/446/337
f 233/315/200 308/422/340 274/447/339
f 264/356/341 322/449/343 257/349/391
f 262/354/344 324/450/344 336/461/344
f 260/352/345 325/452/347 265/357/392
f 264/356/393 327/453/394 323/448/395
f 252/344/351 324/450/353 261/353/396
f 268/359/354 329/456/356 267/360/373
f 266/358/357 325/452/357 334/460/357
f 252/344/397 331/457/398 328/454/399
f 256/348/361 332/459/363 253/345/400
f 258/350/371 322/449/365 339/471/372
f 266/358/357 327/453/357 263/355/357
f 254/346/366 332/459/366 338/464/366
f 262/354/344 335/462/344 259/351/344
f 256/348/401 337/463/402 333/458/403
f 254/346/366 331/457/366 251/343/366
f 268/359/370 339/465/372 330/455/404
f 267/389/373 337/463/374 255/347/374
f 260/352/405 335/462/406 326/451/407
