# Blender v2.93.1 OBJ File: ''
# www.blender.org
mtllib GEOp_shaftbottom.mtl
o geo_piston_bottom
v -1.185176 1.131227 0.104413
v -0.895587 1.131227 -0.185176
v -0.500000 1.131227 0.500000
v -0.500000 1.131227 -0.291174
v -0.104413 1.131227 -0.185176
v 0.185176 1.131227 0.104413
v 0.291174 1.131227 0.500000
v 0.185176 1.131227 0.895587
v -0.104413 1.131227 1.185176
v -0.500000 1.131227 1.291174
v -0.895587 1.131227 1.185176
v -1.185176 1.131227 0.895587
v -1.291174 1.131227 0.500000
v -1.185176 -0.160939 0.104413
v -0.895587 -0.160939 -0.185176
v -0.500000 -0.160939 -0.291174
v -0.104413 -0.160939 -0.185176
v 0.185176 -0.160939 0.104413
v 0.291174 -0.160939 0.500000
v 0.185176 -0.160939 0.895587
v -0.104413 -0.160939 1.185176
v -0.500000 -0.160939 1.291174
v -0.895587 -0.160939 1.185176
v -1.185176 -0.160939 0.895587
v -1.291174 -0.160939 0.500000
vt 0.053598 0.479484
vt 0.035110 0.467956
vt 0.045784 0.487298
vt 0.035110 0.490158
vt 0.024436 0.487298
vt 0.016622 0.479484
vt 0.013762 0.468810
vt 0.016622 0.458136
vt 0.024436 0.450322
vt 0.035110 0.447462
vt 0.045784 0.450322
vt 0.053598 0.458136
vt 0.056458 0.468810
vt 0.001051 0.377896
vt 0.001051 0.430346
vt 0.011222 0.430346
vt 0.011222 0.377896
vt 0.021402 0.430346
vt 0.021402 0.377896
vt 0.031574 0.430346
vt 0.031574 0.377896
vt 0.041746 0.430346
vt 0.041746 0.377896
vt 0.051917 0.430346
vt 0.051917 0.377896
vt 0.062089 0.430346
vt 0.062089 0.377896
vt 0.072261 0.430346
vt 0.072261 0.377896
vt 0.082433 0.430346
vt 0.082433 0.377896
vt 0.092605 0.430346
vt 0.092605 0.377896
vt 0.102777 0.430346
vt 0.102777 0.377896
vt 0.112956 0.430346
vt 0.112956 0.377896
vt 0.123128 0.430346
vt 0.123128 0.377896
vn 0.0000 1.0000 0.0000
vn -0.8660 0.0000 -0.5000
vn -0.5000 0.0000 -0.8660
vn 0.0000 0.0000 -1.0000
vn 0.5000 0.0000 -0.8660
vn 0.8660 0.0000 -0.5000
vn 1.0000 0.0000 0.0000
vn 0.8660 -0.0000 0.5000
vn 0.5000 -0.0000 0.8660
vn 0.0000 -0.0000 1.0000
vn -0.5000 -0.0000 0.8660
vn -0.8660 -0.0000 0.5000
vn -1.0000 0.0000 -0.0000
usemtl blinn1SG.002
s off
f 1/1/1 3/2/1 2/3/1
f 2/3/1 3/2/1 4/4/1
f 4/4/1 3/2/1 5/5/1
f 5/5/1 3/2/1 6/6/1
f 6/6/1 3/2/1 7/7/1
f 7/7/1 3/2/1 8/8/1
f 8/8/1 3/2/1 9/9/1
f 9/9/1 3/2/1 10/10/1
f 10/10/1 3/2/1 11/11/1
f 11/11/1 3/2/1 12/12/1
f 12/12/1 3/2/1 13/13/1
f 13/13/1 3/2/1 1/1/1
s 1
f 14/14/2 1/15/2 2/16/3 15/17/3
f 15/17/3 2/16/3 4/18/4 16/19/4
f 16/19/4 4/18/4 5/20/5 17/21/5
f 17/21/5 5/20/5 6/22/6 18/23/6
f 18/23/6 6/22/6 7/24/7 19/25/7
f 19/25/7 7/24/7 8/26/8 20/27/8
f 20/27/8 8/26/8 9/28/9 21/29/9
f 21/29/9 9/28/9 10/30/10 22/31/10
f 22/31/10 10/30/10 11/32/11 23/33/11
f 23/33/11 11/32/11 12/34/12 24/35/12
f 24/35/12 12/34/12 13/36/13 25/37/13
f 25/37/13 13/36/13 1/38/2 14/39/2
