# Blender v2.93.1 OBJ File: ''
# www.blender.org
mtllib GEOp_blockbottom.mtl
o geo_block_bottom
v 0.258274 0.344012 0.659851
v 0.258274 0.557951 0.659851
v 0.371306 0.557951 0.613032
v 0.371306 0.344012 0.613032
v 0.418125 0.557951 0.500000
v 0.418125 0.344012 0.500000
v 0.371306 0.557951 0.386968
v 0.371306 0.344012 0.386968
v 0.258274 0.557951 0.340149
v 0.258274 0.344012 0.340149
v -0.030684 0.344012 0.659851
v -0.030684 0.557951 0.659851
v -0.030684 0.557951 0.340149
v -0.030684 0.344012 0.340149
v -0.340149 0.344012 1.258274
v -0.386968 0.344012 1.371306
v -0.386968 0.557951 1.371306
v -0.340149 0.557951 1.258274
v -0.500000 0.344012 1.418125
v -0.500000 0.557951 1.418125
v -0.613032 0.344012 1.371306
v -0.613032 0.557951 1.371306
v -0.659851 0.344012 1.258274
v -0.659851 0.557951 1.258274
v -0.340149 0.557951 0.969316
v -0.340149 0.344012 0.969316
v -0.659851 0.344012 0.969316
v -0.659851 0.557951 0.969316
v -1.258274 0.344012 0.659851
v -1.371306 0.344012 0.613032
v -1.371306 0.557951 0.613032
v -1.258274 0.557951 0.659851
v -1.418125 0.344012 0.500000
v -1.418125 0.557951 0.500000
v -1.371306 0.344012 0.386968
v -1.371306 0.557951 0.386968
v -1.258274 0.344012 0.340149
v -1.258274 0.557951 0.340149
v -0.969316 0.557951 0.659851
v -0.969316 0.344012 0.659851
v -0.969316 0.344012 0.340149
v -0.969316 0.557951 0.340149
v -0.340149 0.344012 -0.258274
v -0.340149 0.557951 -0.258274
v -0.386968 0.557951 -0.371306
v -0.386968 0.344012 -0.371306
v -0.500000 0.557951 -0.418125
v -0.500000 0.344012 -0.418125
v -0.613032 0.557951 -0.371306
v -0.613032 0.344012 -0.371306
v -0.659851 0.557951 -0.258274
v -0.659851 0.344012 -0.258274
v -0.340149 0.344012 0.030684
v -0.340149 0.557951 0.030684
v -0.659851 0.557951 0.030684
v -0.659851 0.344012 0.030684
v -1.441378 0.500000 -0.098394
v -1.449963 0.500000 -0.279294
v -1.449963 0.552534 -0.279294
v -1.441378 0.552534 -0.045250
v -1.500000 -0.300020 -0.300020
v -1.500000 0.301681 -0.300020
v -1.500000 0.301681 0.063976
v -1.441378 0.369114 0.103227
v -1.441378 0.301681 0.063976
v -1.500000 0.500000 -0.098394
v -1.500000 0.500000 -0.300020
v -1.098394 0.500000 -0.441378
v -1.045250 0.552534 -0.441378
v -1.279294 0.552534 -0.449963
v -1.279294 0.500000 -0.449963
v -1.300020 -0.300020 -0.500000
v -0.936024 0.301681 -0.500000
v -1.300020 0.301681 -0.500000
v -1.300020 -0.500000 -0.300020
v 0.300020 -0.500000 -0.300020
v 0.300020 -0.300020 -0.500000
v -0.936024 0.301681 -0.441378
v -0.896773 0.369114 -0.441378
v -0.063976 0.301681 -0.441378
v -0.103227 0.369114 -0.441378
v -1.098394 0.500000 -0.500000
v -1.300020 0.500000 -0.500000
v -0.063976 0.301681 -0.500000
v -0.896773 0.369114 0.103227
v -0.103227 0.369114 0.103227
v -1.049880 0.555176 -0.045250
v 0.441378 0.500000 -0.098394
v 0.441378 0.552534 -0.045250
v 0.449963 0.552534 -0.279294
v 0.449963 0.500000 -0.279294
v 0.500000 -0.300020 -0.300020
v 0.500000 0.301681 0.063976
v 0.500000 0.301681 -0.300020
v 0.441378 0.301681 0.063976
v 0.441378 0.369114 0.103227
v 0.500000 0.500000 -0.098394
v 0.500000 0.500000 -0.300020
v 0.098394 0.500000 -0.441378
v 0.279294 0.500000 -0.449963
v 0.279294 0.552534 -0.449963
v 0.045250 0.552534 -0.441378
v 0.300020 0.301681 -0.500000
v 0.098394 0.500000 -0.500000
v 0.300020 0.500000 -0.500000
v 0.300020 -0.500000 1.300020
v 0.500000 -0.300020 1.300020
v 0.500000 0.301681 0.936024
v 0.441378 0.301681 0.936024
v 0.441378 0.369114 0.896773
v 0.049880 0.555176 -0.045250
v -1.441378 0.500000 1.098394
v -1.441378 0.552534 1.045250
v -1.449963 0.552534 1.279294
v -1.449963 0.500000 1.279294
v -1.500000 -0.300020 1.300020
v -1.500000 0.301681 0.936024
v -1.500000 0.301681 1.300020
v -1.441378 0.301681 0.936024
v -1.441378 0.369114 0.896773
v -1.500000 0.500000 1.098394
v -1.500000 0.500000 1.300020
v -1.098394 0.500000 1.441378
v -1.279294 0.500000 1.449963
v -1.279294 0.552534 1.449963
v -1.045250 0.552534 1.441378
v -1.300020 -0.300020 1.500000
v -1.300020 0.301681 1.500000
v -0.936024 0.301681 1.500000
v -1.300020 -0.500000 1.300020
v -0.896773 0.369114 1.441378
v -0.936024 0.301681 1.441378
v -1.098394 0.500000 1.500000
v -1.300020 0.500000 1.500000
v -1.049880 0.555176 1.045250
v -0.896773 0.369114 0.896773
v 0.441378 0.500000 1.098394
v 0.449963 0.500000 1.279294
v 0.449963 0.552534 1.279294
v 0.441378 0.552534 1.045250
v 0.500000 0.301681 1.300020
v 0.500000 0.500000 1.098394
v 0.500000 0.500000 1.300020
v 0.098394 0.500000 1.441378
v 0.045250 0.552534 1.441378
v 0.279294 0.552534 1.449963
v 0.279294 0.500000 1.449963
v 0.300020 -0.300020 1.500000
v -0.063976 0.301681 1.500000
v 0.300020 0.301681 1.500000
v -0.063976 0.301681 1.441378
v -0.103227 0.369114 1.441378
v 0.098394 0.500000 1.500000
v 0.300020 0.500000 1.500000
v -0.103227 0.369114 0.896773
v 0.049880 0.555176 1.045250
v -0.875000 -0.500000 1.125000
v -1.000000 -0.585772 1.000000
v -1.125000 -0.500000 1.125000
v -0.875000 -0.500000 0.875000
v -1.125000 -0.500000 0.875000
v -0.125000 -0.500000 1.125000
v 0.125000 -0.500000 1.125000
v 0.000000 -0.585772 1.000000
v 0.125000 -0.500000 0.875000
v -0.125000 -0.500000 0.875000
v -0.125000 -0.500000 -0.125000
v 0.000000 -0.585772 -0.000000
v 0.125000 -0.500000 -0.125000
v -0.125000 -0.500000 0.125000
v 0.125000 -0.500000 0.125000
v -0.875000 -0.500000 -0.125000
v -1.125000 -0.500000 -0.125000
v -1.000000 -0.585772 -0.000000
v -1.125000 -0.500000 0.125000
v -0.875000 -0.500000 0.125000
vt 0.082304 0.387640
vt 0.088104 0.387640
vt 0.088104 0.457434
vt 0.082304 0.457434
vt 0.093906 0.387640
vt 0.093906 0.457434
vt 0.099708 0.387640
vt 0.099708 0.457434
vt 0.105510 0.387640
vt 0.105510 0.457434
vt 0.082304 0.457434
vt 0.082304 0.387640
vt 0.105510 0.387640
vt 0.105510 0.457434
vt 0.117112 0.486268
vt 0.059096 0.486268
vt 0.059096 0.486268
vt 0.117112 0.486268
vt 0.082304 0.387640
vt 0.082304 0.457434
vt 0.088104 0.457434
vt 0.088104 0.387640
vt 0.093906 0.457434
vt 0.093906 0.387640
vt 0.099708 0.457434
vt 0.099708 0.387640
vt 0.105510 0.457434
vt 0.105510 0.387640
vt 0.082304 0.387640
vt 0.082304 0.457434
vt 0.105510 0.457434
vt 0.105510 0.387640
vt 0.117112 0.486268
vt 0.117112 0.486268
vt 0.059096 0.486268
vt 0.059096 0.486268
vt 0.082304 0.387640
vt 0.082304 0.457434
vt 0.088104 0.457434
vt 0.088104 0.387640
vt 0.093906 0.457434
vt 0.093906 0.387640
vt 0.099708 0.457434
vt 0.099708 0.387640
vt 0.105510 0.457434
vt 0.105510 0.387640
vt 0.082304 0.387640
vt 0.082304 0.457434
vt 0.105510 0.457434
vt 0.105510 0.387640
vt 0.117112 0.486268
vt 0.117112 0.486268
vt 0.059096 0.486268
vt 0.059096 0.486268
vt 0.082304 0.387640
vt 0.088104 0.387640
vt 0.088104 0.457434
vt 0.082304 0.457434
vt 0.093906 0.387640
vt 0.093906 0.457434
vt 0.099708 0.387640
vt 0.099708 0.457434
vt 0.105510 0.387640
vt 0.105510 0.457434
vt 0.082304 0.457434
vt 0.082304 0.387640
vt 0.105510 0.387640
vt 0.105510 0.457434
vt 0.117112 0.486268
vt 0.059096 0.486268
vt 0.059096 0.486268
vt 0.117112 0.486268
vt 0.365242 0.092402
vt 0.363856 0.093772
vt 0.369964 0.093776
vt 0.369966 0.092406
vt 0.824751 0.837730
vt 0.799866 0.878863
vt 0.824751 0.878864
vt 0.361006 0.087230
vt 0.359982 0.088988
vt 0.392183 0.071813
vt 0.392183 0.071813
vt 0.398225 0.071813
vt 0.398917 0.071813
vt 0.386760 0.065189
vt 0.386760 0.065189
vt 0.334224 0.088538
vt 0.329500 0.088542
vt 0.329502 0.089912
vt 0.335610 0.089908
vt 0.323206 0.089918
vt 0.323204 0.088546
vt 0.824751 0.837730
vt 0.824751 0.878864
vt 0.799866 0.878863
vt 0.804538 0.836968
vt 0.804538 0.880206
vt 0.821965 0.880206
vt 0.821965 0.836968
vt 0.813251 0.819369
vt 0.715366 0.837730
vt 0.715366 0.824058
vt 0.824751 0.824058
vt 0.339484 0.085122
vt 0.338460 0.083364
vt 0.360182 0.085122
vt 0.361206 0.083364
vt 0.392183 0.071813
vt 0.398917 0.071813
vt 0.398225 0.071813
vt 0.392183 0.071813
vt 0.397556 0.072807
vt 0.389042 0.072807
vt 0.389667 0.074563
vt 0.396932 0.074563
vt 0.386760 0.065189
vt 0.386760 0.065189
vt 0.357636 0.065190
vt 0.357636 0.065190
vt 0.740251 0.878865
vt 0.558802 0.451902
vt 0.558690 0.422475
vt 0.538588 0.423489
vt 0.538277 0.450772
vt 0.551265 0.459430
vt 0.536853 0.467579
vt 0.543075 0.473729
vt 0.551595 0.473090
vt 0.537378 0.459065
vt 0.559828 0.471999
vt 0.382282 0.094286
vt 0.377558 0.094290
vt 0.377558 0.095660
vt 0.383668 0.095656
vt 0.824751 0.837730
vt 0.824751 0.878864
vt 0.799866 0.878863
vt 0.387542 0.090872
vt 0.386516 0.089112
vt 0.392183 0.071813
vt 0.398917 0.071813
vt 0.398225 0.071813
vt 0.392183 0.071813
vt 0.386760 0.065189
vt 0.386760 0.065189
vt 0.365442 0.088538
vt 0.364056 0.089908
vt 0.370164 0.089912
vt 0.370166 0.088542
vt 0.376460 0.089918
vt 0.376462 0.088546
vt 0.715366 0.878864
vt 0.821965 0.836968
vt 0.804538 0.836968
vt 0.804538 0.880206
vt 0.821965 0.880206
vt 0.813253 0.819369
vt 0.352213 0.071813
vt 0.352213 0.071813
vt 0.346171 0.071813
vt 0.345479 0.071813
vt 0.389042 0.072807
vt 0.389667 0.074563
vt 0.396932 0.074563
vt 0.397556 0.072807
vt 0.715366 0.837730
vt 0.715366 0.824058
vt 0.824751 0.824058
vt 0.740251 0.878863
vt 0.357636 0.065189
vt 0.357636 0.065189
vt 0.408240 0.090872
vt 0.409264 0.089112
vt 0.551287 0.414810
vt 0.551525 0.401073
vt 0.543017 0.400532
vt 0.536855 0.406738
vt 0.537478 0.415260
vt 0.559818 0.401952
vt 0.334024 0.092402
vt 0.329300 0.092406
vt 0.329302 0.093776
vt 0.335410 0.093772
vt 0.715366 0.837730
vt 0.715367 0.878864
vt 0.740251 0.878863
vt 0.339284 0.088988
vt 0.338260 0.087230
vt 0.352213 0.071813
vt 0.345479 0.071813
vt 0.346171 0.071813
vt 0.352213 0.071813
vt 0.357636 0.065189
vt 0.357636 0.065189
vt 0.413700 0.090420
vt 0.412314 0.091790
vt 0.418422 0.091794
vt 0.418424 0.090424
vt 0.424718 0.091800
vt 0.424720 0.090430
vt 0.824751 0.837730
vt 0.799866 0.878863
vt 0.824751 0.878864
vt 0.821965 0.836968
vt 0.804538 0.836968
vt 0.804538 0.880206
vt 0.821965 0.880206
vt 0.813253 0.819369
vt 0.409464 0.085248
vt 0.408440 0.087006
vt 0.392183 0.071813
vt 0.392183 0.071813
vt 0.398225 0.071813
vt 0.398917 0.071813
vt 0.389042 0.072807
vt 0.389667 0.074563
vt 0.396933 0.074563
vt 0.397556 0.072807
vt 0.386760 0.065189
vt 0.386760 0.065189
vt 0.715366 0.824058
vt 0.595634 0.459444
vt 0.595397 0.473181
vt 0.603905 0.473722
vt 0.610067 0.467515
vt 0.609443 0.458993
vt 0.588231 0.451779
vt 0.587103 0.472302
vt 0.608333 0.450765
vt 0.413500 0.094286
vt 0.412112 0.095656
vt 0.418222 0.095660
vt 0.418224 0.094290
vt 0.715366 0.878864
vt 0.352213 0.071813
vt 0.352213 0.071813
vt 0.346171 0.071813
vt 0.345479 0.071813
vt 0.382482 0.090420
vt 0.377758 0.090424
vt 0.377758 0.091794
vt 0.383868 0.091790
vt 0.371464 0.091800
vt 0.371462 0.090430
vt 0.715366 0.837730
vt 0.715367 0.878864
vt 0.740251 0.878865
vt 0.804538 0.836968
vt 0.804538 0.880206
vt 0.821965 0.880206
vt 0.821965 0.836968
vt 0.813253 0.819369
vt 0.824751 0.824058
vt 0.387742 0.087006
vt 0.386718 0.085248
vt 0.352213 0.071813
vt 0.345479 0.071813
vt 0.346171 0.071813
vt 0.352213 0.071813
vt 0.397556 0.072807
vt 0.389042 0.072807
vt 0.389667 0.074563
vt 0.396932 0.074563
vt 0.357636 0.065190
vt 0.357636 0.065190
vt 0.608644 0.423482
vt 0.588119 0.422352
vt 0.793986 0.763026
vt 0.733098 0.763026
vt 0.733098 0.823914
vt 0.793986 0.823914
vt 0.595656 0.414824
vt 0.610068 0.406675
vt 0.603846 0.400525
vt 0.595326 0.401164
vt 0.609543 0.415189
vt 0.587093 0.402255
vt 0.451054 0.868800
vt 0.382832 0.868800
vt 0.416942 0.834690
vt 0.382832 0.800578
vt 0.451054 0.800578
vt 0.451054 0.868800
vt 0.416942 0.834690
vt 0.382832 0.868800
vt 0.451054 0.800578
vt 0.382832 0.800578
vt 0.451054 0.868800
vt 0.382832 0.868800
vt 0.416942 0.834690
vt 0.382832 0.800578
vt 0.451054 0.800578
vt 0.451054 0.868800
vt 0.416942 0.834690
vt 0.382832 0.868800
vt 0.451054 0.800578
vt 0.382832 0.800578
vt 0.360304 0.150064
vt 0.394888 0.192304
vt 0.437832 0.192304
vt 0.437832 0.150064
vt 0.498068 0.150064
vt 0.498068 0.192304
vt 0.541013 0.192304
vt 0.575596 0.150064
vt 0.498068 0.150064
vt 0.498068 0.192304
vt 0.541013 0.192304
vt 0.575596 0.150064
vt 0.360304 0.150064
vt 0.394888 0.192304
vt 0.437832 0.192304
vt 0.437832 0.150064
vt 0.360305 0.150064
vt 0.394888 0.192304
vt 0.437832 0.192304
vt 0.437832 0.150064
vt 0.498068 0.150064
vt 0.498068 0.192304
vt 0.541013 0.192304
vt 0.575596 0.150064
vt 0.360325 0.149976
vt 0.394888 0.192233
vt 0.437832 0.192254
vt 0.437852 0.150014
vt 0.498068 0.192283
vt 0.498089 0.150043
vt 0.541013 0.192304
vt 0.575616 0.150081
vt 0.067592 0.465756
vt 0.108616 0.465756
vt 0.088104 0.457260
vt 0.108616 0.465756
vt 0.067592 0.465756
vt 0.088104 0.457260
vt 0.108616 0.465756
vt 0.067592 0.465756
vt 0.088104 0.457260
vt 0.067592 0.465756
vt 0.108616 0.465756
vt 0.088104 0.457260
vn 0.3827 -0.0000 0.9239
vn 0.9239 -0.0000 0.3827
vn 0.9239 0.0000 -0.3827
vn 0.3827 0.0000 -0.9239
vn 0.0000 -0.0000 1.0000
vn 0.0000 0.0000 -1.0000
vn 0.0000 1.0000 0.0000
vn -0.3827 -0.0000 0.9239
vn -0.9239 -0.0000 0.3827
vn 1.0000 0.0000 0.0000
vn -1.0000 0.0000 0.0000
vn -0.9239 0.0000 -0.3827
vn -0.3827 0.0000 -0.9239
vn -0.9989 -0.0209 0.0413
vn 0.0000 0.6335 0.7737
vn 0.0413 -0.0209 -0.9989
vn -0.7071 0.0000 -0.7071
vn -0.5774 -0.5774 -0.5774
vn 0.0000 -0.7071 -0.7071
vn 0.7737 0.6335 0.0000
vn -0.0054 1.0000 -0.0021
vn 0.0002 1.0000 -0.0067
vn -0.0018 0.6260 0.7798
vn 0.7743 0.6328 0.0020
vn 0.9989 -0.0209 0.0413
vn -0.0413 -0.0209 -0.9989
vn 0.7071 0.0000 -0.7071
vn 0.5774 -0.5774 -0.5774
vn -0.7737 0.6335 0.0000
vn 0.7071 -0.7071 -0.0000
vn 0.0054 1.0000 -0.0021
vn -0.0002 1.0000 -0.0067
vn 0.0018 0.6260 0.7798
vn -0.7743 0.6328 0.0020
vn -0.9989 -0.0209 -0.0413
vn 0.0000 0.6335 -0.7737
vn 0.0413 -0.0209 0.9989
vn -0.7071 0.0000 0.7071
vn -0.5773 -0.5774 0.5774
vn -0.7071 -0.7071 -0.0000
vn -0.0054 1.0000 0.0021
vn 0.0002 1.0000 0.0067
vn -0.0018 0.6260 -0.7798
vn 0.7743 0.6328 -0.0020
vn 0.9989 -0.0209 -0.0413
vn -0.0413 -0.0209 0.9989
vn 0.7071 0.0000 0.7071
vn 0.5773 -0.5774 0.5774
vn 0.0000 -0.7071 0.7071
vn 0.0000 -1.0000 -0.0000
vn 0.0054 1.0000 0.0021
vn -0.0002 1.0000 0.0067
vn 0.0018 0.6260 -0.7798
vn -0.7743 0.6328 -0.0020
vn 0.0000 -0.8246 0.5658
vn 0.0000 -0.8246 -0.5658
vn -0.5658 -0.8246 0.0000
vn 0.5658 -0.8246 0.0000
usemtl blinn1SG
s off
f 1/1/1 4/2/1 3/3/1 2/4/1
f 4/2/2 6/5/2 5/6/2 3/3/2
f 6/5/3 8/7/3 7/8/3 5/6/3
f 8/7/4 10/9/4 9/10/4 7/8/4
f 1/1/5 2/4/5 12/11/5 11/12/5
f 9/10/6 10/9/6 14/13/6 13/14/6
f 13/15/7 12/16/7 2/17/7 9/18/7
f 15/19/2 18/20/2 17/21/2 16/22/2
f 16/22/1 17/21/1 20/23/1 19/24/1
f 19/24/8 20/23/8 22/25/8 21/26/8
f 21/26/9 22/25/9 24/27/9 23/28/9
f 15/19/10 26/29/10 25/30/10 18/20/10
f 24/27/11 28/31/11 27/32/11 23/28/11
f 28/33/7 24/34/7 18/35/7 25/36/7
f 29/37/8 32/38/8 31/39/8 30/40/8
f 30/40/9 31/39/9 34/41/9 33/42/9
f 33/42/12 34/41/12 36/43/12 35/44/12
f 35/44/13 36/43/13 38/45/13 37/46/13
f 29/37/5 40/47/5 39/48/5 32/38/5
f 38/45/6 42/49/6 41/50/6 37/46/6
f 42/51/7 38/52/7 32/53/7 39/54/7
f 43/55/3 46/56/3 45/57/3 44/58/3
f 46/56/4 48/59/4 47/60/4 45/57/4
f 48/59/13 50/61/13 49/62/13 47/60/13
f 50/61/12 52/63/12 51/64/12 49/62/12
f 43/55/10 44/58/10 54/65/10 53/66/10
f 51/64/11 52/63/11 56/67/11 55/68/11
f 55/69/7 54/70/7 44/71/7 51/72/7
f 57/73/14 60/74/14 59/75/14 58/76/14
f 61/77/11 63/78/11 62/79/11
f 57/73/11 65/80/11 64/81/11 60/74/11
f 66/82/7 57/83/7 58/84/7 67/85/7
f 63/86/15 65/87/15 57/83/15 66/82/15
f 68/88/16 71/89/16 70/90/16 69/91/16
f 59/92/17 70/90/17 71/89/17 58/93/17
f 72/94/6 74/95/6 73/96/6
f 61/97/17 62/98/17 74/99/17 72/100/17
f 72/100/18 75/101/18 61/97/18
f 72/94/19 77/102/19 76/103/19 75/104/19
f 68/88/6 69/91/6 79/105/6 78/106/6
f 79/105/6 81/107/6 80/108/6 78/106/6
f 82/109/7 83/110/7 71/111/7 68/112/7
f 83/113/7 67/114/7 58/115/7 71/116/7
f 73/117/20 82/109/20 68/112/20 78/118/20
f 78/118/7 80/119/7 84/120/7 73/117/7
f 73/96/6 84/121/6 77/102/6 72/94/6
f 85/122/7 86/123/7 81/124/7 79/125/7
f 87/126/21 70/127/21 59/128/21 60/129/21
f 70/127/22 87/126/22 69/130/22
f 60/129/23 64/131/23 85/122/23 87/126/23
f 87/126/24 85/122/24 79/125/24 69/130/24
f 88/132/25 91/133/25 90/134/25 89/135/25
f 92/136/10 94/137/10 93/138/10
f 88/132/10 89/135/10 96/139/10 95/140/10
f 97/141/7 98/142/7 91/143/7 88/144/7
f 93/145/15 97/141/15 88/144/15 95/146/15
f 99/147/26 102/148/26 101/149/26 100/150/26
f 90/151/27 91/152/27 100/150/27 101/149/27
f 77/102/6 84/121/6 103/153/6
f 92/154/27 77/155/27 103/156/27 94/157/27
f 77/155/28 92/154/28 76/158/28
f 99/147/6 80/108/6 81/107/6 102/148/6
f 104/159/7 99/160/7 100/161/7 105/162/7
f 105/163/7 100/164/7 91/165/7 98/166/7
f 84/120/29 80/119/29 99/160/29 104/159/29
f 92/136/30 107/167/30 106/168/30 76/169/30
f 93/138/10 108/170/10 107/167/10 92/136/10
f 95/146/7 109/171/7 108/172/7 93/145/7
f 96/139/10 110/173/10 109/174/10 95/140/10
f 111/175/31 89/176/31 90/177/31 101/178/31
f 101/178/32 102/179/32 111/175/32
f 89/176/33 111/175/33 86/123/33 96/180/33
f 111/175/34 102/179/34 81/124/34 86/123/34
f 112/181/35 115/182/35 114/183/35 113/184/35
f 116/185/11 118/186/11 117/187/11
f 112/181/11 113/184/11 120/188/11 119/189/11
f 121/190/7 122/191/7 115/192/7 112/193/7
f 117/194/36 121/190/36 112/193/36 119/195/36
f 123/196/37 126/197/37 125/198/37 124/199/37
f 114/200/38 115/201/38 124/199/38 125/198/38
f 127/202/5 129/203/5 128/204/5
f 116/205/38 127/206/38 128/207/38 118/208/38
f 127/206/39 116/205/39 130/209/39
f 123/196/5 132/210/5 131/211/5 126/197/5
f 133/212/7 123/213/7 124/214/7 134/215/7
f 134/216/7 124/217/7 115/218/7 122/219/7
f 129/220/20 132/221/20 123/213/20 133/212/20
f 61/77/40 75/104/40 130/222/40 116/185/40
f 63/78/11 61/77/11 116/185/11 117/187/11
f 65/87/7 63/86/7 117/194/7 119/195/7
f 64/81/11 65/80/11 119/189/11 120/188/11
f 135/223/41 113/224/41 114/225/41 125/226/41
f 125/226/42 126/227/42 135/223/42
f 113/224/43 135/223/43 136/228/43 120/229/43
f 135/223/44 126/227/44 131/230/44 136/228/44
f 137/231/45 140/232/45 139/233/45 138/234/45
f 107/167/10 108/170/10 141/235/10
f 137/231/10 109/174/10 110/173/10 140/232/10
f 142/236/7 137/237/7 138/238/7 143/239/7
f 108/172/36 109/171/36 137/237/36 142/236/36
f 144/240/46 147/241/46 146/242/46 145/243/46
f 139/244/47 146/242/47 147/241/47 138/245/47
f 148/246/5 150/247/5 149/248/5
f 107/249/47 141/250/47 150/251/47 148/252/47
f 148/252/48 106/253/48 107/249/48
f 127/202/49 130/254/49 106/168/49 148/246/49
f 144/240/5 145/243/5 152/255/5 151/256/5
f 131/211/5 132/210/5 151/256/5 152/255/5
f 153/257/7 154/258/7 147/259/7 144/260/7
f 154/261/7 143/262/7 138/263/7 147/264/7
f 149/265/29 153/257/29 144/260/29 151/266/29
f 132/221/7 129/220/7 149/265/7 151/266/7
f 129/203/5 127/202/5 148/246/5 149/248/5
f 136/228/7 131/230/7 152/267/7 155/268/7
f 130/269/50 75/270/50 76/271/50 106/272/50
f 156/273/51 146/274/51 139/275/51 140/276/51
f 146/274/52 156/273/52 145/277/52
f 140/276/53 110/278/53 155/268/53 156/273/53
f 156/273/54 155/268/54 152/267/54 145/277/54
f 157/279/55 159/280/55 158/281/55
f 158/281/56 161/282/56 160/283/56
f 159/280/57 161/282/57 158/281/57
f 160/283/58 157/279/58 158/281/58
f 162/284/55 164/285/55 163/286/55
f 164/285/56 166/287/56 165/288/56
f 163/286/58 164/285/58 165/288/58
f 166/287/57 164/285/57 162/284/57
f 167/289/56 169/290/56 168/291/56
f 168/291/55 171/292/55 170/293/55
f 169/290/58 171/292/58 168/291/58
f 170/293/57 167/289/57 168/291/57
f 172/294/56 174/295/56 173/296/56
f 174/295/55 176/297/55 175/298/55
f 173/296/57 174/295/57 175/298/57
f 176/297/58 174/295/58 172/294/58
f 129/299/5 133/300/5 134/301/5 128/302/5
f 118/303/11 122/304/11 121/305/11 117/306/11
f 128/302/38 134/301/38 122/304/38 118/303/38
f 74/307/6 83/308/6 82/309/6 73/310/6
f 63/311/11 66/312/11 67/313/11 62/314/11
f 62/314/17 67/313/17 83/308/17 74/307/17
f 84/315/6 104/316/6 105/317/6 103/318/6
f 94/319/10 98/320/10 97/321/10 93/322/10
f 103/318/27 105/317/27 98/320/27 94/319/27
f 108/323/10 142/324/10 143/325/10 141/326/10
f 141/326/47 143/325/47 154/327/47 150/328/47
f 150/328/5 154/327/5 153/329/5 149/330/5
s 1
f 9/18/7 2/17/7 3/331/7 7/332/7
f 3/331/7 5/333/7 7/332/7
f 24/34/7 22/334/7 17/335/7 18/35/7
f 17/335/7 22/334/7 20/336/7
f 38/52/7 36/337/7 31/338/7 32/53/7
f 31/338/7 36/337/7 34/339/7
f 51/72/7 44/71/7 45/340/7 49/341/7
f 45/340/7 47/342/7 49/341/7
f 86/123/7 155/268/7 110/278/7 96/180/7
f 85/122/7 64/131/7 120/229/7 136/228/7
f 86/123/7 85/122/7 136/228/7 155/268/7
