# Blender v2.93.1 OBJ File: ''
# www.blender.org
mtllib GEOp_blocktop.mtl
o geo_block_top
v -1.500000 0.552534 -0.045250
v -1.500000 0.552534 -0.300020
v -1.500000 0.965657 -0.300020
v -1.441378 0.552534 -0.045250
v -1.500000 0.369114 0.103227
v -1.441378 0.369114 0.103227
v -1.300020 1.300020 -0.500000
v -1.300020 1.500000 -0.300020
v -1.500000 1.300020 -0.300020
v -1.045250 0.552534 -0.500000
v -0.896773 0.369114 -0.500000
v -0.103227 0.369114 -0.500000
v 0.045250 0.552534 -0.500000
v -1.500000 1.097595 -0.300020
v -1.300020 1.097595 -0.500000
v 0.300020 1.097595 -0.500000
v 0.300020 1.300020 -0.500000
v -1.300020 0.965657 -0.500000
v -1.300020 0.552534 -0.500000
v -1.045250 0.552534 -0.441378
v -0.896773 0.369114 -0.441378
v 0.300020 1.500000 -0.300020
v -0.103227 0.369114 -0.441378
v -1.288133 1.097595 -0.434285
v -1.434285 1.097595 -0.288133
v -1.434285 0.965657 -0.288133
v -1.288133 0.965657 -0.434285
v 0.288133 0.965657 -0.434285
v 0.288133 1.097595 -0.434285
v 0.300020 0.965657 -0.500000
v 0.045250 0.552534 -0.441378
v -1.441378 0.369114 0.896773
v -1.441378 0.552534 1.045250
v 0.500000 0.552534 -0.045250
v 0.500000 0.965657 -0.300020
v 0.500000 0.552534 -0.300020
v 0.441378 0.552534 -0.045250
v 0.441378 0.369114 0.103227
v 0.500000 0.369114 0.103227
v 0.500000 1.300020 -0.300020
v 0.500000 1.097595 -0.300020
v 0.300020 0.552534 -0.500000
v 0.434285 0.965657 -0.288133
v 0.434285 1.097595 -0.288133
v 0.441378 0.369114 0.896773
v 0.500000 0.369114 0.896773
v 0.500000 0.552534 1.045250
v 0.500000 0.965657 1.300020
v 0.434285 0.965657 1.288133
v 0.434285 1.097595 1.288133
v 0.500000 1.097595 1.300020
v 0.500000 1.300020 1.300020
v 0.300020 1.500000 1.300020
v -1.500000 0.552534 1.045250
v -1.500000 0.965657 1.300020
v -1.500000 0.552534 1.300020
v -1.500000 0.369114 0.896773
v -1.300020 1.300020 1.500000
v -1.500000 1.300020 1.300020
v -1.300020 1.500000 1.300020
v -1.300020 1.097595 1.500000
v -1.500000 1.097595 1.300020
v -1.045250 0.552534 1.500000
v -1.300020 0.552534 1.500000
v -1.300020 0.965657 1.500000
v -0.896773 0.369114 1.500000
v -0.896773 0.369114 1.441378
v -1.045250 0.552534 1.441378
v -1.288133 1.097595 1.434285
v -1.288133 0.965657 1.434285
v -1.434285 0.965657 1.288133
v -1.434285 1.097595 1.288133
v 0.500000 0.552534 1.300020
v 0.441378 0.552534 1.045250
v 0.300020 1.300020 1.500000
v 0.045250 0.552534 1.500000
v -0.103227 0.369114 1.500000
v 0.300020 1.097595 1.500000
v 0.300020 0.965657 1.500000
v 0.300020 0.552534 1.500000
v 0.045250 0.552534 1.441378
v -0.103227 0.369114 1.441378
v 0.288133 1.097595 1.434285
v 0.288133 0.965657 1.434285
v -0.125000 1.500000 1.125000
v 0.000000 1.585772 1.000000
v 0.125000 1.500000 1.125000
v -0.125000 1.500000 0.875000
v 0.125000 1.500000 0.875000
v -0.875000 1.500000 1.125000
v -1.125000 1.500000 1.125000
v -1.000000 1.585772 1.000000
v -1.125000 1.500000 0.875000
v -0.875000 1.500000 0.875000
v -0.875000 1.500000 -0.125000
v -1.000000 1.585772 0.000000
v -1.125000 1.500000 -0.125000
v -0.875000 1.500000 0.125000
v -1.125000 1.500000 0.125000
v -0.125000 1.500000 -0.125000
v 0.125000 1.500000 -0.125000
v 0.000000 1.585772 0.000000
v 0.125000 1.500000 0.125000
v -0.125000 1.500000 0.125000
vt 0.090252 0.551787
vt 0.105770 0.576951
vt 0.105770 0.551787
vt 0.343171 0.069509
vt 0.344126 0.065405
vt 0.343181 0.065403
vt 0.408117 0.055471
vt 0.408852 0.056065
vt 0.411245 0.053109
vt 0.410510 0.052514
vt 0.023998 0.603939
vt 0.006770 0.603939
vt 0.015384 0.618857
vt 0.351774 0.205853
vt 0.569874 0.205853
vt 0.540179 0.169169
vt 0.381469 0.169169
vt 0.023998 0.591609
vt 0.006770 0.591609
vt 0.008306 0.605325
vt 0.105770 0.605325
vt 0.105770 0.592995
vt 0.008306 0.592995
vt 0.023826 0.551787
vt 0.008306 0.551787
vt 0.008306 0.576951
vt 0.346387 0.072739
vt 0.350493 0.072749
vt 0.350495 0.071804
vt 0.427161 0.047065
vt 0.424769 0.044108
vt 0.424034 0.044703
vt 0.426427 0.047659
vt 0.008306 0.622553
vt 0.105770 0.622553
vt 0.424034 0.043758
vt 0.411245 0.043758
vt 0.411245 0.044703
vt 0.021678 0.588265
vt 0.021678 0.580229
vt 0.009088 0.580229
vt 0.009088 0.588265
vt 0.009030 0.588991
vt 0.105046 0.588991
vt 0.105046 0.580955
vt 0.009030 0.580955
vt 0.023998 0.576887
vt 0.023998 0.551721
vt 0.006770 0.551721
vt 0.006770 0.576887
vt 0.105770 0.576951
vt 0.090252 0.551787
vt 0.408852 0.047659
vt 0.426427 0.056065
vt 0.424034 0.053109
vt 0.749380 0.090088
vt 0.875620 0.090088
vt 0.844365 0.040152
vt 0.780635 0.040152
vt 0.023826 0.551787
vt 0.008306 0.551787
vt 0.008306 0.576951
vt 0.427161 0.059673
vt 0.424769 0.056717
vt 0.424034 0.057312
vt 0.426427 0.060268
vt 0.006770 0.603939
vt 0.015384 0.618857
vt 0.023998 0.603939
vt 0.023998 0.591609
vt 0.006770 0.591609
vt 0.105770 0.551787
vt 0.408117 0.047065
vt 0.410510 0.044108
vt 0.009088 0.588265
vt 0.021680 0.588265
vt 0.021680 0.580229
vt 0.009088 0.580229
vt 0.006770 0.576887
vt 0.023998 0.576887
vt 0.023998 0.551721
vt 0.006770 0.551721
vt 0.424034 0.056367
vt 0.411245 0.056367
vt 0.411245 0.057312
vt 0.351774 0.205853
vt 0.569874 0.205853
vt 0.540179 0.169169
vt 0.381469 0.169169
vt 0.105770 0.576951
vt 0.090252 0.551787
vt 0.009030 0.580955
vt 0.105046 0.580955
vt 0.009030 0.588991
vt 0.105046 0.588991
vt 0.008306 0.592995
vt 0.105770 0.592995
vt 0.008306 0.605325
vt 0.105770 0.605325
vt 0.008306 0.622553
vt 0.105770 0.622553
vt 0.023826 0.551787
vt 0.008306 0.551787
vt 0.008306 0.576951
vt 0.427161 0.055471
vt 0.424769 0.052514
vt 0.006770 0.603939
vt 0.015384 0.618857
vt 0.023998 0.603939
vt 0.023998 0.591609
vt 0.006770 0.591609
vt 0.090252 0.551787
vt 0.105770 0.576951
vt 0.105770 0.551787
vt 0.408117 0.051268
vt 0.408852 0.051862
vt 0.411245 0.048906
vt 0.410510 0.048312
vt 0.009088 0.588265
vt 0.021678 0.588265
vt 0.021678 0.580229
vt 0.009088 0.580229
vt 0.006770 0.576887
vt 0.023998 0.576887
vt 0.023998 0.551721
vt 0.006770 0.551721
vt 0.411245 0.052164
vt 0.424034 0.052164
vt 0.569874 0.205853
vt 0.540179 0.169169
vt 0.381469 0.169169
vt 0.351774 0.205853
vt 0.105046 0.580955
vt 0.009030 0.580955
vt 0.105046 0.588991
vt 0.009030 0.588991
vt 0.105770 0.592995
vt 0.008306 0.592995
vt 0.105770 0.605325
vt 0.008306 0.605325
vt 0.105770 0.622553
vt 0.008306 0.622553
vt 0.105770 0.551787
vt 0.408117 0.059673
vt 0.408852 0.060268
vt 0.410510 0.056717
vt 0.023998 0.603939
vt 0.006770 0.603939
vt 0.015384 0.618857
vt 0.569874 0.205853
vt 0.540179 0.169169
vt 0.381469 0.169169
vt 0.351774 0.205853
vt 0.023998 0.591609
vt 0.006770 0.591609
vt 0.105770 0.605325
vt 0.105770 0.592995
vt 0.008306 0.592995
vt 0.008306 0.605325
vt 0.023826 0.551787
vt 0.008306 0.551787
vt 0.008306 0.576951
vt 0.427161 0.051268
vt 0.424769 0.048312
vt 0.424034 0.048906
vt 0.426427 0.051862
vt 0.105770 0.622553
vt 0.008306 0.622553
vt 0.411245 0.047961
vt 0.424034 0.047961
vt 0.021678 0.588265
vt 0.021678 0.580229
vt 0.009088 0.580229
vt 0.009088 0.588265
vt 0.105046 0.588991
vt 0.105046 0.580955
vt 0.009030 0.580955
vt 0.009030 0.588991
vt 0.023998 0.576887
vt 0.023998 0.551721
vt 0.006770 0.551721
vt 0.006770 0.576887
vt 0.110944 0.256042
vt 0.013477 0.256042
vt 0.013477 0.353506
vt 0.110944 0.353506
vt 0.451054 0.868823
vt 0.382832 0.868823
vt 0.416942 0.834713
vt 0.382832 0.800601
vt 0.451054 0.800601
vt 0.451054 0.868823
vt 0.416942 0.834713
vt 0.382832 0.868823
vt 0.451054 0.800601
vt 0.382832 0.800601
vt 0.451054 0.868823
vt 0.382832 0.868823
vt 0.416942 0.834713
vt 0.382832 0.800601
vt 0.451054 0.800601
vt 0.451054 0.868823
vt 0.416942 0.834713
vt 0.382832 0.868823
vt 0.451054 0.800601
vt 0.382832 0.800601
vt 0.548714 0.467421
vt 0.581927 0.467499
vt 0.594020 0.455463
vt 0.536678 0.455328
vt 0.375404 0.069584
vt 0.375414 0.065478
vt 0.374469 0.065476
vt 0.372174 0.072800
vt 0.368070 0.071845
vt 0.368068 0.072790
vt 0.875620 0.090088
vt 0.844365 0.040152
vt 0.780635 0.040152
vt 0.749380 0.090088
vt 0.346462 0.040506
vt 0.350566 0.041461
vt 0.350568 0.040515
vt 0.780635 0.040152
vt 0.749380 0.090088
vt 0.875620 0.090088
vt 0.844365 0.040152
vt 0.548848 0.410079
vt 0.536755 0.422115
vt 0.594098 0.422250
vt 0.582062 0.410157
vt 0.875620 0.090088
vt 0.844365 0.040152
vt 0.780635 0.040152
vt 0.749380 0.090088
vt 0.374510 0.047901
vt 0.375455 0.047903
vt 0.375465 0.043797
vt 0.372249 0.040566
vt 0.368143 0.040557
vt 0.368141 0.041502
vt 0.343231 0.043722
vt 0.343222 0.047827
vt 0.344166 0.047830
vn -1.0000 -0.0000 0.0000
vn 0.0000 -1.0000 0.0000
vn 0.0000 -0.6292 -0.7773
vn -0.5774 0.5774 -0.5774
vn 0.0000 0.0000 -1.0000
vn -0.7071 0.0000 -0.7071
vn -0.7773 -0.6292 0.0000
vn 0.0000 0.7071 -0.7071
vn 0.0000 1.0000 0.0000
vn 0.0000 -0.0000 1.0000
vn 1.0000 0.0000 0.0000
vn 0.5774 0.5774 -0.5774
vn 0.7071 0.0000 -0.7071
vn 0.7773 -0.6292 0.0000
vn 0.7071 0.7071 0.0000
vn 0.0000 -0.6292 0.7773
vn -0.5774 0.5773 0.5774
vn -0.7071 0.0000 0.7071
vn -0.7071 0.7071 0.0000
vn 0.5774 0.5774 0.5773
vn 0.7071 0.0000 0.7071
vn 0.0000 0.7071 0.7071
vn 0.0000 0.8246 0.5658
vn 0.0000 0.8246 -0.5658
vn 0.5658 0.8246 0.0000
vn -0.5658 0.8246 0.0000
usemtl blinn1SG.001
s off
f 1/1/1 3/2/1 2/3/1
f 2/4/2 4/5/2 1/6/2
f 1/7/3 4/8/3 6/9/3 5/10/3
f 7/11/4 9/12/4 8/13/4
f 10/14/5 13/15/5 12/16/5 11/17/5
f 9/12/6 7/11/6 15/18/6 14/19/6
f 7/20/5 17/21/5 16/22/5 15/23/5
f 10/24/5 19/25/5 18/26/5
f 19/27/2 10/28/2 20/29/2
f 10/30/7 11/31/7 21/32/7 20/33/7
f 8/34/8 22/35/8 17/21/8 7/20/8
f 11/36/2 12/37/2 23/38/2 21/32/2
f 24/39/6 27/40/6 26/41/6 25/42/6
f 24/43/5 29/44/5 28/45/5 27/46/5
f 18/47/6 19/48/6 2/49/6 3/50/6
f 18/26/5 30/51/5 13/52/5 10/24/5
f 15/18/2 24/39/2 25/42/2 14/19/2
f 3/50/9 26/41/9 27/40/9 18/47/9
f 27/46/9 28/45/9 30/51/9 18/26/9
f 15/23/2 16/22/2 29/44/2 24/43/2
f 21/32/10 23/38/10 31/53/10 20/33/10
f 4/8/11 33/54/11 32/55/11 6/9/11
f 20/56/2 4/57/2 2/58/2 19/59/2
f 34/60/11 36/61/11 35/62/11
f 34/63/3 39/64/3 38/65/3 37/66/3
f 17/67/12 22/68/12 40/69/12
f 40/69/13 41/70/13 16/71/13 17/67/13
f 13/52/5 30/51/5 42/72/5
f 13/73/14 31/53/14 23/38/14 12/74/14
f 29/75/13 44/76/13 43/77/13 28/78/13
f 30/79/13 35/80/13 36/81/13 42/82/13
f 16/71/2 41/70/2 44/76/2 29/75/2
f 35/80/9 30/79/9 28/78/9 43/77/9
f 39/83/2 46/84/2 45/85/2 38/65/2
f 34/86/11 47/87/11 46/88/11 39/89/11
f 35/62/11 48/90/11 47/91/11 34/60/11
f 43/92/9 49/93/9 48/90/9 35/62/9
f 44/94/11 50/95/11 49/93/11 43/92/11
f 41/96/2 51/97/2 50/95/2 44/94/2
f 40/98/11 52/99/11 51/97/11 41/96/11
f 22/100/15 53/101/15 52/99/15 40/98/15
f 54/102/1 56/103/1 55/104/1
f 54/105/16 57/106/16 32/55/16 33/54/16
f 58/107/17 60/108/17 59/109/17
f 59/109/18 62/110/18 61/111/18 58/107/18
f 63/112/10 65/113/10 64/114/10
f 63/115/7 68/116/7 67/117/7 66/118/7
f 69/119/18 72/120/18 71/121/18 70/122/18
f 65/123/18 55/124/18 56/125/18 64/126/18
f 61/111/2 62/110/2 72/120/2 69/119/2
f 55/124/9 65/123/9 70/122/9 71/121/9
f 5/127/2 6/9/2 32/55/2 57/128/2
f 1/129/1 5/130/1 57/131/1 54/132/1
f 3/2/1 1/1/1 54/102/1 55/104/1
f 26/133/9 3/2/9 55/104/9 71/134/9
f 25/135/1 26/133/1 71/134/1 72/136/1
f 14/137/2 25/135/2 72/136/2 62/138/2
f 9/139/1 14/137/1 62/138/1 59/140/1
f 8/141/19 9/139/19 59/140/19 60/142/19
f 47/91/11 48/90/11 73/143/11
f 47/144/16 74/145/16 45/85/16 46/146/16
f 75/147/20 52/148/20 53/149/20
f 63/150/10 66/151/10 77/152/10 76/153/10
f 52/148/21 75/147/21 78/154/21 51/155/21
f 58/156/10 61/157/10 78/158/10 75/159/10
f 76/160/10 80/161/10 79/162/10
f 76/163/14 77/164/14 82/165/14 81/166/14
f 60/167/22 58/156/22 75/159/22 53/168/22
f 66/169/2 67/117/2 82/165/2 77/170/2
f 83/171/21 84/172/21 49/173/21 50/174/21
f 69/175/10 70/176/10 84/177/10 83/178/10
f 79/179/21 80/180/21 73/181/21 48/182/21
f 65/113/10 63/112/10 76/160/10 79/162/10
f 78/154/2 83/171/2 50/174/2 51/155/2
f 48/182/9 49/173/9 84/172/9 79/179/9
f 70/176/9 65/113/9 79/162/9 84/177/9
f 61/157/2 69/175/2 83/178/2 78/158/2
f 22/183/9 8/184/9 60/185/9 53/186/9
f 67/117/5 68/116/5 81/166/5 82/165/5
f 37/66/1 38/65/1 45/85/1 74/145/1
f 85/187/23 87/188/23 86/189/23
f 86/189/24 89/190/24 88/191/24
f 87/188/25 89/190/25 86/189/25
f 88/191/26 85/187/26 86/189/26
f 90/192/23 92/193/23 91/194/23
f 92/193/24 94/195/24 93/196/24
f 91/194/26 92/193/26 93/196/26
f 94/195/25 92/193/25 90/192/25
f 95/197/24 97/198/24 96/199/24
f 96/199/23 99/200/23 98/201/23
f 97/198/26 99/200/26 96/199/26
f 98/201/25 95/197/25 96/199/25
f 100/202/24 102/203/24 101/204/24
f 102/203/23 104/205/23 103/206/23
f 101/204/25 102/203/25 103/206/25
f 104/205/26 102/203/26 100/202/26
s 1
f 20/207/2 31/208/2 37/209/2 4/210/2
f 36/211/2 34/212/2 37/213/2
f 42/214/2 31/215/2 13/216/2
f 68/217/2 64/218/2 56/219/2 33/220/2
f 64/221/2 68/222/2 63/223/2
f 80/224/2 81/225/2 74/226/2 73/227/2
f 68/228/2 33/229/2 74/230/2 81/231/2
f 33/229/2 4/210/2 37/209/2 74/230/2
f 31/232/2 42/233/2 36/234/2 37/235/2
f 74/236/2 47/237/2 73/238/2
f 80/239/2 76/240/2 81/241/2
f 56/242/2 54/243/2 33/244/2
