# Blender v2.93.1 OBJ File: ''
# www.blender.org
mtllib GEOp_shafttop.mtl
o geo_piston_top
v -1.064939 0.513169 0.173832
v -0.826168 0.513169 -0.064939
v -0.826168 1.486831 -0.064939
v -1.064939 1.486831 0.173832
v -0.500000 0.513169 -0.152335
v -0.500000 1.486831 -0.152335
v -0.173832 0.513169 -0.064939
v -0.173832 1.486831 -0.064939
v 0.064939 0.513169 0.173832
v 0.064939 1.486831 0.173832
v 0.152335 0.513169 0.500000
v 0.152335 1.486831 0.500000
v 0.064939 0.513169 0.826168
v 0.064939 1.486831 0.826168
v -0.173832 0.513169 1.064939
v -0.173832 1.486831 1.064939
v -0.500000 0.513169 1.152335
v -0.500000 1.486831 1.152335
v -0.826168 0.513169 1.064939
v -0.826168 1.486831 1.064939
v -1.064939 0.513169 0.826168
v -1.064939 1.486831 0.826168
v -1.152335 0.513169 0.500000
v -1.152335 1.486831 0.500000
vt 0.340814 0.014712
vt 0.340814 0.104936
vt 0.345814 0.104936
vt 0.345814 0.014712
vt 0.350814 0.104936
vt 0.350814 0.014712
vt 0.355814 0.104936
vt 0.355814 0.014712
vt 0.360814 0.104936
vt 0.360814 0.014712
vt 0.365814 0.104936
vt 0.365814 0.014712
vt 0.370814 0.104936
vt 0.370814 0.014712
vt 0.375814 0.104936
vt 0.375814 0.014712
vt 0.380814 0.104936
vt 0.380814 0.014712
vt 0.385814 0.104936
vt 0.385814 0.014712
vt 0.390814 0.104936
vt 0.390814 0.014712
vt 0.395814 0.104936
vt 0.395814 0.014712
vt 0.400814 0.104936
vt 0.400814 0.014712
vn -0.8660 0.0000 -0.5000
vn -0.5000 0.0000 -0.8660
vn 0.0000 0.0000 -1.0000
vn 0.5000 0.0000 -0.8660
vn 0.8660 0.0000 -0.5000
vn 1.0000 -0.0000 -0.0000
vn 0.8660 -0.0000 0.5000
vn 0.5000 -0.0000 0.8660
vn 0.0000 -0.0000 1.0000
vn -0.5000 -0.0000 0.8660
vn -0.8660 -0.0000 0.5000
vn -1.0000 -0.0000 -0.0000
usemtl blinn1SG.003
s 1
f 1/1/1 4/2/1 3/3/2 2/4/2
f 2/4/2 3/3/2 6/5/3 5/6/3
f 5/6/3 6/5/3 8/7/4 7/8/4
f 7/8/4 8/7/4 10/9/5 9/10/5
f 9/10/5 10/9/5 12/11/6 11/12/6
f 11/12/6 12/11/6 14/13/7 13/14/7
f 13/14/7 14/13/7 16/15/8 15/16/8
f 15/16/8 16/15/8 18/17/9 17/18/9
f 17/18/9 18/17/9 20/19/10 19/20/10
f 19/20/10 20/19/10 22/21/11 21/22/11
f 21/22/11 22/21/11 24/23/12 23/24/12
f 23/24/12 24/23/12 4/25/1 1/26/1
