# Blender v2.93.1 OBJ File: ''
# www.blender.org
mtllib GCfrictionpadbig.mtl
o m_BF_Block_Faired_111_Instance.001
v 0.000002 0.600000 1.000000
v -0.132021 0.500000 1.132023
v -0.132021 0.500000 0.867977
v 0.132024 0.500000 1.132023
v 0.132024 0.500000 0.867977
v -0.999998 0.600000 1.000000
v -1.132021 0.500000 1.132023
v -1.132021 0.500000 0.867977
v -0.867976 0.500000 1.132023
v -0.867976 0.500000 0.867977
v 0.000002 0.600000 0.000000
v -0.132021 0.500000 0.132023
v -0.132021 0.500000 -0.132023
v 0.132024 0.500000 0.132023
v 0.132024 0.500000 -0.132023
v -0.999998 0.600000 0.000000
v -1.132021 0.500000 0.132023
v -1.132021 0.500000 -0.132023
v -0.867976 0.500000 0.132023
v -0.867976 0.500000 -0.132023
v -1.319892 0.350000 -0.450000
v -1.342658 0.500000 -0.342657
v -1.450000 0.350000 -0.319892
v -1.319893 0.350000 1.450000
v -1.450000 0.350000 1.319892
v -1.342657 0.500000 1.342658
v 0.450000 0.350000 1.319892
v 0.320136 0.350731 1.450243
v 0.342657 0.500000 1.342657
v 0.450000 0.350000 -0.319893
v 0.342657 0.500000 -0.342657
v 0.320136 0.350732 -0.450244
v -1.300000 0.300000 1.300000
v -1.375000 0.325000 1.375000
v -0.767988 0.236054 1.312011
v 0.375068 0.325023 -0.375069
v -1.375069 0.325023 -0.375069
v 0.375000 0.325000 1.375000
v -0.320737 0.118565 1.042974
v 0.034292 0.162499 1.034292
v -0.100000 0.100000 0.900000
v -0.366051 0.069108 0.905589
v 0.300000 0.300000 -0.300000
v -0.232012 0.236054 -0.312011
v -1.300000 0.300000 -0.300000
v -1.312011 0.236054 0.232012
v 0.300000 0.300000 1.300000
v 0.312011 0.236054 0.767988
v -0.364162 0.036884 0.635892
v -0.094411 0.069109 0.633948
v -1.042974 0.118565 0.679263
v -1.034292 0.162499 1.034292
v -0.900000 0.100000 0.900000
v -0.905589 0.069108 0.633949
v 0.042974 0.118565 0.320737
v 0.034292 0.162499 -0.034292
v -0.100000 0.100000 0.100000
v -0.094411 0.069109 0.366051
v -0.679263 0.118566 -0.042974
v -1.034292 0.162499 -0.034292
v -0.900000 0.100000 0.100000
v -0.633949 0.069109 0.094411
v -0.320737 0.118565 -0.042974
v -0.366052 0.069108 0.094411
v -0.277247 0.185921 -0.174866
v 0.165990 0.236346 -0.165991
v -0.767988 0.236054 -0.312010
v -0.722753 0.185922 -0.174865
v -1.165991 0.236346 -0.165991
v 0.042974 0.118565 0.679263
v 0.174865 0.185921 0.722753
v 0.165991 0.236346 1.165991
v 0.312011 0.236054 0.232012
v 0.174865 0.185921 0.277247
v -1.042974 0.118565 0.320737
v -0.905589 0.069108 0.366051
v -1.174865 0.185922 0.277247
v -1.312011 0.236054 0.767988
v -1.174865 0.185922 0.722753
v -1.165991 0.236346 1.165991
v -0.364162 0.036885 0.364108
v -0.635838 0.036885 0.364108
v -0.635838 0.036885 0.635892
v -0.633949 0.069108 0.905589
v -0.679263 0.118565 1.042974
v -0.722753 0.185921 1.174865
v -0.232012 0.236054 1.312011
v -0.277247 0.185921 1.174865
vt 0.416011 0.834232
vt 0.452550 0.797693
vt 0.452550 0.870771
vt 0.379472 0.870771
vt 0.379472 0.797693
vt 0.416011 0.834232
vt 0.452550 0.797693
vt 0.452550 0.870771
vt 0.379472 0.870771
vt 0.379472 0.797693
vt 0.416011 0.834232
vt 0.452550 0.797693
vt 0.452550 0.870771
vt 0.379472 0.870771
vt 0.379472 0.797693
vt 0.416011 0.834232
vt 0.452550 0.797693
vt 0.452550 0.870771
vt 0.379472 0.870771
vt 0.379472 0.797693
vt 0.824055 0.858490
vt 0.832167 0.858395
vt 0.825462 0.877913
vt 0.721605 0.858490
vt 0.720198 0.877914
vt 0.713494 0.858395
vt 0.721605 0.858490
vt 0.720198 0.877914
vt 0.713494 0.858395
vt 0.824055 0.858490
vt 0.832167 0.858395
vt 0.825462 0.877914
vt 0.251120 0.887839
vt 0.264458 0.885930
vt 0.264458 0.746883
vt 0.251120 0.744974
vt 0.720198 0.877914
vt 0.721605 0.858490
vt 0.249211 0.731635
vt 0.110164 0.731636
vt 0.108255 0.744974
vt 0.094917 0.746883
vt 0.094917 0.885930
vt 0.108255 0.887839
vt 0.886107 0.263060
vt 0.988893 0.365846
vt 0.988893 0.263060
vt 0.718174 0.829144
vt 0.827482 0.829117
vt 0.824040 0.858395
vt 0.721620 0.858395
vt 0.718174 0.829144
vt 0.827482 0.829117
vt 0.824040 0.858395
vt 0.721620 0.858395
vt 0.902019 0.355748
vt 0.903267 0.351892
vt 0.896218 0.351821
vt 0.892434 0.355611
vt 0.886107 0.263060
vt 0.988893 0.365846
vt 0.988893 0.263060
vt 0.886107 0.263060
vt 0.988893 0.365846
vt 0.988893 0.263060
vt 0.886107 0.263060
vt 0.988893 0.365846
vt 0.988893 0.263060
vt 0.903245 0.344801
vt 0.896138 0.344768
vt 0.921280 0.346027
vt 0.917424 0.344775
vt 0.917351 0.351830
vt 0.921142 0.355615
vt 0.892308 0.336492
vt 0.896165 0.337743
vt 0.896238 0.330689
vt 0.892447 0.326904
vt 0.911569 0.326771
vt 0.910321 0.330626
vt 0.917370 0.330698
vt 0.921154 0.326908
vt 0.718174 0.829144
vt 0.827482 0.829117
vt 0.824040 0.858395
vt 0.721620 0.858395
vt 0.903295 0.330607
vt 0.902035 0.326750
vt 0.884669 0.319129
vt 0.888572 0.323031
vt 0.900766 0.322790
vt 0.899454 0.318826
vt 0.912830 0.322796
vt 0.914135 0.318826
vt 0.925026 0.323033
vt 0.928928 0.319131
vt 0.892283 0.346025
vt 0.884661 0.363387
vt 0.888562 0.359486
vt 0.888322 0.347294
vt 0.884359 0.348604
vt 0.888333 0.335229
vt 0.884364 0.333923
vt 0.917450 0.337751
vt 0.921306 0.336493
vt 0.925266 0.335225
vt 0.929230 0.333915
vt 0.925256 0.347289
vt 0.929225 0.348595
vt 0.925017 0.359488
vt 0.928919 0.363389
vt 0.903261 0.337715
vt 0.910343 0.337717
vt 0.910327 0.344804
vt 0.910293 0.351912
vt 0.886107 0.263060
vt 0.988893 0.365846
vt 0.988893 0.263060
vt 0.624863 0.204645
vt 0.538377 0.187935
vt 0.461831 0.186924
vt 0.374935 0.201344
vt 0.886107 0.263060
vt 0.988893 0.365846
vt 0.988893 0.263060
vt 0.624862 0.204645
vt 0.538376 0.187935
vt 0.461831 0.186924
vt 0.374934 0.201344
vt 0.886107 0.263060
vt 0.988893 0.365846
vt 0.988893 0.263060
vt 0.624862 0.204645
vt 0.538376 0.187935
vt 0.461830 0.186924
vt 0.374934 0.201344
vt 0.911553 0.355769
vt 0.912823 0.359729
vt 0.914135 0.363693
vt 0.900759 0.359723
vt 0.899454 0.363693
vt 0.886107 0.263060
vt 0.988893 0.365846
vt 0.988893 0.263060
vt 0.624863 0.204595
vt 0.538377 0.187885
vt 0.461832 0.186874
vt 0.374934 0.201294
vt 0.828317 0.834337
vt 0.824040 0.858395
vt 0.827486 0.829144
vt 0.828317 0.834337
vt 0.828317 0.834336
vt 0.828317 0.834336
vt 0.718174 0.829144
vt 0.721620 0.858395
vn -0.6038 0.7971 0.0000
vn 0.0000 0.7971 0.6038
vn 0.6038 0.7971 0.0000
vn 0.0000 0.7971 -0.6038
vn -0.6568 0.3703 -0.6568
vn -0.6568 0.3704 0.6568
vn 0.6586 0.3721 0.6541
vn 0.6586 0.3721 -0.6541
vn -0.8132 0.5820 0.0000
vn -0.0002 0.5833 -0.8122
vn -0.0002 0.5833 0.8122
vn 0.8132 0.5820 0.0000
vn -0.1770 -0.9682 0.1770
vn -0.0399 -0.8094 0.5860
vn -0.1622 -0.9733 0.1622
vn 0.4615 -0.7568 -0.4630
vn -0.4621 -0.7563 -0.4630
vn -0.0777 -0.9259 -0.3697
vn 0.0791 -0.9255 -0.3704
vn 0.4605 -0.7579 0.4620
vn 0.3671 -0.9268 -0.0790
vn 0.3670 -0.9268 0.0790
vn 0.0000 1.0000 0.0000
vn 0.0598 -0.9233 0.3795
vn 0.0539 -0.9731 0.2240
vn 0.1917 -0.9625 0.1917
vn 0.2546 -0.9329 0.2546
vn 0.1770 -0.9682 -0.1770
vn 0.0399 -0.8095 -0.5858
vn 0.1622 -0.9733 -0.1622
vn -0.1770 -0.9682 -0.1770
vn -0.5859 -0.8094 -0.0399
vn -0.1622 -0.9733 -0.1622
vn 0.1770 -0.9682 0.1770
vn 0.5859 -0.8094 0.0399
vn 0.1622 -0.9733 0.1622
vn 0.0593 -0.9965 0.0593
vn 0.2240 -0.9731 0.0539
vn -0.3795 -0.9233 0.0598
vn -0.2240 -0.9731 0.0539
vn -0.1917 -0.9625 0.1917
vn -0.2546 -0.9329 0.2546
vn 0.3795 -0.9233 -0.0598
vn 0.2240 -0.9731 -0.0539
vn 0.1917 -0.9625 -0.1917
vn 0.2546 -0.9329 -0.2546
vn -0.0598 -0.9233 -0.3795
vn -0.0539 -0.9731 -0.2240
vn -0.1917 -0.9625 -0.1917
vn -0.2546 -0.9329 -0.2546
vn -0.4611 -0.7576 0.4620
vn 0.0791 -0.9255 0.3703
vn -0.0778 -0.9259 0.3696
vn 0.0539 -0.9731 -0.2240
vn 0.0598 -0.9233 -0.3795
vn 0.2321 -0.9446 -0.2321
vn 0.0583 -0.9225 -0.3815
vn -0.0583 -0.9225 -0.3815
vn -0.0399 -0.8095 -0.5858
vn -0.2321 -0.9446 -0.2321
vn 0.3795 -0.9233 0.0598
vn 0.2321 -0.9446 0.2321
vn 0.3815 -0.9225 0.0583
vn 0.3815 -0.9225 -0.0583
vn 0.5859 -0.8094 -0.0399
vn -0.2240 -0.9731 -0.0539
vn -0.3795 -0.9233 -0.0598
vn -0.3815 -0.9225 -0.0583
vn -0.3815 -0.9225 0.0583
vn -0.5859 -0.8094 0.0399
vn -0.2321 -0.9446 0.2321
vn 0.0593 -0.9965 -0.0593
vn -0.0593 -0.9965 -0.0593
vn -0.0593 -0.9965 0.0593
vn -0.0539 -0.9731 0.2240
vn 0.8160 -0.5781 0.0000
vn -0.8160 -0.5781 0.0000
vn -0.0000 -0.5783 -0.8159
vn -0.0598 -0.9233 0.3795
vn -0.0583 -0.9225 0.3815
vn 0.0583 -0.9225 0.3815
vn 0.0399 -0.8094 0.5860
vn 0.0000 -0.5779 0.8161
vn -0.3664 -0.9272 -0.0779
vn -0.3663 -0.9272 0.0779
usemtl Material.002
s off
f 1/1/1 3/2/1 2/3/1
f 2/3/2 4/4/2 1/1/2
f 1/1/3 4/4/3 5/5/3
f 5/5/4 3/2/4 1/1/4
f 6/6/1 8/7/1 7/8/1
f 7/8/2 9/9/2 6/6/2
f 6/6/3 9/9/3 10/10/3
f 10/10/4 8/7/4 6/6/4
f 11/11/1 13/12/1 12/13/1
f 12/13/2 14/14/2 11/11/2
f 11/11/3 14/14/3 15/15/3
f 15/15/4 13/12/4 11/11/4
f 16/16/1 18/17/1 17/18/1
f 17/18/2 19/19/2 16/16/2
f 16/16/3 19/19/3 20/20/3
f 20/20/4 18/17/4 16/16/4
f 21/21/5 23/22/5 22/23/5
f 24/24/6 26/25/6 25/26/6
f 27/27/7 29/28/7 28/29/7
f 30/30/8 32/31/8 31/32/8
f 22/33/9 23/34/9 25/35/9 26/36/9
f 21/21/10 22/23/10 31/37/10 32/38/10
f 26/36/11 24/39/11 28/40/11 29/41/11
f 29/41/12 27/42/12 30/43/12 31/44/12
s 1
f 33/45/13 35/46/14 34/47/15
f 36/48/16 37/49/17 21/50/18 32/51/19
f 38/52/20 36/53/16 30/54/21 27/55/22
f 22/33/23 26/36/23 29/41/23 31/44/23
f 39/56/24 42/57/25 41/58/26 40/59/27
f 43/60/28 44/61/29 36/62/30
f 45/63/31 46/64/32 37/65/33
f 47/66/34 48/67/35 38/68/36
f 49/69/37 50/70/38 41/58/26 42/57/25
f 51/71/39 54/72/40 53/73/41 52/74/42
f 55/75/43 58/76/44 57/77/45 56/78/46
f 59/79/47 62/80/48 61/81/49 60/82/50
f 34/83/51 38/84/20 28/85/52 24/86/53
f 56/78/46 57/77/45 64/87/54 63/88/55
f 63/88/55 64/87/54 62/80/48 59/79/47
f 43/89/28 66/90/56 65/91/57 44/92/29
f 66/90/56 56/78/46 63/88/55 65/91/57
f 44/92/29 65/91/57 68/93/58 67/94/59
f 65/91/57 63/88/55 59/79/47 68/93/58
f 67/94/59 68/93/58 69/95/60 45/96/31
f 68/93/58 59/79/47 60/82/50 69/95/60
f 40/59/27 41/58/26 50/70/38 70/97/61
f 70/97/61 50/70/38 58/76/44 55/75/43
f 47/98/34 72/99/62 71/100/63 48/101/35
f 72/99/62 40/59/27 70/97/61 71/100/63
f 48/101/35 71/100/63 74/102/64 73/103/65
f 71/100/63 70/97/61 55/75/43 74/102/64
f 73/103/65 74/102/64 66/90/56 43/89/28
f 74/102/64 55/75/43 56/78/46 66/90/56
f 60/82/50 61/81/49 76/104/66 75/105/67
f 75/105/67 76/104/66 54/72/40 51/71/39
f 45/96/31 69/95/60 77/106/68 46/107/32
f 69/95/60 60/82/50 75/105/67 77/106/68
f 46/107/32 77/106/68 79/108/69 78/109/70
f 77/106/68 75/105/67 51/71/39 79/108/69
f 78/109/70 79/108/69 80/110/71 33/111/13
f 79/108/69 51/71/39 52/74/42 80/110/71
f 64/87/54 57/77/45 58/76/44 81/112/72
f 81/112/72 58/76/44 50/70/38 49/69/37
f 61/81/49 62/80/48 82/113/73 76/104/66
f 62/80/48 64/87/54 81/112/72 82/113/73
f 76/104/66 82/113/73 83/114/74 54/72/40
f 82/113/73 81/112/72 49/69/37 83/114/74
f 54/72/40 83/114/74 84/115/75 53/73/41
f 83/114/74 49/69/37 42/57/25 84/115/75
f 36/116/30 73/117/65 43/118/28
f 38/119/76 48/120/35 73/121/65 36/122/76
f 34/123/15 78/124/70 33/125/13
f 37/126/77 46/127/32 78/128/70 34/129/77
f 37/130/33 67/131/59 45/132/31
f 36/133/78 44/134/29 67/135/59 37/136/78
f 52/74/42 53/73/41 84/115/75 85/137/79
f 85/137/79 84/115/75 42/57/25 39/56/24
f 33/111/13 80/110/71 86/138/80 35/139/14
f 80/110/71 52/74/42 85/137/79 86/138/80
f 35/139/14 86/138/80 88/140/81 87/141/82
f 86/138/80 85/137/79 39/56/24 88/140/81
f 87/141/82 88/140/81 72/99/62 47/98/34
f 88/140/81 39/56/24 40/59/27 72/99/62
f 38/142/36 87/143/82 47/144/34
f 34/145/83 35/146/14 87/147/82 38/148/83
f 21/50/18 37/49/17 23/149/84
f 25/150/85 34/151/51 24/152/53
f 28/85/52 38/84/20 27/153/22
f 30/54/21 36/53/16 32/154/19
f 37/155/17 34/151/51 25/150/85 23/156/84
